<svg width="420" height="330" viewBox="0 0 220 130" fill="none" xmlns="http://www.w3.org/2000/svg">
<path d="M80.7295 8.91919H10.1182V75.0729H80.7295V8.91919Z" fill="#E6EEF2"/>
<path d="M83.4517 11.6802H12.8403V77.8339H83.4517V11.6802Z" stroke="#E6EEF2" stroke-miterlimit="10"/>
<path d="M20.7692 74.9154H10L69.8421 8.99829H80.6508L20.7692 74.9154Z" fill="white"/>
<path d="M80.7299 18.7419V21.306L32.012 74.9943H29.6846L80.7299 18.7419Z" fill="white"/>
<path d="M204.792 8.64307H134.181V74.7968H204.792V8.64307Z" fill="#E6EEF2"/>
<path d="M207.554 11.4043H136.943V77.5581H207.554V11.4043Z" stroke="#E6EEF2" stroke-miterlimit="10"/>
<path d="M144.872 74.6787H134.103L193.945 8.72217H204.714L144.872 74.6787Z" fill="white"/>
<path d="M204.792 18.5046V21.0687L156.074 74.757H153.747L204.792 18.5046Z" fill="white"/>
<path d="M48.1457 110.024C48.1457 109.826 48.1457 109.629 48.1063 109.432C47.7512 109.392 47.3568 109.353 46.9623 109.313C46.6467 73.6922 46.41 39.1361 47.1201 15.783C47.4356 15.8225 47.7907 15.8225 48.1063 15.8619C48.1852 15.6647 48.264 15.428 48.3035 15.2308C51.1832 20.0828 54.4179 24.7376 57.4948 29.0374L57.7709 28.8402C54.6546 24.4615 51.341 19.6883 48.4218 14.7574C48.4613 14.4418 48.5007 14.1262 48.4613 13.8106C48.0668 13.6923 47.6329 13.574 47.199 13.4556C47.2779 10.8126 47.3962 8.32741 47.5145 6H43.5303C43.8065 8.13017 44.0431 10.4576 44.2798 12.9033C44.0431 12.9033 43.8065 12.8639 43.5698 12.8639C43.4514 13.4162 43.3725 13.9684 43.2936 14.5207L34.5757 24.501L34.8518 24.7376L43.2542 15.1124C43.2542 15.3491 43.2147 15.5858 43.2147 15.8225C43.6487 15.8225 44.0826 15.783 44.5165 15.783C46.2522 38.9388 45.6999 73.6528 45.2266 109.274C44.7532 109.274 44.2404 109.274 43.767 109.274C43.7276 109.55 43.7276 109.826 43.7276 110.102C39.1911 114.481 33.629 117.874 27.6724 119.885C29.8814 119.964 32.1694 119.964 34.3785 119.846C34.1418 119.728 34.0234 119.452 34.1023 119.215C34.1812 118.978 34.4179 118.781 34.5757 118.623C37.5343 116.059 40.6506 113.653 43.8065 111.365C43.8854 111.72 43.9643 112.075 44.0431 112.39C44.5165 112.43 44.9899 112.43 45.4633 112.43C45.4238 115.665 45.5422 119.412 44.2798 119.925C45.5027 120.043 46.6072 120.043 47.8301 119.885C46.8045 119.136 46.5284 115.546 46.3311 112.43C46.8045 112.39 47.2779 112.39 47.7907 112.351C47.8696 112.035 47.9485 111.72 47.9879 111.404C51.1832 113.692 54.2601 116.098 57.2187 118.663C57.4159 118.82 57.6131 119.018 57.692 119.254C57.7709 119.491 57.6526 119.767 57.4159 119.885C59.625 120.004 61.9129 120.004 64.122 119.925C58.2443 117.795 52.6822 114.442 48.1457 110.024Z" fill="#312D1B"/>
<path d="M23.5698 26.4734L30.1181 90.6153L66.6072 90.1025L68.0668 34.3235C53.5501 30.6548 38.7177 28.0907 23.5698 26.4734Z" fill="#F5F5F5"/>
<path d="M69.8024 31.72C70.3152 32.0751 68.8162 34.363 68.0667 34.363C53.2344 31.9962 38.4021 28.8798 23.5697 26.5129C22.8597 26.5918 22.3863 22.7654 23.0964 22.6865C39.191 24.1855 55.049 27.1047 69.8024 31.72ZM32.1299 95.862C43.333 93.219 54.8123 91.7988 66.2916 91.5622C66.8044 91.5622 67.0411 90.1815 66.6071 90.0631C54.4967 88.4458 42.189 88.643 30.1181 90.576C28.7768 91.1282 30.7887 96.3748 32.1299 95.862Z" fill="#312D1B"/>
<path d="M62.7809 87.6565C57.4554 86.7886 52.2089 86.3547 46.9624 86.3153C44.3588 86.3153 41.7553 86.3942 39.1912 86.552L37.2582 86.7097L35.3253 86.907L33.3924 87.1437L31.3016 87.4198C31.0255 84.974 30.7888 82.5283 30.5127 80.0825C30.276 77.6762 30.0393 75.3094 29.8026 72.9031C29.3293 68.1299 28.8953 63.3567 28.422 58.5441C27.5147 48.9583 26.5679 39.2542 25.4634 29.2739C26.7257 39.2542 27.7908 48.9583 28.777 58.5441C29.7237 68.0904 30.6705 77.5184 31.6172 86.9859L33.3529 86.7492L35.2859 86.552L37.2188 86.3942L39.1517 86.2758C41.7553 86.118 44.3588 86.0786 46.9624 86.118C52.2484 86.1969 57.4949 86.7097 62.7809 87.6565Z" fill="#79CFCD"/>
<path d="M64.8322 31.2068C58.1655 29.5895 51.7355 28.2877 45.2661 27.2226C38.7967 26.1181 32.3273 25.2502 25.4634 24.5796C32.3667 24.9741 38.915 25.763 45.3845 26.8281C51.8933 27.9327 58.2838 29.3528 64.8322 31.2068Z" fill="#312D1B"/>
<path d="M63.9248 90.5755C58.3233 90.3783 52.9978 90.1416 47.6724 90.2994C42.3469 90.4572 37.0215 90.97 31.6172 92.4296C36.9821 90.6939 42.3864 90.0627 47.7118 89.9049C53.0767 89.7471 58.4022 90.1022 63.9248 90.5755Z" fill="#312D1B"/>
<path d="M63.8066 118.11L64.4772 107.183L69.2109 108.761L67.6725 119.924L63.6094 118.504L63.8066 118.11Z" fill="#FACBB6"/>
<path d="M68.58 117.873C68.58 117.873 64.9114 118.781 63.6096 116.217L54.5366 119.372L69.1323 121.581L68.58 117.873Z" fill="#312D1B"/>
<path d="M54.3394 120.634L68.9744 122.843L69.1322 121.581L54.5366 119.372L54.3394 120.634Z" fill="white"/>
<path d="M74.7337 66.8279L74.497 67.5379C72.0907 71.5222 69.8422 76.4926 68.3037 80.9501L64.2406 92.6661C63.8067 93.889 63.5305 95.1513 63.4516 96.4136L61.9526 113.692L70.0394 114.283L72.0907 96.887L81.637 78.3466L81.1242 67.4985L74.7337 66.8279Z" fill="#312D1B"/>
<path d="M91.3016 115.112L85.4634 105.96L90.1577 104.264L95.4436 114.126L91.3805 115.546L91.3016 115.112Z" fill="#FACBB6"/>
<path d="M94.9701 111.917C94.9701 111.917 92.5637 114.954 90.0391 113.692L84.6348 121.857L97.5736 114.52L94.9701 111.917Z" fill="#312D1B"/>
<path d="M85.2659 123.001L98.2048 115.664L97.5736 114.52L84.6348 121.897L85.2659 123.001Z" fill="white"/>
<path d="M77.1396 77.1234L78.9148 94.5988C78.9937 95.4272 79.2304 96.2161 79.546 96.9656L86.8043 113.1L94.0627 108.997L87.7905 94.4015L88.0667 81.7783C88.0667 81.7783 88.7767 70.2596 85.0686 65.8809L78.0864 67.0248L77.1396 77.1234Z" fill="#312D1B"/>
<path d="M60.8084 56.2952L64.2403 59.6088L62.8597 61.8573L59.2305 57.9125L60.8084 56.2952Z" fill="#FACBB6"/>
<path d="M60.8083 56.2954V52.114C60.8083 51.9168 60.6505 51.7195 60.4533 51.6801C60.2166 51.6406 59.9799 51.759 59.9405 51.9957L59.6249 53.1396L56.9424 50.2205C56.7057 49.9838 56.3113 50.0233 56.1535 50.3389L55.2462 51.9957C55.1673 52.114 55.1673 52.3112 55.2462 52.4296C55.7196 53.4158 57.6525 57.2422 59.2698 57.9522L60.8083 56.2954Z" fill="#FACBB6"/>
<path d="M76.2722 49.3924C76.2722 49.3924 77.1795 51.4437 72.8402 61.8973C72.8402 61.8973 70.4734 66.2366 69.4083 66.3944C67.712 66.631 62.9783 64.0669 59.3491 58.8598L62.071 56.848L67.3964 59.9249L70.5128 51.8381C70.5523 51.7987 72.3669 46.4338 76.2722 49.3924Z" fill="#FFD049"/>
<path d="M80.6902 45.8813L87.8302 49.0372C88.3431 49.2738 88.6192 49.7867 88.5797 50.3389L86.8046 68.9188C86.8046 68.9188 79.6251 71.049 73.1952 69.7472L71.8539 50.6151C71.775 50.0628 71.9723 49.5105 72.4062 49.1161L76.9821 45.9208L80.6902 45.8813Z" fill="#FFD049"/>
<path d="M80.3745 64.0279L85.1477 63.949L85.7788 66.5131L80.414 66.3158L80.3745 64.0279Z" fill="#FACBB6"/>
<path d="M80.3746 64.0277L77.3765 61.0691C77.2187 60.9113 76.9821 60.9113 76.8243 61.0297C76.627 61.148 76.5481 61.4241 76.6665 61.6214L77.2582 62.647L74.6547 62.9626C74.3391 62.9626 74.0629 63.2782 74.1813 63.5938L74.7336 65.4084C74.773 65.5662 74.8913 65.6845 75.0491 65.724C76.0748 66.079 78.7572 66.9468 80.414 66.2762L80.3746 64.0277Z" fill="#FACBB6"/>
<path d="M88.1063 49.1948C88.1063 49.1948 90.1576 50.1021 93.8657 60.3585C93.8657 60.3585 95.2464 64.3033 94.5757 65.0528C93.4712 66.2757 87.9485 68.2086 81.7947 66.749L81.7158 63.396L88.5008 62.3704L85.4633 54.5597C85.4633 54.5992 83.2543 49.5499 88.1063 49.1948Z" fill="#FFD049"/>
<path d="M76.1145 38.9384C76.154 39.8457 75.4833 40.5952 74.6155 40.6346C73.7476 40.6741 72.9981 39.964 72.9587 39.0567C72.9192 38.1494 73.5899 37.3999 74.4577 37.3605C75.3256 37.321 76.0751 38.0311 76.1145 38.9384Z" fill="#FACBB6"/>
<path d="M76.8639 42.8044L76.7456 45.763C76.7061 47.1437 77.4951 47.8932 78.7968 47.8932C79.9014 47.9327 81.5187 47.1437 81.4793 45.9603V41.0293L76.8639 42.8044Z" fill="#FACBB6"/>
<path d="M76.7847 45.3685C76.7847 45.3685 80.6505 45.2896 81.7156 41.7393C82.0706 40.6348 76.8636 42.3705 76.8636 42.3705L76.7847 45.3685Z" fill="#EABEAC"/>
<path d="M77.9685 43.9486C75.7594 43.9091 73.9448 42.0156 73.9448 40.1616V36.2168C73.9448 33.85 75.72 31.917 78.0079 31.8381C80.3353 31.7198 82.7022 33.5738 82.8205 35.9801L82.7811 39.0571C82.7417 41.8184 80.6509 43.8302 77.9685 43.9486Z" fill="#FACBB6"/>
<path d="M75.1676 29.7867C76.0354 29.4712 78.2445 29.1556 78.5995 31.0885C80.7692 31.0096 84.2011 31.2069 84.4772 33.1003C84.8717 35.8617 82.781 38.5047 82.781 38.5047L82.2287 38.7414C82.2287 38.7414 80.848 37.9524 81.4003 34.6783C81.4003 34.6783 76.351 35.6644 74.063 34.2838C71.7751 32.9426 72.564 30.7729 75.1676 29.7867Z" fill="#312D1B"/>
<path d="M84.8324 39.0569C84.8718 39.9642 84.2012 40.7137 83.3334 40.7532C82.4655 40.7926 81.7555 40.0825 81.716 39.2147C81.6766 38.3074 82.3472 37.5579 83.215 37.5184C84.0434 37.4395 84.7929 38.1496 84.8324 39.0569Z" fill="#FACBB6"/>
<path d="M76.9426 45.8814L75.7591 46.7098C75.7591 46.7098 75.0491 48.6822 78.4021 48.9189C81.7552 49.1556 82.7414 46.7492 82.7414 46.7492L80.3745 45.5264L76.9426 45.8814Z" fill="#FACBB6"/>
<path d="M99.7437 78.5837V121.7" stroke="#312D1B" stroke-width="1.9084" stroke-miterlimit="10"/>
<path d="M83.185 79.7449H116.242V77.378H83.185V79.7449Z" fill="#FFD049"/>
<path d="M92.4064 77.2421H108.738C109.211 77.2421 109.606 76.8082 109.606 76.2954C109.606 75.7826 109.211 75.3486 108.738 75.3486H92.4064C91.933 75.3486 91.5386 75.7826 91.5386 76.2954C91.5386 76.8082 91.933 77.2421 92.4064 77.2421Z" fill="#312D1B"/>
<path d="M92.2878 76.5718C92.3273 76.5718 92.3667 76.5717 92.4062 76.5323C92.5245 76.4534 92.564 76.2956 92.4851 76.1378L84.201 61.7789C84.1222 61.6605 83.9644 61.6211 83.846 61.7C83.7277 61.7789 83.6882 61.9367 83.7671 62.0945L92.0511 76.4534C92.0906 76.5323 92.1695 76.5718 92.2878 76.5718Z" fill="#312D1B"/>
<path d="M126.883 84.738L109.684 85.2114C106.765 85.3298 104.595 88.17 104.99 91.3258C105.345 93.9294 107.435 95.9017 109.842 95.9017H130.315C130.315 95.9017 137.692 93.0615 135.364 86.1582L126.883 84.738Z" fill="#E6EEF2"/>
<path d="M108.974 118.741L106.094 120.28C105.779 120.437 105.621 120.832 105.7 121.187C105.779 121.463 106.015 121.7 106.647 121.7C108.067 121.739 114.378 120.713 114.378 120.713V121.424L117.297 121.069C117.297 121.069 117.495 117.439 116.627 116.927L108.974 118.741Z" fill="#312D1B"/>
<path d="M113.589 115.112L108.935 118.741C108.935 118.741 109.447 120.122 111.617 119.215C113.826 118.307 116.548 116.887 116.548 116.887L116.153 114.718L113.589 115.112Z" fill="#EFBEAB"/>
<path d="M116.627 116.888L113.826 103.239L109.171 103.712L113.076 116.414L116.627 116.888Z" fill="#EFBEAB"/>
<path d="M104.99 91.3259L108.895 113.732H117.771L114.339 91.681L104.99 91.3259Z" fill="#E6EEF2"/>
<path d="M126.055 84.738L113.077 85.2114C110.157 85.3298 107.988 88.17 108.382 91.3258C108.737 93.9294 110.828 95.9017 113.234 95.9017H133.708C133.708 95.9017 141.084 93.0615 138.757 86.1582L126.055 84.738Z" fill="#E6EEF2"/>
<path d="M112.367 118.741L109.487 120.28C109.171 120.437 109.013 120.832 109.092 121.187C109.171 121.463 109.408 121.7 110.039 121.7C111.459 121.739 117.771 120.713 117.771 120.713V121.424L120.69 121.069C120.69 121.069 120.887 117.439 120.019 116.927L112.367 118.741Z" fill="#312D1B"/>
<path d="M117.021 115.112L112.366 118.741C112.366 118.741 112.879 120.122 115.049 119.215C117.258 118.307 119.98 116.887 119.98 116.887L119.585 114.718L117.021 115.112Z" fill="#FACBB6"/>
<path d="M120.019 116.888L117.218 103.239L112.563 103.712L116.508 116.414L120.019 116.888Z" fill="#FACBB6"/>
<path d="M108.422 91.3259L112.288 113.732H121.163L117.732 91.681L108.422 91.3259Z" fill="#E6EEF2"/>
<path d="M131.378 114.683H134.139V98.1146H131.378V114.683Z" fill="#E6EEF2"/>
<path d="M133.431 112.588L141.4 116.493L141.281 117.598L132.958 114.718L133.431 112.588Z" fill="#E6EEF2"/>
<path d="M132.09 112.588L124.122 116.493L124.24 117.598L132.524 114.718L132.09 112.588Z" fill="#E6EEF2"/>
<path d="M141.045 121.621C142.091 121.621 142.938 120.702 142.938 119.569C142.938 118.436 142.091 117.518 141.045 117.518C139.999 117.518 139.151 118.436 139.151 119.569C139.151 120.702 139.999 121.621 141.045 121.621Z" fill="#312D1B"/>
<path d="M124.122 121.621C125.168 121.621 126.015 120.702 126.015 119.569C126.015 118.436 125.168 117.518 124.122 117.518C123.076 117.518 122.229 118.436 122.229 119.569C122.229 120.702 123.076 121.621 124.122 121.621Z" fill="#312D1B"/>
<path d="M124.95 99.2934H141.006C141.913 99.2934 142.623 98.5045 142.623 97.5577C142.623 96.611 141.913 95.822 141.006 95.822H124.95C124.043 95.822 123.333 96.611 123.333 97.5577C123.333 98.5045 124.043 99.2934 124.95 99.2934Z" fill="#FFD049"/>
<path d="M127.002 64.6577L120.177 74.638C119.151 76.137 119.309 78.1883 120.532 79.49C121.992 81.0285 124.398 80.8313 125.621 79.0167L131.735 70.0621L127.002 64.6577Z" fill="#FFD049"/>
<path d="M114.299 69.7461C114.299 69.7461 113.077 67.2609 110.986 66.6692C109.368 66.2353 108.027 68.8783 107.514 70.0617C107.396 70.3378 107.514 70.6929 107.791 70.7718C107.948 70.8112 108.106 70.7323 108.225 70.614L108.777 69.7856C108.777 69.7856 108.658 71.5607 110.079 71.4029C111.499 71.2451 111.933 70.6534 111.933 70.6534L113.51 71.8368L114.299 69.7461Z" fill="#FACBB6"/>
<path d="M124.082 74.7955L114.142 67.5371L111.499 71.8369L121.755 80.397L124.082 74.7955Z" fill="#79CFCD"/>
<path d="M126.725 62.4883C126.725 62.4883 131.183 64.3818 134.378 71.0879C137.573 77.794 138.796 86.1174 138.796 86.1174C138.796 86.1174 132.879 87.8926 126.055 84.6973L123.648 76.3344C123.648 76.3344 121.518 73.652 123.648 65.2496L126.725 62.4883Z" fill="#79CFCD"/>
<path d="M111.972 72.4293C111.972 72.4293 110.276 70.3386 108.146 70.3386C106.489 70.3386 105.739 73.2577 105.463 74.5595C105.384 74.8751 105.621 75.1512 105.897 75.1512C106.055 75.1512 106.213 75.0329 106.292 74.8751L106.686 73.9283C106.686 73.9283 106.923 75.7035 108.264 75.1512C109.605 74.599 109.921 73.9283 109.921 73.9283L111.696 74.6384L111.972 72.4293Z" fill="#FACBB6"/>
<path d="M122.149 75.427L110.907 70.8511L109.29 75.7426L121.084 81.4625L122.149 75.427Z" fill="#79CFCD"/>
<path d="M126.134 65.7629L119.309 75.7432C118.284 77.2422 118.442 79.2935 119.664 80.5953C121.124 82.1337 123.53 81.9365 124.753 80.1219L130.868 71.1673L126.134 65.7629Z" fill="#79CFCD"/>
<path d="M120.926 57.9126L117.928 58.0309C116.311 59.8455 116.942 63.3564 116.942 63.3564L121.834 61.8179L120.926 57.9126Z" fill="#312D1B"/>
<path d="M120.572 60.4766L123.649 65.2893L126.726 62.4885L122.229 55.4668L120.572 60.4766Z" fill="#FACBB6"/>
<path d="M122.228 63.0408L122.188 59.7666L120.887 60.9895L122.228 63.0408Z" fill="#EFBEAA"/>
<path d="M116.627 50.6937C116.627 50.6937 114.575 51.7588 115.246 54.7173C115.246 54.7173 115.759 56.8475 116.508 59.9244C116.903 61.5418 118.599 62.4096 119.94 61.6207C120.769 61.1473 121.637 60.4373 122.347 59.4116L123.254 57.7548C125.226 53.3367 121.084 48.5635 116.942 50.5359C116.824 50.6148 116.745 50.6542 116.627 50.6937Z" fill="#FACBB6"/>
<path d="M116.311 57.6758L115.601 58.9776C115.522 59.1748 115.64 59.3721 115.838 59.3326L116.824 59.1354L116.311 57.6758Z" fill="#FACBB6"/>
<path d="M120.887 55.0329C120.887 55.0329 120.256 47.5772 115.404 52.1926C115.404 52.1926 116.548 47.6561 122.149 48.4056C123.333 48.5634 124.753 49.5891 125.266 50.7725C126.094 52.6265 125.542 54.5989 124.753 58.1887L122.228 56.4135C121.992 55.9796 120.887 55.0329 120.887 55.0329Z" fill="#312D1B"/>
<path d="M122.149 52.3899L121.794 55.6641C113.905 55.4669 116.232 50.7726 116.232 50.7726C116.232 50.7726 121.558 47.0645 122.149 52.3899Z" fill="#312D1B"/>
<path d="M118.875 54.9147L120.335 56.2559L121.084 53.9285L118.875 54.9147Z" fill="#312D1B"/>
<path d="M117.376 50.8517C117.376 50.8517 115.009 52.0745 115.167 54.0469C115.167 54.0469 112.643 52.469 116.429 50.2994C118.678 49.0371 117.376 50.8517 117.376 50.8517Z" fill="#312D1B"/>
<path d="M121.755 56.5714C121.755 56.5714 123.175 59.9639 123.175 61.3445L129.132 59.096C129.132 59.096 127.396 57.1236 126.844 55.3879C126.41 54.0073 126.212 50.5753 123.609 49.0369L123.727 53.5733L121.755 56.5714Z" fill="#312D1B"/>
<path d="M123.136 55.3879C123.412 56.2163 123.057 57.163 122.268 57.4786C121.518 57.7942 120.651 57.3603 120.335 56.5319C120.059 55.7035 120.414 54.7567 121.203 54.4411C121.992 54.1256 122.86 54.5595 123.136 55.3879Z" fill="#FACBB6"/>
<path d="M126.725 62.4883C126.725 62.4883 125.778 65.4863 123.333 66.6303L124.043 63.2772L126.725 62.4883Z" fill="#FACBB6"/>
<path d="M132.209 47.5382L134.812 49.0372L134.615 50.5757L136.666 52.4297L133.944 55.5461L127.633 51.2463C127.633 51.2463 129.329 45.8814 129.724 45.9997C130.118 46.197 132.209 47.5382 132.209 47.5382Z" fill="#F6B69A"/>
<path d="M128.461 46.0391L129.566 54.0075L133.984 54.1258L135.049 46.0391H128.461Z" fill="#CDEAFB"/>
<path d="M127.515 46.1573H135.838V45.3684H135.049V44.1455L128.304 45.0528L128.264 45.4867H127.515V46.2362" fill="#79CFCD"/>
<path d="M128.106 51.4431C126.568 51.5614 128.501 47.7744 128.501 47.7744C128.501 47.7744 132.643 47.5377 132.682 47.735C132.722 47.9322 132.722 48.2872 132.367 48.3661C132.051 48.445 129.448 48.7606 129.448 48.7606C129.448 48.7606 132.13 48.879 132.091 49.1551C132.012 49.5496 131.696 49.589 130.907 49.7074C130.237 49.7863 128.737 49.8257 128.737 49.8257C128.737 49.8257 131.578 49.8652 131.538 50.0624C131.459 50.2202 131.657 50.7724 130.67 50.6147C128.422 50.2991 128.106 51.4431 128.106 51.4431Z" fill="#FACBB6"/>
<path d="M134.773 48.1689C134.773 48.1689 135.759 46.3543 136.982 46.4332C136.982 46.4332 135.523 48.0505 135.325 49.1551C135.128 50.2596 135.049 51.0091 135.049 51.0091H134.418L134.773 48.1689Z" fill="#F6B69A"/>
<path d="M146.765 66.7883C146.765 66.7883 142.544 93.7311 144.517 99.451C146.489 105.171 147.239 110.339 147.239 110.339L157.022 107.735C157.022 107.735 153.787 94.2439 153.314 91.6798C152.84 89.0763 157.85 68.0507 157.85 68.0507L146.765 66.7883Z" fill="#312D1B"/>
<path d="M151.38 68.7214L155.996 112.035H165.345C165.345 112.035 162.307 66.1968 162.86 65.8023C163.412 65.4473 151.38 68.7214 151.38 68.7214Z" fill="#312D1B"/>
<path d="M147.672 42.3311C147.672 42.3311 146.686 56.8478 144.516 56.335C142.347 55.8221 136.588 52.0352 136.588 52.0352L133.077 55.5066C133.077 55.5066 143.767 66.2758 148.146 61.8576C152.603 57.4789 147.672 42.3311 147.672 42.3311Z" fill="#312D1B"/>
<path d="M150.592 119.254L149.961 116.335L156.785 113.85L157.85 118.189L157.456 118.229C155.917 118.86 148.501 121.976 147.318 122.094C146.016 122.213 150.592 119.254 150.592 119.254Z" fill="#312D1B"/>
<path d="M166.805 76.6506L166.055 77.6368C166.055 77.6368 165.7 78.3074 164.832 79.2936C164.596 79.5698 164.319 79.767 164.004 79.9642C163.609 80.1615 163.097 80.4376 162.781 80.5165C162.386 80.5954 162.268 81.0688 162.623 81.2266C162.978 81.3844 164.122 81.1477 165.187 80.4376C166.252 79.6881 165.779 81.5816 165.582 82.2522C165.424 82.9228 164.99 85.053 165.187 85.2897C165.463 85.6052 165.897 85.408 166.055 84.698C166.213 83.9879 166.805 81.9761 167.199 82.0944C167.594 82.1733 166.686 85.6447 166.686 85.6447C166.686 85.6447 166.371 86.3548 166.805 86.4731C167.633 86.7098 168.304 82.9623 168.343 82.6072C168.383 82.3705 168.816 82.4494 168.738 82.7256C168.698 83.0017 167.751 86.1575 168.58 86.3942C169.211 86.5914 169.171 83.3173 169.763 82.765C170.355 82.2128 169.527 85.2502 170.118 85.408C170.355 85.4475 170.513 85.4869 170.749 83.6723C170.947 81.8183 170.631 76.7295 170.631 76.7295L166.726 76.769" fill="#FACBB6"/>
<path d="M153.234 37.4393C153.313 36.8476 152.998 34.4413 152.998 34.4413C152.998 34.4413 150.552 34.2835 150.315 32.0744C150.079 29.8654 150.039 24.8161 150.039 24.8161L154.418 22.7253L159.428 25.9601L160.572 28.3664L159.073 34.0863V36.966L153.234 37.4393Z" fill="#F6B69A"/>
<path d="M152.998 34.4415C152.998 34.4415 154.615 34.4021 156.193 33.3765C156.193 33.3765 155.522 34.9938 153.076 34.9938L152.998 34.4415Z" fill="#F19180"/>
<path d="M160.493 30.7724C159.822 32.1136 159.428 34.0465 159.428 34.0465C159.073 34.6383 158.954 32.7448 158.954 32.7448C158.954 32.7448 158.639 30.8907 158.915 30.1807C158.915 30.1807 160.138 30.5357 160.414 28.5239C160.532 27.5377 158.915 27.0643 158.442 28.2477L157.416 28.3266C157.416 28.3266 157.337 24.5791 154.97 25.2497C154.97 25.2497 153.234 26.1965 152.209 25.6047C151.183 25.013 151.262 24.8158 151.262 24.8158C151.262 24.8158 150.749 25.802 149.447 25.1708C148.106 24.5397 147.948 23.3562 148.422 22.804C148.698 22.4884 148.935 22.1334 149.369 22.0545C149.802 21.9756 150.276 22.1334 150.552 22.4489C150.236 22.015 150.473 21.3838 150.946 21.0683C151.42 20.7921 152.09 20.7921 152.603 20.9894C153.116 21.1866 153.589 21.5022 154.023 21.8572C154.339 21.0683 155.246 20.516 156.193 20.5949C157.1 20.6738 157.929 21.3444 158.086 22.1728C158.599 21.6205 159.546 21.5022 160.256 21.7783C160.966 22.0545 161.44 22.7645 161.597 23.4746C161.716 24.1846 161.558 24.9341 161.282 25.6047C161.834 25.3286 162.623 25.5259 162.978 25.9992C163.333 26.4726 163.372 27.1432 163.096 27.656C162.82 28.1688 162.307 28.5633 161.755 28.8395C162.189 29.155 162.307 29.7468 162.031 30.1807C161.755 30.6146 161.163 30.8513 160.651 30.6935" fill="#312D1B"/>
<path d="M158.757 29.4314C158.757 29.4314 158.796 29.4708 158.836 29.4708C158.875 29.5103 158.994 29.5103 159.112 29.5103C159.349 29.4314 159.546 29.1553 159.585 28.8002C159.585 28.6424 159.585 28.4846 159.506 28.3268C159.467 28.1691 159.349 28.0902 159.27 28.0507C159.151 28.0113 159.072 28.0902 159.033 28.1296C158.994 28.1691 158.994 28.2085 158.994 28.2085C158.994 28.2085 158.954 28.1691 158.954 28.0902C158.954 28.0507 158.994 28.0113 159.033 27.9718C159.072 27.9324 159.151 27.9324 159.23 27.9324C159.388 27.9324 159.506 28.0902 159.585 28.248C159.664 28.4057 159.704 28.603 159.664 28.7608C159.625 29.1553 159.388 29.4708 159.072 29.5497C158.915 29.5892 158.796 29.5103 158.757 29.4708C158.757 29.4708 158.757 29.4314 158.757 29.4314Z" fill="#F19180"/>
<path d="M168.895 43.1989C168.895 43.1989 167.238 36.2166 159.112 36.9267C151.696 37.5973 151.696 37.5973 151.696 37.5973C151.696 37.5973 146.607 39.5302 147.317 45.0529C148.027 50.5361 148.382 55.5854 148.185 56.5322C147.988 57.5184 146.212 66.1574 146.765 66.7491C152.13 72.6268 165.778 63.2383 165.778 63.2383L168.895 43.1989Z" fill="#CDEAFB"/>
<path d="M159.112 36.9665L161.006 77.8738L166.647 75.1124L166.055 38.8206C166.016 38.8206 164.517 36.4537 159.112 36.9665Z" fill="#312D1B"/>
<path d="M170.828 77.3997L168.895 43.238C168.303 41.1473 167.002 39.5299 165.345 38.1887V77.8731L170.828 77.3997Z" fill="#312D1B"/>
<path d="M153.235 37.4398C153.235 37.4398 148.185 39.7277 148.422 47.3806C148.659 55.0729 145.384 76.7691 145.384 76.7691L141.164 75.9801C141.164 75.9801 146.055 55.4279 146.252 51.7987C146.45 48.1301 146.095 42.923 148.856 39.3332C150.789 36.8086 153.235 37.4398 153.235 37.4398Z" fill="#312D1B"/>
<path d="M159.112 36.9658C159.112 36.9658 160.769 40.3189 160.611 41.5812C160.454 42.8041 159.862 45.4076 159.862 45.4076C159.862 45.4076 161.085 46.0782 161.006 46.6699C160.927 47.2617 159.743 53.1788 159.743 53.1788L159.112 36.9658Z" fill="#312D1B"/>
<path d="M164.438 45.2898C164.477 45.2898 164.517 45.7237 164.596 46.5521C164.674 47.3805 164.753 48.564 164.793 50.0235C164.911 52.9821 165.03 57.0452 165.108 61.5422C165.187 66.0393 165.227 70.1024 165.306 73.061C165.345 74.5205 165.345 75.704 165.385 76.5324C165.424 77.3608 165.385 77.7947 165.385 77.7947C165.345 77.7947 165.306 77.3608 165.227 76.5324C165.148 75.704 165.069 74.5205 165.03 73.061C164.911 70.1024 164.793 66.0393 164.714 61.5422C164.635 57.0452 164.596 52.9821 164.517 50.0235C164.477 48.564 164.477 47.3805 164.438 46.5521C164.398 45.7632 164.398 45.2898 164.438 45.2898Z" fill="#312D1B"/>
<path d="M150.513 116.138C150.592 116.098 148.816 109.945 148.816 109.945L154.812 108.367L156.075 114.166L150.513 116.138Z" fill="#F6B69A"/>
<path d="M164.32 112.035H157.495V116.887H164.32V112.035Z" fill="#F6B69A"/>
<path d="M156.864 119.491L157.495 116.572H164.832L164.043 120.871H163.649C161.953 120.95 153.787 121.345 152.643 121.029C151.42 120.714 156.864 119.491 156.864 119.491Z" fill="#312D1B"/>
<path d="M198.955 29.7871C199.468 31.4439 199.98 33.1402 200.493 34.797C200.572 35.0336 200.651 35.2703 200.612 35.507C200.612 36.2171 199.902 36.7693 199.192 36.8877C198.481 37.006 197.732 36.8482 197.022 36.651C196.825 37.3611 195.957 37.6766 195.207 37.795C191.854 38.4261 188.304 37.9922 185.227 36.5721C186.568 34.7181 187.633 32.7062 188.462 30.6155C191.105 30.7338 193.708 30.8522 196.351 30.9705C196.825 31.01 197.298 31.01 197.732 30.8522C198.166 30.6944 198.56 30.3394 198.6 29.866" fill="#312D1B"/>
<path d="M168.383 51.8382L167.594 50.9704C167.594 50.9704 167.042 50.5365 166.253 49.5503C166.056 49.3136 165.898 48.998 165.78 48.6824C165.661 48.3274 165.504 47.8146 165.504 47.499C165.504 47.144 165.07 46.9467 164.833 47.2228C164.636 47.499 164.557 48.4852 165.03 49.5897C165.504 50.6942 163.807 49.8264 163.176 49.5108C162.545 49.1952 160.573 48.3668 160.296 48.4457C159.941 48.6035 160.06 49.0374 160.691 49.3136C161.322 49.5897 163.176 50.6154 162.979 50.9309C162.782 51.2465 159.626 49.6292 159.626 49.6292C159.626 49.6292 158.995 49.1952 158.797 49.5503C158.403 50.1814 161.914 51.641 162.229 51.7988C162.466 51.8777 162.269 52.2327 162.032 52.1144C161.795 51.996 158.916 50.4576 158.482 51.0887C158.166 51.6015 161.362 52.3116 161.756 52.9428C162.15 53.5739 159.389 52.1538 159.113 52.6272C158.995 52.8244 158.955 52.9428 160.651 53.5739C162.427 54.2051 167.436 55.1124 167.436 55.1124L168.265 51.7593" fill="#F19180"/>
<path d="M182.624 43.9487C182.624 43.9487 179.745 51.9961 178.877 52.075C172.841 52.6272 166.253 50.0631 166.253 50.0631L164.597 54.5996C164.597 54.5996 181.756 62.0158 185.425 54.8757C189.33 47.2623 189.133 46.0789 189.133 46.0789L182.624 43.9487Z" fill="#FACBB6"/>
<path d="M183.018 89.4318C186.095 103.081 206.292 115.822 206.292 115.822L209.724 111.72C209.724 111.72 193.472 97.6763 192.801 91.4436C192.091 85.2109 197.495 75.4279 197.495 75.4279L191.894 73.1399L183.018 89.4318Z" fill="#79CFCD"/>
<path d="M189.842 39.6092C189.961 39.0569 189.724 36.69 189.724 36.69C189.724 36.69 187.515 36.4533 187.357 34.3232C187.199 32.193 187.357 27.262 187.357 27.262L191.42 25.3291L195.878 28.6033L195.207 39.2936L189.842 39.6092Z" fill="#F6B69A"/>
<path d="M195.523 30.2602C195.523 30.2602 191.894 29.9447 191.263 26.7494L187.318 30.2602C187.318 30.2602 186.135 27.8934 188.304 25.6843C190.474 23.4752 191.973 23.9486 192.841 23.9486C193.63 23.9486 197.693 24.777 198.876 29.2346C198.955 29.5502 199.034 30.3391 199.074 30.7336L195.523 30.2602Z" fill="#312D1B"/>
<path d="M189.725 36.6902C189.725 36.6902 191.224 36.6901 192.644 35.7434C192.644 35.7434 191.973 37.3213 189.764 37.2424L189.725 36.6902Z" fill="#F19180"/>
<path d="M185.148 63.7118C185.148 64.4613 185.424 65.5264 185.424 65.5264L201.045 69.9051C201.045 69.9051 202.15 63.0412 199.31 59.2542C198.008 57.5185 198.284 55.0333 198.836 52.9426L200.69 45.7631L198.245 39.0176L188.383 39.6487C188.383 39.6487 182.663 39.0965 180.69 46.3943L184.359 51.7197L184.399 53.7316L185.148 63.7118Z" fill="#FFD049"/>
<path d="M200.415 61.0295C200.573 61.0295 203.413 67.1834 200.849 70.852C200.612 71.2071 200.02 72.0355 199.231 73.2189C195.444 78.8599 186.805 92.1143 186.49 94.0473C186.135 96.3747 179.152 121.108 179.152 121.108L173.945 120.319L178.206 92.3116L185.148 63.7514L200.415 61.0295Z" fill="#79CFCD"/>
<path d="M191.381 26.4736C191.381 26.4736 190.592 27.9726 190.907 29.1166L187.357 29.9844C187.357 30.0239 186.568 25.6846 191.381 26.4736Z" fill="#312D1B"/>
<path d="M199.113 30.4179C199.113 30.4179 199.547 35.3489 195.247 36.2167L195.523 30.2996L199.113 30.4179Z" fill="#312D1B"/>
<path opacity="0.34" d="M189.645 51.6405L176.825 35.1514L152.762 45.6839L162.466 54.678L173.432 56.4137L189.645 51.6405Z" fill="url(#paint0_linear_159_18706)"/>
<path d="M182.9 53.2975L174.103 56.8872L159.744 57.2028L152.762 45.684L167.555 44.7373L173.945 55.8616L182.86 52.5085L182.9 53.2975Z" fill="#A9CCEA"/>
<path d="M181.322 44.8557L178.876 50.694L184.399 53.3764L184.912 48.2482L181.322 44.8557Z" fill="#FFD049"/>
<path d="M196.588 39.057L195.641 37.9919L191.657 38.9781L192.131 40.1221L196.588 39.057Z" fill="#FFD049"/>
<path d="M192.131 40.1221L190.553 43.1202L190.514 40.1221L190.671 39.2148H191.737L192.131 40.1221Z" fill="#F6B69A"/>
<path d="M190.513 40.122L190.71 38.978L189.724 38.5835L188.58 39.6091L190.513 40.122Z" fill="#FFD049"/>
<path d="M184.359 53.4557C184.359 53.4557 184.438 53.3373 184.438 53.0612C184.438 52.785 184.28 52.43 183.965 52.075C183.689 51.72 183.215 51.3649 183.136 50.8127C183.097 50.5365 183.097 50.2604 183.215 49.9448C183.334 49.6687 183.531 49.3925 183.768 49.2348C184.004 49.077 184.32 48.9586 184.596 48.9586H184.675V48.8797C184.833 47.7752 185.03 46.7495 185.109 46.0395C185.188 45.3294 185.109 44.8955 185.069 44.8955C185.03 44.8955 185.03 45.3294 184.951 46.0395C184.872 46.7495 184.635 47.7357 184.438 48.8797L184.557 48.7614C184.241 48.7614 183.886 48.8797 183.61 49.077C183.294 49.2742 183.057 49.5898 182.939 49.9054C182.821 50.2209 182.821 50.576 182.9 50.8916C182.979 51.2071 183.136 51.4833 183.294 51.6805C183.491 51.8777 183.649 52.075 183.807 52.2328C184.123 52.5484 184.28 52.8639 184.32 53.1006C184.399 53.2979 184.32 53.4557 184.359 53.4557Z" fill="#FFD049"/>
<path d="M184.359 45.724C184.32 45.7635 184.438 46.0396 184.596 46.3552C184.754 46.6708 184.833 46.9863 184.911 46.9863C184.99 46.9863 184.99 46.6313 184.833 46.2763C184.675 45.9212 184.399 45.6846 184.359 45.724Z" fill="#FFD049"/>
<path d="M178.679 50.694C178.639 50.7335 179.902 51.4435 181.519 52.1536C183.136 52.8636 184.477 53.337 184.477 53.2976C184.517 53.2187 183.215 52.6664 181.598 51.9563C180.02 51.2463 178.718 50.6546 178.679 50.694Z" fill="#FFD049"/>
<path d="M178.995 49.8657C178.955 49.9051 180.099 50.5757 181.519 51.2858C182.939 52.0353 184.123 52.5481 184.162 52.5087C184.202 52.4692 183.058 51.7986 181.638 51.0885C180.218 50.339 179.034 49.8262 178.995 49.8657Z" fill="#FFD049"/>
<path d="M186.41 45.9207C186.41 45.9996 186.726 46.039 187.16 46.0785C187.594 46.1179 187.909 46.0785 187.909 45.9996C187.909 45.9207 187.594 45.8812 187.16 45.8418C186.765 45.8418 186.41 45.8418 186.41 45.9207Z" fill="#FFD049"/>
<path d="M186.292 46.1972C186.292 46.2761 186.647 46.3944 187.16 46.5127C187.633 46.6311 188.067 46.6705 188.067 46.6311C188.067 46.5522 187.712 46.4338 187.199 46.3155C186.686 46.1577 186.292 46.1183 186.292 46.1972Z" fill="#FFD049"/>
<path d="M173.472 120.28C173.472 120.28 168.896 121.463 170.04 121.818C171.184 122.134 179.113 121.305 179.113 121.305L179.389 120.438L173.472 120.28Z" fill="#312D1B"/>
<path d="M179.113 121.305L180.691 117.045H173.709L173.472 120.28L179.113 121.305Z" fill="#312D1B"/>
<path d="M206.332 116.098C206.332 116.098 205.188 120.556 206.016 119.728C206.884 118.939 210.001 111.799 210.001 111.799L209.33 111.167L206.332 116.098Z" fill="#312D1B"/>
<path d="M210 111.799L206.963 108.406L203.57 114.323L206.332 116.099L210 111.799Z" fill="#312D1B"/>
<path d="M191.065 25.0922C191.065 25.0528 190.631 25.0528 189.96 25.2106C189.29 25.3684 188.422 25.8023 187.712 26.5518C187.002 27.3013 186.647 28.1691 186.489 28.8398C186.371 29.4709 186.41 29.9048 186.45 29.9048C186.489 29.9048 186.489 29.5104 186.686 28.8792C186.844 28.248 187.239 27.4196 187.909 26.7096C188.58 25.9995 189.408 25.5656 190.039 25.3684C190.631 25.1711 191.065 25.1317 191.065 25.0922Z" fill="#312D1B"/>
<path d="M161.677 51.2066C161.874 51.7194 162.348 52.035 162.742 51.9166C163.137 51.7983 163.295 51.246 163.097 50.7332C162.9 50.2204 162.427 49.9048 162.032 50.0231C161.638 50.1809 161.48 50.6937 161.677 51.2066Z" fill="#F3EFEA"/>
<path d="M193.63 63.9879C193.63 63.9879 193.433 44.264 194.143 42.765C194.143 42.765 194.892 39.0569 197.811 38.978L196.51 39.0569C196.51 39.0569 193.867 38.8597 193.078 43.9484C192.328 48.9977 192.368 64.1457 192.368 64.1457L193.63 63.9879Z" fill="#312D1B"/>
<path d="M187.949 64.6982C187.949 64.6982 187.16 42.0158 187.791 39.6489H187.002C187.002 39.6489 186.292 41.5819 186.45 47.0256C186.529 50.2998 186.45 64.6982 186.45 64.6982H187.949Z" fill="#312D1B"/>
<path d="M178.6 54.5994C178.6 54.5994 174.774 56.9662 173.945 56.9268C173.117 56.9268 170.711 56.8479 170.947 57.1635C171.184 57.479 173.945 57.913 173.945 57.913L178.6 54.5994Z" fill="#F6B69A"/>
<path d="M178.916 59.57C178.916 59.57 197.062 64.3037 199.547 56.6508C202.19 48.5641 202.23 50.6548 202.23 50.6548L196.549 45.3293C196.549 45.3293 193.512 54.6785 192.644 54.8757C187.871 56.0591 182.466 55.3096 180.573 54.9546C180.375 54.7968 180.099 54.5601 179.823 54.3234C179.587 54.0867 179.389 53.85 179.232 53.5345C179.034 53.1794 178.837 52.7061 178.798 52.4299C178.758 52.0749 178.245 51.9566 178.088 52.2327C177.93 52.5088 178.048 53.5345 178.679 54.5601C178.679 54.5601 174.379 57.2425 174.024 57.9132L178.916 59.57Z" fill="#F6B69A"/>
<path d="M198.245 38.978C198.245 38.978 202.387 39.7275 202.545 46.0786C202.703 52.3902 200.06 57.2029 200.06 57.2029L193.038 53.6526L198.245 38.978Z" fill="#FFD049"/>
<path d="M193.078 53.6924C193.078 53.7318 193.472 53.8896 194.143 54.2052C194.813 54.4813 195.681 54.9153 196.667 55.3886C197.654 55.9015 198.521 56.3748 199.113 56.7299C199.744 57.0849 200.139 57.3216 200.139 57.2821C200.139 57.2427 199.823 56.9665 199.192 56.6115C198.6 56.217 197.732 55.7042 196.746 55.2308C195.76 54.718 194.853 54.3235 194.182 54.0869C193.512 53.7713 193.078 53.6529 193.078 53.6924Z" fill="#FFD049"/>
<path d="M193.354 53.2188C193.354 53.2583 193.748 53.4161 194.419 53.6528C195.089 53.8894 195.997 54.2839 196.943 54.7178C197.929 55.1912 198.758 55.6251 199.389 55.9802C200.02 56.3352 200.375 56.5324 200.415 56.493C200.415 56.4535 200.099 56.2169 199.507 55.8224C198.916 55.4279 198.048 54.9545 197.101 54.4812C196.115 54.0078 195.208 53.6922 194.537 53.4555C193.787 53.2977 193.354 53.1794 193.354 53.2188Z" fill="#FFD049"/>
<path d="M195.366 46.4335C195.445 46.4335 195.563 45.9207 195.484 45.2501C195.445 44.5795 195.208 44.0667 195.169 44.1061C195.09 44.1061 195.208 44.6584 195.248 45.2896C195.326 45.8813 195.287 46.4335 195.366 46.4335Z" fill="#FFD049"/>
<path d="M193.078 53.6521C193.117 53.6521 193.393 53.1788 193.748 52.3898C194.143 51.6009 194.577 50.4569 194.971 49.1945C195.366 47.8928 195.602 46.7093 195.721 45.8415C195.839 44.9736 195.878 44.4214 195.839 44.4214C195.799 44.4214 195.721 44.9342 195.523 45.8021C195.366 46.6699 195.089 47.8139 194.695 49.1157C194.3 50.378 193.867 51.522 193.551 52.3109C193.275 53.1393 193.038 53.6127 193.078 53.6521Z" fill="#FFD049"/>
<defs>
<linearGradient id="paint0_linear_159_18706" x1="162.921" y1="51.7469" x2="181.035" y2="44.3014" gradientUnits="userSpaceOnUse">
<stop stop-color="white"/>
<stop offset="0.2316" stop-color="white" stop-opacity="0.7684"/>
<stop offset="1" stop-color="white" stop-opacity="0"/>
</linearGradient>
</defs>
</svg>
