<svg width="200" height="200" viewBox="0 0 200 200" fill="none" xmlns="http://www.w3.org/2000/svg">
<g clip-path="url(#clip0_124_5127)">
<path d="M185.78 124.509H4.44349C1.98788 124.509 0 122.521 0 120.066V18.4435C0 15.9879 1.98788 14 4.44349 14H185.78C188.235 14 190.223 15.9879 190.223 18.4435V120.069C190.223 122.521 188.232 124.509 185.78 124.509Z" fill="#312D1B"/>
<path d="M182.237 119.886H7.98618C6.19108 119.886 4.7373 118.432 4.7373 116.637V21.8729C4.7373 20.0778 6.19108 18.624 7.98618 18.624H182.24C184.035 18.624 185.489 20.0778 185.489 21.8729V116.64C185.486 118.432 184.032 119.886 182.237 119.886Z" fill="#E6EEF2"/>
<path d="M167.45 111.754H23.9303C23.5637 111.754 23.2666 111.456 23.2666 111.09V106.242C23.2666 105.875 23.5637 105.578 23.9303 105.578H167.45C167.816 105.578 168.113 105.875 168.113 106.242V111.09C168.116 111.453 167.816 111.754 167.45 111.754Z" fill="#D3D3D3"/>
<path d="M31.7585 153.844H28.3105V176.39H31.7585V153.844Z" fill="#D3D3D3"/>
<path d="M163.069 111.754H28.3105V159.055H163.069V111.754Z" fill="#A09F9F"/>
<path d="M71.8576 96.3944C72.0757 96.3944 72.2495 96.2174 72.2495 96.0025C72.2495 95.7844 72.0725 95.6074 71.8576 95.6074H68.5487H67.983H66.0646H65.7707H51.4889C50.1173 95.6074 49.0049 96.7199 49.0049 98.0915C49.0049 99.4631 50.1173 100.576 51.4889 100.576H65.7707H66.0646H67.983H68.5487H71.8576C72.0757 100.576 72.2495 100.399 72.2495 100.181C72.2495 99.9625 72.0725 99.7886 71.8576 99.7886H68.5487V96.3912H71.8576V96.3944Z" fill="#FFD049"/>
<path d="M71.8575 96.3948C72.0756 96.3948 72.2494 96.2179 72.2494 96.003C72.2494 95.7849 72.0724 95.6079 71.8575 95.6079H68.5486H67.9829H66.0645H65.7706H55.689C54.4912 95.6079 53.521 96.7204 53.521 98.092C53.521 99.4636 54.4912 100.576 55.689 100.576H65.7706H66.0645H67.9829H68.5486H71.8575C72.0756 100.576 72.2494 100.399 72.2494 100.181C72.2494 99.9629 72.0724 99.7891 71.8575 99.7891H68.5486V96.3917H71.8575V96.3948Z" fill="#FFD049"/>
<path d="M71.8575 96.3948C72.0756 96.3948 72.2494 96.2179 72.2494 96.003C72.2494 95.7849 72.0724 95.6079 71.8575 95.6079H68.5486H67.9829H66.0645H65.7706H55.689C54.4912 95.6079 53.521 96.7204 53.521 98.092C53.521 99.4636 54.4912 100.576 55.689 100.576H65.7706H66.0645H67.9829H68.5486H71.8575C72.0756 100.576 72.2494 100.399 72.2494 100.181C72.2494 99.9629 72.0724 99.7891 71.8575 99.7891H68.5486V96.3917H71.8575V96.3948Z" fill="#FFD049"/>
<path d="M56.5676 96.186C55.5152 96.186 54.6587 97.0393 54.6587 98.0949C54.6587 99.1473 55.512 100.004 56.5676 100.004H71.159C71.2033 100.004 71.2475 100.001 71.2918 99.9975V96.1955C71.2475 96.1924 71.2033 96.1892 71.159 96.1892H56.5676V96.186Z" fill="white"/>
<path d="M69.8569 98.8809H57.1807V99.1116H69.8569V98.8809Z" fill="#FFD049"/>
<path d="M69.9956 97.0513H57.3193V97.282H69.9956V97.0513Z" fill="#FFD049"/>
<path d="M64.9076 98.0215H58.688V98.2143H64.9076V98.0215Z" fill="#FFD049"/>
<path d="M65.518 99.134L66.1975 98.3249L66.8327 99.134V97.0513H65.518V99.134Z" fill="#FFD049"/>
<path d="M71.1335 101.388C71.3516 101.388 71.5254 101.211 71.5254 100.992C71.5254 100.774 71.3484 100.601 71.1335 100.601H67.8246H67.2589H65.3405H65.0466H50.7648C49.3932 100.601 48.2808 101.713 48.2808 103.085C48.2808 104.456 49.3932 105.569 50.7648 105.569H65.0466H65.3405H67.2589H67.8246H71.1335C71.3516 105.569 71.5254 105.392 71.5254 105.174C71.5254 104.956 71.3484 104.782 71.1335 104.782H67.8246V101.384H71.1335V101.388Z" fill="#5B5433"/>
<path d="M71.1344 101.388C71.3525 101.388 71.5263 101.211 71.5263 100.992C71.5263 100.774 71.3493 100.601 71.1344 100.601H67.8255H67.2598H65.3414H65.0475H54.9659C53.7681 100.601 52.7979 101.713 52.7979 103.085C52.7979 104.456 53.7681 105.569 54.9659 105.569H65.0475H65.3414H67.2598H67.8255H71.1344C71.3525 105.569 71.5263 105.392 71.5263 105.174C71.5263 104.956 71.3493 104.782 71.1344 104.782H67.8255V101.384H71.1344V101.388Z" fill="#5B5433"/>
<path d="M71.1344 101.388C71.3525 101.388 71.5263 101.211 71.5263 100.992C71.5263 100.774 71.3493 100.601 71.1344 100.601H67.8255H67.2598H65.3414H65.0475H54.9659C53.7681 100.601 52.7979 101.713 52.7979 103.085C52.7979 104.456 53.7681 105.569 54.9659 105.569H65.0475H65.3414H67.2598H67.8255H71.1344C71.3525 105.569 71.5263 105.392 71.5263 105.174C71.5263 104.956 71.3493 104.782 71.1344 104.782H67.8255V101.384H71.1344V101.388Z" fill="#5B5433"/>
<path d="M55.841 101.179C54.7886 101.179 53.9321 102.032 53.9321 103.088C53.9321 104.14 54.7854 104.994 55.841 104.994H70.4325C70.4767 104.994 70.521 104.991 70.5652 104.987V101.186C70.521 101.182 70.4767 101.179 70.4325 101.179H55.841Z" fill="white"/>
<path d="M69.1338 103.875H56.4575V104.105H69.1338V103.875Z" fill="#5B5433"/>
<path d="M69.2693 102.045H56.5962V102.276H69.2693V102.045Z" fill="#5B5433"/>
<path d="M64.1876 103.015H57.9648V103.208H64.1876V103.015Z" fill="#5B5433"/>
<path d="M64.7949 104.128L65.4775 103.319L66.1096 104.128V102.045H64.7949V104.128Z" fill="#5B5433"/>
<path d="M121.391 64.2086C121.391 64.2086 116.391 57.1957 114.978 57.24C113.569 57.2842 118.72 64.5689 118.72 64.5689L121.391 64.2086Z" fill="#FCD2B1"/>
<path d="M177.683 153.844H174.235V176.39H177.683V153.844Z" fill="#D3D3D3"/>
<path d="M154.312 169.788H149.411V182.319H154.312V169.788Z" fill="#FCD2B1"/>
<path d="M177.812 169.788H172.911V182.319H177.812V169.788Z" fill="#FCD2B1"/>
<path d="M150.09 31.6663C150.09 31.6663 150.261 40.9421 153.781 41.7164C157.302 42.4906 161.037 31.2808 161.037 31.2808L150.09 31.6663Z" fill="#312D1B"/>
<path d="M168.945 30.6172C168.945 30.6172 170.629 32.5798 170.111 36.3248C169.596 40.0667 166.663 50.4233 166.663 50.4233L165.759 49.9461L166.827 31.0186L168.945 30.6172Z" fill="#312D1B"/>
<path d="M151.882 42.6989C152.772 42.6989 153.494 41.9377 153.494 40.9986C153.494 40.0596 152.772 39.2983 151.882 39.2983C150.992 39.2983 150.271 40.0596 150.271 40.9986C150.271 41.9377 150.992 42.6989 151.882 42.6989Z" fill="#F2C6A8"/>
<path d="M166.578 42.6989C167.468 42.6989 168.189 41.9377 168.189 40.9986C168.189 40.0596 167.468 39.2983 166.578 39.2983C165.687 39.2983 164.966 40.0596 164.966 40.9986C164.966 41.9377 165.687 42.6989 166.578 42.6989Z" fill="#F2C6A8"/>
<path d="M152.524 34.0714C152.524 34.0714 150.754 45.2307 152.868 47.7369C154.983 50.243 157.293 50.8814 157.293 50.8814V59.7779L165.551 59.2849L166.486 56.6807L166.831 44.7345V32.1499L156.705 29.7891L152.524 34.0714Z" fill="#FCD2B1"/>
<path d="M166.827 34.8867C166.827 34.8867 161.028 38.1482 152.966 34.2167C144.904 30.2852 154.834 24.5333 160.19 26.3031C165.547 28.0729 168.84 29.5962 169.482 31.562C170.12 33.5309 166.827 34.8867 166.827 34.8867Z" fill="#312D1B"/>
<path d="M156.705 55.3311C156.705 55.3311 159.22 60.3118 166.486 56.6805L173.113 59.7777V70.188L169.014 95.43H151.831L151.36 59.7777L156.705 55.3311Z" fill="#FFD049"/>
<path d="M181.466 91.5112L179.074 92.8417L180.663 96.3434L184.115 94.5926L183.264 91.5112H181.466Z" fill="#FCD2B1"/>
<path d="M123.893 67.3566L121.776 65.6216L119.108 68.3901L122.006 70.95L124.557 69.0253L123.893 67.3566Z" fill="#FCD2B1"/>
<path d="M147.331 95.0195L178.66 95.9297L179.087 177.97H171.596L162.751 108.053H161.828L155.684 177.97H147.331V95.0195Z" fill="#312D1B"/>
<path d="M169.182 56.2478C169.182 56.2478 181.252 57.8596 186.668 64.5375C192.082 71.2154 200.84 80.3331 199.936 83.8506C199.032 87.3712 183.6 95.8537 183.6 95.8537L181.163 90.8887C181.163 90.8887 192.986 83.5788 192.714 82.223C192.442 80.8703 182.064 73.0168 182.064 73.0168L180.711 76.0476C180.711 76.0476 178.748 106.078 179.118 110.786C179.488 115.495 166.562 108.11 163.607 103.862C160.652 99.6146 158.996 85.3296 158.996 85.3296L167.76 56.2446H169.182V56.2478Z" fill="#5B5433"/>
<path d="M155.017 55.8499C155.017 55.8499 146.478 58.2202 144.164 61.526C141.851 64.8317 134.721 76.6452 134.721 76.6452L124.838 66.8512C124.838 66.8512 120.202 70.1759 120.202 70.8744C120.202 71.5728 134.019 86.8786 136.38 86.0916C138.741 85.3047 146.436 72.2744 146.436 72.2744C146.436 72.2744 146.38 105.484 146.098 107.873C145.817 110.262 155.317 106.065 158.996 85.3395L155.946 55.6382L155.017 55.8499Z" fill="#5B5433"/>
<path d="M179.814 97.9682C179.814 97.9682 178.009 99.817 175.462 98.6003C172.915 97.3835 174.561 93.0506 176.363 92.6619C178.164 92.2732 180.98 91.6885 181.403 92.6619C181.827 93.6353 181.403 94.7541 181.403 94.7541L179.814 97.9682Z" fill="#FCD2B1"/>
<path d="M117.282 68.2003C117.282 68.2003 114.896 67.2048 115.089 64.3889C115.282 61.573 119.915 61.5035 120.942 63.0363C121.969 64.5691 123.549 66.9678 122.8 67.72C122.051 68.4721 120.853 68.4911 120.853 68.4911L117.282 68.2003Z" fill="#FCD2B1"/>
<path d="M157.292 54.5187L158.999 85.3292L152.896 63.1055L155.08 62.0499L152.896 59.7776C152.896 59.7776 154.173 55.767 155.073 54.8695C155.974 53.9688 157.292 53.9214 157.292 53.9214V54.5187Z" fill="#5B5433"/>
<path d="M166.572 53.5928L166.483 56.6805L158.996 85.3293L169.564 62.2269L168.19 60.5361L169.564 59.2467C169.564 59.2467 169.346 55.3531 168.458 54.2912C167.57 53.2325 166.572 53.5928 166.572 53.5928Z" fill="#5B5433"/>
<path d="M154.928 185.172H142.388C142.388 185.172 143.408 179.6 147.959 180.526C152.51 181.455 153.421 182.849 154.312 181.547C155.206 180.248 154.928 185.172 154.928 185.172Z" fill="#312D1B"/>
<path d="M178.584 185.172H166.044C166.044 185.172 167.065 179.6 171.616 180.526C176.167 181.455 177.077 182.849 177.968 181.547C178.862 180.248 178.584 185.172 178.584 185.172Z" fill="#312D1B"/>
<path d="M20.1153 159.614C20.1153 159.614 24.5683 152.465 19.5275 145.974C14.4867 139.482 6.92704 130.128 6.92704 122.299C6.92704 114.471 3.09982 130.918 3.7161 138.974C4.50619 149.286 8.21648 158.002 13.548 160.673C18.8796 163.343 20.1153 159.614 20.1153 159.614Z" fill="#5B5433"/>
<path d="M16.8061 159.614C16.8061 159.614 10.5107 149.991 10.438 140.2C10.3653 130.409 20.115 102.417 20.115 102.417C20.115 102.417 29.9217 124.531 28.6449 135.715C27.3681 146.9 22.7318 162.228 22.7318 162.228L16.8061 159.614Z" fill="#312D1B"/>
<path d="M20.4152 108.979C20.4152 108.979 20.3267 144.909 19.5303 154.877" stroke="white" stroke-miterlimit="10" stroke-linecap="round"/>
<path d="M28.3541 163.024H8.99994V164.844H10.144C9.63201 165.941 9.34126 167.164 9.34126 168.453C9.34126 171.358 10.795 173.921 13.0136 175.46V177.04H24.3404V175.46C24.372 175.438 24.4005 175.413 24.4321 175.394C26.303 174.057 27.6083 171.99 27.9306 169.607C27.9622 169.357 27.9875 169.104 27.997 168.852C28.0033 168.719 28.0096 168.589 28.0096 168.457C28.0096 167.167 27.722 165.941 27.2069 164.847H28.3509V163.024H28.3541Z" fill="#FFD049"/>
<path d="M21.8035 162.228C21.8035 162.228 18.1153 156.666 20.1316 143.544C21.1398 136.983 34.2206 129.445 34.3312 123.02C34.4418 116.595 37.027 132.394 34.4576 141.471C28.3549 163.024 21.8035 162.228 21.8035 162.228Z" fill="#5B5433"/>
<path d="M33.5212 129.145C33.5212 129.145 33.1641 139.846 22.2197 160.771" stroke="white" stroke-miterlimit="10" stroke-linecap="round"/>
<path d="M28.3541 159.614H8.99994V164.842H28.3541V159.614Z" fill="#FFD049"/>
<path d="M6.58588 131.926C6.58588 131.926 9.26588 152.01 14.6923 155.812" stroke="white" stroke-miterlimit="10" stroke-linecap="round"/>
</g>
<defs>
<clipPath id="clip0_124_5127">
<rect width="200" height="200" fill="white"/>
</clipPath>
</defs>
</svg>
