<svg width="200" height="200" viewBox="0 0 200 200" fill="none" xmlns="http://www.w3.org/2000/svg">
<g clip-path="url(#clip0_124_1799)">
<path d="M104.076 74.5289L103.139 72.7365C103.139 72.7365 103.974 68.6628 100.471 66.8296C100.471 66.8296 98.9839 66.2185 99.045 67.6036C99.1062 68.9887 99.2487 68.4591 99.3098 70.4145C99.3709 72.3699 100.145 74.1827 101.224 74.7326L102.182 75.8936L104.076 74.5289Z" fill="#F2AC8C"/>
<path d="M154.224 193.238C153.837 194.521 152.085 195.377 151.861 196.925C151.739 197.678 151.454 198.289 151.108 198.676H145.649C145.71 198.371 145.934 198.045 146.647 197.902C148.154 197.576 148.725 195.743 148.643 194.032C148.602 193.319 148.623 192.505 148.663 191.792C148.704 190.814 148.786 190.04 148.786 190.04L152.004 189.286L152.35 189.714L152.676 190.122C152.656 190.162 154.591 191.955 154.224 193.238Z" fill="#20496C"/>
<path d="M128.844 198.696H117.805C118.049 198.411 118.477 198.126 119.19 198.004C120.88 197.719 123.834 196.741 124.486 194.582C124.506 194.521 124.526 194.439 124.547 194.378C125.076 192.056 128.844 195.091 128.844 195.091C128.844 195.091 128.865 195.193 128.865 195.336C128.946 195.967 129.089 197.739 128.844 198.696Z" fill="#20496C"/>
<path d="M119.658 137.265C119.658 137.265 120.228 144.435 120.901 153.05C121.817 164.762 122.917 179.143 123.039 181.872C123.223 186.598 123.976 194.175 123.976 194.175C123.976 194.175 125.769 195.967 129.374 195.214C129.374 195.214 132.572 184.398 133.488 172.971C133.509 172.788 133.509 172.604 133.529 172.401C134.385 160.77 135.709 136.246 135.709 136.246L119.658 137.265Z" fill="#FFD049"/>
<path d="M122.266 138.12C122.266 138.12 132.633 164.09 139.436 176.311C146.26 188.512 148.378 191.934 148.378 191.934C148.378 191.934 152.289 190.366 152.635 189.307C152.635 189.307 150.028 165.74 145.465 159.996C142.879 156.758 139.864 147.001 139.721 143.599C139.579 140.198 138.805 133.456 138.805 133.456L122.266 138.12Z" fill="#FFD049"/>
<path d="M127.154 97.5864C126.665 94.3885 126.563 90.6406 126.563 90.6406L131.818 87.5649C131.696 94.4088 135.485 97.7493 135.485 97.7493C135.485 97.7493 128.519 101.701 124.445 100.153C124.445 100.153 125.422 98.6659 127.154 97.5864Z" fill="#E2A188"/>
<path d="M123.039 90.4777C123.039 90.4777 128.6 94.3682 130.963 90.8647C133.325 87.3613 137.542 85.7318 134.099 83.0839C130.657 80.4563 127.154 81.1081 126.074 82.0858C124.995 83.0839 121.654 89.3778 123.039 90.4777Z" fill="#F2AC8C"/>
<path d="M102.65 74.3458C103.445 73.2052 103.567 73.0422 103.567 73.0422C103.567 73.0422 111.49 82.921 112.264 83.8376C113.038 84.7542 126.563 93.6146 126.563 93.6146L126.42 107.099C126.42 107.099 109.881 91.5166 107.946 89.1335C104.748 85.2227 101.591 75.8531 101.591 75.8531C101.591 75.8531 101.856 75.4661 102.65 74.3458Z" fill="#79CFCD"/>
<path d="M139.599 134.759C139.619 135.207 138.703 135.696 138.295 135.879C135.281 137.224 132.49 138.161 129.333 138.466C125.585 138.853 121.145 137.998 119.617 138.018C119.454 138.018 119.312 137.957 119.19 137.855C119.088 137.774 119.006 133.191 119.088 127.406C119.088 127.182 119.088 126.938 119.108 126.714V126.632C119.108 126.021 119.128 125.41 119.128 124.799C119.169 123.108 119.23 121.377 119.312 119.646C119.414 117.1 119.577 114.615 119.78 112.394C120.004 110.093 120.269 108.076 120.636 106.671C121.451 103.412 123.304 101.253 125.015 99.664L126.42 98.4215C127.826 98.7067 129.292 98.6252 130.779 97.8919C132.388 97.0975 134.12 96.2421 134.405 96.4457C136.564 98.0549 138.031 101.721 138.764 106.386C139.171 108.891 139.355 111.682 139.355 114.615C139.355 115.735 139.314 116.876 139.253 118.016C138.886 124.168 139.253 129.504 139.477 132.621C139.538 133.557 139.599 134.27 139.599 134.759Z" fill="#79CFCD"/>
<path d="M134.568 106.304C134.568 106.304 131.329 121.438 119.149 124.799C119.19 123.108 119.251 121.377 119.332 119.646C119.434 117.1 119.597 114.615 119.801 112.394C120.025 112.272 120.228 112.191 120.412 112.13C124.526 110.806 134.568 106.304 134.568 106.304Z" fill="#79CFCD"/>
<path d="M108.924 69.1518L108.598 67.0742C108.598 67.0742 110.615 63.6522 107.906 60.4136C107.906 60.4136 106.704 59.1915 106.358 60.4951C105.991 61.819 106.276 61.3709 105.747 63.2245C105.197 65.078 105.38 67.0945 106.215 68.0926L106.745 69.5999L108.924 69.1518Z" fill="#F2AC8C"/>
<path d="M107.641 68.0313C108.863 67.5628 109.23 68.2757 109.23 68.2757C109.23 68.2757 114.587 82.7986 115.177 84.0003C115.768 85.2021 127.562 93.4514 127.562 93.4514C127.562 93.4514 132.389 96.5271 132.206 100.255C132.063 103.493 130.332 105.245 128.56 106.182C126.441 107.302 123.956 106.732 122.327 104.756C118.64 100.336 111.328 91.4757 110.248 89.2147C107.824 84.1633 106.093 69.1719 106.093 69.1719C106.093 69.1719 106.684 68.3979 107.641 68.0313Z" fill="#79CFCD"/>
<path d="M126.848 79.3362C126.421 79.8047 126.278 80.5176 126.583 81.0676C126.808 81.4749 127.215 81.7194 127.663 81.862C128.274 82.0656 128.967 82.0656 129.578 81.8823C129.68 82.6767 129.822 83.5118 130.27 84.184C130.861 85.0802 131.92 85.569 132.755 86.2616C133.081 86.5467 133.407 86.8523 133.55 87.2596C133.611 87.4022 133.651 87.5652 133.57 87.7078C133.489 87.8911 133.244 87.9522 133.04 87.9522C132.837 87.9522 132.633 87.8911 132.429 87.9318C132.042 87.9929 131.778 88.3799 131.615 88.7466C131.411 89.2354 131.289 89.7446 131.248 90.2742C131.228 90.6001 131.268 90.9464 131.411 91.2519C131.533 91.4963 131.737 91.6796 131.94 91.863C132.49 92.3314 133.142 92.7184 133.835 92.9425C134.161 92.4129 133.855 91.6185 134.283 91.1704C134.67 90.7834 135.322 90.9871 135.872 90.9056C136.646 90.8038 137.236 90.1316 137.542 89.4187C137.847 88.7466 137.949 87.9522 137.766 87.2393C137.583 86.5264 137.053 85.8746 136.34 85.6302C137.379 84.8765 137.746 84.7747 137.97 83.5118C138.051 83.0637 138.377 81.475 137.297 80.2936C136.951 79.9066 136.32 79.8455 135.811 79.9269C135.424 79.0511 134.833 78.2567 134.079 77.6864C133.305 77.1161 132.327 77.0142 131.472 76.5865C130.657 76.1791 129.048 76.6068 128.62 77.6049C128.519 77.829 128.498 78.4196 128.294 78.5826C127.867 78.9289 127.256 78.8881 126.848 79.3362Z" fill="#5B5433"/>
<path d="M79.2263 98.6453L80.6929 98.2584C80.6929 98.2584 81.6298 94.979 85.1943 96.6289C85.1943 96.6289 86.6405 97.4232 86.0498 98.2584C85.4388 99.0935 85.5406 98.6454 84.7259 99.8471C83.9111 101.049 82.5668 101.578 81.4669 101.069L80.2244 101.049L79.2263 98.6453Z" fill="#FFB792"/>
<path d="M80.8353 99.9692C80.5909 98.6452 79.9391 98.2786 79.9391 98.2786C79.9391 98.2786 66.2717 101.863 65.0292 102.332C64.1737 102.658 53.6635 104.98 47.9195 105.469C45.0679 105.713 44.3957 108.056 43.4791 110.622L42.7255 112.74C41.8089 115.286 44.4161 117.975 47.1251 117.283C54.7838 115.327 65.294 110.479 67.3716 109.665C72.5045 107.587 80.7334 102.25 80.7334 102.25C80.7334 102.25 81.039 101.11 80.8353 99.9692Z" fill="#FFD049"/>
<path d="M83.9722 191.201C83.9722 191.201 86.4165 193.401 90.5309 192.729C90.5309 192.729 93.8306 192.28 94.401 193.951C94.401 193.951 89.207 196.028 87.9034 196.599C86.9053 197.026 85.8461 197.76 85.0925 198.33C84.5018 198.778 83.6463 198.635 83.2186 198.024C83.0149 197.739 82.8112 197.393 82.5668 197.006C81.8946 195.906 80.4077 192.382 80.4077 192.382L83.9722 191.201Z" fill="#5B5433"/>
<path d="M85.2757 190.406C85.2757 190.406 83.3407 193.95 79.7355 192.932C79.7355 192.932 72.7694 186.047 68.2068 179.142C66.7199 176.902 65.4774 174.661 64.8256 172.645C62.1166 164.416 53.9487 151.787 48.6121 145.29L63.7664 141.297C63.7664 141.297 67.6161 151.176 72.8305 163.357C76.5783 172.115 81.039 182.096 85.2757 190.406Z" fill="#79CFCD"/>
<path d="M72.8101 163.357L68.1864 179.163C66.6995 176.922 65.457 174.682 64.8052 172.665C62.0962 164.436 53.9283 151.808 48.5917 145.31L63.746 141.318C63.746 141.298 67.6161 151.176 72.8101 163.357Z" fill="#79CFCD"/>
<path d="M58.2056 190.997C58.2056 190.997 57.7779 193.91 61.3017 194.623C61.3017 194.623 63.3385 194.806 63.1756 196.68L52.8283 195.784C52.8283 195.784 52.6042 195.01 52.6653 193.38C52.7265 192.138 54.2745 189.001 54.2745 189.001L58.2056 190.997Z" fill="#5B5433"/>
<path d="M58.9389 140.87C58.9389 140.87 64.8255 148.63 67.8197 161.951C69.4492 169.203 61.4646 186.333 59.6722 192.362C59.6722 192.362 55.354 192.341 52.5228 190.936C52.5228 190.936 53.4394 178.206 56.0262 168.571C57.4724 163.174 48.4694 156.085 45.1697 145.799C42.9291 138.813 46.3714 139.24 50.6489 139.444L58.9389 140.87Z" fill="#79CFCD"/>
<path d="M54.2745 108.158C50.4451 109.889 43.1735 107.323 43.1735 107.323C43.1735 107.323 46.514 104.145 45.6381 98.4419L48.3675 100.153L51.3006 101.986C51.3006 101.986 51.4025 102.984 51.3821 104.756C51.3821 105.204 51.3617 105.734 51.3414 106.284C53.1338 107.017 54.2745 108.158 54.2745 108.158Z" fill="#FFB792"/>
<path d="M64.7643 141.012C64.7032 141.643 63.9496 141.888 63.7866 141.908C62.2997 142.051 58.063 143.273 54.3356 143.314C51.1988 143.354 48.3472 142.784 45.2308 141.867C44.8234 141.745 43.8661 141.399 43.8253 140.992C43.7846 140.543 33.8243 115.164 44.192 105.57C44.4364 105.346 46.2492 105.957 47.9194 106.507C49.4675 107.017 50.9136 106.935 52.258 106.548L53.7856 107.526C55.6392 108.789 59.0204 113.005 59.1833 116.101C59.2648 117.669 60.0388 118.892 60.1814 120.277C60.2221 120.786 60.2832 121.295 60.3443 121.784C60.4462 122.741 60.5684 123.658 60.711 124.534C61.0572 126.896 61.4646 128.933 61.8923 130.685C62.3405 132.559 62.8089 134.127 63.2367 135.431C63.7866 137.142 64.2551 138.425 64.5403 139.382C64.7032 140.075 64.8051 140.605 64.7643 141.012Z" fill="#FFD049"/>
<path d="M64.4997 139.383C48.0826 129.769 43.5403 113.739 43.5403 113.739C43.5403 113.739 57.004 120.114 60.3038 121.764C60.4056 122.721 60.5278 123.638 60.6704 124.514C61.0167 126.876 61.424 128.913 61.8518 130.665C62.2999 132.539 62.7684 134.107 63.1961 135.411C63.7461 137.122 64.2146 138.405 64.4997 139.383Z" fill="#FFD049"/>
<path d="M82.4036 101.131C81.5481 99.8473 81.1611 99.2566 81.1611 99.2566C81.1611 99.2566 67.0253 103.004 65.7013 103.473C64.8051 103.799 55.4559 106.691 49.5082 107.099C46.5547 107.302 43.9679 109.115 42.7865 111.783L41.8088 113.983C40.6275 116.651 43.0513 119.503 45.9029 118.831C53.9486 116.916 65.2124 112.028 67.4123 111.193C72.8914 109.135 82.8924 103.045 82.8924 103.045C82.8924 103.045 83.0758 102.149 82.4036 101.131Z" fill="#FFC97B"/>
<path d="M51.362 104.756C47.7771 104.634 45.6995 101.477 45.6995 101.477C45.6995 101.477 47.3901 100.723 48.3474 100.153L51.2805 101.986C51.2805 101.986 51.3823 102.984 51.362 104.756Z" fill="#FFB792"/>
<path d="M53.2154 101.212C53.2154 101.212 47.4511 104.614 45.3735 100.988C43.3163 97.3624 41.1776 95.3662 44.7624 93.0442C48.3677 90.7222 49.875 91.6999 50.8527 92.7387C51.8507 93.7775 54.6616 100.234 53.2154 101.212Z" fill="#FFB792"/>
<path d="M51.7285 89.7036C51.647 88.3797 51.3007 87.4224 51.3007 87.4224C51.3007 87.4224 50.8323 88.8074 48.2862 88.3797C45.7197 87.9519 41.6053 88.0334 39.9758 90.8443C39.8739 91.0276 39.7721 91.2109 39.6906 91.3943C39.5073 90.7221 39.5276 89.7444 39.5276 89.7444C38.9166 90.9665 39.2629 92.596 39.2629 92.596C39.2425 92.6367 39.2425 92.6775 39.2221 92.7386C38.6111 93.1663 38 94.6125 38 94.6125C38.2037 94.2051 38.6518 93.9811 39.0388 93.8385C38.8147 96.1198 39.548 98.4418 41.1164 99.2362C43.3977 100.418 43.4588 99.6843 45.6994 101.477C45.6994 101.477 46.4123 100.743 46.0253 100.173C45.6383 99.6028 44.0495 98.6659 45.0476 97.9733C46.0456 97.2808 46.3104 98.177 46.6974 97.6882C47.0844 97.1789 45.516 95.468 47.8381 94.2255C50.1601 92.9423 51.81 91.0276 51.7285 89.7036Z" fill="#5B5433"/>
<path d="M112.488 113.087C112.081 111.987 111.286 110.46 109.82 109.645C107.783 108.525 98.1892 101.497 96.0098 99.6031C94.9302 96.833 93.2803 87.7078 93.2803 87.7078C93.2803 87.7078 93.871 86.5468 93.9525 85.5487C94.2988 84.6118 93.9321 83.41 93.0359 82.4527C91.9564 81.312 92.4045 81.5361 91.6508 80.701C90.8972 79.8862 89.838 81.1083 89.838 81.1083C87.8623 83.797 89.8991 85.4876 90.5102 85.9357C90.6324 86.5264 90.7139 86.9949 90.7954 87.3412L90.8157 87.6263H90.8565C90.9379 88.0133 90.9787 88.1966 90.9787 88.1966C90.9787 88.1966 91.1824 98.4625 92.5674 102.455C92.6285 102.455 92.71 102.455 92.7711 102.455C92.71 102.455 92.6285 102.455 92.5674 102.455C94.1562 105.856 105.542 116.631 111.531 115.002C112.345 114.798 112.773 113.902 112.488 113.087Z" fill="#EAA281"/>
<path d="M107.478 189.042C107.478 189.042 107.152 193.055 107.416 194.379C107.559 195.071 108.333 196.518 107.966 197.169C107.62 197.821 107.213 197.984 107.213 197.984L98.0671 198.127C97.5783 198.127 97.9042 197.821 98.2912 197.516C98.943 197.027 99.4726 196.721 101.591 195.703C101.734 195.642 102.222 195.316 102.406 195.214C102.854 194.929 103.322 194.501 103.709 194.053C104.361 193.32 104.422 189.776 104.422 189.776L107.478 189.042Z" fill="#F7A491"/>
<path d="M100.328 135.595C100.328 135.595 99.167 142.133 99.9411 146.411C100.695 150.688 104.32 190.366 104.32 190.366L108.353 190.59C108.353 190.59 109.209 174.01 109.046 171.708C108.903 169.407 107.702 165.557 107.702 165.557L108.109 152.175L103.017 134.597L100.328 135.595Z" fill="#5B5433"/>
<path d="M109.616 107.058C109.616 107.058 112.407 107.384 114.057 109.176C115.727 110.989 111.368 125.532 111.062 127.855C110.757 130.156 113.547 135.533 113.547 135.533C113.547 135.533 103.139 137.448 100.328 135.595C100.328 135.595 100.022 119.015 100.328 117.385C100.634 115.735 103.159 109.054 103.75 108.382C104.361 107.71 109.616 107.058 109.616 107.058Z" fill="#5B5433"/>
<path d="M108.211 101.436C108.211 101.436 108.231 101.559 108.272 101.762C108.455 102.781 109.189 106.121 109.677 107.038C110.268 108.158 107.661 111.702 105.156 111.275C104.402 111.152 105.787 108.016 105.726 107.69C105.604 107.058 105.42 106.182 105.257 105.307C105.156 104.797 105.054 104.288 104.972 103.82C104.707 102.455 104.483 101.355 104.483 101.355L108.211 101.436Z" fill="#F7A491"/>
<path d="M108.272 101.783C108.231 101.579 108.211 101.457 108.211 101.457L104.443 101.355C104.443 101.355 104.667 102.455 104.931 103.82C105.033 104.288 105.135 104.797 105.217 105.307C105.807 105.225 106.398 104.94 107.009 104.41C107.681 103.84 108.109 103.127 108.374 102.394C108.353 102.149 108.313 101.946 108.272 101.783Z" fill="#F47458"/>
<path d="M108.231 92.6781C108.231 92.6781 109.392 94.4298 109.861 96.2629C110.35 98.0961 109.657 102.883 105.95 104.064C102.222 105.246 100.084 101.335 100.898 98.3813C101.713 95.4278 104.341 90.9263 108.231 92.6781Z" fill="#EAA281"/>
<path d="M120.249 188.859C120.249 188.859 120.574 192.872 121.043 194.134C121.287 194.807 122.285 196.11 122.041 196.803C121.797 197.516 121.43 197.74 121.43 197.74L112.427 199.349C111.938 199.43 112.203 199.064 112.549 198.717C113.12 198.127 113.588 197.74 115.503 196.395C115.625 196.314 116.073 195.906 116.236 195.784C116.643 195.438 117.03 194.929 117.336 194.44C117.865 193.605 117.356 190.101 117.356 190.101L120.249 188.859Z" fill="#F7A491"/>
<path d="M100.287 135.656C100.287 135.656 104.483 143.885 105.929 147.979C107.355 152.073 117.336 190.651 117.336 190.651L121.349 190.224C121.349 190.224 119.515 173.725 119.006 171.484C118.477 169.244 116.684 165.618 116.684 165.618C116.684 165.618 120.045 153.377 118.823 146.451C117.601 139.526 113.527 135.452 113.527 135.452L100.287 135.656Z" fill="#5B5433"/>
<path d="M106.724 91.2724C108.19 90.8039 109.84 90.7836 111.185 91.5372C112.57 92.2908 113.425 93.7574 114.016 95.2239C114.81 97.2404 115.157 99.4199 115.075 101.599C114.994 103.392 114.505 105.368 112.997 106.366C112.101 106.977 110.961 107.14 109.881 107.038C108.802 106.936 107.783 106.569 106.765 106.182C106.072 105.917 105.38 105.632 104.83 105.143C104.524 104.858 104.259 104.532 104.076 104.145C104.87 104.329 105.726 104.166 106.439 103.799C107.172 103.432 107.783 102.862 108.313 102.251C109.046 101.416 109.677 100.377 109.555 99.2773C109.535 99.1551 108.679 98.6866 108.537 98.5848C108.19 98.2996 107.865 97.9941 107.579 97.6682C106.989 97.0164 106.52 96.2627 106.174 95.4684C105.543 94.0629 104.789 91.8835 106.724 91.2724Z" fill="#FFD049"/>
<path d="M108.7 100.011C108.252 100.683 108.231 101.457 108.659 101.742C109.087 102.027 109.8 101.742 110.248 101.07C110.696 100.398 110.716 99.6236 110.288 99.3384C109.861 99.0329 109.148 99.3384 108.7 100.011Z" fill="#EAA281"/>
<path d="M100.308 133.924C100.308 133.924 103.648 136.531 112.366 132.946L113.527 135.452C113.527 135.452 106.683 141.236 100.124 136.918L100.308 133.924Z" fill="#79CFCD"/>
<path d="M101.917 195.132C101.917 195.132 103.343 196.151 103.139 196.965C103.139 196.965 107.498 197.189 107.559 194.847C107.559 194.847 108.435 195.539 108.435 196.558C108.435 197.576 107.824 198.595 107.824 198.595H97.4356C97.4356 198.595 95.1951 197.78 101.917 195.132Z" fill="#79CFCD"/>
<path d="M115.747 195.886C115.747 195.886 117.315 196.68 117.234 197.516C117.234 197.516 121.573 197.067 121.287 194.745C121.287 194.745 122.265 195.295 122.408 196.314C122.571 197.312 122.122 198.412 122.122 198.412L111.857 200C111.836 200 109.494 199.532 115.747 195.886Z" fill="#79CFCD"/>
<path d="M122 20.3282L46.3307 187.412C45.9436 188.288 44.9048 188.675 44.029 188.288L43.866 188.207C42.9902 187.82 42.6032 186.781 42.9902 185.905L118.66 18.8209C119.047 17.9451 120.086 17.5581 120.961 17.9451L121.124 18.0266C122 18.4339 122.387 19.4524 122 20.3282Z" fill="#5B5433"/>
<path d="M113.507 111.254C113.099 110.154 112.305 108.626 110.838 107.812C108.801 106.691 99.2077 99.6641 97.0283 97.7698C95.9487 94.9997 94.2989 85.8745 94.2989 85.8745C94.2989 85.8745 94.8896 84.7135 94.9711 83.7155C95.3173 82.7785 94.9507 81.5767 94.0545 80.6194C92.9749 79.4788 93.423 79.7028 92.6694 78.8677C91.9158 78.053 90.8566 79.2751 90.8566 79.2751C88.8808 81.9638 90.9177 83.6544 91.5287 84.1025C91.651 84.6932 91.7324 85.1616 91.8139 85.5079L91.8343 85.7931H91.875C91.9565 86.1801 91.9972 86.3634 91.9972 86.3634C91.9972 86.3634 92.2009 96.6292 93.586 100.621C93.6471 100.621 93.7286 100.621 93.7897 100.621C93.7286 100.621 93.6471 100.621 93.586 100.621C95.1747 104.023 106.561 114.798 112.549 113.169C113.364 112.965 113.792 112.069 113.507 111.254Z" fill="#FFB792"/>
<path d="M122.082 20.3687C122.082 20.3687 143.673 26.4793 141.839 35.0341C140.006 43.5889 162.819 48.8848 162.819 48.8848L149.58 71.2903C149.58 71.2903 129.007 64.7724 128.192 59.0691C127.378 53.3659 109.759 47.3571 109.759 47.3571L122.082 20.3687Z" fill="#FFD049"/>
<path d="M143.449 51.0031C143.632 50.1272 143.204 48.9458 142.491 48.3959C141.962 47.9885 141.371 47.8052 140.78 47.8256C140.454 47.8256 140.23 47.4793 140.373 47.1941L141.982 43.8129C142.226 43.3241 142.002 42.7334 141.514 42.489L129.761 36.8876C129.272 36.6635 128.702 36.8672 128.478 37.3357L122.876 49.068C122.713 49.3939 122.754 49.7809 122.958 50.0661L122.795 50.005L123.182 50.3105C123.222 50.3513 123.284 50.3716 123.345 50.4124L123.609 50.5346L126.624 51.9808C127.052 52.1845 127.541 51.8585 127.5 51.3901C127.479 50.942 127.561 50.4735 127.785 50.0457C128.396 48.8236 129.883 48.2737 131.146 48.8033C132.551 49.3939 133.183 51.0234 132.531 52.3881C132.287 52.8974 131.9 53.3047 131.431 53.5492C131.248 53.651 131.187 53.8547 131.227 54.0176L131.024 53.9769L131.37 54.2417C131.39 54.2621 131.431 54.2824 131.451 54.3028L135.057 56.0138C135.545 56.2582 136.136 56.0341 136.381 55.5453L137.99 52.1845C138.132 51.8789 138.56 51.8382 138.764 52.103C139.008 52.4085 139.334 52.6733 139.701 52.8566C141.208 53.5695 143.062 52.7344 143.449 51.0031Z" fill="#F0F1F0"/>
<path d="M73.5022 66.0356H62.8494C62.8494 66.0356 59.3663 69.702 59.8348 75.0793C59.8348 75.0793 60.8125 73.9591 61.6069 73.3887C61.7494 73.2869 61.9531 73.4091 61.9124 73.5721C61.7291 74.7942 61.892 78.4402 68.1656 84.6322C74.4391 78.4402 74.6021 74.7738 74.4187 73.5721C74.3984 73.3887 74.5817 73.2665 74.7243 73.3887C75.5187 73.9591 76.4964 75.0793 76.4964 75.0793C76.9852 69.6816 73.5022 66.0356 73.5022 66.0356Z" fill="#FFD049"/>
<path d="M68.1454 61.8801C68.1454 61.8801 61.3219 67.2982 68.1454 76.6271C74.9689 67.2982 68.1454 61.8801 68.1454 61.8801Z" fill="#FFE697"/>
<path d="M68.1454 65.3425C68.1454 65.3425 64.0716 68.5812 68.1454 74.1622C72.2191 68.5812 68.1454 65.3425 68.1454 65.3425Z" fill="white"/>
<path d="M60.487 63.5911L61.261 65.078C61.5869 65.7094 62.2387 66.1168 62.972 66.1168H68.1049H73.2378C73.9507 66.1168 74.6025 65.7094 74.9487 65.078L75.7228 63.5911H60.487Z" fill="#79CFCD"/>
<path d="M58.3076 60.7598L59.3056 62.6744C59.7334 63.4892 60.5685 63.9984 61.5054 63.9984H68.1049H68.1253H74.7451C75.6617 63.9984 76.5171 63.4892 76.9449 62.6744L77.9429 60.7598H58.3076Z" fill="#79CFCD"/>
<path d="M77.5761 46.0127C77.5761 46.0127 94.2784 51.7567 93.2193 68.5201C93.2193 68.5201 79.1649 54.2009 71.5063 57.2562L77.5761 46.0127Z" fill="#5B5433"/>
<path d="M58.7756 46.0127C58.7756 46.0127 42.0733 51.7567 43.1325 68.5201C43.1325 68.5201 57.1869 54.2009 64.8455 57.2562L58.7756 46.0127Z" fill="#5B5433"/>
<path d="M76.2114 13.9322C74.2764 9.08443 71.6489 4.33853 68.1047 0V0.0203684V0C64.6013 4.29779 61.9737 8.98258 60.0591 13.7896C63.8069 12.8934 69.4694 12.2823 76.2114 13.9322Z" fill="#FFD049"/>
<path d="M76.4353 14.5025L76.2112 13.9321C67.2897 11.6305 60.0385 13.7895 60.0385 13.7895L59.7533 14.5025C52.3799 33.6083 55.7203 54.364 56.9017 60.2098C57.085 61.1467 57.9202 61.8189 58.8775 61.8189H60.1403H76.1501H77.2704C78.2277 61.8189 79.0629 61.1467 79.2462 60.2098C80.4683 54.364 83.8088 33.6083 76.4353 14.5025Z" fill="#79CFCD"/>
<path d="M67.7786 36.2153C71.5584 36.2153 74.6225 33.1512 74.6225 29.3715C74.6225 25.5917 71.5584 22.5276 67.7786 22.5276C63.9989 22.5276 60.9348 25.5917 60.9348 29.3715C60.9348 33.1512 63.9989 36.2153 67.7786 36.2153Z" fill="#5B5433"/>
<path d="M70.0862 34.5425C72.7622 33.4482 74.0444 30.3918 72.9501 27.7158C71.8559 25.0399 68.7995 23.7576 66.1235 24.8519C63.4475 25.9462 62.1653 29.0026 63.2596 31.6785C64.3538 34.3545 67.4102 35.6367 70.0862 34.5425Z" fill="#E6EEF2"/>
<path d="M67.7786 34.5655C70.6472 34.5655 72.9726 32.2401 72.9726 29.3715C72.9726 26.5029 70.6472 24.1775 67.7786 24.1775C64.91 24.1775 62.5846 26.5029 62.5846 29.3715C62.5846 32.2401 64.91 34.5655 67.7786 34.5655Z" fill="#F0F1F0"/>
<g opacity="0.08">
<path opacity="0.08" d="M68.1045 25.0739C70.1617 25.0739 71.9338 26.2756 72.7689 28.0069C72.1579 25.8071 70.1617 24.198 67.7786 24.198C64.9066 24.198 62.5846 26.52 62.5846 29.392C62.5846 30.2068 62.7679 30.9604 63.1142 31.6529C62.992 31.2048 62.9309 30.7567 62.9309 30.2679C62.9105 27.3959 65.2325 25.0739 68.1045 25.0739Z" fill="#A1BDD6"/>
</g>
<path d="M68.1862 48.0903C62.5848 60.8208 68.1862 71.8402 68.1862 71.8402C68.1862 71.8402 73.7672 60.8411 68.1862 48.0903Z" fill="#5B5433"/>
</g>
<defs>
<clipPath id="clip0_124_1799">
<rect width="200" height="200" fill="white"/>
</clipPath>
</defs>
</svg>
