<svg width="200" height="200" viewBox="0 0 200 200" fill="none" xmlns="http://www.w3.org/2000/svg">
<g clip-path="url(#clip0_124_3091)">
<path d="M99.2891 166.48C154.518 166.48 199.289 159.242 199.289 150.313C199.289 141.384 154.518 134.146 99.2891 134.146C44.0606 134.146 -0.710938 141.384 -0.710938 150.313C-0.710938 159.242 44.0606 166.48 99.2891 166.48Z" fill="#E6EEF2"/>
<path d="M24.4387 136.673H154.631C155.689 136.673 156.554 135.807 156.554 134.749V39.2165C156.554 38.1586 155.689 37.293 154.631 37.293H24.4387C23.3808 37.293 22.5151 38.1586 22.5151 39.2165V134.75C22.5151 135.807 23.3808 136.673 24.4387 136.673Z" fill="white"/>
<path d="M154.619 37.293H24.4508C23.3862 37.293 22.5151 38.164 22.5151 39.2287V43.9264H156.554V39.2287C156.554 38.164 155.683 37.293 154.619 37.293Z" fill="#5B5433"/>
<path d="M30.2033 40.5724C30.2001 41.3755 29.5463 42.0239 28.7432 42.0207C27.9402 42.0175 27.2917 41.3636 27.2949 40.5606C27.2982 39.7575 27.952 39.1091 28.755 39.1123C29.5581 39.1155 30.2065 39.7694 30.2033 40.5724Z" fill="#C9C9C9"/>
<path d="M34.7274 40.5914C34.7241 41.3945 34.0703 42.0429 33.2673 42.0397C32.4642 42.0365 31.8158 41.3827 31.819 40.5796C31.8222 39.7766 32.476 39.1281 33.2791 39.1314C34.0825 39.1346 34.7306 39.7884 34.7274 40.5914Z" fill="#C9C9C9"/>
<path d="M39.2519 40.6098C39.2487 41.4128 38.5948 42.0613 37.7918 42.058C36.9887 42.0548 36.3403 41.401 36.3435 40.598C36.3467 39.7949 37.0006 39.1464 37.8036 39.1497C38.6067 39.1529 39.2551 39.8067 39.2519 40.6098Z" fill="#C9C9C9"/>
<path d="M168.281 155.509C168.281 155.509 172.492 156.228 177.017 156.228C181.21 156.228 185.257 155.509 185.257 155.509L184.928 154.779C183.482 151.569 178.011 152.818 176.769 149.505C175.734 152.818 170.056 151.569 168.61 154.779L168.281 155.509Z" fill="#E6EEF2"/>
<path d="M175.734 151.924H178.011V130.601H175.734V151.924Z" fill="#E6EEF2"/>
<path d="M176.382 150.175L175.388 148.002L173.211 148.804L173.815 151.04L176.382 150.175Z" fill="#F5D09F"/>
<path d="M176.378 150.142L176.9 151.918L174.598 152.645C174.598 152.645 169.401 154.827 168.433 153.815C167.99 153.352 169.681 152.894 170.767 152.175C171.853 151.457 173.559 150.442 173.559 150.442C173.559 150.442 175.057 150.498 176.378 150.142Z" fill="#312D1B"/>
<path d="M164.878 153.387L164.539 151.022L162.224 151.176L162.172 153.491L164.878 153.387Z" fill="#F5D09F"/>
<path d="M164.884 153.355V155.206L162.47 155.253C162.47 155.253 156.869 155.879 156.225 154.636C155.931 154.066 157.683 154.105 158.928 153.722C160.172 153.339 162.095 152.846 162.095 152.846C162.095 152.846 163.516 153.323 164.884 153.355Z" fill="#312D1B"/>
<path d="M143.946 112.615L147.145 111.554L149.977 112.271C151.571 111.856 152.101 111.879 155.366 111.04C158.122 110.331 161.288 108.918 161.288 108.918L163.634 104.984C165.152 105.122 168.341 106.779 168.341 106.779C168.341 106.779 163.979 112.713 162.737 113.127C161.495 113.541 153.121 114.562 149.928 114.196C148.923 114.08 146.955 113.016 146.955 113.016L144.431 113.435L142.463 114.764L142.119 114.48L142.902 113.622L143.946 112.615Z" fill="#E9BB88"/>
<path d="M166.054 97.4937C166.054 97.4937 170.121 98.1744 170.052 101.832C170.007 104.214 166.74 108.664 166.74 108.664C166.74 108.664 164.946 106.179 162.738 105.489C162.738 105.489 164.172 101.282 164.611 99.9662C165.162 98.3123 166.054 97.4937 166.054 97.4937Z" fill="#FFD049"/>
<path d="M172.836 134.327H180.91V129.979H172.836V134.327Z" fill="#E6EEF2"/>
<path d="M173.917 113.07C173.52 107.811 173.237 102.544 173.061 97.2733C178.052 95.0516 189.184 96.043 190.225 99.3396C191.33 102.838 187.12 112.796 187.12 116.522C187.12 120.249 188.569 122.94 188.776 124.596C188.983 126.252 187.949 127.494 187.949 127.494H175.187C174.862 122.681 174.28 117.874 173.917 113.07Z" fill="#E6EEF2"/>
<path d="M173.917 113.071C173.503 107.589 173.214 102.1 173.04 96.6068C178.525 95.3249 187.24 96.4418 188.155 99.34C189.26 102.838 185.05 112.796 185.05 116.523C185.05 120.249 186.499 122.94 186.706 124.596C186.913 126.252 185.878 127.494 185.878 127.494H175.187C174.862 122.681 174.28 117.874 173.917 113.071Z" fill="white"/>
<path d="M163.934 131.429H185.196C186.716 131.429 187.948 130.197 187.948 128.677V127.495H163.934V131.429H163.934Z" fill="white"/>
<path d="M168.487 118.455C168.487 118.455 156.999 125.28 156.316 128.099C155.501 131.462 161.011 151.376 161.011 151.376C162.31 152.25 164.719 151.955 165.605 151.159C165.605 151.159 161.173 134.119 161.656 132.981C162.838 130.194 172.904 126.874 176.078 123.837C179.253 120.801 179.529 117.903 179.529 117.903L168.487 118.455Z" fill="#312D1B"/>
<path d="M181.621 115.403C181.621 115.403 185.535 123.562 182.015 126.875C180.404 128.391 170.765 127.012 170.213 128.531L176.032 147.864C176.032 147.864 175.006 148.488 172.936 149.523C172.936 149.523 160.828 128.186 162.07 125.425C163.312 122.665 171.662 121.078 172.076 119.56C172.49 118.042 172.766 115.557 172.766 115.557L181.621 115.403Z" fill="#312D1B"/>
<path d="M165.021 93.2721C165.271 94.2197 165.715 95.2632 166.645 95.5715C167.5 95.855 168.408 95.3975 169.182 94.9366C170.092 94.3945 171.015 93.7999 171.597 92.9149C172.48 91.5716 173.195 89.9309 173.096 88.3262C173.061 87.7589 172.231 87.0633 171.886 86.6113C171.643 86.2921 171.28 86.0886 170.918 85.9162C170.057 85.5065 169.139 85.2195 168.198 85.0661C166.628 84.8102 164.882 85.1613 164.568 86.8859C164.194 88.9387 164.495 91.2757 165.021 93.2721Z" fill="#F5D09F"/>
<path d="M176.096 95.8545C176.096 95.8545 176.079 95.5446 174.975 95.2685C174.658 95.1892 174.262 95.1885 174.01 94.9683C173.116 94.1869 172.295 92.7326 171.991 91.6611C171.946 91.5023 171.901 91.3342 171.943 91.1746C171.197 91.8072 170.476 92.4693 169.782 93.1586C169.545 93.3947 168.107 93.2611 168.281 93.5811C168.33 93.6708 168.696 94.5081 169.056 95.3193C168.359 95.776 167.592 96.3725 167.592 96.3725L166.625 101.755L169.455 103.342C169.455 103.342 172.629 102.652 174.699 101.548C176.769 100.444 176.096 95.8545 176.096 95.8545Z" fill="#F5D09F"/>
<path d="M174.975 95.2688C174.975 95.2688 174.147 96.7868 172.077 97.6839C170.007 98.581 168.144 95.8898 168.144 95.8898L166.055 97.4936C166.055 97.4936 165.866 104.831 166.764 108.833C167.661 112.836 168.489 118.455 168.489 118.455C168.489 118.455 169.414 119.812 170.597 119.892C172.043 119.989 174.036 118.857 177.184 119.421C180.677 120.047 183.277 119.498 183.277 119.498C183.277 119.498 180.59 106.369 179.969 103.747C179.348 101.124 177.736 95.7519 177.736 95.7519C177.736 95.7519 176.356 95.407 174.975 95.2688Z" fill="#FFD049"/>
<path d="M138.299 114.817H150.494V113.774H137.57V114.087C137.57 114.49 137.897 114.817 138.299 114.817Z" fill="#E6EEF2"/>
<path d="M142.237 101.898C142.597 101.898 142.917 102.123 143.04 102.461L147.144 113.788L146.891 113.894L146.957 114.091L137.57 113.774L133.574 103.047C133.366 102.489 133.779 101.895 134.374 101.896L142.237 101.898Z" fill="#FFD049"/>
<path d="M139.027 108.604C139.305 109.673 139.851 110.525 140.246 110.508C140.641 110.49 140.735 109.61 140.457 108.541C140.178 107.472 139.632 106.62 139.238 106.637C138.843 106.655 138.748 107.535 139.027 108.604Z" fill="white"/>
<path d="M167.343 87.2439C166 87.1554 164.587 87.1476 163.413 86.5364C162.843 86.2393 162.331 85.7651 162.222 85.1667C162.112 84.5683 162.551 83.8743 163.203 83.8312C163.338 83.8223 163.484 83.8374 163.597 83.7683C163.741 83.6801 163.765 83.4972 163.786 83.3384C163.932 82.2736 164.828 81.1998 165.985 81.2262C166.928 81.2475 167.806 81.9738 168.72 81.7539C169.001 81.6864 169.248 81.5338 169.506 81.4095C170.281 81.0351 171.193 80.9113 172.052 81.0635C172.957 81.2243 173.918 81.9388 173.696 82.7687C173.622 83.046 173.423 83.2871 173.37 83.5687C173.181 84.5725 174.781 85.0731 175.097 86.049C175.384 86.9371 174.506 87.8218 174.574 88.7468C174.611 89.261 174.911 89.8653 174.52 90.2311C174.311 90.4264 173.954 90.4749 173.814 90.7173C173.623 91.0474 173.978 91.4225 174.01 91.7961C174.048 92.2594 173.52 92.6473 173.021 92.6081C172.522 92.5689 172.106 92.2 171.91 91.7728C171.714 91.3456 171.699 90.8668 171.715 90.4027C172.56 90.165 173.08 88.7729 172.285 88.4171C171.861 88.2272 171.41 88.6878 171.249 89.0785C170.41 87.7457 169.07 87.2439 167.343 87.2439Z" fill="#312D1B"/>
<path d="M170.772 89.3875C170.493 90.0298 170.214 90.6722 169.935 91.3145C169.823 91.5719 169.705 91.8387 169.491 92.0205C169.165 92.2985 168.688 92.3164 168.268 92.2313C167.847 92.1463 167.044 91.9152 166.617 91.9517C165.641 92.0352 164.923 92.5028 164.861 92.6208C164.735 92.8593 164.911 93.2306 164.915 93.5001C164.919 93.7828 164.874 94.074 164.728 94.3167C164.631 94.4791 164.493 94.6126 164.363 94.7505C164.017 95.1194 163.705 95.5792 163.733 96.0845C163.772 96.7753 164.408 97.258 164.985 97.6409C165.354 97.886 165.736 98.1365 166.171 98.2169C166.463 98.2708 166.764 98.2448 167.06 98.2184C167.676 98.1636 168.298 98.1081 168.891 97.9264C169.482 97.7446 170.05 97.4246 170.422 96.9299C170.739 96.5074 170.895 95.9882 171.043 95.4806C171.282 94.6596 171.518 93.8274 171.547 92.9731C171.575 92.1723 171.421 91.3778 171.339 90.5805C171.269 89.8846 171.254 89.1832 171.295 88.4854C171.3 88.4003 171.309 88.1945 171.183 88.177C171.044 88.1576 171.093 88.3669 171.074 88.4539C171.002 88.7813 170.906 89.0788 170.772 89.3875Z" fill="#312D1B"/>
<path d="M165.626 93.0521C165.494 93.3387 165.561 93.7053 165.788 93.9255C165.89 94.0249 166.03 94.0968 166.171 94.0805C166.313 94.0642 166.445 93.9383 166.433 93.7966C166.429 93.7442 166.408 93.6867 166.436 93.6424C166.463 93.5993 166.522 93.5919 166.573 93.5892C166.764 93.5791 166.996 93.5912 167.086 93.7597C167.113 93.811 167.122 93.8708 167.153 93.9197C167.226 94.0366 167.389 94.051 167.527 94.0397C167.725 94.0234 167.921 93.9799 168.107 93.9104C168.202 93.875 168.297 93.8315 168.366 93.7578C168.435 93.684 168.473 93.5745 168.439 93.4797C168.41 93.4009 168.339 93.3469 168.271 93.2984C167.674 92.8739 166.106 92.0129 165.626 93.0521Z" fill="#F5D09F"/>
<path d="M174.348 128.672C174.348 128.672 173.95 117.534 176.437 116.798C178.923 116.063 184.393 116.273 184.393 116.273L184.891 118.269C184.891 118.269 177.73 117.744 176.735 119.11C175.74 120.476 176.735 128.777 176.735 128.777L174.348 128.672Z" fill="white"/>
<path d="M154.313 112.269L157.512 111.208L160.344 111.925C161.938 111.51 162.469 111.533 165.733 110.694C168.49 109.985 171.655 108.572 171.655 108.572L175.247 103.205C176.765 103.343 178.709 106.433 178.709 106.433C178.709 106.433 174.347 112.367 173.105 112.781C171.863 113.195 162.387 114.294 159.195 113.928C158.189 113.813 156.411 112.712 156.411 112.712L154.799 113.09L152.831 114.418L152.487 114.134L153.27 113.276L154.313 112.269Z" fill="#F5D09F"/>
<path d="M177.735 95.7532C177.735 95.7532 182.014 96.4433 181.944 100.101C181.899 102.483 178.632 106.932 178.632 106.932C178.632 106.932 176.838 104.448 174.63 103.758C174.63 103.758 176.355 100.377 176.493 98.9966C176.631 97.6164 177.735 95.7532 177.735 95.7532Z" fill="#FFD049"/>
<path d="M147.874 114.817H160.069V113.775H147.145V114.088C147.144 114.491 147.471 114.817 147.874 114.817Z" fill="white"/>
<path d="M154.554 114.429H158.862V114.106H154.554V114.429Z" fill="#E6EEF2"/>
<path d="M153.271 114.429H153.908V114.106H153.271V114.429Z" fill="#E6EEF2"/>
<path d="M173.615 156.79H174.408L165.473 117.917H163.791L173.615 156.79Z" fill="white"/>
<path d="M149.405 156.383H150.199L155.947 117.917H154.264L149.405 156.383Z" fill="white"/>
<path d="M137.366 156.618H138.159L131.842 117.917H130.16L137.366 156.618Z" fill="white"/>
<path d="M115.105 156.207H115.899L123.501 117.917H121.818L115.105 156.207Z" fill="white"/>
<path d="M128.317 117.917H170.229V116.18H128.317V117.917Z" fill="#5B5433"/>
<path d="M114.876 117.917H153.527V116.18H114.876V117.917Z" fill="#5B5433"/>
<path d="M129.248 117.052H174.074V114.726H129.248V117.052Z" fill="#5B5433"/>
<path d="M109 117.052H150.564V114.726H109V117.052Z" fill="#E6EEF2"/>
<path d="M82.8764 76.5803C80.4383 72.4026 77.1308 69.0951 72.9535 66.657C68.7754 64.2189 64.2144 63 59.2669 63C54.3202 63 49.7576 64.2193 45.5803 66.657C41.4026 69.0947 38.0955 72.4026 35.657 76.5803C33.2193 80.758 32 85.3198 32 90.2661C32 96.2076 33.7336 101.55 37.2011 106.296C40.6686 111.041 45.148 114.325 50.6389 116.148C51.2782 116.266 51.7511 116.183 52.0588 115.899C52.3665 115.616 52.5201 115.26 52.5201 114.835C52.5201 114.764 52.5142 114.125 52.5022 112.917C52.4899 111.71 52.4843 110.657 52.4843 109.758L51.6679 109.899C51.1472 109.995 50.4904 110.035 49.6975 110.024C48.9049 110.012 48.0821 109.929 47.2303 109.775C46.378 109.622 45.5851 109.267 44.8515 108.711C44.1182 108.155 43.5976 107.427 43.2895 106.528L42.9344 105.711C42.6979 105.167 42.3253 104.563 41.8162 103.901C41.3071 103.238 40.7924 102.788 40.2717 102.552L40.0234 102.374C39.8578 102.255 39.7041 102.113 39.562 101.947C39.4199 101.782 39.3136 101.616 39.2428 101.45C39.1715 101.284 39.2304 101.148 39.4203 101.041C39.6098 100.935 39.9525 100.882 40.4501 100.882L41.1598 100.988C41.6331 101.083 42.2187 101.366 42.9173 101.84C43.6155 102.313 44.1891 102.929 44.6389 103.686C45.1834 104.656 45.8398 105.396 46.6093 105.905C47.3784 106.414 48.1538 106.668 48.9344 106.668C49.715 106.668 50.3897 106.609 50.9581 106.491C51.5258 106.373 52.0584 106.195 52.5556 105.958C52.7685 104.371 53.3485 103.153 54.2951 102.301C52.9461 102.159 51.7332 101.945 50.656 101.661C49.5792 101.377 48.4667 100.916 47.319 100.276C46.1706 99.6373 45.2181 98.844 44.4609 97.8978C43.7038 96.9508 43.0821 95.708 42.5972 94.1699C42.112 92.631 41.8696 90.856 41.8696 88.8442C41.8696 85.9798 42.8046 83.5424 44.6747 81.5302C43.7986 79.3767 43.8814 76.9624 44.9231 74.2879C45.6094 74.0745 46.6276 74.2345 47.9763 74.7671C49.3253 75.2997 50.3133 75.7559 50.9406 76.1341C51.568 76.5122 52.0707 76.8327 52.4497 77.0926C54.6514 76.4776 56.9235 76.1699 59.2665 76.1699C61.6095 76.1699 63.882 76.4776 66.0837 77.0926L67.4328 76.2408C68.3555 75.6723 69.4446 75.1517 70.6985 74.6784C71.9528 74.2051 72.9121 74.0749 73.5753 74.2883C74.6401 76.9628 74.7348 79.3771 73.8587 81.5306C75.7284 83.5428 76.6638 85.981 76.6638 88.8446C76.6638 90.8564 76.4202 92.637 75.9362 94.1874C75.4513 95.7383 74.8244 96.9798 74.0553 97.9153C73.2855 98.8503 72.3265 99.6377 71.1789 100.276C70.0309 100.915 68.9179 101.377 67.8412 101.661C66.764 101.945 65.5511 102.159 64.2021 102.301C65.4325 103.366 66.0479 105.047 66.0479 107.342V114.833C66.0479 115.258 66.196 115.614 66.4921 115.898C66.7879 116.181 67.2552 116.265 67.8945 116.146C73.3862 114.323 77.8656 111.04 81.3331 106.294C84.7998 101.548 86.5342 96.2056 86.5342 90.2641C86.533 85.3194 85.3133 80.758 82.8764 76.5803Z" fill="#FFD049"/>
<path d="M38.216 145.683H16.3357C15.7531 145.683 15.2809 145.211 15.2809 144.628V118.343C15.2809 117.761 15.7531 117.288 16.3357 117.288H38.216C38.7986 117.288 39.2708 117.761 39.2708 118.343V144.628C39.2708 145.211 38.7986 145.683 38.216 145.683Z" fill="#E6EEF2"/>
<path d="M22.7858 120.984H20.5333V121.912H22.7858V120.984Z" fill="white"/>
<path d="M28.0944 120.984H24.0304V121.912H28.0944V120.984Z" fill="white"/>
<path d="M30.5217 122.957H22.0804V123.885H30.5217V122.957Z" fill="white"/>
<path d="M34.0188 122.957H31.7662V123.885H34.0188V122.957Z" fill="#79CFCD"/>
<path d="M30.5217 124.929H22.0804V125.858H30.5217V124.929Z" fill="white"/>
<path d="M34.0188 124.929H31.7662V125.858H34.0188V124.929Z" fill="#79CFCD"/>
<path d="M30.5217 126.903H22.0804V127.831H30.5217V126.903Z" fill="white"/>
<path d="M34.0188 126.903H31.7662V127.831H34.0188V126.903Z" fill="#79CFCD"/>
<path d="M22.7858 128.875H20.5333V129.804H22.7858V128.875Z" fill="white"/>
<path d="M28.0944 128.875H24.0304V129.804H28.0944V128.875Z" fill="white"/>
<path d="M26.3011 130.848H22.0804V131.777H26.3011V130.848Z" fill="#79CFCD"/>
<path d="M34.0187 130.848H27.5455V131.777H34.0187V130.848Z" fill="white"/>
<path d="M26.3011 132.821H22.0804V133.749H26.3011V132.821Z" fill="#79CFCD"/>
<path d="M34.0187 132.821H27.5455V133.749H34.0187V132.821Z" fill="white"/>
<path d="M26.3011 134.794H22.0804V135.722H26.3011V134.794Z" fill="#79CFCD"/>
<path d="M34.0187 134.794H27.5455V135.722H34.0187V134.794Z" fill="white"/>
<path d="M40.9822 149.286H13.5695V130.153L27.2758 141.676L40.9822 130.153V149.286Z" fill="#FFD049"/>
<path opacity="0.81" d="M13.5695 149.286L27.2758 133.36L40.9822 149.286H13.5695Z" fill="#FFD049"/>
<path d="M24.5107 72.3811H16.4111C13.9579 72.3811 11.9695 74.3698 11.9695 76.823V82.5709C11.9695 84.5161 13.2218 86.1649 14.9626 86.7661L15.1047 89.8467L19.0952 87.0125H24.5107C26.9639 87.0125 28.9523 85.0238 28.9523 82.5706V76.8227C28.9526 74.3695 26.9639 72.3811 24.5107 72.3811Z" fill="#E6EEF2"/>
<path d="M34.2955 64.2341H23.6097C20.3733 64.2341 17.7498 66.8577 17.7498 70.0941V77.6775C17.7498 80.9139 20.3733 83.5375 23.6097 83.5375H30.7544L36.0189 87.2765L36.2064 83.2125C38.5033 82.4193 40.1555 80.2439 40.1555 77.6778V70.0944C40.1555 66.8577 37.5319 64.2341 34.2955 64.2341Z" fill="white"/>
<path d="M25.5444 73.6616L23.5374 74.3725L25.5444 75.0834V76.0019L22.4429 74.857V73.8883L25.5444 72.7434V73.6616Z" fill="#FFD049"/>
<path d="M29.5831 71.2773H30.6462L28.57 77.2034H27.507L29.5831 71.2773Z" fill="#FFD049"/>
<path d="M35.6472 73.888V74.8568L32.5457 76.0016V75.0832L34.5526 74.3723L32.5457 73.6614V72.7429L35.6472 73.888Z" fill="#FFD049"/>
<path d="M100.207 64H91V67.3706H100.207V64Z" fill="#FFD049"/>
<path d="M121.906 64H105.294V67.3706H121.906V64Z" fill="#FFD049"/>
<path d="M131.827 71.1628H97.324V74.5335H131.827V71.1628Z" fill="#E6EEF2"/>
<path d="M146.122 71.1628H136.914V74.5335H146.122V71.1628Z" fill="#79CFCD"/>
<path d="M131.827 78.3254H97.324V81.6961H131.827V78.3254Z" fill="#E6EEF2"/>
<path d="M146.122 78.3254H136.914V81.6961H146.122V78.3254Z" fill="#79CFCD"/>
<path d="M131.827 85.4883H97.324V88.8589H131.827V85.4883Z" fill="#E6EEF2"/>
<path d="M146.122 85.4883H136.914V88.8589H146.122V85.4883Z" fill="#79CFCD"/>
<path d="M100.207 92.6511H91V96.0218H100.207V92.6511Z" fill="#FFD049"/>
<path d="M121.906 92.6511H105.294V96.0218H121.906V92.6511Z" fill="#FFD049"/>
<path d="M114.576 99.8137H97.324V103.184H114.576V99.8137Z" fill="#79CFCD"/>
<path d="M146.122 99.8137H119.663V103.184H146.122V99.8137Z" fill="#E6EEF2"/>
<path d="M114.576 106.977H97.324V110.347H114.576V106.977Z" fill="#79CFCD"/>
<path d="M146.122 106.977H119.663V110.347H146.122V106.977Z" fill="#E6EEF2"/>
<path d="M114.576 114.139H97.324V117.51H114.576V114.139Z" fill="#79CFCD"/>
<path d="M146.122 114.139H119.663V117.51H146.122V114.139Z" fill="#E6EEF2"/>
</g>
<defs>
<clipPath id="clip0_124_3091">
<rect width="200" height="200" fill="white"/>
</clipPath>
</defs>
</svg>
