<svg width="200" height="200" viewBox="0 0 200 200" fill="none" xmlns="http://www.w3.org/2000/svg">
<g clip-path="url(#clip0_124_3324)">
<path d="M200 158.692H0V175.176H200V158.692Z" fill="#E6EEF2"/>
<path opacity="0.63" d="M200 154.633H0V164.615H200V154.633Z" fill="#A8A8A8"/>
<path d="M199.959 25H101.471V102.2H199.959V25Z" fill="#E6EEF2"/>
<path d="M112.984 102.2H101.471L168.689 25H180.203L112.984 102.2Z" fill="white"/>
<path d="M132.781 102.2H127.025L194.243 25H200L132.781 102.2Z" fill="white"/>
<path d="M76.6619 25H0V102.2H76.6619V25Z" fill="#E6EEF2"/>
<path d="M56.8648 25L24.4771 62.2334L0 90.3138V77.1433L24.4771 49.0215L45.3924 25H56.8648Z" fill="white"/>
<path d="M9.44325 102.2H3.72778L70.9467 25H76.6622L9.44325 102.2Z" fill="white"/>
<path d="M37.2335 161.301L36.1981 151.527L30.1512 151.237L31.2281 161.964H36.1566L37.2335 161.301Z" fill="#FACBB6"/>
<path d="M30.4411 159.023C30.4411 159.023 35.6596 161.177 38.0617 157.615L49.327 164.283L28.9087 164.407L30.4411 159.023Z" fill="#312D1B"/>
<path d="M49.3216 164.298L28.9033 164.442L28.9171 166.389L49.3354 166.244L49.3216 164.298Z" fill="#312D1B"/>
<path d="M23.8149 90.9762L28.4122 155.006L37.8965 154.923C37.8965 154.923 37.4824 115.205 33.7135 90.355L23.8149 90.9762Z" fill="#312D1B"/>
<path d="M22.9452 161.385L23.1109 151.61L17.1055 151.32L16.9398 162.089L21.8684 162.047L22.9452 161.385Z" fill="#FACBB6"/>
<path d="M16.1531 159.106C16.1531 159.106 21.3716 161.26 23.7738 157.698L35.039 164.366L14.6207 164.491L16.1531 159.106Z" fill="#312D1B"/>
<path d="M35.0337 164.423L14.6154 164.567L14.6291 166.514L35.0474 166.369L35.0337 164.423Z" fill="#312D1B"/>
<path d="M33.0091 91.5976L29.116 91.4733V91.1834L14.4546 91.1006C13.005 114.584 14.9516 155.089 14.9516 155.089L25.7613 155.006L28.7018 99.2596L33.0091 91.5976Z" fill="#312D1B"/>
<path d="M16.94 46.5361C16.94 46.5361 16.8157 41.8146 23.9393 41.4833C30.1104 41.1933 30.9387 43.7612 31.4771 45.5007C32.0155 47.2401 24.5192 51.9616 24.5192 51.9616L16.94 46.5361Z" fill="#181E22"/>
<path d="M20.751 62.2744L20.3783 52.79L26.4665 52.5415L26.8392 61.6945C26.9221 63.3926 25.5968 64.1381 23.8987 64.2209C22.2006 64.2623 20.7925 63.931 20.751 62.2744Z" fill="#FACBB6"/>
<path d="M20.3781 53.8254C20.3781 53.8254 19.5084 59.4581 26.7977 60.8248L26.5906 56.4761L20.3781 53.8254Z" fill="#F1C4B2"/>
<path d="M28.371 42.8088C26.1759 42.8503 32.6783 42.726 31.56 49.6011L29.4064 46.6606L28.371 42.8088Z" fill="#312D1B"/>
<path d="M25.6376 58.9196C28.9095 58.7539 31.4773 56.6831 31.3116 53.4112L30.9803 46.9088C30.8974 45.5007 29.6964 44.3824 28.2882 44.4653L21.5788 44.7966C20.1706 44.8794 19.0523 46.0805 19.1352 47.4887L19.3837 53.0799C19.5908 56.3104 22.9041 59.0439 25.6376 58.9196Z" fill="#FACBB6"/>
<path d="M19.7976 51.2161C19.7976 51.2161 23.0281 49.0624 21.6199 44.7551L18.3066 44.9208C18.3066 44.9208 17.8096 44.1753 17.147 45.2107C16.4843 46.2047 18.0167 50.9262 18.0167 50.9262L19.7976 51.2161Z" fill="#312D1B"/>
<path d="M20.7089 48.8555L21.91 45.5836C21.91 45.5836 29.8205 46.5776 31.7671 44.3411C33.6308 42.1874 32.0984 38.9569 30.5246 38.6256C29.2821 38.3771 27.9568 39.4953 27.0042 40.0338C26.0516 40.5722 23.8151 40.0752 23.1111 40.0338C22.4484 39.9923 19.5078 39.4125 18.5967 42.4773C18.5967 42.4773 13.8338 44.2582 18.7623 52.293C18.8038 52.293 20.7503 51.092 20.7089 48.8555Z" fill="#312D1B"/>
<path d="M21.4544 48.4C21.4544 48.4 21.2473 52.7487 22.1999 53.9912C23.1525 55.2337 23.6909 53.9498 27.1285 53.4114C30.566 52.873 31.4358 54.4468 31.4358 54.4468C31.4358 54.4468 31.2701 58.8369 26.7557 59.044C23.2353 59.2097 17.9754 58.4642 18.6795 52.8316C19.3422 47.2403 19.0937 45.7908 19.0937 45.7908L21.4544 48.4Z" fill="#312D1B"/>
<path d="M27.7907 66.0018C27.7907 66.0018 26.5896 68.7767 32.5536 82.7755C32.5536 82.7755 35.5355 88.7808 36.9023 88.9465C39.1802 89.2364 48.5817 88.5323 53.386 81.4916L46.9251 75.8589L39.8014 80.042L35.4941 69.1909C35.4941 69.1909 32.9677 61.9844 27.7907 66.0018Z" fill="#79CFCD"/>
<path d="M20.6257 62.1087L12.2181 65.6291C11.5555 65.919 11.1413 66.6645 11.2241 67.41L14.1233 92.5083C14.1233 92.5083 25.7613 93.8751 34.4173 92.0527L33.7133 67.617C33.7961 66.8715 33.5062 66.1261 32.9678 65.5876L26.8795 61.6531L20.6257 62.1087Z" fill="#79CFCD"/>
<path d="M20.7915 62.1086L25.2645 63.931L26.9626 61.5288L20.7915 62.1086Z" fill="#FACBB6"/>
<path d="M29.4889 85.2603C29.4889 85.2603 31.5184 89.8161 22.6552 88.5736L13.5022 89.2777L14.2477 86.5028L20.0874 85.9229L26.9625 85.8815L29.4889 85.2603Z" fill="#FACBB6"/>
<path d="M11.8869 65.8774C11.8869 65.8774 7.82808 67.1199 2.94094 80.953C2.94094 80.953 1.11862 86.2543 2.02978 87.2897C3.56219 88.9464 12.3011 91.4314 20.5429 89.4434L19.5904 85.1361L11.4727 83.5623L15.4901 73.0425C15.4901 73.0839 18.4307 66.2916 11.8869 65.8774Z" fill="#79CFCD"/>
<path d="M17.6441 86.1302L33.8379 86.0059V84.1836L17.6441 84.3078C17.1471 84.3078 16.7329 84.722 16.7329 85.219C16.7329 85.716 17.1471 86.1302 17.6441 86.1302Z" fill="#FFD049"/>
<path d="M31.7258 86.0058L53.1796 85.8402C54.422 85.8402 55.4989 85.0118 55.8302 83.8108L59.889 68.7352C60.2618 67.4099 59.2264 66.0845 57.8596 66.1259L38.1454 66.2502C37.3171 66.2502 36.613 66.83 36.4059 67.6169L31.7258 86.0058Z" fill="#FFD049"/>
<path d="M45.1033 76.1075C45.1033 77.2258 46.0144 78.1369 47.1327 78.1369C48.2509 78.1369 49.1621 77.2258 49.1621 76.1075C49.1621 74.9893 48.2509 74.0781 47.1327 74.0781C46.0144 74.0781 45.1033 74.9893 45.1033 76.1075Z" fill="white"/>
<path d="M153.489 78.0125L156.471 79.8349L156.222 81.6986L158.583 83.9351L155.518 87.7454L148.312 82.5684C148.312 82.5684 150.258 76.066 150.714 76.2316C151.128 76.3559 153.489 78.0125 153.489 78.0125Z" fill="#FACBB6"/>
<path d="M149.223 76.1904L150.507 85.7991L155.518 85.9647L156.72 76.1904H149.223Z" fill="#FDE6CF"/>
<path d="M148.146 76.3147H157.589V75.3621H156.719V73.8711L149.016 74.9479V75.4863H148.146V76.4389" fill="#312D1B"/>
<path d="M148.809 82.7344C147.069 82.9001 149.264 78.2614 149.264 78.2614C149.264 78.2614 153.986 77.9715 154.027 78.1786C154.069 78.4271 154.069 78.8412 153.696 78.9241C153.323 79.0069 150.383 79.3797 150.383 79.3797C150.383 79.3797 153.447 79.5039 153.406 79.8352C153.323 80.2908 152.95 80.3322 152.039 80.4979C151.252 80.6222 149.554 80.6636 149.554 80.6636C149.554 80.6636 152.785 80.7464 152.743 80.9121C152.661 81.1192 152.868 81.7404 151.791 81.6161C149.182 81.3262 148.809 82.7344 148.809 82.7344Z" fill="#FACBB6"/>
<path d="M156.388 78.7583C156.388 78.7583 157.506 76.5632 158.914 76.6875C158.914 76.6875 157.258 78.6754 157.009 79.9594C156.802 81.2847 156.678 82.1959 156.678 82.1959H155.932L156.388 78.7583Z" fill="#FACBB6"/>
<path d="M170.056 101.247C170.056 101.247 165.251 133.842 167.488 140.759C169.724 147.675 170.594 153.929 170.594 153.929L181.735 150.781C181.735 150.781 178.049 134.463 177.469 131.357C176.931 128.209 182.646 102.78 182.646 102.78L170.056 101.247Z" fill="#312D1B"/>
<path d="M175.315 103.608L180.575 155.959H191.261C191.261 155.959 187.823 100.543 188.444 100.046C189.066 99.6322 175.315 103.608 175.315 103.608Z" fill="#312D1B"/>
<path d="M171.133 71.6763C171.133 71.6763 170.014 89.2368 167.571 88.6156C165.127 87.9944 158.542 83.3971 158.542 83.3971L154.525 87.6216C154.525 87.6216 166.701 100.626 171.713 95.3251C176.724 89.9823 171.133 71.6763 171.133 71.6763Z" fill="#312D1B"/>
<path d="M174.446 164.739L173.742 161.177L181.528 158.195L182.77 163.455L182.356 163.538C180.617 164.325 172.126 168.094 170.801 168.177C169.227 168.301 174.446 164.739 174.446 164.739Z" fill="#312D1B"/>
<path d="M192.917 113.175L192.048 114.335C192.048 114.335 191.633 115.122 190.639 116.323C190.391 116.654 190.06 116.903 189.728 117.11C189.314 117.358 188.734 117.69 188.32 117.773C187.865 117.855 187.74 118.477 188.154 118.642C188.569 118.808 189.853 118.559 191.054 117.69C192.296 116.779 191.716 119.056 191.509 119.885C191.302 120.713 190.847 123.281 191.054 123.571C191.385 123.944 191.841 123.695 192.048 122.867C192.213 122.038 192.917 119.595 193.373 119.719C193.829 119.843 192.752 124.026 192.752 124.026C192.752 124.026 192.379 124.896 192.876 125.062C193.787 125.352 194.574 120.796 194.615 120.382C194.657 120.092 195.154 120.175 195.071 120.506C194.988 120.837 193.911 124.648 194.864 124.979C195.568 125.186 195.527 121.251 196.231 120.589C196.893 119.926 195.941 123.571 196.645 123.778C196.893 123.861 197.101 123.861 197.349 121.666C197.598 119.429 197.225 113.258 197.225 113.258L192.793 113.3" fill="#FACBB6"/>
<path d="M177.469 65.7947C177.551 65.0906 177.179 62.15 177.179 62.15C177.179 62.15 174.362 61.9429 174.114 59.2923C173.865 56.6416 173.824 50.512 173.824 50.512L178.835 47.9856L184.551 51.8787L185.876 54.7779L184.178 61.6944V65.1734L177.469 65.7947Z" fill="#FACBB6"/>
<path d="M177.178 62.1499C177.178 62.1499 179.042 62.1085 180.782 60.866C180.782 60.866 180.036 62.854 177.22 62.8126L177.178 62.1499Z" fill="#EEC2B0"/>
<path d="M185.752 57.6771C185.007 59.2923 184.551 61.653 184.551 61.653C184.137 62.3985 184.013 60.0792 184.013 60.0792C184.013 60.0792 183.64 57.8427 183.971 56.973C183.971 56.973 185.379 57.4286 185.711 54.985C185.876 53.7839 183.971 53.2041 183.474 54.6537L182.315 54.7779C182.315 54.7779 182.232 50.2635 179.498 51.0919C179.498 51.0919 177.51 52.2515 176.351 51.5474C175.191 50.8434 175.274 50.5949 175.274 50.5949C175.274 50.5949 174.694 51.7959 173.203 51.009C171.671 50.2221 171.505 48.8139 172.002 48.1513C172.292 47.7785 172.582 47.323 173.079 47.2401C173.576 47.1573 174.114 47.3644 174.446 47.7371C174.073 47.1987 174.321 46.4532 174.901 46.0805C175.44 45.7491 176.185 45.7491 176.806 45.9976C177.427 46.2461 177.925 46.6603 178.422 47.033C178.753 46.0805 179.83 45.4178 180.906 45.5006C181.942 45.5835 182.894 46.4118 183.06 47.4058C183.64 46.7431 184.717 46.5775 185.545 46.9502C186.373 47.323 186.912 48.1513 187.078 49.021C187.243 49.8908 187.036 50.7605 186.705 51.5889C187.326 51.2575 188.196 51.506 188.651 52.0444C189.107 52.5828 189.066 53.4112 188.776 54.0324C188.444 54.6537 187.864 55.1507 187.243 55.482C187.74 55.8547 187.864 56.5588 187.575 57.0972C187.285 57.6357 186.581 57.8841 186.001 57.6771" fill="#312D1B"/>
<path d="M183.764 56.1034C183.764 56.1034 183.806 56.1448 183.889 56.1862C183.971 56.2276 184.054 56.2276 184.179 56.2276C184.427 56.1448 184.676 55.772 184.717 55.3993C184.717 55.1922 184.717 54.9851 184.634 54.8194C184.593 54.6538 184.468 54.5295 184.344 54.4881C184.22 54.4467 184.137 54.5295 184.096 54.5709C184.054 54.6124 184.054 54.6952 184.054 54.6952C184.054 54.6952 184.013 54.6538 184.013 54.5709C184.013 54.5295 184.054 54.4881 184.096 54.4467C184.137 54.4053 184.22 54.4053 184.344 54.4053C184.51 54.4467 184.676 54.6124 184.758 54.778C184.841 54.9437 184.883 55.1922 184.841 55.3993C184.8 55.8548 184.51 56.269 184.179 56.3518C184.013 56.3933 183.889 56.3104 183.806 56.269C183.764 56.1448 183.764 56.1034 183.764 56.1034Z" fill="#F19180"/>
<path d="M195.32 72.7529C195.32 72.7529 193.415 64.3039 184.137 65.1737C175.688 66.002 175.688 66.002 175.688 66.002C175.688 66.002 169.89 68.3627 170.677 75.0308C171.464 81.6988 171.878 87.7456 171.671 88.9467C171.464 90.1064 169.435 100.585 170.014 101.33C176.144 108.454 191.675 97.1057 191.675 97.1057L195.32 72.7529Z" fill="#79CFCD"/>
<path d="M184.137 65.1736L186.291 114.625L192.711 111.312L192.048 67.4515C192.048 67.4101 190.308 64.5938 184.137 65.1736Z" fill="#312D1B"/>
<path d="M197.515 114.087L195.32 72.7529C194.616 70.2265 193.166 68.2799 191.261 66.6233V114.625L197.515 114.087Z" fill="#312D1B"/>
<path d="M177.469 65.7949C177.469 65.7949 171.671 68.5284 171.961 77.8471C172.251 87.1244 168.482 113.341 168.482 113.341L163.678 112.388C163.678 112.388 169.269 87.5386 169.517 83.1484C169.766 78.7169 169.352 72.4216 172.458 68.0728C174.694 65.008 177.469 65.7949 177.469 65.7949Z" fill="#312D1B"/>
<path d="M184.137 65.1738C184.137 65.1738 186.042 69.2326 185.835 70.7236C185.628 72.2146 185.007 75.3623 185.007 75.3623C185.007 75.3623 186.415 76.1906 186.291 76.8947C186.167 77.5988 184.841 84.7638 184.841 84.7638L184.137 65.1738Z" fill="#312D1B"/>
<path d="M190.226 75.2793C190.226 75.2793 190.267 75.4035 190.309 75.6935C190.35 75.942 190.35 76.3561 190.391 76.8531C190.474 77.8471 190.557 79.2967 190.64 81.0776C190.806 84.6394 190.888 89.568 190.971 94.9935C191.054 100.419 191.137 105.348 191.178 108.909C191.22 110.69 191.261 112.098 191.261 113.134C191.261 113.631 191.261 114.004 191.261 114.294C191.261 114.542 191.261 114.708 191.22 114.708C191.22 114.708 191.178 114.583 191.137 114.294C191.095 114.045 191.095 113.631 191.054 113.134C190.971 112.14 190.888 110.69 190.806 108.909C190.64 105.348 190.557 100.419 190.474 94.9935C190.391 89.568 190.309 84.6394 190.267 81.0776C190.226 79.2967 190.184 77.8885 190.184 76.8531C190.184 76.3561 190.184 75.9834 190.184 75.6935C190.184 75.4035 190.226 75.2793 190.226 75.2793Z" fill="#312D1B"/>
<path d="M174.363 160.928C174.446 160.887 172.416 153.432 172.416 153.432L179.25 151.527L180.7 158.526L174.363 160.928Z" fill="#FACBB6"/>
<path d="M190.101 155.958H182.356V161.798H190.101V155.958Z" fill="#FACBB6"/>
<path d="M181.569 164.988L182.273 161.426H190.639L189.77 166.644L189.314 166.686C187.409 166.768 178.049 167.265 176.765 166.893C175.357 166.479 181.569 164.988 181.569 164.988Z" fill="#312D1B"/>
<path d="M112.156 122.411C112.156 122.411 95.2995 121.749 92.6903 115.495C90.081 109.241 88.7971 92.7986 80.5967 92.136C72.3962 91.4733 66.9707 91.0591 66.9707 96.6918C66.9707 102.324 63.2846 120.672 74.5499 123.488C85.1111 126.139 99.2755 131.233 109.92 125.766C111.203 125.145 112.032 123.861 112.156 122.411Z" fill="#F9B03D"/>
<path d="M96.5411 126.056L109.38 166.644L113.853 168.052L101.18 128.127C99.7716 127.92 98.3635 127.713 96.5411 126.056Z" fill="#79CFCD"/>
<path d="M61.3793 166.727L75.9993 120.506H71.9819L57.3619 166.727H61.3793Z" fill="#79CFCD"/>
<path d="M67.1778 94.8279C67.1778 94.8279 69.787 112.844 73.4317 113.714C77.0763 114.584 84.3242 113.59 87.2234 115.702C90.1225 117.814 99.4826 128.21 99.4826 128.21C99.4826 128.21 77.4491 127.754 68.793 120.837C60.1784 114.004 67.1778 94.8279 67.1778 94.8279Z" fill="#FFD049"/>
<path d="M96.5002 67.2034C96.873 68.1559 96.5831 69.1914 96.3346 70.1854C96.0861 71.1794 95.9618 72.2976 96.6245 73.1259C97.2872 73.9542 98.5296 74.2442 99.3994 74.9482C100.228 75.6109 100.683 76.6463 100.518 77.5989C100.393 78.2616 100.021 78.9656 100.435 79.5455C100.642 79.8354 101.015 80.0011 101.387 80.1667C102.174 80.498 103.003 80.788 103.748 81.2021C104.494 81.6163 105.156 82.1547 105.488 82.9002C105.943 83.8942 105.612 85.0124 105.198 86.0064C104.825 87.0004 104.287 88.0358 103.251 88.5328C102.464 88.9056 101.512 88.9056 100.6 88.8228C97.9498 88.6157 95.3406 87.9944 92.897 87.0004C91.3646 86.3792 89.8736 85.5509 88.921 84.3498C87.43 82.4446 87.5957 79.9596 88.0099 77.7231C88.2584 76.4807 88.5897 75.1967 89.5837 74.2442C90.5363 73.333 91.9858 72.836 93.4354 72.7946C94.885 72.7118 95.0921 66.7892 96.5002 67.2034Z" fill="#312D1B"/>
<path d="M84.5725 74.0784C83.3714 72.3803 82.8744 70.3095 83.2058 68.3215C83.5785 66.375 84.7796 64.5526 86.5191 63.3516" fill="#312D1B"/>
<path d="M97.0386 107.916C97.0386 107.916 129.136 103.401 134.438 112.886C139.739 122.37 140.277 149.415 140.277 149.415L133.154 150.658C133.154 150.658 125.864 119.637 122.22 118.27C118.534 116.903 93.7667 117.814 93.7667 117.814L97.0386 107.916Z" fill="#EFC5B4"/>
<path d="M140.277 149.415C140.277 149.415 147.525 149.664 146.076 150.368C144.626 151.072 133.278 152.273 133.278 152.273L133.154 150.45L140.277 149.415Z" fill="#312D1B"/>
<path d="M117.996 111.022L117.002 106.093C109.091 105.886 100.766 107.212 92.3589 108.993L117.996 111.022Z" fill="#312D1B"/>
<path d="M93.8498 82.2375C93.8498 82.2375 99.7723 82.0719 100.891 90.935C102.547 103.733 119.776 97.3959 119.776 97.3959L124.829 100.833C124.829 100.833 115.262 108.951 102.547 103.733C89.8738 98.5142 93.8498 82.2375 93.8498 82.2375Z" fill="#FACBB6"/>
<path d="M78.1944 91.0591L77.3661 97.6029L75.5023 109.821C80.5551 112.471 87.8859 112.637 95.0923 113.88C93.3528 107.75 92.773 101.703 95.258 95.6978C95.258 95.6978 97.9501 94.5795 96.749 93.0471C95.2166 91.142 94.8852 89.5267 94.8852 89.5267L78.9813 89.2368" fill="#CDEAFB"/>
<path d="M91.4888 81.7819C91.4059 81.0364 92.0272 78.0958 92.0272 78.0958C92.0272 78.0958 95.2163 78.0958 95.6304 75.4038C96.0446 72.7117 96.4173 66.4578 96.4173 66.4578L90.8675 63.4758L84.8621 67.0791L83.9095 80.6637L91.4888 81.7819Z" fill="#F6B69A"/>
<path d="M92.0271 78.096C92.0271 78.096 89.9148 77.9304 87.9683 76.5222C87.9683 76.5222 88.7138 78.593 91.9028 78.7587L92.0271 78.096Z" fill="#F19180"/>
<path d="M75.7921 109.821C75.7921 109.821 73.7627 122.867 86.4362 124.524L84.9038 109.158L75.7921 109.821Z" fill="#312D1B"/>
<path d="M90.288 110.525C90.288 110.525 131.166 108.91 134.479 116.406C137.793 123.902 131.166 153.391 131.166 153.391L123.38 152.024C123.38 152.024 124.788 123.944 123.048 122.619C121.309 121.293 87.9687 124.731 85.318 124.11C82.3775 123.447 72.9759 112.223 90.288 110.525Z" fill="#FACBB6"/>
<path d="M130.544 152.77C130.544 152.77 137.419 154.923 135.763 155.213C134.106 155.503 123.296 153.722 123.296 153.722V151.154L130.544 152.77Z" fill="#312D1B"/>
<path d="M119.404 97.5614L120.605 96.8573C120.605 96.8573 121.433 96.526 122.675 95.6977C123.007 95.4906 123.255 95.2007 123.504 94.9108C123.752 94.538 124.084 94.041 124.166 93.7097C124.249 93.2955 124.87 93.2127 125.078 93.5855C125.243 93.9168 125.036 95.035 124.084 96.1119C123.172 97.1473 125.533 96.6917 126.361 96.5674C127.231 96.4018 129.923 96.029 130.172 96.2361C130.586 96.526 130.296 96.9402 129.426 97.0644C128.557 97.1887 126.03 97.7685 126.154 98.1412C126.279 98.514 130.627 97.6857 130.627 97.6857C130.627 97.6857 131.539 97.3957 131.704 97.8099C131.994 98.6382 127.273 99.2181 126.817 99.2595C126.486 99.3009 126.61 99.7151 126.941 99.6736C127.273 99.6322 131.29 98.7625 131.58 99.5908C131.828 100.212 127.687 100.088 126.983 100.668C126.279 101.247 130.13 100.461 130.296 101.082C130.379 101.289 130.379 101.496 128.101 101.662C125.782 101.827 119.321 101.413 119.321 101.413V97.5614" fill="#FACBB6"/>
<path d="M94.8852 90.2307V82.403L92.483 81.6989L84.9452 80.5807C84.9452 80.5807 80.348 79.8352 78.6085 80.912C76.869 81.9889 77.6559 90.9762 77.6559 90.9762L94.8852 90.2307Z" fill="#CDEAFB"/>
<path d="M82.2531 80.2908C82.2531 80.2908 72.6859 77.5573 72.2303 91.8046C71.7333 106.3 96.8317 111.022 96.8317 111.022L97.8671 105.679C97.8671 105.679 80.058 99.6323 79.3125 93.5026C78.5256 87.373 82.2531 80.2908 82.2531 80.2908Z" fill="#FACBB6"/>
<path d="M117.498 111.767L128.846 94.9523L127.687 94.2068L116.214 110.483L99.1509 107.584L98.861 108.578L117.498 111.767Z" fill="#A9CCEA"/>
<path d="M97.2045 67.9488C97.2045 67.9488 98.1157 63.6829 91.2405 62.2747C84.3654 60.908 83.5785 68.1144 83.5785 68.1144L87.4302 67.8245L88.4242 66.0436L88.3828 67.8245L91.2405 67.9074L91.1991 66.582L91.9032 67.7003L97.2045 67.9488Z" fill="#312D1B"/>
<path d="M97.2455 105.638C97.2455 105.638 100.062 105.969 101.76 104.354C103.458 102.739 103.831 104.644 102.008 106.093C100.186 107.543 99.3578 107.833 99.3578 107.833C99.3578 107.833 108.428 110.773 106.481 110.69C104.535 110.608 95.5889 110.525 95.5889 110.525L97.2455 105.638Z" fill="#FACBB6"/>
<path d="M117.208 123.654L119.818 111.353C119.818 111.353 85.7733 106.88 80.7204 110.152C75.7091 113.424 77.2001 124.316 86.3945 124.524C95.589 124.731 117.208 123.654 117.208 123.654Z" fill="#312D1B"/>
<path d="M67.1777 94.8281C67.1777 94.8281 69.7869 112.844 73.4315 113.714C77.0762 114.584 84.3241 113.59 87.2232 115.702C90.1224 117.814 99.4825 128.21 99.4825 128.21C99.4825 128.21 77.4489 127.754 68.7929 120.838C60.1783 114.004 67.1777 94.8281 67.1777 94.8281Z" fill="#FFD049"/>
<path d="M54.2554 107.709H49.5753V166.562H54.2554V107.709Z" fill="#5B5433"/>
<path d="M28.4529 107.709H23.7728V166.562H28.4529V107.709Z" fill="#5B5433"/>
<path d="M169.6 107.709H164.92V166.562H169.6V107.709Z" fill="#5B5433"/>
<path d="M143.798 107.709H139.118V166.562H143.798V107.709Z" fill="#5B5433"/>
<path d="M172.831 106.176H20.5836V110.939H172.831V106.176Z" fill="#5B5433"/>
<path d="M54.4209 106.176H20.5836V110.939H54.4209V106.176Z" fill="#5B5433"/>
<path d="M132.326 105.679H104.328L109.298 91.0591H137.337L132.326 105.679Z" fill="#E6EEF2"/>
<path d="M132.409 105.431H93.3528V106.135H132.409V105.431Z" fill="#E6EEF2"/>
<path d="M123.338 98.7627C123.338 99.4668 122.634 100.047 121.764 100.047C120.895 100.047 120.191 99.4668 120.191 98.7627C120.191 98.0586 120.895 97.4788 121.764 97.4788C122.634 97.4788 123.338 98.0586 123.338 98.7627Z" fill="#E6EEF2"/>
<path d="M141.52 106.135H140.857C139.573 106.135 138.538 105.099 138.538 103.815V100.709H143.839V103.815C143.798 105.099 142.762 106.135 141.52 106.135Z" fill="#FFD049"/>
<path d="M144.171 104.188C143.922 104.188 143.715 104.147 143.467 104.064L143.757 103.567C144.419 103.815 144.833 103.443 145.082 103.07C145.455 102.449 145.413 101.744 145.165 101.62C144.502 101.289 143.674 101.744 143.674 101.786L143.301 101.33C143.342 101.289 144.461 100.668 145.538 101.165C146.242 101.496 146.2 102.573 145.703 103.36C145.33 103.857 144.792 104.188 144.171 104.188Z" fill="#FFD049"/>
</g>
<defs>
<clipPath id="clip0_124_3324">
<rect width="200" height="200" fill="white"/>
</clipPath>
</defs>
</svg>
