<svg width="200" height="200" viewBox="0 0 200 200" fill="none" xmlns="http://www.w3.org/2000/svg">
<g opacity="0.5">
<path opacity="0.5" d="M132.083 150.281C123.601 149.755 116.412 142.496 116.357 136.375C116.31 131.319 121.158 130.006 121.323 123.628C121.465 118.119 117.906 116.897 118.509 112.206C119.142 107.28 123.966 101.622 129.766 101.611C136.431 101.598 140.968 109.05 141.354 115.02C141.616 119.078 139.135 119.639 139.202 123.463C139.339 131.285 149.104 133.513 148.969 139.355C148.845 144.718 140.432 150.798 132.083 150.281Z" fill="#E6EEF2"/>
</g>
<path d="M132.005 109.888H131.512V154.419H132.005V109.888Z" fill="#E6EEF2"/>
<path d="M131.693 125.347C127.573 125.07 127.001 119.023 126.979 118.766L127.47 118.724C127.475 118.782 128.027 124.606 131.727 124.855L131.693 125.347Z" fill="#E6EEF2"/>
<path d="M125.768 154.088H137.57C138.727 154.088 139.646 155.059 139.584 156.214L137.977 186.026C137.921 187.065 137.083 187.891 136.043 187.933L127.451 188.276C126.348 188.321 125.415 187.47 125.356 186.368L123.754 156.212C123.692 155.058 124.612 154.088 125.768 154.088Z" fill="#E6EEF2"/>
<path d="M131.693 140.908C128.745 140.709 128.338 136.414 128.323 136.231L128.814 136.188C128.817 136.229 129.199 140.246 131.727 140.416L131.693 140.908Z" fill="#E6EEF2"/>
<path d="M131.541 134.451L131.517 133.959C134.972 133.792 135.476 129.928 135.481 129.889L135.971 129.948C135.965 129.991 135.406 134.264 131.541 134.451Z" fill="#E6EEF2"/>
<path d="M131.705 145.874L131.681 145.382C134.118 145.264 134.473 142.608 134.486 142.495L134.976 142.554C134.972 142.586 134.56 145.736 131.705 145.874Z" fill="#E6EEF2"/>
<path d="M82.3022 184.655H0V40.1943H82.3022V184.655ZM0.959233 183.696H81.343V41.1536H0.959233V183.696Z" fill="#E6EEF2"/>
<path d="M75.8757 94.5829H5.27612V47.3887H75.8757V94.5829ZM6.23536 93.6237H74.9164V48.3479H6.23536V93.6237Z" fill="#E6EEF2"/>
<path d="M61.0083 56.3091H22.8308V63.4074H61.0083V56.3091Z" fill="#E6EEF2"/>
<path d="M75.8757 147.916H5.27612V100.722H75.8757V147.916ZM6.23536 146.957H74.9164V101.681H6.23536V146.957Z" fill="#E6EEF2"/>
<path d="M61.0084 109.643H22.8309V116.741H61.0084V109.643Z" fill="#E6EEF2"/>
<path d="M75.8757 199.906H5.27612V152.712H75.8757V199.906ZM6.23536 198.947H74.9164V153.671H6.23536V198.947Z" fill="#E6EEF2"/>
<path d="M61.0083 161.633H22.8308V168.732H61.0083V161.633Z" fill="#E6EEF2"/>
<path d="M182.541 67.9161C192.183 67.9161 199.999 60.0998 199.999 50.458C199.999 40.8162 192.183 33 182.541 33C172.899 33 165.083 40.8162 165.083 50.458C165.083 60.0998 172.899 67.9161 182.541 67.9161Z" fill="#79CFCD"/>
<path d="M182.542 63.6955C189.852 63.6955 195.779 57.7689 195.779 50.4581C195.779 43.1473 189.852 37.2207 182.542 37.2207C175.231 37.2207 169.304 43.1473 169.304 50.4581C169.304 57.7689 175.231 63.6955 182.542 63.6955Z" fill="#E6EEF2"/>
<path d="M188.488 50.9377H182.061V40.4821C182.061 40.2171 182.275 40.0024 182.54 40.0024C182.805 40.0024 183.02 40.2171 183.02 40.4821V49.9785H188.488C188.753 49.9785 188.967 50.1931 188.967 50.4581C188.967 50.723 188.753 50.9377 188.488 50.9377Z" fill="#5B5433"/>
<path d="M183.31 172.473L180.528 175.255L15.5404 175.447L16.6915 141.106L19.4733 138.324L111.034 140.663L118.998 140.866L119.471 140.878L122.092 140.945L124.557 141.008L128.381 141.106L132.452 143.431H132.454L133.612 144.093L135.141 144.966L139.067 147.209L138.042 149.133C140.527 149.789 143.186 150.46 145.854 151.084L167.036 163.18L169.925 164.83L183.31 172.473Z" fill="#5B5433"/>
<path d="M152.977 152.609C150.678 152.172 148.263 151.648 145.853 151.084L139.066 147.209L140.528 144.463L135.108 144.174C135.064 143.097 135.027 141.981 135.001 140.837L152.977 152.609Z" fill="#5B5433"/>
<path d="M145.853 151.084C143.185 150.461 140.526 149.789 138.041 149.133L139.066 147.209L145.853 151.084Z" fill="#5B5433"/>
<path d="M183.311 172.473L18.3225 172.665L19.4736 138.324H131.163L135.002 140.837C135.029 141.981 135.065 143.097 135.109 144.174L140.529 144.463L139.067 147.209L138.042 149.133C140.527 149.789 143.186 150.46 145.854 151.084C148.264 151.648 150.679 152.172 152.978 152.609L156.437 154.875L169.171 163.212L171.336 164.63L183.311 172.473Z" fill="#5B5433"/>
<path d="M92.7587 159.811L105.804 145.998L132.855 152.521L121.536 164.991L92.7587 159.811Z" fill="#E6EEF2"/>
<path d="M140.528 144.464L139.067 147.209L138.042 149.133L135.698 153.534L133.655 157.369L131.128 162.113L125.129 161.033L102.351 156.934L111.404 147.349L112.97 145.689L115.397 143.121L121.265 143.433L121.729 143.458L122.811 143.518L126.027 143.688L129.758 143.888L133.612 144.093L135.109 144.174L140.528 144.464Z" fill="#E6EEF2"/>
<path d="M48.5376 104.655C48.5376 104.655 43.3577 100.626 45.2762 96.5972C47.1947 92.5684 48.9213 91.4173 49.1131 87.3885C49.305 83.3598 49.305 76.6451 52.5664 73.9593C55.8278 71.2734 57.5544 71.2734 57.5544 71.2734C57.5544 71.2734 60.8158 67.4365 67.3386 67.0528C73.8614 66.6691 78.2739 68.5876 80.0005 72.0408C81.7271 75.4941 80.1923 77.6044 77.8902 80.2902C75.588 82.9761 75.9759 95.3179 75.9759 95.3179C75.9759 95.3179 78.4657 100.434 77.8902 105.998C77.3146 111.561 72.7103 112.712 72.7103 112.712L48.5376 104.655Z" fill="#5B5433"/>
<path d="M63.214 93.6235C63.9814 96.5013 66.6672 99.1872 69.3531 100.914C69.5246 101.021 69.6834 101.103 69.8327 101.164V99.0912C69.8962 99.0947 69.957 99.0932 70.0196 99.0949C67.8181 97.0747 65.124 96.0547 63.214 93.6235Z" fill="#FCD2B1"/>
<path d="M77.3143 76.453L66.7627 71.8486L55.6356 77.9877L56.5949 101.201C59.2807 105.23 69.8322 103.887 69.8322 103.887V101.164C69.683 101.103 69.5241 101.021 69.3526 100.913C66.6668 99.1868 63.9809 96.5009 63.2135 93.6232C65.1236 96.0541 67.8177 97.0744 70.0191 99.0945C80.5348 99.3884 77.3143 76.453 77.3143 76.453Z" fill="#FFE3CA"/>
<path d="M69.8336 103.888C69.8336 103.888 76.1645 115.974 76.9319 119.043C77.6993 122.113 76.5482 130.362 76.9319 131.322C77.3156 132.281 78.4667 140.338 78.4667 140.338L40.4811 140.147L46.2365 97.5566L56.5962 101.202" fill="#FFD049"/>
<path d="M69.6408 73.959C69.6408 73.959 65.9957 83.1676 59.6648 81.2491C59.6648 81.2491 56.4899 77.7462 56.1588 81.5122C55.8278 85.2779 59.0892 85.8534 59.0892 85.8534L56.5952 101.201L53.142 99.0909V92.1844V80.8654L54.1012 74.5345L66.7631 69.9302L73.4777 70.6976L79.8086 74.5345C79.8086 74.5345 79.3474 80.1777 77.9473 80.3298C76.5472 80.4817 71.3674 76.8367 69.6408 73.959Z" fill="#5B5433"/>
<path d="M38.9457 135.35C44.4057 136.935 66.6753 140.783 70.2935 141.405C63.0168 143.227 55.4848 145.604 52.1832 146.677C43.6326 146.226 34.4009 145.514 30.5045 143.216C23.0225 138.803 36.8354 105.422 36.8354 105.422L47.7707 108.491L38.9457 135.35Z" fill="#FFE3CA"/>
<path d="M85.2771 149.259C84.126 150.219 83.1456 149.296 82.4857 149.566C81.8238 149.835 80.6727 150.794 79.9053 150.602C79.138 150.41 78.5624 151.37 78.1787 151.178C77.795 150.986 76.8147 150.978 76.3466 150.694C76.1528 150.577 75.3317 150.284 74.3744 149.95C77.7854 149.261 81.2022 148.542 84.2526 147.836C85.1159 148.458 85.6013 148.989 85.2771 149.259Z" fill="#FFE3CA"/>
<path d="M80.001 106.574C77.1233 105.422 69.8331 103.888 69.8331 103.888L74.9282 120.143C79.4563 119.757 84.1178 118.621 87.9341 116.32C84.9779 111.134 81.9294 107.345 80.001 106.574Z" fill="#FFD049"/>
<path d="M84.2518 147.835C81.2014 148.541 77.7847 149.261 74.3736 149.949C72.9962 149.47 71.3405 148.91 70.8878 148.683C70.1204 148.3 66.648 147.638 66.648 147.638C63.3463 147.166 57.919 146.98 52.1827 146.677C55.4844 145.604 63.0163 143.227 70.2931 141.405C70.3602 141.416 70.4235 141.426 70.4772 141.435L70.5041 141.393C70.5041 141.393 79.329 142.928 80.8638 143.312C82.3986 143.695 79.9046 144.271 77.4106 144.079C77.4106 144.079 82.0552 146.253 84.2518 147.835Z" fill="#FCD2B1"/>
<path d="M92.0865 124.799C90.8209 121.761 89.3882 118.872 87.9332 116.32C84.117 118.621 79.4555 119.757 74.9273 120.143L77.8898 129.595L82.8778 140.147C72.3263 141.298 51.7987 148.204 51.7987 148.204L56.0193 154.919C61.5829 153.384 92.0865 148.396 96.1153 145.518C100.144 142.641 95.9234 134.007 92.0865 124.799Z" fill="#FFE3CA"/>
<path d="M52.4943 148.096C52.4943 148.096 47.6745 149.068 45.1805 149.259C42.6865 149.451 39.4251 150.602 39.8088 151.37C40.1925 152.137 44.7968 151.178 44.7968 151.178C44.7968 151.178 38.0822 155.782 37.8903 159.044C37.6985 162.305 39.6169 159.427 39.6169 159.427C39.6169 159.427 39.8088 161.154 40.3843 161.346C40.9599 161.538 42.3028 159.811 42.6865 160.195C43.0702 160.578 43.4539 160.77 44.0294 160.77C44.605 160.77 44.9886 160.195 45.5642 160.195C46.1397 160.195 47.4827 160.003 47.4827 160.003C47.4827 160.003 53.6217 155.398 56.1158 154.823C58.6098 154.247 52.4943 148.096 52.4943 148.096Z" fill="#FFE3CA"/>
<path d="M49.1132 108.3C49.1132 108.3 51.4154 99.8586 48.7295 98.132C46.0437 96.4053 39.9046 92.3766 33.9574 106.573C33.9574 106.573 45.8518 113.48 47.3866 111.753C48.9214 110.026 49.1132 108.3 49.1132 108.3Z" fill="#FFD049"/>
<path d="M83.9328 143.12H70.5803V159.811H83.9328V143.12Z" fill="#FFD049"/>
<path d="M70.5806 146.499V144.821C67.7369 145.649 65.6528 148.278 65.6528 151.386C65.6528 154.494 67.7369 157.123 70.5806 157.951V156.272C68.6286 155.508 67.2425 153.606 67.2425 151.386C67.2425 149.165 68.6286 147.264 70.5806 146.499Z" fill="#FFD049"/>
<path d="M175.06 165.183C175.06 165.183 153.364 154.09 155.662 154.528L137.686 142.756C137.489 134.188 137.886 124.231 140.336 119.331C144.253 111.496 148.031 108.289 149.283 107.377C149.565 107.17 149.719 107.082 149.719 107.082L160.096 107.053C160.096 107.053 162.074 107.661 164.643 109.025C166.151 109.823 167.864 110.884 169.496 112.233C169.612 112.329 169.727 112.456 169.838 112.613C170.885 114.09 171.739 118.207 172.428 123.527C172.714 125.729 172.971 128.139 173.201 130.652C174.611 145.977 175.06 165.183 175.06 165.183Z" fill="#FFD049"/>
<path d="M154.725 98.228C153.265 100.822 150.436 101.909 147.973 103.226C148.51 103.319 148.777 103.216 148.777 103.216L149.19 106.518C152.538 105.089 155.323 102.417 154.725 98.228Z" fill="#FCD2B1"/>
<path d="M163.24 96.1085L163.583 78.9617L141.292 75.5322C141.292 75.5322 138.549 94.7366 142.664 99.3662C145.278 102.307 147.036 103.064 147.972 103.226C150.435 101.909 153.264 100.823 154.724 98.2282C155.322 102.417 152.537 105.089 149.189 106.518L149.352 108.012C149.352 108.012 161.613 109.89 164.7 109.547L163.24 96.1085Z" fill="#FFE3CA"/>
<path d="M124.273 154.481C124.221 154.458 124.194 154.447 124.194 154.447L124.196 154.443C124.223 154.456 124.248 154.47 124.273 154.481Z" fill="#FFE3CA"/>
<path d="M181.884 161.606C180.487 164.386 177.679 165.911 174.02 166.548C173.563 166.629 173.093 166.696 172.61 166.748C162.504 167.855 147.056 163.187 136.34 159.287C134.96 158.784 133.659 158.295 132.458 157.835C128.944 156.48 126.283 155.354 125.015 154.807C124.66 154.654 124.414 154.544 124.29 154.489C124.284 154.487 124.278 154.485 124.272 154.481C124.247 154.47 124.223 154.456 124.196 154.443C123.327 154.007 121.84 153.213 120.257 152.137C119.952 151.93 120.192 152.137 119.353 151.264C119.135 151.062 118.764 150.717 118.308 150.284C117.554 149.564 116.57 148.595 115.655 147.607C114.377 146.236 113.232 144.829 113.024 144.004C112.553 142.136 114.782 143.997 115.081 144.254C114.922 144.079 114.179 143.295 113.719 142.581C113.358 142.021 113.17 141.505 113.571 141.369C114.177 141.159 114.049 140.71 113.798 140.242C113.546 139.772 113.172 139.285 113.306 139.011C113.424 138.773 113.901 138.878 114.402 139.076C114.371 138.967 114.339 138.861 114.308 138.757C113.243 135.18 116.503 137.971 119.066 140.242C119.392 140.532 119.706 140.812 120 141.069C120.564 141.564 121.134 142.169 121.682 142.784C122.515 143.719 123.302 144.684 123.95 145.351C124.426 145.84 124.827 146.168 125.117 146.207C125.345 146.238 125.464 146.088 125.494 145.806C125.508 145.7 125.506 145.576 125.496 145.436C125.443 144.81 125.168 143.872 124.777 142.863C124.514 142.188 124.199 141.48 123.862 140.812C123.743 140.574 123.672 140.386 123.641 140.242C123.54 139.721 123.99 139.786 124.66 140.242C125.402 140.747 126.413 141.731 127.242 142.926C127.624 143.477 127.965 144.074 128.224 144.689C128.363 145.016 128.526 145.321 128.712 145.606C128.754 145.674 128.798 145.741 128.846 145.806C130.319 147.907 132.892 148.864 133.836 149.157C133.857 149.163 133.876 149.169 133.895 149.175C133.934 149.186 133.968 149.196 134.001 149.205C134.045 149.219 134.083 149.23 134.114 149.238C134.137 149.244 134.154 149.248 134.168 149.251C134.177 149.255 134.185 149.257 134.195 149.261C135.361 149.591 136.643 149.95 138.009 150.322C138.883 150.56 139.793 150.805 140.727 151.051C143.211 151.707 145.87 152.379 148.539 153.002C150.949 153.566 153.364 154.09 155.662 154.527C163.104 155.945 169.314 156.453 170.072 154.439C171.221 151.389 169.116 140.705 167.436 133.349C166.479 129.158 165.659 126.046 165.659 126.046L172.428 123.527L179.041 121.067C179.041 121.067 179.988 123.348 181.105 126.955C183.708 135.356 187.242 150.947 181.884 161.606Z" fill="#FFE3CA"/>
<path d="M134.113 149.238C134.083 149.231 134.044 149.219 134 149.206C134.039 149.215 134.075 149.227 134.113 149.238Z" fill="#FFE3CA"/>
<path d="M157.068 89.0782L155.011 88.7351C155.011 88.7351 156.039 81.5334 152.61 80.5047C149.181 79.4759 141.122 80.1617 139.064 76.7325C137.007 73.303 143.008 64.2153 151.581 66.9589C160.155 69.7023 163.07 72.4459 163.07 72.4459C163.07 72.4459 168.214 70.2168 171.815 73.9891C175.972 78.3444 167.528 100.738 165.47 101.595C163.412 102.453 160.498 99.8806 160.498 99.8806V92.5076C160.498 92.5076 163.07 89.7642 161.355 87.878C159.64 85.9917 157.068 89.0782 157.068 89.0782Z" fill="#5B5433"/>
<path d="M166.234 133.912C166.234 133.912 156.982 117.81 164.516 113.595C172.05 109.379 178.445 117.98 182.558 126.274L166.234 133.912Z" fill="#FFD049"/>
<path d="M125.015 154.807L124.988 154.823C124.988 154.823 124.729 154.707 124.29 154.489C124.415 154.544 124.66 154.654 125.015 154.807Z" fill="#FFE3CA"/>
<path d="M134.196 149.259L134.194 149.261C134.184 149.257 134.177 149.255 134.167 149.251C134.186 149.257 134.196 149.259 134.196 149.259Z" fill="#FFE3CA"/>
<path d="M135.539 92.4725L125.968 87.1008H87.7694C86.5033 87.1008 85.4673 86.0648 85.4673 84.7986V72.1156C85.4673 70.8494 86.5033 69.8135 87.7694 69.8135H131.51C132.777 69.8135 133.813 70.8494 133.813 72.1156V82.9761L135.539 92.4725Z" fill="#FFD049"/>
<path d="M99.4139 80.7971C100.706 80.7971 101.754 79.7495 101.754 78.4571C101.754 77.1648 100.706 76.1172 99.4139 76.1172C98.1216 76.1172 97.074 77.1648 97.074 78.4571C97.074 79.7495 98.1216 80.7971 99.4139 80.7971Z" fill="#E6EEF2"/>
<path d="M109.639 80.7971C110.932 80.7971 111.979 79.7495 111.979 78.4571C111.979 77.1648 110.932 76.1172 109.639 76.1172C108.347 76.1172 107.3 77.1648 107.3 78.4571C107.3 79.7495 108.347 80.7971 109.639 80.7971Z" fill="#E6EEF2"/>
<path d="M119.867 80.7971C121.159 80.7971 122.207 79.7495 122.207 78.4571C122.207 77.1648 121.159 76.1172 119.867 76.1172C118.575 76.1172 117.527 77.1648 117.527 78.4571C117.527 79.7495 118.575 80.7971 119.867 80.7971Z" fill="#E6EEF2"/>
<path d="M85.4668 61.7771L95.038 56.4054H133.237C134.503 56.4054 135.539 55.3695 135.539 54.1033V41.4203C135.539 40.1541 134.503 39.1182 133.237 39.1182H89.4956C88.2294 39.1182 87.1934 40.1541 87.1934 41.4203V52.2807L85.4668 61.7771Z" fill="#FFD049"/>
<path d="M128.153 46.2379H94.772C94.2972 46.2379 93.9087 45.8494 93.9087 45.3745C93.9087 44.8997 94.2972 44.5112 94.772 44.5112H128.153C128.628 44.5112 129.017 44.8997 129.017 45.3745C129.017 45.8494 128.628 46.2379 128.153 46.2379Z" fill="#E6EEF2"/>
<path d="M128.153 51.4175H94.772C94.2972 51.4175 93.9087 51.0291 93.9087 50.5542C93.9087 50.0794 94.2972 49.6909 94.772 49.6909H128.153C128.628 49.6909 129.017 50.0794 129.017 50.5542C129.017 51.0291 128.628 51.4175 128.153 51.4175Z" fill="#E6EEF2"/>
</svg>
