<svg width="200" height="200" viewBox="0 0 200 200" fill="none" xmlns="http://www.w3.org/2000/svg">
<path d="M196.771 187.376H3.22906C1.45308 187.376 0 185.923 0 184.147V158.981C0 157.205 1.45308 155.751 3.22906 155.751H196.771C198.547 155.751 200 157.205 200 158.981V184.147C200 185.923 198.547 187.376 196.771 187.376Z" fill="#F2F2F2"/>
<path d="M109.284 109.475C109.284 109.475 112.573 114.379 114.975 118.093C116.529 120.494 116.973 123.441 116.186 126.186C113.239 136.599 105.853 162.755 105.853 162.755L99.3946 162.351L105.772 126.246C105.954 125.217 105.57 124.188 104.763 123.542C101.05 120.555 92.0889 113.31 90.5147 105.641C88.6984 96.7607 104.036 96.9625 104.036 96.9625L109.284 109.475Z" fill="#FFE3CA"/>
<path d="M40.868 164.773C40.868 164.773 46.317 177.083 46.317 178.698C46.317 180.313 37.4371 183.138 34.6116 179.303C32.3311 176.196 31.5844 169.818 31.1808 168.405C30.8982 167.416 31.4229 162.351 34.2282 161.947C37.8205 162.149 40.868 164.773 40.868 164.773Z" fill="#5B5433"/>
<path d="M58.0222 91.917C58.5469 96.8413 59.1726 107.295 59.5358 113.834C59.7175 117.245 58.6882 120.615 56.6095 123.34C49.6468 132.462 35.9233 154.016 33.4006 164.773C35.8224 168.607 40.8678 164.773 40.8678 164.773C40.8678 164.773 60.6055 138.153 69.4248 125.741C72.1897 121.826 73.8043 117.225 74.0464 112.442C74.4097 105.358 74.7932 95.7717 74.7932 95.7717L58.0222 91.917Z" fill="#FFE3CA"/>
<path d="M80.02 74.3591C59.4347 77.5478 51.685 90.3632 48.7183 91.0897C55.9837 99.5257 85.2672 116.519 97.0735 112.22C100.323 107.053 98.6476 102.997 98.6476 102.997L103.491 111.191C103.491 111.191 108.093 114.056 111.261 110.504C107.669 101.766 102.523 84.7729 95.358 79.8082C85.8525 77.8506 80.02 74.3591 80.02 74.3591Z" fill="#79CFCD"/>
<path d="M77.0131 37.9512C77.0131 37.9512 44.7024 42.27 36.2261 46.5082C36.2261 48.1227 38.8497 49.5354 38.8497 49.5354C38.8497 49.5354 67.77 43.9653 77.0131 44.7322C83.4309 41.2206 77.0131 37.9512 77.0131 37.9512Z" fill="#FFE3CA"/>
<path d="M95.3582 37.0231C92.7346 36.6195 71.342 38.4358 71.342 38.4358C71.342 38.4358 71.7457 44.4903 73.7638 47.5176C76.3874 47.3158 89.1019 46.5085 89.1019 46.5085L95.7618 38.234L95.3582 37.0231Z" fill="#FFD049"/>
<path d="M124.036 53.7334C128.052 58.4156 143.592 72.5427 146.418 74.1572C149.243 75.7718 146.418 77.7899 146.418 77.7899C146.418 77.7899 121.594 64.4701 115.742 56.5992C114.733 52.5629 124.036 53.7334 124.036 53.7334Z" fill="#FFE3CA"/>
<path d="M124.42 54.1776C123.814 57.003 116.549 61.8466 116.549 61.8466L109.889 54.5812C109.929 54.662 111.06 57.0636 109.163 61.9475C108.012 64.9142 105.752 68.8093 101.433 73.6529C99.7377 75.55 97.7397 77.6085 95.3583 79.7881C82.0384 75.9536 80.0203 74.3391 80.0203 74.3391L80.6661 69.1322L82.4824 54.5207L83.4511 46.7104C83.4511 46.7104 92.5329 37.4268 98.3856 37.0232C104.844 37.225 106.055 38.4359 106.055 38.4359C113.724 41.2613 122.2 51.554 124.42 54.1776Z" fill="#FFD049"/>
<path d="M106.095 41.0996C106.055 41.0592 100 48.1228 100 48.1228L95.8022 39.5859L106.095 41.0996Z" fill="#F9CFAC"/>
<path d="M115.217 32.6433C113.259 38.2135 106.963 42.8149 101.413 40.8573C95.8627 38.8996 93.1382 31.1297 95.0958 25.5596C97.0535 19.9895 103.148 17.0631 108.718 19.0207C114.268 20.9582 117.175 27.0732 115.217 32.6433Z" fill="#5B5433"/>
<path d="M109.687 34.9036C109.687 40.6351 104.299 42.4717 100.404 42.4717C96.5086 42.4717 94.9546 39.727 94.9546 33.9954C94.9546 28.2638 98.1231 24.51 102.018 24.51C105.913 24.51 109.687 29.172 109.687 34.9036Z" fill="#FFE3CA"/>
<path d="M98.1837 26.932C98.991 27.7392 100 28.7483 100.807 28.7483C101.615 28.7483 104.238 27.1338 105.045 27.3356C105.853 27.5374 107.467 32.9865 108.275 33.1883C109.082 33.3901 110.091 32.9865 110.091 32.9865C110.091 32.9865 108.073 22.8957 105.247 23.0975C102.422 23.2993 95.9637 24.1066 95.3583 27.7392C95.3583 29.9592 95.5601 30.161 98.1837 26.932Z" fill="#5B5433"/>
<path d="M95.8022 29.0918C97.78 25.9232 100 23.9051 104.44 25.3178C108.88 26.7305 109.687 34.6215 109.687 34.6215C109.687 34.6215 113.441 24.1674 103.835 23.0978C96.5691 22.2906 95.8022 29.0918 95.8022 29.0918Z" fill="#FFD049"/>
<path d="M111.382 34.9922C111.822 33.9681 111.556 32.8704 110.788 32.5404C110.02 32.2103 109.04 32.773 108.6 33.7971C108.16 34.8212 108.426 35.9189 109.194 36.2489C109.962 36.579 110.942 36.0163 111.382 34.9922Z" fill="#FFE3CA"/>
<path d="M108.436 19.8483C114.329 13.2085 124.743 11.0693 132.775 14.8836C136.125 16.478 139.031 18.9603 142.523 20.2318C146.034 21.5032 150.03 21.4427 153.502 20.0501C155.58 19.2227 157.437 17.9311 159.496 17.0632C161.554 16.1954 163.956 15.7514 165.994 16.6394C168.497 17.7494 169.829 20.6152 169.99 23.3397C170.192 26.7706 168.86 30.262 166.438 32.6636C163.996 35.0854 160.505 36.3771 157.074 36.1349C152.049 35.7716 147.851 32.4013 143.774 29.4749C139.697 26.5284 134.813 23.7635 129.889 24.813C127.73 25.2772 125.772 26.4477 123.633 26.8917C120.767 27.4971 117.74 26.7706 115.116 25.4588C112.493 24.147 110.212 22.2499 107.952 20.3932" fill="#5B5433"/>
<path d="M156.105 82.6333C155.721 82.714 154.188 82.0077 152.432 81.1197C152.351 81.0793 152.27 81.0389 152.19 80.9986C151.16 80.4537 150.071 79.8684 149.122 79.3437C149.061 79.3033 148.981 79.263 148.92 79.2226C147.487 78.4153 146.397 77.7897 146.397 77.7897L147.608 74.9643C147.608 74.9643 157.094 74.5607 157.699 74.9643C158.305 75.3679 157.114 82.4315 156.105 82.6333Z" fill="#FFE3CA"/>
<path d="M36.226 46.5083C33.8042 47.5174 22.7043 53.3701 22.7043 53.3701C23.3098 53.5719 29.5661 52.9664 33.4006 51.5537C32.7952 52.9664 31.1806 54.1773 31.5843 54.7828C32.3915 53.7737 39.4753 49.4145 39.4753 49.4145L36.226 46.5083Z" fill="#FFE3CA"/>
<path d="M105.247 160.736L120.383 167.598L120.989 169.818C120.989 169.818 96.1654 170.02 96.3672 168.607C96.569 167.194 99.7981 159.727 99.7981 159.727L105.247 160.736Z" fill="#5B5433"/>
<path d="M146.922 82.5321L145.933 81.2808C147.407 80.5946 148.9 79.969 150.393 79.303L152.634 78.3545L154.874 77.4059C156.226 76.8207 157.598 76.2758 158.971 75.7107C159.092 75.6501 159.233 75.6098 159.354 75.5492L161.594 74.6411L162.684 74.1971H162.704L162.987 74.076C163.088 74.0356 163.168 73.9952 163.269 73.9751C163.491 73.9347 163.734 73.9347 164.117 74.0962C164.137 74.4191 164.016 74.5805 163.875 74.7016C163.794 74.7621 163.713 74.8025 163.612 74.8429L163.35 74.9841H163.33L162.28 75.5089L160.141 76.5583C160.02 76.6189 159.899 76.6794 159.778 76.7399C158.466 77.3656 157.154 78.0114 155.822 78.6168L153.643 79.6259L151.423 80.6148C149.929 81.2606 148.436 81.9064 146.922 82.5321Z" fill="#FFD049"/>
<path d="M197.598 58.0916C194.046 53.8939 184.763 53.7728 176.67 57.7486C173.017 59.5245 170.172 61.8051 168.416 64.1663C168.093 64.6103 167.81 65.0341 167.548 65.4781L167.487 65.5992C166.68 67.0926 166.317 68.5659 166.519 69.9382C166.66 70.8464 167.023 71.694 167.649 72.461C168.274 73.2279 169.122 73.8737 170.151 74.358C171.705 75.1249 173.663 75.5689 175.822 75.7102H175.984C176.63 75.7506 177.296 75.7506 177.962 75.7304C181.615 75.6295 185.651 74.7011 189.384 72.9453C197.659 68.9897 201.251 62.3096 197.598 58.0916ZM177.154 74.7617C176.488 74.7617 175.843 74.7213 175.237 74.6406C172.492 74.3177 170.252 73.3893 168.981 71.8555C167.73 70.3217 167.649 68.4246 168.496 66.467C168.678 66.023 168.92 65.579 169.203 65.135C170.737 62.7334 173.562 60.3318 177.316 58.5356C184.743 54.8828 193.199 54.9433 196.367 58.6971C199.617 62.471 196.266 68.5054 188.698 72.138C184.884 73.9544 180.747 74.802 177.154 74.7617Z" fill="#FFD049"/>
<path d="M177.154 74.7619C176.488 74.7619 175.842 74.7215 175.237 74.6408L175.257 74.661L170.171 74.3582L164.238 74.0151L166.539 69.9385L168.476 66.447L168.496 66.4672C168.678 66.0232 168.92 65.5792 169.203 65.1352L168.416 64.1665C168.093 64.6105 167.81 65.0343 167.548 65.4783L167.487 65.5994L162.664 74.1766L162.24 74.9031L163.31 74.9637L175.842 75.6902H176.004C176.65 75.7306 177.316 75.7306 177.982 75.7104L177.154 74.7619Z" fill="#FFD049"/>
<path d="M146.922 82.5318L145.933 81.2806C147.407 80.5944 148.9 79.9688 150.393 79.3028L152.634 78.3542L154.874 77.4057C156.226 76.8204 157.598 76.2755 158.971 75.7104L159.798 76.7195C158.486 77.3452 157.175 77.991 155.843 78.5964L153.663 79.6055L151.443 80.5944C149.929 81.2604 148.436 81.9062 146.922 82.5318Z" fill="#5B5433"/>
<path d="M153.986 79.9896C153.986 79.9896 152.997 80.5547 152.19 80.9785C151.16 80.4336 150.071 79.8483 149.122 79.3236L151.584 77.7898L152.492 78.0925C152.311 78.6172 152.957 79.8685 153.824 79.5254C154.712 79.1621 153.986 79.9896 153.986 79.9896Z" fill="#FFE3CA"/>
<path d="M54.8739 75.6707C58.2846 75.6707 61.0495 72.9058 61.0495 69.4952C61.0495 66.0845 58.2846 63.3196 54.8739 63.3196C51.4633 63.3196 48.6984 66.0845 48.6984 69.4952C48.6984 72.9058 51.4633 75.6707 54.8739 75.6707Z" fill="#FFD049"/>
<path d="M109.162 61.9674C108.012 64.9341 105.752 68.8291 101.433 73.6727C95.9031 72.8049 86.7003 71.1702 80.666 69.152L82.4824 54.5405C88.9607 57.265 100.747 61.9068 109.162 61.9674Z" fill="#FFD18D"/>
</svg>
