<svg width="223" height="239" viewBox="0 0 223 239" fill="none" xmlns="http://www.w3.org/2000/svg">
<path d="M145.622 111.537C145.622 111.537 145.622 106.107 145.016 103.283C144.41 100.459 145.622 94.5948 151.681 95.2464C157.74 95.8981 159.154 109.799 158.75 113.058C158.346 116.316 154.711 122.18 150.469 119.139C146.228 116.098 146.43 117.619 145.622 111.537Z" fill="#312D1B"/>
<path opacity="0.12" d="M174.584 187.151C184.019 187.239 193.445 187.274 202.855 187.227C203.868 187.221 204.912 187.223 205.847 187.748C208.431 189.198 207.593 192.232 205.151 193.204C200.058 195.229 193.07 195.022 187.672 195.509C181.088 196.102 174.485 196.426 167.881 196.606C154.855 196.96 141.824 196.741 128.796 196.881C113.705 197.042 98.6116 197.149 83.5192 197.025C68.8242 196.905 53.2063 197.935 38.6931 195.251C35.0576 194.578 31.4635 193.628 27.7987 193.144C24.3353 192.687 20.8426 192.898 17.3798 192.407C15.4897 192.139 14.8577 190.285 16.4983 189.016C18.347 187.589 21.5872 188.39 23.7219 188.36C27.3804 188.309 31.0505 188.019 34.7062 187.849C50.9198 187.095 67.0317 185.288 83.2386 185.591C100.052 185.904 116.866 186.218 133.68 186.532C147.311 186.786 160.955 187.023 174.584 187.151Z" fill="#312D1B"/>
<path d="M108.17 165.921L108.302 174.516C108.248 176.901 108.448 179.278 108.583 181.655C108.708 183.863 108.294 186.138 109.268 188.185C109.574 188.826 110.224 189.273 110.718 188.532C111.099 187.961 110.924 186.972 111.018 186.309C111.725 181.327 113.042 176.468 113.699 171.476C114.387 166.246 112.506 166.384 108.17 165.921Z" fill="#E9C4AF"/>
<path d="M108.625 186.715L108.111 188.149L110.639 190.543L112.956 190.645L113.705 189.331L110.59 186.418L108.625 186.715Z" fill="#312D1B"/>
<path d="M102.509 166.005L101.051 174.457C100.546 178.238 99.3971 181.921 98.892 185.702C98.7758 186.571 98.8344 187.522 98.4965 188.342C98.1661 189.145 97.519 189.176 96.948 188.632C96.1831 187.903 96.536 186.6 96.5501 185.604C96.6436 178.968 96.1583 172.427 96.0415 165.78C96.0399 165.693 96.0435 165.593 96.1062 165.538C96.1571 165.493 96.2298 165.494 96.2954 165.498C96.8955 165.542 102.477 166.187 102.509 166.005Z" fill="#E9C4AF"/>
<path d="M96.5319 187.069L95.7305 188.341L97.6914 191.286L99.9264 191.948L100.932 190.85L98.5086 187.256L96.5319 187.069Z" fill="#312D1B"/>
<path d="M116.408 171.39L115.317 159.102L114.792 151.118L113.024 144.597L103.477 143.003L91.6745 145.179L91.1069 147.645L93.3785 170.472L104.763 171.39L104.608 157.182L106.364 165.989L106.29 171.39H116.408Z" fill="#312D1B"/>
<path d="M94.18 120.588C94.1641 121.003 94.1534 121.418 94.1465 121.832C94.0084 130.26 94.4404 138.797 94.4901 147.295C98.5374 146.614 102.629 146.239 106.725 146.172C107.673 146.157 111.984 146.872 112.584 146.264C113.399 145.438 112.503 145.593 112.563 144.517C112.64 143.124 112.018 141.984 112.253 140.333C112.529 138.394 113.078 136.476 113.395 134.536C114.029 130.648 114.412 126.712 114.536 122.766C114.645 119.267 114.527 115.638 113.128 112.476C109.677 104.679 98.5518 104.82 95.4989 112.96C94.5947 115.372 94.2808 117.982 94.18 120.588Z" fill="#FFD049"/>
<path d="M104.42 102.631C102.432 101.563 99.3703 104.152 97.9565 100.025C96.5427 95.8978 98.1584 93.7257 100.178 91.988C102.198 90.2504 106.035 91.1192 106.843 92.2052C106.843 92.2052 108.055 91.3364 109.065 92.8569C110.075 94.3773 108.459 104.803 104.42 102.631Z" fill="#312D1B"/>
<path d="M101.65 107.562C101.656 107.984 101.575 108.422 101.922 108.749C102.088 108.906 102.313 108.969 102.532 109.007C103.098 109.103 103.684 109.058 104.231 108.877C104.457 108.802 104.681 108.701 104.851 108.525C105.052 108.318 105.062 108.121 105.072 107.85C105.083 107.532 105.143 107.208 105.181 106.886C105.266 106.18 105.304 105.469 105.323 104.758C106.295 104.579 107.438 104.241 107.771 103.146C107.875 102.801 107.879 102.426 107.881 102.059C107.892 100.542 107.902 99.0252 107.912 97.5084C107.916 96.9839 107.917 96.4432 107.75 95.9562C107.457 95.102 106.712 94.5928 105.982 94.2724C104.118 93.4549 101.945 93.4874 100.225 94.6504C99.767 94.9599 99.3349 95.358 99.0712 95.8985C98.6646 96.7317 98.7157 97.7604 98.7789 98.722C98.8373 99.6095 98.8954 100.497 98.9538 101.385C99.0209 102.405 99.1635 103.58 99.9005 104.119C100.292 104.406 100.797 104.458 101.135 104.829C101.723 105.475 101.443 106.441 101.617 107.225C101.641 107.334 101.649 107.447 101.65 107.562Z" fill="#E9C4AF"/>
<path d="M98.1584 98.0699C98.1584 98.0699 98.5624 95.6806 100.178 94.8117C100.178 94.8117 99.3703 95.8978 99.3703 96.3322C99.3703 96.3322 100.582 94.8117 101.996 94.3773C101.996 94.3773 100.986 95.4634 100.784 96.115C100.784 96.115 102.804 94.8117 104.016 94.3773C105.227 93.9429 105.833 94.3773 105.833 94.3773C105.833 94.3773 106.843 94.3773 107.247 95.4634C107.651 96.5494 107.651 98.0699 107.651 98.0699C107.651 98.0699 108.257 97.6355 108.055 96.115C107.853 94.5945 105.429 92.8569 105.429 92.8569L102.602 92.6396L100.986 93.0741L98.5624 93.9429L98.1584 98.0699Z" fill="#312D1B"/>
<path d="M98.7642 100.242C98.7642 100.242 97.9563 96.1153 101.996 93.726C106.035 91.3367 100.347 93.3033 100.347 93.3033L98.4855 94.7276L97.9563 97.6358L98.7642 100.242Z" fill="#312D1B"/>
<path d="M118.114 85.7692C126.733 76.5003 126.733 61.4724 118.114 52.2034C109.495 42.9345 95.5213 42.9345 86.9026 52.2034C78.2838 61.4724 78.2838 76.5003 86.9026 85.7693C95.5213 95.0382 109.495 95.0382 118.114 85.7692Z" fill="#FFD049"/>
<g opacity="0.08">
<g opacity="0.08">
<path opacity="0.08" d="M111.321 47.1968C113.975 50.5218 115.805 54.6757 116.414 59.3372C118.111 72.3181 109.702 84.3202 97.6316 86.145C93.4396 86.7788 89.3578 86.1004 85.7437 84.4025C90.4803 90.3367 97.842 93.6313 105.578 92.4618C117.648 90.6371 126.057 78.635 124.361 65.6541C123.253 57.1817 118.114 50.3876 111.321 47.1968Z" fill="#312D1B"/>
</g>
</g>
<g opacity="0.2">
<g opacity="0.2">
<path opacity="0.2" d="M83.9487 74.321C82.3733 62.2691 90.181 51.1259 101.387 49.4316C107.938 48.4414 114.198 50.8998 118.586 55.5196C114.227 49.5077 107.084 46.0964 99.5599 47.2339C88.3535 48.9281 80.5459 60.0714 82.1213 72.1233C82.7758 77.1306 84.9481 81.5058 88.0665 84.7896C85.9329 81.8468 84.4664 78.2814 83.9487 74.321Z" fill="#FFD049"/>
</g>
</g>
<path d="M93.8489 75.1998C95.031 80.137 99.4976 83.4384 104.303 82.7118C109.109 81.9852 112.556 77.4877 112.427 72.3911L93.8489 75.1998Z" fill="#312D1B"/>
<path d="M97.5281 80.9362C99.4246 82.3843 101.818 83.0879 104.303 82.7121C106.682 82.3526 108.726 81.0685 110.17 79.2463L110.056 79.0432C103.391 76.7152 97.607 80.8791 97.5281 80.9362Z" fill="#E2375C"/>
<path d="M107.432 64.2906C107.833 62.5345 109.169 61.2371 110.834 60.9853C112.463 60.739 114.063 61.5607 114.91 63.0786C115.072 63.3694 115.022 63.7326 114.789 63.9617C114.555 64.1913 114.214 64.212 113.959 64.0119C112.581 62.9307 110.531 62.2056 108.59 64.8933C108.481 65.0452 108.327 65.1377 108.162 65.1625C108.037 65.1814 107.905 65.1609 107.784 65.0973C107.501 64.9507 107.357 64.6188 107.432 64.2906Z" fill="#312D1B"/>
<path d="M88.6552 67.129C89.0565 65.3728 90.3918 64.0755 92.0566 63.8237C93.6861 63.5774 95.2862 64.3991 96.1326 65.9167C96.295 66.2071 96.2453 66.5703 96.0118 66.7999C95.7784 67.0299 95.4368 67.0506 95.1815 66.8505C93.8037 65.7692 91.7543 65.0442 89.8135 67.7319C89.7041 67.8836 89.5497 67.9761 89.3853 68.0011C89.2599 68.02 89.1286 67.9995 89.0066 67.9359C88.7245 67.7891 88.5801 67.4572 88.6552 67.129Z" fill="#312D1B"/>
<path d="M92.0714 78.5197C94.1004 77.8295 95.2248 75.5011 94.583 73.3191C93.9412 71.1371 91.7761 69.9279 89.7472 70.6181C87.7182 71.3084 86.5938 73.6368 87.2356 75.8187C87.8775 78.0007 90.0425 79.21 92.0714 78.5197Z" fill="#E2375C"/>
<path d="M117.971 74.4386C120.085 74.1764 121.601 72.1207 121.357 69.8472C121.113 67.5737 119.202 65.9433 117.088 66.2055C114.974 66.4678 113.458 68.5235 113.702 70.797C113.945 73.0705 115.857 74.7009 117.971 74.4386Z" fill="#E2375C"/>
<path d="M87.6728 82.8066C87.7055 82.8644 87.7388 82.9246 87.7542 82.9878C87.8982 83.5779 87.6447 83.9787 87.633 84.5866C87.6278 84.8579 88.1652 85.2487 87.7172 85.5467C87.552 85.6568 87.1111 85.8649 86.7564 86.0958C86.2394 86.4325 85.7732 87.1955 85.507 87.8748C85.0304 89.0994 84.6949 90.3785 84.4513 91.6787C84.2348 92.8336 83.7216 94.6089 83.9149 95.7762C84.0898 96.8327 85.3976 98.1579 85.9845 99.0573C86.7235 100.19 87.4472 101.334 88.1549 102.49C88.6532 103.304 89.1524 104.144 89.3566 105.093C89.4802 105.668 89.476 106.322 89.1415 106.789C88.9254 107.091 88.6007 107.276 88.2862 107.452C87.7306 107.763 87.1309 108.082 86.5092 108C85.7438 107.9 85.1679 107.225 84.6822 106.581C83.5873 105.129 82.573 103.594 81.7746 101.929C81.2103 100.753 80.1477 98.6733 80.3972 97.3325C80.9663 94.2744 81.7831 91.2875 82.6605 88.3031C82.9016 87.4831 83.513 86.9034 83.7295 86.1429C83.8676 85.6577 83.6515 85.1698 83.6877 84.6809C83.7234 84.1972 83.8852 83.5718 84.0842 83.1368C84.4766 82.2788 85.3808 82.1055 86.157 81.8704C86.3503 81.8118 86.4806 81.7718 86.6646 81.8144C86.9637 81.8837 87.1566 82.1265 87.3559 82.36C87.4743 82.498 87.5825 82.6472 87.6728 82.8066Z" fill="#E9C4AF"/>
<path d="M118.75 81.7388C118.717 81.7966 118.684 81.8567 118.669 81.9202C118.525 82.5103 118.778 82.9109 118.79 83.519C118.795 83.7903 118.258 84.1811 118.706 84.4791C118.871 84.5892 119.312 84.7973 119.667 85.0282C120.184 85.3649 120.65 86.1279 120.916 86.8072C121.393 88.0318 121.728 89.3109 121.972 90.6111C122.188 91.766 122.701 93.5413 122.508 94.7086C122.333 95.7651 121.025 97.0903 120.438 97.9897C119.699 99.1225 118.976 100.267 118.268 101.422C117.77 102.236 117.27 103.076 117.066 104.026C116.943 104.6 116.947 105.254 117.281 105.722C117.497 106.024 117.822 106.209 118.137 106.384C118.692 106.695 119.292 107.015 119.914 106.933C120.679 106.832 121.255 106.158 121.74 105.514C122.835 104.062 123.85 102.526 124.648 100.862C125.212 99.6855 126.275 97.6059 126.025 96.2651C125.456 93.207 124.64 90.2202 123.762 87.2357C123.521 86.4155 122.91 85.836 122.693 85.0756C122.555 84.5903 122.771 84.1025 122.735 83.6135C122.699 83.1298 122.537 82.5045 122.338 82.0694C121.946 81.2114 121.042 81.0381 120.266 80.8031C120.072 80.7444 119.942 80.7044 119.758 80.747C119.459 80.8163 119.266 81.0591 119.067 81.2926C118.949 81.4304 118.84 81.5794 118.75 81.7388Z" fill="#E9C4AF"/>
<path d="M102.132 107.685L102.052 106.62C100.908 106.908 99.491 107.046 98.2602 107.384C96.682 106.79 94.9141 106.753 93.4656 105.853C92.4454 105.22 91.6793 104.214 90.9367 103.231C89.9918 101.979 89.5616 100.667 88.1785 101.162C87.1458 101.532 85.7779 103.51 84.9549 104.311C84.5553 104.7 84.1558 105.089 83.7561 105.478C83.6628 105.569 83.5635 105.672 83.5469 105.806C83.5348 105.904 83.5695 106 83.6043 106.092C84.6941 108.881 86.3149 111.688 88.4855 113.649C89.8394 114.872 90.8773 116.25 91.8637 117.737C91.3673 121.568 91.8595 125.659 91.8629 129.468C91.8643 131.04 90.8771 147.875 91.6272 147.916C94.2278 148.057 96.9583 147.581 99.5516 147.33C100.737 147.215 102.129 147.495 102.392 146.073C102.58 145.055 102.451 143.842 102.478 142.806C102.576 139.08 102.675 135.354 102.773 131.627C102.799 130.647 103.119 116.13 103.182 116.13L100.16 110.208L102.132 107.685Z" fill="#79CFCD"/>
<path d="M122.876 104.738C122.86 104.603 122.76 104.501 122.667 104.41C122.267 104.021 121.868 103.632 121.468 103.243C120.645 102.442 119.277 100.463 118.244 100.094C116.861 99.5985 116.431 100.911 115.486 102.162C114.744 103.146 113.978 104.151 112.957 104.785C111.405 105.75 109.485 105.722 107.825 106.453C107.729 106.495 107.633 106.545 107.54 106.6C107.234 106.532 106.906 106.456 106.548 106.362C105.854 106.179 104.361 105.598 104.736 107.073C104.951 107.918 106.204 108.973 106.734 109.651L103.712 115.573C103.87 121.556 104.028 127.538 104.186 133.521C104.258 136.278 104.331 139.035 104.404 141.792C104.429 142.749 104.451 143.707 104.48 144.664C104.493 145.094 104.382 145.817 104.61 146.168C105.105 146.929 106.913 146.692 107.702 146.758C108.932 146.862 110.181 146.97 111.339 147.427C112.111 147.731 112.842 148.189 113.655 148.312C113.838 148.34 114.042 148.344 114.186 148.219C114.346 148.079 114.374 147.832 114.389 147.611C114.672 143.503 114.678 139.269 114.89 135.118C115.063 131.721 115.505 128.131 115.231 124.73C115.226 124.673 115.221 124.616 115.211 124.56C114.687 121.499 115.03 118.83 114.857 116.225C115.757 114.907 116.719 113.682 117.937 112.581C120.107 110.62 121.728 107.814 122.818 105.024C122.853 104.932 122.888 104.836 122.876 104.738Z" fill="#79CFCD"/>
<path d="M161.204 99.3249C161.271 99.3281 161.339 99.3323 161.4 99.3553C161.965 99.5682 162.142 100.043 162.63 100.413C162.848 100.578 163.483 100.303 163.461 100.901C163.453 101.121 163.363 101.659 163.341 102.129C163.31 102.815 163.656 103.704 164.052 104.355C165.606 106.915 167.766 108.949 169.961 110.888C170.086 110.999 170.218 111.112 170.376 111.148C170.66 111.213 170.932 111.017 171.168 110.836C172.263 109.996 173.431 109.267 174.652 108.659C175.74 108.118 176.903 107.667 178.103 107.682C179.303 107.698 180.552 108.257 181.182 109.355C181.654 110.177 181.725 111.249 181.367 112.136C180.479 114.333 177.224 114.292 175.344 114.655C173.565 114.998 171.764 115.207 169.959 115.28C169.736 115.288 169.506 115.294 169.297 115.208C169.075 115.116 168.901 114.93 168.733 114.748C166.58 112.407 164.631 109.875 162.72 107.288C162.195 106.576 162.084 105.659 161.592 105.006C161.279 104.589 160.754 104.505 160.378 104.182C160.005 103.863 159.591 103.342 159.355 102.898C158.888 102.022 159.281 101.068 159.548 100.199C159.614 99.9824 159.658 99.8358 159.802 99.6878C160.034 99.4472 160.346 99.4089 160.654 99.3592C160.836 99.3297 161.021 99.3155 161.204 99.3249Z" fill="#E9C4AF"/>
<path d="M176.225 116.167C174.273 116.483 172.271 116.6 170.458 116.444C170 116.404 169.529 116.341 169.127 116.099C168.794 115.9 168.531 115.591 168.274 115.288C166.779 113.522 165.285 111.757 163.79 109.992C163.577 109.74 163.348 109.415 163.45 109.092C163.511 108.898 163.678 108.768 163.835 108.652C164.556 108.118 165.278 107.585 165.999 107.051C166.13 106.955 166.273 106.854 166.431 106.861C166.578 106.867 166.707 106.966 166.818 107.069C167.522 107.729 167.892 108.748 168.652 109.331C169.348 109.864 170.276 109.943 171.111 109.749C174.612 108.939 177.76 105.88 180.8 103.971C182.41 102.96 184.085 101.925 185.94 101.73C189.901 101.313 192.358 106.289 189.457 109.431C186.994 112.098 183.823 114.027 180.495 115.131C179.173 115.569 177.714 115.926 176.225 116.167Z" fill="#5B5433"/>
<path d="M185.188 180.309L185.811 185.127L183.156 185.521L182.466 180.18L185.188 180.309Z" fill="#ECCDAE"/>
<path d="M183.305 184.734L185.713 185.246L186.495 185.952L186.598 187.859L180.406 189.219C179.782 188.463 179.995 187.295 180.839 186.851L181.118 186.705L183.305 184.734Z" fill="#312D1B"/>
<path d="M204.419 161.282C205.54 160.883 206.63 160.093 207.759 159.811C207.816 160.756 207.901 161.698 207.974 162.642C206.61 163.332 205.202 163.879 203.713 164.168C203.949 163.212 204.253 162.256 204.419 161.282Z" fill="#ECCDAE"/>
<path d="M208.052 162.589C207.973 162.468 207.964 162.465 207.898 162.185C207.732 161.491 207.3 159.568 207.91 158.979C208.009 158.883 208.055 158.977 208.143 159.022C209.629 159.781 210.701 160.655 211.884 161.941C212.39 162.491 212.879 163.182 212.913 163.982C212.927 164.333 212.793 164.605 212.669 164.884C212.487 165.295 212.274 165.655 212.033 166.009C211.945 166.139 211.872 166.284 211.701 166.271C211.356 166.246 211.19 165.822 211.123 165.473C211.056 165.124 211.03 164.699 210.814 164.406C210.717 164.274 210.575 164.193 210.458 164.121C209.59 163.584 208.672 163.531 208.052 162.589Z" fill="#312D1B"/>
<path d="M185.109 158.745C187.275 162.884 190.462 164.688 194.298 165.968C198.686 167.433 202.467 166.632 206.377 164.282C206.444 162.878 206.319 161.483 206.416 160.166C202.068 160.907 199.968 160.743 197.033 156.566C192.791 150.528 197.003 141.639 195.841 134.345C195.707 133.506 195.495 132.672 195.098 131.936C190.493 123.382 182.202 129.098 181.178 136.931C180.261 143.939 181.878 152.572 185.109 158.745Z" fill="#312D1B"/>
<path d="M193.14 133.678C192.845 131.074 192.259 128.604 191.584 126.751C187.826 127.037 183.658 128.046 180.058 129.347C176.54 130.618 174.387 131.765 174.849 135.977C175.698 143.728 173.648 150.703 173.295 158.31C173.09 162.731 174.759 166.437 176.575 170.262C178.654 174.64 180.513 179.137 182.142 183.73C183.392 183.554 184.642 183.379 185.891 183.203C186.433 177.065 185.206 170.929 184.602 164.798C184.182 160.537 184.083 156.132 185.073 151.949C186.162 147.351 188.664 148.788 191.008 145.892C193.287 143.076 193.649 138.176 193.14 133.678Z" fill="#312D1B"/>
<path d="M188.123 103.692C188.553 104.017 188.936 104.416 189.315 104.811C189.654 105.165 189.993 105.519 190.332 105.873C191.507 107.1 192.143 108.971 192.694 110.586C195.595 119.083 197.021 130.871 195.777 139.966C189.588 140.858 182.322 139.538 176.082 138.941C175.475 138.883 174.786 138.772 174.448 138.227C174.244 137.896 174.22 137.478 174.203 137.081C173.953 131.36 174.808 125.154 175.615 119.46C175.956 117.057 176.401 114.67 177.003 112.326C177.64 109.845 178.363 107.165 180.024 105.229C181.801 103.157 185.327 101.999 187.727 103.425C187.864 103.506 187.995 103.596 188.123 103.692Z" fill="#5B5433"/>
<path d="M187.498 104.929C187.576 104.145 187.654 103.361 187.733 102.577C187.88 102.492 188.02 102.399 188.149 102.301C190.662 100.39 194.591 90.6145 187.589 88.8254C181.231 87.2011 181.964 96.4646 183.357 100.272C183.596 100.924 183.903 101.535 184.342 102.057C184.642 102.413 184.702 102.34 184.681 102.772C184.659 103.19 184.295 103.681 184.226 104.124C184.153 104.597 184.211 105.114 184.481 105.495C184.646 105.729 184.881 105.897 185.128 106.022C185.52 106.221 185.971 106.319 186.393 106.211C186.895 106.082 187.442 105.49 187.498 104.929Z" fill="#FDDFD3"/>
<path d="M181.731 96.842C182.169 98.057 182.758 99.2087 183.478 100.257C183.342 97.9747 183.499 95.6727 183.943 93.4363C183.977 93.2658 184.009 93.073 183.918 92.9289C183.832 92.7945 183.669 92.7508 183.519 92.7239C180.851 92.2437 180.967 94.7242 181.731 96.842Z" fill="#312D1B"/>
<path d="M188.822 99.932C189.274 100.552 190.195 100.332 190.833 99.9457C193.454 98.3581 194.881 94.784 194.147 91.6464C193.532 89.021 190.339 87.1908 189.854 90.5065C189.683 91.682 190.413 93.262 190.318 94.5615C190.183 96.4185 189.461 98.2243 188.822 99.932Z" fill="#312D1B"/>
<path d="M181.315 86.7041C181.019 86.8472 180.719 86.9975 180.403 87.1495C179.747 87.4643 179.268 87.5835 178.561 87.1976C178.359 87.0872 176.981 85.8128 177.286 85.5183C175.263 87.471 177.112 90.0782 177.984 91.9455C178.572 93.2042 178.762 95.0138 179.994 95.7934C181.349 96.6511 182.2 95.4367 183.371 94.8524C184.404 94.3372 185.532 94.0294 186.585 93.5639C188.334 92.7918 190.927 91.4592 190.227 88.9483C189.409 86.0157 186.581 85.4177 184.08 85.7718C183.011 85.9232 182.185 86.2822 181.315 86.7041Z" fill="#312D1B"/>
<path d="M180.445 107.576C180.51 107.562 180.577 107.548 180.641 107.554C181.238 107.611 181.517 108.026 182.075 108.256C182.323 108.358 182.877 107.924 182.992 108.509C183.034 108.725 183.069 109.271 183.155 109.732C183.281 110.405 183.819 111.176 184.351 111.703C185.358 112.701 189.098 114.166 188.81 116.037C188.132 120.431 182.72 113.469 182.116 112.982C181.717 112.661 181.189 112.717 180.75 112.504C180.316 112.292 179.797 111.896 179.466 111.528C178.814 110.801 178.977 109.773 179.038 108.86C179.053 108.633 179.063 108.479 179.168 108.298C179.338 108.003 179.632 107.884 179.919 107.755C180.089 107.678 180.265 107.616 180.445 107.576Z" fill="#E9C4AF"/>
<path d="M196.64 121.432C196.115 123.245 192.821 122.061 191.667 121.518C189.243 120.376 186.952 118.992 184.859 117.241C184.729 117.132 184.59 117.004 184.567 116.829C184.545 116.655 184.644 116.493 184.738 116.35C185.328 115.459 185.917 114.567 186.506 113.676C186.632 113.484 186.768 113.284 186.967 113.185C187.715 112.811 188.743 113.868 189.505 113.952C189.717 111.941 188.596 110.235 188.043 108.406C187.287 105.902 189.949 105.233 191.387 106.519C193.148 108.093 194.334 110.439 195.09 112.723C195.91 115.2 196.295 117.814 196.675 120.41C196.736 120.825 196.719 121.162 196.64 121.432Z" fill="#5B5433"/>
<path d="M129.968 99.1046C129.634 98.7395 129.311 98.3611 128.995 98.0457C128.941 97.5548 128.887 97.0637 128.834 96.5728C128.826 96.4968 128.818 96.4145 128.854 96.348C128.885 96.2898 128.942 96.2548 128.997 96.2229C129.24 96.0813 129.483 95.9397 129.726 95.798C129.775 95.7698 129.825 95.7409 129.88 95.7374C130 95.7298 130.094 95.8406 130.169 95.9416C130.427 96.2911 131.347 97.4649 131.372 96.5137C131.376 96.368 131.497 96.2507 131.628 96.2131C131.759 96.1755 131.898 96.1997 132.031 96.2238C132.128 96.2411 132.241 96.2733 132.273 96.3723C132.288 96.4171 132.281 96.4662 132.275 96.5131C132.206 97.0161 132.112 97.4386 132.207 97.9484C132.299 98.509 132.392 99.0696 132.484 99.6302C132.489 99.6589 131.8 100.036 131.737 100.078C131.374 100.319 131.524 100.426 131.115 100.155C130.714 99.8885 130.334 99.5047 129.968 99.1046Z" fill="#E9C4AF"/>
<path d="M147.209 109.058L138.19 110.27L133.632 99.4705L131.253 100.989L133.694 116.885L136.848 120.442L143.051 119.893L147.209 109.058Z" fill="#79CFCD"/>
<path d="M153.917 142.499L150.608 165.411L151.783 181.964L149.374 182.773L147.216 167.478L142.614 139.528L153.917 142.499Z" fill="#E9C4AF"/>
<path d="M149.378 183.239L149.113 184.954L149.717 188.213L151.706 188.032L152.081 183.204L151.788 182.43L149.378 183.239Z" fill="#312D1B"/>
<path d="M134.421 141.817L135.485 161.251L139.984 188.418L142.422 188.387L141.338 163.197L144.501 139.975L134.421 141.817Z" fill="#E9C4AF"/>
<path d="M140.024 187.954L136.907 190.153L137.296 191.797L143.002 190.487L142.538 188.113L140.024 187.954Z" fill="#312D1B"/>
<path d="M133.883 144.73L133.985 167.287L136.852 182.497L143.385 181.479L143.195 163.901L144.551 144.592L143.879 141.668L134.43 142.7L133.883 144.73Z" fill="#312D1B"/>
<path d="M145.474 164.233L147.497 180.231L153.177 179.38L151.875 164.15L153.983 144.676L152.745 139.402L143.2 140.949L145.474 164.233Z" fill="#312D1B"/>
<path d="M156.722 116.372C156.094 114.109 154.988 110.253 153.133 109.164C153.095 109.141 153.056 109.119 153.016 109.096C152.648 108.888 152.254 108.703 151.841 108.543C151.101 108.042 150.037 107.826 148.986 107.901C148.022 107.833 147.063 107.915 146.198 108.189C145.792 108.318 145.408 108.532 145.028 108.746C143.916 109.369 143.062 109.637 142.371 110.861C141.772 111.924 141.412 113.165 140.957 114.312C137.154 123.9 134.063 136.7 131.596 146.833C132.761 146.713 133.93 146.508 135.094 146.309C140.448 146.958 146.562 148.696 151.283 150.422C152.698 151.327 154.092 152.28 155.474 153.248C155.12 153 156.806 144.98 156.938 144.077C157.42 140.805 157.84 137.522 158.127 134.225C158.659 128.103 158.342 122.213 156.722 116.372Z" fill="#79CFCD"/>
<path d="M154.459 100.66C153.475 96.6395 148.286 94.9298 146.818 99.4354C146.376 100.789 146.077 102.236 146.252 103.661C146.426 105.086 147.141 106.488 148.312 107.142C148.319 107.145 148.325 107.148 148.332 107.152C148.533 107.263 147.404 109.573 147.324 109.758C147.199 110.048 147.073 110.34 147.011 110.652C146.875 111.347 147.069 112.064 147.299 112.729C147.508 113.338 147.749 113.934 148.019 114.514C148.042 114.565 148.068 114.617 148.111 114.649C148.214 114.727 148.355 114.652 148.459 114.576C149.295 113.963 150.034 113.197 150.633 112.32C150.77 112.12 150.902 111.91 150.978 111.675C151.064 111.407 151.075 111.119 151.075 110.835C151.075 110.045 150.452 108.094 150.822 107.475C150.963 107.239 151.653 107.067 151.892 106.909C152.287 106.648 152.644 106.317 152.96 105.954C154.146 104.593 154.915 102.521 154.459 100.66Z" fill="#E9C4AF"/>
<path d="M150.396 96.7582C150.396 96.7582 149.055 97.4185 150.469 100.025C151.883 102.632 153.701 102.849 154.913 108.713C156.124 114.578 157.538 109.365 157.74 109.148C157.942 108.931 156.124 96.3151 150.671 96.7582" fill="#312D1B"/>
<path d="M146.026 102.849C146.026 102.849 146.834 98.9388 148.853 98.5044C150.873 98.0699 151.277 97.6355 151.277 97.6355C151.277 97.6355 151.479 96.1151 149.863 96.3323C148.248 96.5495 147.238 97.6355 146.632 98.9388C146.026 100.242 146.026 102.849 146.026 102.849Z" fill="#312D1B"/>
<path d="M48.0578 89.9097C48.0243 89.9622 47.99 90.017 47.9724 90.0756C47.8084 90.6225 48.0273 91.0135 48.009 91.5861C48.0007 91.8415 47.4764 92.1788 47.8833 92.4842C48.0334 92.597 48.438 92.8174 48.7603 93.0544C49.2303 93.4 49.6318 94.1435 49.8491 94.7973C50.7035 97.3654 50.8843 100.112 50.9838 102.836C50.9895 102.991 50.9931 103.153 50.9317 103.293C50.8216 103.545 50.5453 103.647 50.2985 103.731C49.1535 104.116 48.0421 104.615 46.9829 105.221C46.0379 105.762 45.1133 106.408 44.4773 107.334C43.8413 108.26 43.5373 109.515 43.9239 110.589C44.2133 111.393 44.8838 112.025 45.6626 112.229C47.5941 112.734 49.3208 110.223 50.5734 108.981C51.7586 107.806 52.8674 106.542 53.8884 105.2C54.0144 105.035 54.1421 104.862 54.1974 104.656C54.2564 104.437 54.2273 104.203 54.1974 103.977C53.8102 101.07 53.1863 98.2151 52.5057 95.3592C52.3187 94.5744 51.7717 93.9951 51.6047 93.2679C51.4983 92.8037 51.7251 92.3572 51.7148 91.8954C51.7045 91.4384 51.5827 90.8413 51.4167 90.421C51.0891 89.5921 50.247 89.3786 49.5286 89.114C49.3497 89.0482 49.2291 89.003 49.054 89.0328C48.7692 89.0812 48.5763 89.2986 48.3774 89.5072C48.2596 89.6305 48.1505 89.7648 48.0578 89.9097Z" fill="#E9C4AF"/>
<path d="M49.8059 109.052C49.1291 107.484 48.4521 105.916 47.7753 104.349C47.8187 104.449 40.972 107.216 40.5695 107.396C39.0339 108.082 37.4476 108.806 36.319 110.119C33.9088 112.922 35.8748 117.482 39.515 116.957C43.4668 116.387 47.5485 114.146 50.369 111.13C50.4302 111.064 50.4934 110.994 50.5165 110.904C50.548 110.781 50.4969 110.653 50.447 110.538C50.2333 110.042 50.0196 109.547 49.8059 109.052Z" fill="#79CFCD"/>
<path d="M15.2057 154.057C15.1152 154.648 15.055 155.242 15.0094 155.788C14.931 156.725 15.0695 157.793 14.8494 158.706C14.7621 159.067 14.644 159.417 14.5929 159.789C14.5416 160.161 14.5656 160.57 14.7405 160.874C14.9552 161.247 15.3392 161.378 15.6953 161.464C16.0249 161.544 16.3656 161.606 16.694 161.518C17.3565 161.341 17.8451 160.575 18.047 159.749C18.2888 158.761 18.167 157.788 18.1337 156.788C18.1337 155.211 17.7412 153.866 17.8022 152.277C17.8125 152.009 17.8176 151.72 17.678 151.498C17.5308 151.263 17.2496 151.16 16.9865 151.168C16.4621 151.184 15.956 151.341 15.7453 151.879C15.4913 152.528 15.323 153.29 15.2057 154.057Z" fill="#312D1B"/>
<path d="M16.5756 152.808C16.2906 153.047 16.088 153.379 15.8909 153.705C15.7578 153.925 15.6231 154.213 15.7576 154.432C15.8089 154.515 15.8909 154.57 15.9705 154.622C16.3031 154.839 16.636 155.056 16.9686 155.274C17.0363 155.318 17.111 155.364 17.1896 155.353C17.2544 155.343 17.3086 155.296 17.3585 155.251C17.6796 154.958 17.9852 154.646 18.273 154.316C19.5725 152.826 17.7418 151.83 16.5756 152.808Z" fill="#E9C4AF"/>
<path d="M39.5228 139.547C39.4379 139.201 39.1622 138.955 38.8742 138.744C35.9093 136.581 32.6761 135.106 29.1781 134.27C28.8834 134.2 27.0063 140.475 26.8257 141.083C26.1247 143.447 25.5279 145.844 25.0165 148.263C24.4562 150.912 23.8751 153.557 23.2815 156.199C22.1398 154.995 20.915 153.883 19.6193 152.875C19.3964 152.702 19.1556 152.525 18.8809 152.507C18.5471 152.484 18.2427 152.699 17.9773 152.918C17.5152 153.3 17.0828 153.723 16.6861 154.182C16.5534 154.335 16.4193 154.504 16.388 154.711C16.3569 154.917 16.4332 155.122 16.5082 155.315C17.7955 158.617 19.8344 163.927 21.4696 167.05C22.2605 168.561 23.7766 169.078 25.3154 168.948C25.7094 168.915 25.9817 168.797 26.3248 168.667C26.73 168.513 27.1709 168.515 27.5801 168.363C27.8483 168.263 28.0588 168.039 28.2484 167.812C29.8963 165.841 31.0187 163.075 32.0128 160.673C33.0921 158.066 33.9709 155.369 34.7643 152.647C34.8228 152.446 34.8824 152.247 34.943 152.049C36.1904 147.979 37.8751 144.477 39.3824 140.481C39.4967 140.18 39.6076 139.893 39.5228 139.547Z" fill="#5B5433"/>
<path d="M34.8594 186.001C35.3966 186.224 35.9585 186.185 36.5089 186.299C37.0686 184.27 37.426 182.265 37.5991 180.135C36.4863 180.846 35.9563 180.039 35.4473 181.903C35.2823 182.507 35.2316 185.123 34.8594 186.001Z" fill="#E9C4AF"/>
<path d="M37.0715 185.688C37.0729 186.835 37.9123 188.07 38.3768 189.102C38.4315 189.223 38.4873 189.349 38.4895 189.484C38.4929 189.684 38.379 189.862 38.27 190.025C38.1185 190.25 37.9541 190.487 37.7131 190.588C37.4766 190.688 37.2106 190.638 36.9626 190.579C36.5473 190.481 36.1361 190.363 35.731 190.224C35.63 190.19 35.527 190.153 35.4448 190.081C35.3472 189.996 35.2886 189.871 35.2329 189.75C34.9465 189.13 34.7027 188.69 34.7183 187.999C34.7342 187.286 34.818 186.546 34.6967 185.839C34.6367 185.496 34.5571 185.057 34.8304 184.869C35.0416 184.723 35.4284 184.924 35.6585 184.964C36.0642 185.035 36.4393 185.009 36.8131 185.237C36.8893 185.284 36.9634 185.34 37.0103 185.42C37.0577 185.501 37.0713 185.592 37.0715 185.688Z" fill="#312D1B"/>
<path d="M34.306 149.306C34.5431 154.399 35.0497 159.473 34.691 164.601C34.248 170.937 34.6247 177.385 33.959 183.66C34.6306 183.911 35.3197 184.108 36.0187 184.248C36.8202 184.409 38.1118 184.596 38.6537 183.781C38.9306 183.365 38.998 182.56 39.1158 182.071C39.4931 180.504 39.8372 178.928 40.1782 177.352C41.1424 172.892 42.2161 168.41 42.7154 163.862C43.2407 159.077 43.8036 154.288 44.423 149.536C44.7432 147.08 44.9764 144.61 45.1011 142.134C45.1332 141.495 45.4491 134.913 45.1503 134.866C41.6041 134.313 38.095 134.457 34.609 135.348C34.2703 135.434 33.9311 135.559 33.7377 135.851C33.5442 136.142 33.5533 136.452 33.5601 136.778C33.6256 139.882 34.0346 142.911 34.1614 146.024C34.205 147.107 34.2541 148.192 34.306 149.306Z" fill="#5B5433"/>
<path d="M32.3144 108.434C32.2566 108.455 32.1993 108.477 32.1423 108.5C31.1902 108.889 30.3805 109.588 29.5884 110.276C28.3985 111.31 27.8126 111.763 27.3531 113.294C26.9245 114.721 26.6563 116.229 26.3938 117.7C25.0464 125.252 24.7861 132.773 23.819 140.382C23.5558 142.453 23.3525 144.888 24.777 146.311C27.3043 144.196 30.4811 144.074 33.5462 144.071C35.6989 144.068 37.8032 143.319 39.9609 143.577C42.023 143.824 43.824 143.27 45.9167 143.416C46.4212 143.452 47.0641 143.445 47.263 142.945C46.5389 140.611 46.5513 138.1 46.3875 135.646C45.9635 129.296 44.0074 123.203 43.2181 116.896C42.9497 114.753 42.8067 111.194 41.263 109.572C39.5854 107.808 35.759 107.772 33.6032 108.117C33.1669 108.187 32.7321 108.282 32.3144 108.434Z" fill="#79CFCD"/>
<path d="M26.2563 103.718C26.2563 103.718 30.316 107.179 35.2037 107.409C40.0915 107.64 44.0299 104.804 44.0299 104.804C44.0299 104.804 40.2329 104.72 40.5964 101.763C40.963 98.7802 41.6467 94.2602 36.0924 93.5682C30.5382 92.8762 30.0835 98.294 30.316 100.258C30.6997 103.5 27.3672 103.718 26.2563 103.718Z" fill="#312D1B"/>
<path d="M33.915 108.328C33.9506 108.402 33.9979 108.473 34.0615 108.541C34.3119 108.807 34.6591 108.957 35.0037 109.01C35.4577 109.08 35.9194 108.999 36.37 108.907C36.9788 108.782 36.9574 108.398 37.0454 107.804C37.0937 107.479 37.1238 107.152 37.1466 106.824C37.1591 106.645 37.0943 106.001 37.2009 105.875C37.2732 105.79 37.5675 105.819 37.6964 105.746C37.9008 105.631 38.0714 105.42 38.1942 105.215C38.3922 104.884 38.5012 104.502 38.6079 104.125C38.7935 103.47 38.9791 102.815 39.1647 102.16C39.3544 101.49 39.545 100.816 39.606 100.119C39.6979 99.0689 39.54 97.5865 38.803 96.8186C38.1308 96.1184 37.1498 95.8729 36.2505 95.7493C35.0594 95.5855 33.8248 95.8201 32.7959 96.5C32.3805 96.7745 31.9866 97.1306 31.7414 97.6201C31.3633 98.3747 31.392 99.317 31.4326 100.198C31.4702 101.011 31.5077 101.824 31.5451 102.637C31.5883 103.573 31.6966 104.65 32.3481 105.157C32.6941 105.427 33.1463 105.484 33.4424 105.829C33.8132 106.262 33.7892 106.911 33.8048 107.459C33.8134 107.773 33.7916 108.07 33.915 108.328Z" fill="#E9C4AF"/>
<path d="M30.6998 100.894C30.6998 100.894 33.1235 99.3733 34.5373 96.984C34.5373 96.984 34.3354 99.1561 34.1334 99.3733C34.1334 99.3733 35.1432 98.5045 35.5472 97.2012C35.5472 97.2012 35.7492 98.7217 35.5472 99.3733C35.5472 99.3733 36.5571 98.9389 36.961 97.2012C36.961 97.2012 38.3748 100.025 39.7886 100.894C39.7886 100.894 41.2024 95.2463 35.7492 95.2463C30.2959 95.2463 30.6998 100.894 30.6998 100.894Z" fill="#312D1B"/>
<path d="M31.6689 138.162C31.6814 138.1 31.6938 138.036 31.6893 137.974C31.6479 137.401 31.3072 137.129 31.122 136.592C31.0394 136.352 31.4051 135.826 30.921 135.71C30.7423 135.667 30.2902 135.628 29.9083 135.54C29.3515 135.413 28.7175 134.889 28.2855 134.373C26.5881 132.346 25.4504 129.879 24.3965 127.401C24.3363 127.26 24.2757 127.111 24.283 126.956C24.2959 126.678 24.5152 126.471 24.7144 126.293C25.6374 125.469 26.4891 124.553 27.255 123.559C27.9383 122.673 28.5654 121.698 28.8266 120.581C29.0879 119.465 28.9255 118.179 28.1887 117.344C27.6371 116.719 26.7933 116.408 26.001 116.538C24.0358 116.859 23.3258 119.888 22.6056 121.548C21.9243 123.119 21.3451 124.742 20.8747 126.4C20.8165 126.605 20.7596 126.816 20.781 127.029C20.8038 127.256 20.9133 127.461 21.0209 127.657C22.4062 130.189 23.9915 132.575 25.6301 134.938C26.0803 135.587 26.7909 135.9 27.2023 136.505C27.4647 136.89 27.4127 137.396 27.5854 137.819C27.7563 138.238 28.0799 138.74 28.382 139.061C28.9778 139.694 29.8322 139.548 30.5902 139.499C30.779 139.487 30.9065 139.479 31.0579 139.38C31.3042 139.219 31.4059 138.939 31.5162 138.665C31.5809 138.503 31.6344 138.334 31.6689 138.162Z" fill="#E9C4AF"/>
<path d="M23.2903 121.169C24.4703 122.343 25.6502 123.517 26.8303 124.691C26.7546 124.615 32.1105 119.258 32.4193 118.928C33.5974 117.666 34.8092 116.349 35.3895 114.673C36.6286 111.095 33.1991 107.68 30.0172 109.653C26.5631 111.795 23.5791 115.535 22.0353 119.477C22.0017 119.563 21.968 119.654 21.9785 119.746C21.9929 119.873 22.0854 119.971 22.1724 120.057C22.545 120.428 22.9177 120.799 23.2903 121.169Z" fill="#79CFCD"/>
<path d="M52.4529 91.2209C59.6526 83.478 59.6526 70.9243 52.4528 63.1815C45.2531 55.4386 33.58 55.4386 26.3803 63.1815C19.1805 70.9243 19.1805 83.478 26.3803 91.2209C33.58 98.9638 45.2531 98.9638 52.4529 91.2209Z" fill="#FFD049"/>
<g opacity="0.08">
<g opacity="0.08">
<path opacity="0.08" d="M52.9737 63.7322C53.9624 67.2351 54.0614 71.0732 53.0685 74.8578C50.3033 85.3966 40.1176 91.5291 30.3183 88.5555C26.9148 87.5227 24.0064 85.5267 21.7744 82.9204C23.5386 89.1719 28.1361 94.3554 34.4165 96.2614C44.216 99.2352 54.4015 93.1026 57.1667 82.5638C58.9715 75.685 57.1681 68.6302 52.9737 63.7322Z" fill="#312D1B"/>
</g>
</g>
<path opacity="0.2" d="M23.557 74.5623C26.1243 64.7776 35.5811 59.0839 44.6793 61.8449C49.9973 63.4588 54.0147 67.6044 55.9232 72.7245C54.472 66.5503 50.0785 61.3568 43.97 59.5032C34.8717 56.7422 25.4152 62.4359 22.8477 72.2205C21.7811 76.2858 22.0725 80.4173 23.4292 84.0567C22.7188 81.0344 22.7134 77.7776 23.557 74.5623Z" fill="#FFD049"/>
<path d="M35.4022 70.9853C35.0589 72.2942 34.195 73.1776 33.473 72.9584C32.7509 72.7392 32.4439 71.5007 32.7875 70.1918C33.1308 68.8829 33.9947 67.9995 34.7167 68.2187C35.4388 68.4376 35.7458 69.6764 35.4022 70.9853Z" fill="#312D1B"/>
<path d="M48.4762 74.9526C48.1328 76.2615 47.269 77.1449 46.547 76.9257C45.8249 76.7065 45.5179 75.468 45.8615 74.1591C46.2048 72.8502 47.0686 71.9668 47.7907 72.186C48.5127 72.4051 48.8195 73.6437 48.4762 74.9526Z" fill="#312D1B"/>
<path d="M27.0207 75.3882C26.0068 82.0326 29.7724 88.5788 35.9408 90.4507C42.1091 92.3227 48.5011 88.8588 50.8664 82.6245L27.0207 75.3882Z" fill="#312D1B"/>
<path d="M28.6299 84.427C30.2059 87.2627 32.7507 89.4828 35.9407 90.4509C38.9933 91.3773 42.0999 90.9952 44.7469 89.619L44.7096 89.3081C37.8045 82.6794 28.7537 84.4029 28.6299 84.427Z" fill="#E2375C"/>
<path d="M150.293 172.648C163.124 158.849 163.124 136.476 150.293 122.677C137.462 108.878 116.658 108.878 103.827 122.677C90.9958 136.476 90.9958 158.849 103.827 172.648C116.658 186.448 137.462 186.448 150.293 172.648Z" fill="#FFD049"/>
<g opacity="0.08">
<g opacity="0.08">
<path opacity="0.08" d="M144.252 117.504C147.523 122.997 149.421 129.529 149.421 136.537C149.421 156.052 134.71 171.872 116.564 171.872C110.262 171.872 104.375 169.963 99.3738 166.654C105.213 176.458 115.432 182.956 127.061 182.956C145.208 182.956 159.918 167.136 159.918 147.621C159.918 134.883 153.65 123.721 144.252 117.504Z" fill="#312D1B"/>
</g>
</g>
<g opacity="0.2">
<g opacity="0.2">
<path opacity="0.2" d="M98.6702 151.391C98.6702 133.272 112.328 118.584 129.176 118.584C139.024 118.584 147.78 123.604 153.357 131.392C148.09 121.557 138.217 114.937 126.905 114.937C110.057 114.937 96.3997 129.625 96.3997 147.743C96.3997 155.271 98.7591 162.206 102.724 167.742C100.145 162.928 98.6702 157.345 98.6702 151.391Z" fill="#FFD049"/>
</g>
</g>
<path d="M113.594 151.305C112.748 150.421 111.391 151.399 111.83 152.576C114.257 159.1 120.188 163.708 127.121 163.708C133.938 163.708 139.786 159.253 142.287 152.902C142.743 151.743 141.377 150.74 140.537 151.616C135.728 156.63 125.52 163.764 113.594 151.305Z" fill="#312D1B"/>
<path d="M114.956 143.218C116.294 143.218 117.377 141.253 117.377 138.83C117.377 136.406 116.294 134.441 114.956 134.441C113.619 134.441 112.535 136.406 112.535 138.83C112.535 141.253 113.619 143.218 114.956 143.218Z" fill="#312D1B"/>
<path d="M139.166 143.218C140.503 143.218 141.587 141.253 141.587 138.83C141.587 136.406 140.503 134.441 139.166 134.441C137.829 134.441 136.745 136.406 136.745 138.83C136.745 141.253 137.829 143.218 139.166 143.218Z" fill="#312D1B"/>
<path d="M200.461 89.2192C200.701 77.7183 192.226 68.186 181.532 67.9283C170.837 67.6706 161.974 76.7851 161.734 88.286C161.495 99.787 169.97 109.319 180.664 109.577C191.358 109.835 200.222 100.72 200.461 89.2192Z" fill="#FFD049"/>
<g opacity="0.08">
<g opacity="0.08">
<path opacity="0.08" d="M190.439 70.4685C192.508 73.6059 193.793 77.3953 193.974 81.5223C194.477 93.0139 186.223 102.769 175.537 103.31C171.826 103.498 168.31 102.549 165.28 100.75C168.972 106.349 175.157 109.87 182.005 109.524C192.69 108.982 200.945 99.2276 200.441 87.736C200.113 80.2353 196.134 73.8496 190.439 70.4685Z" fill="#312D1B"/>
</g>
</g>
<path opacity="0.2" d="M164.472 91.7829C164.005 81.1136 171.669 72.057 181.589 71.5544C187.388 71.2607 192.674 73.9552 196.159 78.3752C192.804 72.741 186.819 69.1369 180.158 69.4742C170.238 69.9768 162.574 79.0334 163.041 89.7027C163.235 94.1357 164.804 98.1486 167.281 101.29C165.638 98.5329 164.626 95.2888 164.472 91.7829Z" fill="#FFD049"/>
<path d="M175.909 84.6399C175.296 83.1957 173.948 82.3108 172.474 82.3855C171.032 82.4585 169.776 83.4474 169.276 84.9049C169.181 85.184 169.279 85.4885 169.515 85.6453C169.751 85.8024 170.049 85.7605 170.238 85.5433C171.263 84.3695 172.92 83.3849 175.001 85.3628C175.119 85.4744 175.266 85.5272 175.411 85.5198C175.522 85.5142 175.632 85.4735 175.728 85.3973C175.949 85.2211 176.023 84.9097 175.909 84.6399Z" fill="#312D1B"/>
<path d="M192.532 83.7976C191.919 82.3534 190.571 81.4685 189.097 81.5432C187.655 81.6162 186.399 82.6054 185.9 84.0624C185.804 84.3413 185.901 84.6458 186.137 84.8029C186.374 84.9603 186.672 84.9184 186.861 84.701C187.886 83.5272 189.543 82.5426 191.624 84.5205C191.741 84.6321 191.888 84.6849 192.034 84.6775C192.145 84.6719 192.255 84.6313 192.351 84.555C192.572 84.3789 192.646 84.0674 192.532 83.7976Z" fill="#312D1B"/>
<path d="M172.616 93.1017C172.616 93.0906 172.616 93.0797 172.615 93.0686C172.524 90.9923 171.045 89.1619 168.945 89.2683C167.277 89.3528 166.366 90.6913 166.089 91.915C165.706 90.7247 164.682 89.4845 163.014 89.569C160.914 89.6754 159.601 91.6472 159.692 93.7235C159.693 93.7346 159.694 93.7455 159.694 93.7565C159.703 94.2088 159.915 98.8049 166.538 102.224V102.226L166.539 102.225C166.54 102.225 166.54 102.225 166.54 102.225L166.541 102.225C166.542 102.225 166.542 102.225 166.542 102.225L166.542 102.224C172.838 98.1498 172.647 93.5528 172.616 93.1017Z" fill="#E2375C"/>
<path d="M181.601 100.313C179.842 100.402 178.344 98.9355 178.261 97.0438C178.225 96.221 178.461 95.4276 178.921 94.7885C178.407 94.1988 178.103 93.4325 178.067 92.6097C177.984 90.718 179.348 89.1068 181.106 89.0175C182.178 88.9632 183.197 89.4869 183.833 90.4183C184.012 90.6803 183.959 91.0489 183.716 91.2411C183.472 91.4337 183.129 91.3771 182.95 91.1149C182.532 90.5024 181.862 90.1579 181.158 90.1935C180.002 90.2521 179.106 91.311 179.16 92.5541C179.19 93.2403 179.505 93.8667 180.024 94.2729C180.158 94.378 180.241 94.5427 180.249 94.7212C180.257 94.8995 180.189 95.072 180.064 95.1902C179.583 95.647 179.324 96.3023 179.355 96.9884C179.409 98.2315 180.394 99.1953 181.55 99.1369C182.247 99.1014 182.881 98.6968 183.245 98.0545C183.402 97.7771 183.739 97.6887 183.997 97.8581C184.255 98.0271 184.337 98.3894 184.179 98.667C183.626 99.6438 182.662 100.259 181.601 100.313Z" fill="#312D1B"/>
<path d="M150.986 142.624C150.885 142.941 150.752 143.246 150.588 143.531C150.504 143.677 150.409 143.821 150.281 143.924C150.191 143.997 150.087 144.046 149.983 144.095C149.74 144.211 149.496 144.327 149.252 144.443C149.17 144.482 149.081 144.522 148.993 144.504C148.928 144.49 148.873 144.447 148.82 144.404C148.545 144.18 148.277 143.946 148.017 143.702C147.975 143.662 147.931 143.62 147.911 143.563C147.869 143.447 147.939 143.323 148.011 143.227C148.371 142.744 148.242 142.565 148.357 142.042C148.435 141.69 148.669 141.517 148.916 141.281C149.328 140.886 149.743 140.495 150.157 140.102C150.203 140.058 151.162 140.786 151.278 140.864C151.126 141.255 151.194 141.744 151.106 142.164C151.074 142.319 151.033 142.473 150.986 142.624Z" fill="#E9C4AF"/>
<path d="M151.535 112.126C151.361 112.3 151.202 112.515 151.062 112.771C150.482 113.834 150.396 115.149 150.594 116.367C150.908 118.293 151.786 120.127 152.3 122.003C152.887 124.149 153.474 126.295 154.062 128.441L149.319 140.481L151.614 141.869C151.614 141.869 159.917 128.513 159.916 128.513C159.008 125.705 158.111 122.965 157.372 120.117C156.71 117.563 156.485 114.667 154.81 112.598C153.863 111.43 152.487 111.171 151.535 112.126Z" fill="#79CFCD"/>
<path d="M61.3279 173.685C60.9052 176.152 60.5586 178.965 62.0482 180.928C63.4838 182.819 66.0549 183.16 68.3554 183.357C72.1971 183.686 76.346 183.942 79.6095 181.795C81.8708 180.307 83.4375 177.716 83.7544 174.941C83.7744 174.765 83.7893 174.584 83.7433 174.414C83.6776 174.172 83.4987 173.985 83.3264 173.81C81.94 172.397 80.5539 170.985 79.1676 169.572C78.8297 169.227 78.4857 168.878 78.0696 168.646C77.7184 168.449 77.3286 168.343 76.9416 168.243C73.2857 167.297 68.5212 166.045 64.7409 166.666C61.464 167.205 61.8268 170.773 61.3279 173.685Z" fill="#312D1B"/>
<path d="M63.6007 155.331C64.1168 154.247 63.9368 152.935 63.1513 152.053C61.7161 150.443 60.2811 148.832 58.8459 147.222C58.04 146.317 56.8142 145.364 56.3469 144.246C55.5206 142.27 55.2671 139.709 54.8624 137.596C54.657 136.522 54.165 135.098 54.2936 134.007C54.3177 133.802 55.0615 132.05 55.0187 132.018C55.0153 132.015 54.6713 131.71 54.6713 131.71L54.3894 132.084L54.0747 132.117L54.5845 130.802L53.1555 130.265L51.7849 131.442C52.0218 132.599 52.5421 133.714 52.5177 134.914C52.5074 135.421 52.4199 135.922 52.3694 136.427C52.2826 137.293 52.305 138.166 52.2939 139.036C52.2832 139.877 52.119 140.719 52.119 141.547C52.1192 143.395 52.1315 145.244 52.138 147.092L59.1339 155.889C60.3815 157.458 62.7278 157.165 63.6007 155.331Z" fill="#B87262"/>
<path d="M57.4293 145.86C57.4766 145.619 57.5252 145.379 57.5757 145.139C58.5171 145.095 59.4656 145.227 60.4143 145.153C61.5817 145.061 62.7291 144.776 63.8941 144.654C64.4182 144.599 64.9447 144.577 65.4709 144.556C67.7946 144.459 66.2087 148.217 65.8998 149.531C65.4398 151.488 64.8787 153.423 64.1758 155.296C63.8064 156.281 63.3976 157.25 62.926 158.183C62.6863 158.657 62.213 160.18 61.714 160.321C61.3116 160.435 60.982 159.988 60.7592 159.611C59.6551 157.738 58.1772 156.122 56.4548 154.904C56.337 154.821 56.2104 154.729 56.1642 154.586C56.1308 154.483 56.1452 154.371 56.1597 154.263C56.5396 151.452 56.8888 148.617 57.4293 145.86Z" fill="#5B5433"/>
<path d="M76.7488 154.503C76.2327 153.419 76.4127 152.107 77.1982 151.226C78.6334 149.615 80.0684 148.005 81.5036 146.394C82.3095 145.49 83.5353 144.536 84.0026 143.418C84.8289 141.442 85.0824 138.882 85.4871 136.768C85.6925 135.695 86.1845 134.271 86.0559 133.179C86.0316 132.974 85.288 131.222 85.3308 131.19C85.3342 131.187 85.6782 130.883 85.6782 130.883L85.9603 131.257L86.275 131.29L85.7652 129.975L87.1942 129.438L88.5648 130.614C88.3279 131.771 87.8076 132.887 87.832 134.086C87.8423 134.593 87.9298 135.095 87.9803 135.599C88.0671 136.466 88.0447 137.338 88.0558 138.208C88.0665 139.049 88.2307 139.891 88.2307 140.72C88.2305 142.568 88.2182 144.416 88.2117 146.264L81.2158 155.061C79.968 156.63 77.6217 156.337 76.7488 154.503Z" fill="#B87262"/>
<path d="M82.9202 145.032C82.8729 144.791 82.824 144.551 82.7737 144.311C81.8323 144.267 80.8839 144.399 79.9354 144.325C78.768 144.233 77.6206 143.949 76.4556 143.827C75.9315 143.772 75.405 143.75 74.8788 143.728C72.5551 143.631 74.141 147.39 74.4498 148.703C74.9099 150.66 75.471 152.596 76.1739 154.469C76.5433 155.453 76.9521 156.422 77.4237 157.356C77.6634 157.83 78.1366 159.352 78.6359 159.493C79.0382 159.607 79.3679 159.161 79.5906 158.783C80.6948 156.911 82.1727 155.295 83.8951 154.076C84.0128 153.993 84.1393 153.902 84.1857 153.758C84.2188 153.656 84.2047 153.543 84.1902 153.436C83.8098 150.624 83.4606 147.789 82.9202 145.032Z" fill="#5B5433"/>
<path d="M68.1745 143.479C66.2863 143.864 64.6562 144.654 63.5692 146.666C62.7902 148.108 62.4652 149.796 62.1364 151.409C61.2772 155.622 60.8948 159.917 60.4659 164.199C60.0552 168.297 58.9642 172.62 60.177 176.662C60.3394 177.203 60.8021 177.852 61.2626 177.573C61.5016 176.679 61.7407 175.785 61.9796 174.891C62.0824 174.506 62.1913 174.109 62.4308 173.803C62.6387 173.538 62.9281 173.363 63.2157 173.205C64.8123 172.331 66.5715 171.801 68.3583 171.656C70.3435 171.495 72.3318 171.809 74.2535 172.333C76.1474 172.85 77.9751 173.769 79.8831 174.15C81.1337 174.4 82.373 174.716 83.5952 175.095C83.6358 175.108 83.6792 175.12 83.7194 175.106C83.7949 175.08 83.8185 174.979 83.8284 174.895C83.9347 173.992 83.8678 173.065 83.6356 172.19C83.4009 171.305 83.4162 170.338 83.334 169.416C83.1571 167.434 82.9194 165.455 82.5394 163.505C81.714 159.268 80.2816 155.192 79.5852 150.922C79.2845 149.078 79.0986 146.021 77.4798 144.609C75.7209 143.075 71.7501 142.998 69.5169 143.268C69.058 143.323 68.6094 143.39 68.1745 143.479Z" fill="#5B5433"/>
<path d="M71.0724 144.015C70.703 144.279 69.7812 144.482 68.7619 144.206C68.5565 144.15 68.4003 143.965 68.3763 143.739C68.3088 143.104 68.2812 142.464 68.2935 141.825C68.2967 141.66 66.197 140.942 65.9611 140.759C64.6457 139.734 64.4182 137.9 64.3445 136.281C64.3106 135.538 64.295 134.747 64.6457 134.104C65.0458 133.372 65.8333 132.998 66.5919 132.761C67.8399 132.37 69.1527 132.221 70.4489 132.323C71.6321 132.416 72.9173 132.802 73.5626 133.872C74.4892 135.41 74.2541 138.429 73.4658 139.968C73.01 140.858 72.2782 141.14 71.6969 141.835C71.1599 142.477 71.3182 143.237 71.0724 144.015Z" fill="#5B5433"/>
<path d="M74.6097 132.056C74.7935 131.703 74.9732 131.359 74.8557 130.996C74.7753 130.747 74.5683 130.57 74.4538 130.337C74.1732 129.765 74.5115 129.038 74.3164 128.427C74.0599 127.623 72.9808 127.292 72.9069 126.446C72.6225 126.173 72.2868 126.698 71.9683 126.923C71.2452 127.433 70.3816 126.242 69.5264 126.38C68.8755 126.485 68.4465 127.338 67.7889 127.306C67.2969 127.282 66.8172 126.751 66.3825 127C66.1903 127.111 66.0887 127.343 65.92 127.492C65.3814 127.964 64.321 127.491 64.0207 128.165C63.8448 128.56 63.9195 128.91 63.5408 129.176C63.2089 129.408 62.5527 129.027 62.3489 129.536C62.3043 129.647 62.3112 129.774 62.3189 129.895C62.3972 131.123 62.4754 132.351 62.5537 133.579C62.5752 133.915 62.6028 134.27 62.7864 134.543C62.9159 134.735 63.116 134.874 63.2029 135.092C63.3103 135.362 63.2164 135.678 63.2811 135.963C63.3857 136.425 64.7813 138.796 65.1986 138.009C65.3484 137.726 65.2961 137.376 65.2456 137.055C65.1717 136.585 65.1178 136.071 65.3418 135.66C65.6952 135.01 66.5237 134.944 67.2221 134.898C67.8731 134.854 68.5374 134.756 69.114 134.429C69.5137 134.201 70.0463 133.884 70.3517 134.243C70.4311 134.336 70.4749 134.463 70.5678 134.541C70.7334 134.679 70.9768 134.603 71.1566 134.487C71.3365 134.371 71.511 134.216 71.7207 134.207C71.9301 134.197 72.1525 134.447 72.0374 134.636C72.1095 134.862 72.4124 134.565 72.6346 134.58C72.8188 134.593 72.9012 134.83 72.94 135.025C73.0563 135.608 73.1724 136.192 73.2888 136.776C73.7343 136.844 74.1704 136.498 74.3526 136.055C74.8256 134.905 74.0944 133.804 74.3386 132.706C74.3881 132.481 74.4996 132.267 74.6097 132.056Z" fill="#312D1B"/>
<path d="M81.9913 139.364C89.0313 131.793 89.0313 119.518 81.9913 111.946C74.9514 104.375 63.5374 104.375 56.4974 111.946C49.4575 119.518 49.4575 131.793 56.4974 139.364C63.5374 146.935 74.9514 146.935 81.9913 139.364Z" fill="#FFD049"/>
<g opacity="0.08">
<g opacity="0.08">
<path opacity="0.08" d="M77.9053 108.628C79.8367 111.543 81.0411 115.067 81.2178 118.907C81.7098 129.601 74.0474 138.699 64.1035 139.228C60.6499 139.412 57.3757 138.537 54.5518 136.87C57.9988 142.073 63.7621 145.335 70.1352 144.996C80.0791 144.467 87.7415 135.369 87.2495 124.675C86.9286 117.695 83.2125 111.761 77.9053 108.628Z" fill="#312D1B"/>
</g>
</g>
<path opacity="0.2" d="M53.7814 128.526C53.3247 118.597 60.4386 110.15 69.671 109.659C75.0673 109.372 79.9922 111.868 83.2449 115.973C80.1103 110.737 74.5331 107.397 68.3347 107.727C59.1024 108.218 51.9885 116.665 52.4451 126.594C52.635 130.719 54.1027 134.45 56.4147 137.369C54.8805 134.806 53.9315 131.789 53.7814 128.526Z" fill="#FFD049"/>
<path d="M61.9572 128.044C61.4712 127.584 60.7526 128.16 61.0225 128.792C62.5173 132.296 65.8831 134.649 69.6822 134.447C73.4181 134.248 76.5101 131.636 77.7207 128.082C77.9415 127.434 77.1673 126.924 76.7291 127.429C74.2208 130.317 68.8067 134.524 61.9572 128.044Z" fill="#312D1B"/>
<path d="M73.6583 120.3C74.1049 118.903 75.2802 117.953 76.6518 117.88C77.9941 117.809 79.2397 118.604 79.8244 119.906C79.9363 120.155 79.8708 120.447 79.6652 120.615C79.4594 120.783 79.1803 120.773 78.9866 120.59C77.9397 119.601 76.3219 118.849 74.5591 120.882C74.4595 120.997 74.3279 121.06 74.1923 121.067C74.0889 121.073 73.9837 121.046 73.8888 120.984C73.6694 120.842 73.5747 120.561 73.6583 120.3Z" fill="#312D1B"/>
<path d="M58.1893 121.123C58.6359 119.726 59.811 118.776 61.1826 118.703C62.5249 118.632 63.7704 119.427 64.3552 120.729C64.4674 120.978 64.4022 121.269 64.1964 121.438C63.9908 121.606 63.7115 121.596 63.5176 121.413C62.4707 120.424 60.8531 119.672 59.0903 121.705C58.9907 121.82 58.8591 121.883 58.7235 121.89C58.6201 121.896 58.5149 121.869 58.42 121.807C58.2004 121.665 58.1057 121.384 58.1893 121.123Z" fill="#312D1B"/>
<path d="M57.8242 131.906C59.2884 130.899 59.7162 128.806 58.7797 127.231C57.8431 125.656 55.8969 125.196 54.4326 126.204C52.9683 127.211 52.5405 129.304 53.477 130.879C54.4136 132.453 56.3599 132.914 57.8242 131.906Z" fill="#E2375C"/>
<path d="M85.7504 127.479C85.8362 129.346 84.4986 130.935 82.7624 131.027C81.0263 131.119 79.5492 129.681 79.4634 127.814C79.3775 125.946 80.7152 124.358 82.4514 124.266C84.1875 124.173 85.6646 125.612 85.7504 127.479Z" fill="#E2375C"/>
<path d="M67.7217 186.434C67.2019 186.556 66.6941 186.434 66.1769 186.454C65.9333 184.518 65.8711 182.633 65.9939 180.663C66.9161 181.48 67.5062 180.824 67.7254 182.604C67.7961 183.18 67.4976 185.576 67.7217 186.434Z" fill="#B87262"/>
<path d="M65.9286 185.511C65.2997 185.377 65.3777 186.932 65.4231 187.293C65.4504 187.51 65.5049 187.727 65.4827 187.945C65.4582 188.185 65.3437 188.401 65.2316 188.61C64.9967 189.047 64.7618 189.484 64.5269 189.921C64.4213 190.118 64.3141 190.319 64.2737 190.542C64.1737 191.094 64.5451 191.67 65.0418 191.847C66.7648 192.461 67.9362 190.118 68.0903 188.671C68.114 188.449 68.1227 188.226 68.1313 188.003C68.1493 187.541 68.3295 186.513 68.1033 186.101C67.8393 185.621 67.3055 186.085 66.8953 185.954C66.515 185.832 66.1831 185.566 65.9286 185.511Z" fill="#312D1B"/>
<path d="M70.2021 158.756C70.3554 158.94 70.4971 159.135 70.626 159.335C71.6563 160.943 72.021 162.957 71.9808 164.908C71.9406 166.86 71.5232 168.777 71.1079 170.677C70.6068 172.971 69.9611 175.259 69.8553 177.593C69.7989 178.833 69.6062 180.079 69.4782 181.313C69.3639 182.414 69.2395 183.515 69.1639 184.62C69.1373 185.01 69.0779 185.032 68.6935 185.095C68.2209 185.174 67.7422 185.209 67.2642 185.2C66.3272 185.182 65.3925 184.996 64.5133 184.647C63.8866 184.398 64.0746 183.102 64.0203 182.518C63.8625 180.818 63.741 179.114 63.6228 177.41C63.3867 174.006 63.0961 170.604 63.0031 167.19C62.9228 164.236 62.4849 161.328 64.4113 158.913C65.136 158.005 66.137 157.271 67.2486 157.22C68.3815 157.168 69.4354 157.835 70.2021 158.756Z" fill="#312D1B"/>
<path d="M75.1285 185.504C75.6658 185.602 76.1798 185.451 76.7098 185.444C76.8707 183.45 76.8483 181.518 76.633 179.509C75.727 180.394 75.0932 179.754 74.9502 181.586C74.9039 182.179 75.3186 184.615 75.1285 185.504Z" fill="#B87262"/>
<path d="M76.9207 184.466C77.5579 184.296 77.5492 185.891 77.5193 186.262C77.5013 186.486 77.4555 186.711 77.488 186.932C77.5238 187.176 77.651 187.392 77.7752 187.6C78.0354 188.034 78.2957 188.469 78.5558 188.904C78.6728 189.099 78.7918 189.299 78.8431 189.525C78.9705 190.085 78.6168 190.694 78.117 190.901C76.3822 191.62 75.077 189.285 74.8533 187.813C74.8189 187.587 74.7999 187.359 74.7807 187.132C74.7414 186.661 74.5101 185.617 74.7228 185.185C74.971 184.679 75.5384 185.126 75.9518 184.97C76.3357 184.825 76.6629 184.535 76.9207 184.466Z" fill="#312D1B"/>
<path d="M71.8464 158.791C71.7056 158.977 71.5762 159.173 71.46 159.374C70.5293 160.985 70.2625 162.959 70.3859 164.852C70.5093 166.744 70.9975 168.584 71.4829 170.408C72.0686 172.609 72.7943 174.798 72.998 177.058C73.0514 177.65 74.1125 184.279 73.997 184.285C74.7425 184.246 75.4835 184.466 76.2361 184.377C77.0482 184.281 77.8606 184.224 78.6701 184.096C78.6503 183.623 78.8011 183.307 78.8508 182.861C78.8993 182.425 78.8545 181.984 78.8755 181.547C78.955 179.889 78.9993 178.229 79.0403 176.569C79.1223 173.253 79.257 169.936 79.1996 166.617C79.1497 163.746 79.4491 160.901 77.4744 158.654C76.7317 157.808 75.7281 157.146 74.6468 157.152C73.545 157.158 72.5509 157.858 71.8464 158.791Z" fill="#312D1B"/>
</svg>
