<svg width="223" height="239" viewBox="0 0 223 239" fill="none" xmlns="http://www.w3.org/2000/svg">
<path d="M60.0031 62.8414C60.0031 62.8414 56.8301 61.5471 55.353 57.4874C53.8759 53.4278 53.5476 48.015 53.5476 48.015L54.9153 49.8977L55.7906 44.426L57.596 47.1913C57.596 47.1913 58.0336 42.6022 58.3072 42.7787C58.5807 42.9552 61.5349 45.4262 61.5349 45.4262L62.2461 42.2491C62.2461 42.2491 64.5986 45.0732 64.6533 45.1909C64.708 45.3674 65.0909 42.9552 65.0909 42.9552C65.0909 42.9552 71.7653 54.3692 70.6712 57.4874C69.577 60.6057 66.5681 60.4292 66.5681 60.4292L60.0031 62.8414Z" fill="#312D1B"/>
<path d="M44.7397 217.283H58.909C59.8937 211.223 58.3072 205.163 58.3072 205.163L51.8517 203.987C51.2499 207.811 50.5387 209.341 49.5539 210.105C48.8427 210.694 47.9674 210.87 46.928 211.223C45.7244 211.694 45.0679 212.518 44.7397 213.4C44.0832 215.224 44.7397 217.283 44.7397 217.283Z" fill="#312D1B"/>
<path d="M44.7396 213.4C48.2409 213.871 55.9 214.694 55.4624 212.517C55.0794 210.694 51.8516 210.223 49.6086 210.105C48.8974 210.694 48.0221 210.87 46.9826 211.223C45.6697 211.694 45.0132 212.517 44.7396 213.4Z" fill="#5B5433"/>
<path d="M92.1711 217.284H106.34C106.34 217.284 106.778 215.872 106.559 214.342C106.395 213.106 105.793 211.812 104.152 211.224C102.949 210.753 101.964 210.576 101.198 209.811C100.377 208.988 99.7208 207.399 99.2284 203.987L92.7729 205.164C92.7729 205.164 91.1864 211.224 92.1711 217.284Z" fill="#312D1B"/>
<path d="M106.559 214.342C106.395 213.106 105.793 211.812 104.152 211.224C102.949 210.753 101.964 210.576 101.198 209.812C99.3925 210.4 96.876 211.518 96.1101 213.165C95.0706 215.46 103.331 215.048 106.559 214.342Z" fill="#5B5433"/>
<path d="M100.268 204.987C100.268 204.987 99.1738 208.752 92.1165 206.163C92.1165 206.163 86.8646 163.802 86.044 162.919C85.2233 161.978 76.9078 134.326 76.9078 134.326H74.2818C74.2818 134.326 65.9662 161.978 65.1456 162.919C64.325 163.861 59.073 206.163 59.073 206.163C52.0157 208.752 50.9216 204.987 50.9216 204.987L54.3135 159.331L61.3708 112.262L75.5401 113.969L89.7094 112.262L91.5695 124.559L91.6242 125.03L96.7667 159.331L100.268 204.987Z" fill="#79CFCD"/>
<path d="M91.7338 125.089C86.8101 123.736 85.3877 118.97 85.3877 118.97L85.7706 118.852C85.7706 118.911 87.1383 123.265 91.6791 124.618L91.7338 125.089Z" fill="#662C33"/>
<path d="M76.6344 130.149C76.2514 130.56 75.759 130.796 75.2119 130.796C75.2119 131.914 75.212 133.149 75.1572 134.326H74.7196C74.9384 129.384 74.446 124.324 74.446 124.265L74.829 124.206C74.829 124.265 75.1025 126.913 75.1572 130.325C75.6496 130.325 76.0326 130.149 76.3061 129.854C77.6738 128.325 76.8532 123.912 76.8532 123.853L77.2361 123.794C77.2908 123.971 78.1115 128.442 76.6344 130.149Z" fill="#662C33"/>
<path d="M114.765 29.5406C114.109 29.6583 112.358 30.8938 112.358 30.8938C111.155 32.0705 110.443 32.7765 109.568 33.0119C108.693 33.306 108.583 35.0711 108.583 35.0711C108.583 35.0711 105.137 36.6596 104.48 34.2474C104.48 34.2474 105.957 30.7761 106.012 30.3055C106.176 29.4229 105.41 28.3051 105.957 26.7165C106.505 25.128 106.505 22.8922 106.505 22.8922C106.505 22.8922 107.27 22.4804 107.489 23.3041C107.708 24.1278 107.325 25.4221 107.544 25.7752C107.599 25.834 107.653 25.8928 107.708 25.9517C107.927 26.187 108.146 26.3047 108.419 26.2458H108.474C109.349 26.0105 110.717 24.3631 111.264 23.5394C112.03 22.4216 113.124 20.9507 113.562 21.7155C114 22.4804 113.015 22.5981 111.811 25.4221L112.03 25.6575C111.975 25.8928 113.507 24.5985 114.711 23.1276C115.531 22.1274 115.914 23.0687 115.805 23.4806C115.695 23.9513 114.765 24.8338 114.164 25.5398C113.781 26.0105 113.343 26.54 113.124 26.8342L113.288 27.1872C115.531 26.1282 115.75 25.128 116.352 25.5398C116.954 25.9517 115.641 27.3637 114.93 27.7167C114.601 27.8932 114.109 28.3051 113.671 28.7169C115.531 28.3051 115.914 27.5402 116.297 28.0109C116.68 28.4816 115.422 29.3641 114.765 29.5406Z" fill="#FF8B66"/>
<path d="M108.419 28.8937C108.802 27.5993 107.872 26.1872 107.763 26.0107C107.982 26.2461 108.2 26.3638 108.474 26.3049C109.24 27.8346 108.419 28.8937 108.419 28.8937Z" fill="#EF6E4B"/>
<path d="M8.41368 51.3096C9.07017 51.1919 11.0944 51.6038 11.0944 51.6038C12.6262 52.2509 13.5015 52.6039 14.4315 52.4863C15.3616 52.3686 16.0181 54.016 16.0181 54.016C16.0181 54.016 19.7929 54.1337 19.5741 51.6626C19.5741 51.6626 17.0028 49.015 16.784 48.6032C16.3463 47.8383 16.6746 46.4851 15.5804 45.2496C14.5409 44.014 13.7203 41.9548 13.7203 41.9548C13.7203 41.9548 12.845 41.8371 12.9544 42.7197C13.0091 43.6022 13.8297 44.6612 13.7203 45.0731C13.7203 45.1319 13.6656 45.2496 13.6656 45.3084C13.5562 45.6026 13.3374 45.7791 13.1185 45.8379H13.0638C12.1338 46.0144 10.3284 44.9554 9.56254 44.4259C8.46838 43.661 6.93657 42.7197 6.82715 43.6022C6.66303 44.4847 7.64777 44.2494 9.72666 46.3674L9.61725 46.6616C9.78137 46.8381 7.8666 46.2498 6.28007 45.3672C5.18592 44.7789 5.13121 45.7791 5.40475 46.1321C5.62358 46.5439 6.82715 46.9558 7.64777 47.4265C8.19485 47.7206 8.74192 48.0148 9.07017 48.1913V48.6032C6.60832 48.5443 6.06124 47.6618 5.67829 48.309C5.29533 48.9562 6.93657 49.721 7.75718 49.721C8.08543 49.721 8.68722 49.9564 9.289 50.1917C7.37423 50.5447 6.82715 49.9564 6.60832 50.5447C6.28007 51.0742 7.75718 51.4272 8.41368 51.3096Z" fill="#FF8B66"/>
<path d="M14.1033 48.1913C13.3374 47.1322 13.6657 45.426 13.7204 45.2495C13.6109 45.5437 13.3921 45.7202 13.1733 45.779C12.9545 47.5441 14.1033 48.1913 14.1033 48.1913Z" fill="#EF6E4B"/>
<path d="M109.514 36.4833C109.514 36.4833 109.131 37.9542 108.529 40.1899C108.255 41.1313 107.982 42.1315 107.654 43.2493C107.161 44.9556 106.614 46.8971 106.012 48.7798C105.684 49.8389 105.356 50.8391 105.028 51.8393C104.152 54.3692 103.277 56.7226 102.456 58.37C102.347 58.6053 102.238 58.8407 102.128 59.0172C101.8 59.6055 101.362 60.2527 100.76 60.9587C99.8304 62.1354 98.5722 63.4886 97.0951 64.9007C96.3839 65.6067 95.6179 66.3127 94.852 67.0776C93.5938 68.2543 92.2261 69.4898 90.9131 70.6665C90.0925 71.4314 89.2718 72.1374 88.4512 72.7846C84.3481 76.3147 80.9563 79.0211 80.9563 79.0211L74.829 65.6067C76.5796 64.3123 79.8074 62.1943 83.1446 60.0174C83.9652 59.4878 84.7311 58.9583 85.5517 58.4876C86.81 57.7228 88.0136 56.8991 89.1077 56.1931C89.983 55.6636 90.8037 55.134 91.5149 54.6634C92.5543 54.0162 93.4296 53.4278 94.0861 53.016C94.7426 52.6041 95.1803 52.3688 95.1803 52.3688C95.1803 52.3688 95.4538 51.7804 95.9462 50.8391C96.4933 49.7212 97.3139 48.015 98.1892 46.1323C98.5722 45.3086 99.0098 44.426 99.4475 43.5435C100.159 42.1315 100.87 40.6606 101.581 39.2486C102.019 38.366 102.456 37.4835 102.894 36.6598C104.098 34.3652 105.082 32.5413 105.575 31.8353C105.575 31.8353 108.693 32.9532 109.514 36.4833Z" fill="#5B5433"/>
<path d="M57.8149 68.4306L56.7207 83.3747C56.7207 83.3747 52.8912 82.2569 48.0769 80.7272C47.1469 80.433 46.2169 80.08 45.2321 79.7858C43.5362 79.1974 41.7855 78.5503 40.0896 77.9619C39.1595 77.6089 38.2842 77.2559 37.4089 76.9029C35.3847 76.0792 33.5246 75.2555 32.1022 74.4318C31.3363 74.02 30.6798 73.6081 30.2422 73.1963C30.078 73.0786 29.9139 72.9021 29.7498 72.7256C28.6009 71.6665 27.2332 70.078 25.7561 68.3129C25.1543 67.5481 24.4979 66.7832 23.8961 65.9595C22.6378 64.371 21.4342 62.7236 20.2854 61.1351C19.6836 60.3114 19.0818 59.4877 18.5894 58.7817C16.6746 56.0164 15.3069 54.016 15.3069 54.016C15.4711 50.5448 17.8235 49.5446 17.8235 49.5446C18.6988 50.1329 20.6683 51.7803 22.966 53.8395C23.6772 54.4279 24.3884 55.0751 25.0996 55.7222C26.3579 56.8401 27.5615 57.958 28.7651 59.017C29.531 59.6642 30.2422 60.3114 30.844 60.8997C31.8834 61.8411 32.8134 62.7236 33.4152 63.2531C34.017 63.7826 34.3453 64.1357 34.3453 64.1357C34.3453 64.1357 34.947 64.2533 35.9318 64.371C36.8071 64.5475 38.0107 64.724 39.4331 64.9593C40.3084 65.077 41.2384 65.2535 42.1685 65.43C43.372 65.6654 44.6303 65.8419 45.8886 66.0772C46.8186 66.2537 47.694 66.4302 48.624 66.5479C52.3988 67.3127 55.9001 67.9599 57.8149 68.4306Z" fill="#5B5433"/>
<path d="M94.4689 115.851C94.4689 115.851 86.8098 124.441 76.4153 126.618C67.2791 128.501 59.073 128.501 59.073 128.501C59.073 128.501 58.5806 126.265 57.8694 122.735C57.7053 121.852 57.4864 120.852 57.2676 119.793C56.8847 117.91 56.447 115.792 56.0093 113.498C55.8452 112.556 55.6264 111.556 55.4075 110.556C55.0246 108.732 54.6963 106.849 54.3134 104.967C54.1493 104.025 53.9304 103.025 53.7663 102.025C53.3286 99.6128 52.891 97.2594 52.4533 95.0236C52.2892 94.0234 52.0704 93.0232 51.9063 92.0819C51.4139 89.3755 51.0309 86.9632 50.7574 84.9628C50.5933 83.7861 50.4291 82.7859 50.3744 81.9622C50.3197 81.6681 50.3197 81.3739 50.3197 81.1385C50.1556 79.0793 50.1009 77.1966 50.1009 75.4904C50.1009 74.3725 50.1009 73.3723 50.1009 72.4309C50.1556 69.195 50.3197 67.1946 50.3197 67.1946C52.4533 65.6061 67.3886 70.7247 67.3886 70.7247C67.3886 70.7247 78.3848 60.5462 80.1355 61.2523C81.1202 61.6641 82.0502 62.6055 82.9256 63.9587C83.4179 64.7235 83.9103 65.6061 84.348 66.6063C85.1139 68.2536 85.8798 70.254 86.591 72.4309C86.9192 73.4311 87.2475 74.4902 87.521 75.608C88.0134 77.4319 88.5058 79.3146 88.9434 81.2562C89.1623 82.2564 89.3811 83.2566 89.5999 84.2568C89.9829 86.1395 90.3658 88.0811 90.7488 90.0226C90.9676 91.0228 91.1317 92.0819 91.2959 93.0821C91.6241 94.8471 91.8977 96.5533 92.1165 98.2007C92.2806 99.2597 92.4447 100.319 92.6089 101.319C92.9371 103.614 93.2106 105.673 93.4842 107.556C93.6483 108.732 93.7577 109.732 93.8671 110.733C94.2501 113.969 94.4689 115.851 94.4689 115.851Z" fill="#E6EEF2"/>
<path d="M86.9192 73.6078C86.8098 73.2548 86.7004 72.9018 86.591 72.5488C85.8798 70.3719 85.1686 68.3715 84.348 66.7241C83.8556 65.7239 83.4179 64.8414 82.9256 64.0765C82.0502 62.7233 81.1202 61.782 80.1355 61.3701C79.1507 60.9583 75.2118 64.0177 71.984 66.7829L86.9192 73.6078Z" fill="#5B5433"/>
<path d="M50.3745 81.1386L61.4254 68.9009C57.0488 67.6065 51.6327 66.3121 50.3745 67.2535C50.3745 67.2535 50.2103 69.2539 50.1556 72.4898C50.1556 73.4312 50.1556 74.4314 50.1556 75.5493C50.1556 77.1966 50.2103 79.0794 50.3745 81.1386Z" fill="#5B5433"/>
<path d="M69.4674 64.8417C69.4674 64.8417 69.0297 68.8425 70.3974 70.078C70.3974 70.078 69.6862 72.9021 67.662 73.4904C65.3096 74.1376 63.9419 71.4312 63.9419 71.4312C63.9419 71.4312 64.5437 67.5481 63.0666 66.5479L69.4674 64.8417Z" fill="#EF6E4B"/>
<path d="M58.2522 60.7824C58.2522 60.7824 56.0092 59.6057 56.4469 61.7826C56.994 64.3125 59.3464 64.5478 59.5105 63.6065C59.6746 62.7239 58.2522 60.7824 58.2522 60.7824Z" fill="#FF8B66"/>
<path d="M70.1238 56.6634C70.1238 56.6634 71.2179 54.2512 72.0933 56.3104C73.078 58.6638 71.3274 60.4288 70.6709 59.7817C70.0691 59.1345 70.1238 56.6634 70.1238 56.6634Z" fill="#FF8B66"/>
<path d="M66.7869 67.6073C63.0667 68.9605 60.1125 67.0778 57.6507 59.1939C56.3924 55.1343 57.5412 51.9572 61.699 50.4275C65.9115 48.8977 68.4281 50.7805 69.6864 54.8401C72.3123 63.3123 70.6164 66.1953 66.7869 67.6073Z" fill="#FF8B66"/>
<path d="M60.6047 48.6623C52.2345 52.0159 57.2676 60.4882 57.2676 60.4882L58.4711 61.6649C57.9241 59.2526 58.307 57.8994 58.307 57.8994C57.7052 56.958 57.6505 55.193 57.8147 54.3693C58.8541 53.4279 61.4801 51.604 66.2944 51.0157C66.3491 51.0745 67.6073 52.4277 67.7168 53.7809C67.7168 53.7809 69.6315 55.6637 70.4521 57.8994L70.6163 55.8402C70.671 55.8402 68.7562 45.4264 60.6047 48.6623Z" fill="#312D1B"/>
<path d="M47.3108 76.2554L50.265 81.374L53.1645 76.2554C53.1645 76.2554 52.9457 68.548 52.9457 68.7833C52.9457 69.0187 53.7663 67.0183 51.7968 66.9006C49.8274 66.7829 47.8032 67.2536 47.8032 67.2536C47.8032 67.2536 47.3655 70.5484 47.3655 70.666C47.2561 70.9014 47.3108 76.2554 47.3108 76.2554Z" fill="#5B5433"/>
<path d="M81.5032 68.6657C81.5032 68.6657 87.0287 74.0196 87.0287 74.0785C87.0287 74.1373 88.2323 68.3126 88.2323 68.3126L86.1534 62.841L81.8862 60.8994C81.8862 60.8994 79.862 61.0759 78.8226 61.6643C77.7831 62.2526 79.5885 64.3707 79.5885 64.3707L81.5032 68.6657Z" fill="#5B5433"/>
<path d="M163.237 56.0169C163.237 56.0169 164.276 53.7223 161.322 53.8988C158.368 54.0754 150.435 54.6049 152.842 66.1366L160.119 70.9022L162.635 69.8432L167.449 66.9014C167.449 66.9014 169.309 60.8414 167.942 58.488C166.574 56.1346 164.058 53.7812 163.237 56.0169Z" fill="#1E0F00"/>
<path d="M127.294 175.923C127.294 175.923 135.5 199.457 135.992 206.929C135.992 206.929 138.071 208.694 141.572 207.106C141.572 207.106 141.682 184.572 138.235 177.629C134.843 170.687 127.294 175.923 127.294 175.923Z" fill="#FF8B66"/>
<path d="M125.543 217.284H142.831C143.542 214.343 142.448 211.871 142.448 211.871C142.448 211.871 143.214 208.636 142.885 207.576C142.612 206.517 139.056 205.223 138.071 206.341C137.415 207.106 137.36 208.106 137.415 208.636C136.922 205.694 135.664 205.458 134.46 206.576C133.202 207.753 134.734 207.165 134.515 209.106C134.515 209.224 134.46 209.4 134.406 209.518C134.296 209.812 134.132 210.048 133.913 210.283C133.749 210.459 133.476 210.695 133.202 210.812C133.093 210.93 132.929 210.989 132.765 211.048C132.491 211.165 132.163 211.283 131.834 211.401C131.342 211.577 130.795 211.695 130.193 211.754C127.841 211.989 126.856 212.166 125.762 213.519C124.668 214.813 125.379 215.872 125.379 215.872L125.543 217.284Z" fill="#E6EEF2"/>
<path d="M134.46 209.518C134.351 209.812 134.187 210.048 133.968 210.283C135.5 209.636 136.375 210.813 136.375 210.813L136.813 210.224C135.718 208.753 134.515 209.459 134.46 209.518Z" fill="#ADBEC4"/>
<path d="M134.788 212.166L135.39 211.754C135.062 210.695 134.405 210.342 133.968 210.283C133.804 210.46 133.53 210.695 133.257 210.813C134.46 211.048 134.788 212.166 134.788 212.166Z" fill="#ADBEC4"/>
<path d="M133.093 212.872L133.749 212.519C133.585 211.695 133.202 211.283 132.819 211.048C132.546 211.166 132.217 211.283 131.889 211.401C132.874 211.872 133.093 212.872 133.093 212.872Z" fill="#ADBEC4"/>
<path d="M162.635 212.813C163.127 212.519 163.565 211.931 163.948 211.225C163.948 211.225 164.276 209.048 163.948 206.694C163.62 204.4 164.55 202.517 167.559 201.811C170.513 201.105 172.264 202.635 171.607 209.048C172.045 211.695 172.154 214.755 171.115 217.285H162.033C162.033 217.285 160.611 213.99 162.635 212.813Z" fill="#E6EEF2"/>
<path d="M154.648 178.394C154.648 178.394 154.648 184.748 157.985 191.279C161.377 197.927 165.589 207.047 165.589 207.047C165.589 207.047 168.379 209.989 170.185 205.105C170.185 205.105 168.926 188.161 166.027 181.924C163.182 175.805 154.648 178.394 154.648 178.394Z" fill="#FF8B66"/>
<path d="M169.528 207.694C169.528 207.694 170.349 205.87 169.637 205.047C168.872 204.282 167.996 205.753 166.738 205.4C165.48 205.047 165.151 204.105 164.823 205.4C164.495 206.753 164.878 210.989 169.528 207.694Z" fill="#E6EEF2"/>
<path d="M164.714 207.636C164.714 207.636 168.161 208.93 169.911 207.636L169.474 209.224C169.474 209.224 165.753 209.636 165.206 208.636L164.714 207.636Z" fill="#ADBEC4"/>
<path d="M164.768 209.636C164.768 209.636 167.942 209.165 169.419 209.989V210.754C169.419 210.754 165.316 209.695 164.003 210.754L164.768 209.636Z" fill="#ADBEC4"/>
<path d="M169.583 212.401C169.583 212.401 168.981 210.813 167.066 210.695C165.151 210.577 163.839 211.695 163.839 211.695C163.839 211.695 166.902 210.401 169.583 212.401Z" fill="#ADBEC4"/>
<path d="M168.708 176.746C168.708 176.746 168.379 177.57 167.668 178.57C167.559 178.688 167.504 178.805 167.395 178.923C165.48 181.453 161.322 184.807 153.718 181.512C153.718 181.512 153.499 181.041 153.28 180.276C153.225 180.159 153.171 180.041 153.116 179.864C152.624 178.511 152.022 176.629 151.748 174.922C149.779 163.038 149.013 154.448 147.973 149.564C145.074 157.154 138.509 171.863 138.181 172.451C137.798 173.216 139.275 178.276 139.275 178.276C133.804 180.217 125.981 177.746 125.981 177.746C125.981 177.746 123.628 170.274 123.245 164.92C122.972 160.861 132.546 137.974 137.032 127.501C137.141 127.207 137.251 126.972 137.36 126.736C138.564 123.971 139.275 122.265 139.275 122.265L146.934 125.03L165.535 134.032C165.535 134.032 165.863 134.444 166.191 138.562C166.191 138.68 166.191 138.798 166.191 138.915C166.355 141.386 166.519 145.034 166.629 150.565V150.918C166.629 152.094 166.683 153.389 166.683 154.801V155.154C166.683 158.331 166.738 161.979 166.683 166.156C166.683 166.274 166.683 166.391 166.683 166.509C166.683 167.803 166.683 169.156 166.629 170.569C166.629 171.863 167.559 174.275 168.161 175.687C168.215 175.805 168.27 175.922 168.325 176.04C168.598 176.452 168.708 176.746 168.708 176.746Z" fill="#312D1B"/>
<path d="M167.668 178.571C167.559 178.688 167.504 178.806 167.395 178.924C166.519 177.394 165.206 174.746 164.933 172.922C164.495 170.334 164.276 160.096 164.933 149.33C165.589 138.916 163.456 128.678 163.401 128.561L163.784 128.443C163.784 128.561 165.972 138.857 165.316 149.33C164.659 160.038 164.878 170.216 165.316 172.805C165.644 174.57 166.847 177.041 167.668 178.571Z" fill="#312D1B"/>
<path d="M164.823 137.563C158.86 135.268 157.383 130.032 157.328 129.973L157.711 129.855C157.711 129.914 159.188 134.915 164.933 137.151L164.823 137.563Z" fill="#312D1B"/>
<path d="M142.885 125.854C142.776 125.972 142.557 125.972 142.01 126.03C140.861 126.089 138.728 126.266 137.086 127.678C137.196 127.384 137.305 127.148 137.415 126.913C139.056 125.854 140.916 125.736 142.01 125.619C142.284 125.619 142.612 125.56 142.667 125.56L142.885 125.854Z" fill="#312D1B"/>
<path d="M147.809 149.741C143.487 140.445 149.067 128.031 149.122 127.913L149.505 128.089C149.45 128.207 143.925 140.504 148.192 149.564L147.809 149.741Z" fill="#312D1B"/>
<path d="M146.989 140.681C146.606 140.681 146.332 140.563 146.332 140.563L146.441 140.151C146.441 140.151 147.262 140.445 147.973 139.916C148.575 139.504 149.013 138.622 149.122 137.327C149.56 133.385 152.35 128.561 152.459 128.384L152.788 128.62C152.733 128.678 149.943 133.562 149.505 137.386C149.341 138.798 148.903 139.798 148.137 140.328C147.754 140.622 147.317 140.681 146.989 140.681Z" fill="#312D1B"/>
<path d="M179.266 95.0836C177.898 111.028 172.537 126.502 170.677 132.915C170.294 134.327 170.02 135.091 170.02 135.091C170.02 135.091 140.916 131.032 137.469 122.56C137.469 122.56 137.524 122.324 137.633 121.912C138.509 118.088 142.831 102.497 143.323 89.7296C143.87 75.5504 148.301 70.5494 150.982 71.1966C150.982 71.1966 157 76.3152 160.884 76.3152C164.714 76.3152 173.959 71.7849 173.959 71.7849C173.959 71.7849 180.907 75.668 179.266 95.0836Z" fill="#E6EEF2"/>
<path d="M170.677 132.915C170.294 134.327 170.021 135.092 170.021 135.092C170.021 135.092 140.916 131.032 137.469 122.56C137.469 122.56 137.524 122.325 137.633 121.913C139.494 125.207 161.814 133.268 170.677 132.915Z" fill="#79CFCD"/>
<path d="M126.145 38.5439C126.145 38.5439 126.801 36.8965 129.701 36.8965C131.889 36.8965 132.764 38.1909 132.764 38.1909C134.077 42.3093 135.5 58.1948 135.992 58.7243C136.266 59.0185 152.678 72.4917 152.678 72.4917C143.815 72.6682 143.487 88.4949 143.487 88.4949C143.214 84.6118 130.85 74.904 127.731 68.5498C124.722 62.6663 123.355 48.1928 126.145 38.5439Z" fill="#E6EEF2"/>
<path d="M160.884 70.4313C161.851 70.4313 162.635 69.5884 162.635 68.5486C162.635 67.5088 161.851 66.6659 160.884 66.6659C159.917 66.6659 159.134 67.5088 159.134 68.5486C159.134 69.5884 159.917 70.4313 160.884 70.4313Z" fill="#1E0F00"/>
<path d="M196.882 39.6615C196.882 39.6615 196.226 38.0142 193.326 38.0142C191.138 38.0142 190.262 39.3085 190.262 39.3085C188.95 43.427 187.527 59.3125 187.035 59.842C186.761 60.1362 170.349 73.6094 170.349 73.6094C169.966 84.6704 179.54 89.6126 179.54 89.6126C179.813 85.7294 192.177 76.0216 195.296 69.6674C198.25 63.7839 199.672 49.3105 196.882 39.6615Z" fill="#E6EEF2"/>
<path d="M157.164 76.0804C157.164 76.0804 155.578 76.7864 155.249 77.4924C154.921 78.2573 156.125 81.3167 158.477 81.552C160.829 81.7874 165.315 78.8456 165.097 77.9043C164.987 76.9629 161.595 75.7274 157.164 76.0804Z" fill="#79CFCD"/>
<path d="M156.945 72.491C156.945 72.491 157.821 76.3741 156.508 77.9038C156.508 77.9038 158.696 81.6693 163.62 77.845C163.62 77.845 162.69 75.3151 163.62 73.6088L156.945 72.491Z" fill="#EF6E4B"/>
<path d="M166.629 65.5486C166.629 65.5486 168.489 63.5482 168.708 65.9017C168.981 68.6081 166.683 69.6671 166.246 68.8434C165.808 67.902 166.629 65.5486 166.629 65.5486Z" fill="#FF8B66"/>
<path d="M153.608 65.6662C153.608 65.6662 151.748 63.6658 151.529 66.0192C151.256 68.7256 153.554 69.7847 153.991 68.961C154.429 68.0784 153.608 65.6662 153.608 65.6662Z" fill="#FF8B66"/>
<path d="M160.337 75.3151C164.44 75.3151 166.793 72.4322 166.793 63.7246C166.793 59.2532 164.659 56.4879 160.064 56.4879C155.468 56.4879 153.499 59.2532 153.499 63.7246C153.444 73.0794 156.07 75.3151 160.337 75.3151Z" fill="#FF8B66"/>
<path d="M164.933 58.6059C164.933 58.6059 162.088 58.3706 155.742 57.8999C155.742 57.8999 153.444 60.4886 153.608 66.8428C153.608 66.8428 149.943 55.37 160.666 55.37C171.443 55.37 166.574 66.5487 166.574 66.5487C166.574 66.5487 166.957 60.7828 164.933 58.6059Z" fill="#1E0F00"/>
<path d="M129.975 36.4841C129.975 36.4841 126.911 36.6606 126.911 37.6608C126.911 38.7199 126.911 39.9554 129.482 39.8377C132.053 39.7201 132.053 38.6022 132.108 37.602C132.163 36.543 130.795 36.3665 129.975 36.4841Z" fill="#FFD049"/>
<path d="M194.092 37.0726C194.092 37.0726 191.028 37.0726 190.974 38.1316C190.919 39.1907 190.864 40.4262 193.435 40.4262C196.007 40.4262 196.061 39.3672 196.171 38.3081C196.28 37.3079 194.967 37.0138 194.092 37.0726Z" fill="#FFD049"/>
<path d="M125.16 29.8949C125.598 30.4244 126.309 32.5425 126.309 32.5425C126.637 34.3076 126.802 35.2489 127.349 36.0726C127.896 36.8963 127.622 38.3083 127.622 38.3083C127.622 38.3083 129.811 39.5439 131.671 38.0142C131.671 38.0142 131.452 36.6021 131.671 36.1903C132.054 35.3666 133.257 34.9547 133.695 33.3662C134.132 31.7776 135.391 29.9537 135.391 29.9537C135.391 29.9537 135.008 29.1301 134.351 29.6007C133.695 30.1303 133.257 31.4246 132.929 31.5423C132.874 31.5423 132.765 31.6011 132.71 31.6011C132.437 31.66 132.163 31.6011 131.999 31.4246C131.999 31.4246 131.944 31.4246 131.944 31.3658C131.342 30.6009 131.178 28.424 131.233 27.4238C131.288 26.0706 131.233 24.1291 130.467 24.4821C129.701 24.7763 130.412 25.5411 129.811 28.6005L129.537 28.6594C129.482 28.8947 128.935 26.8355 128.826 24.8939C128.716 23.5407 127.95 24.0702 127.732 24.4821C127.568 24.8939 127.841 26.2471 127.896 27.1885C127.95 27.8357 128.005 28.4829 128.005 28.8947L127.677 29.0712C126.473 26.7767 126.856 25.8353 126.145 25.7765C125.434 25.7176 125.707 27.6592 126.09 28.424C126.255 28.7182 126.419 29.4242 126.528 30.0714C125.27 28.4829 125.434 27.718 124.832 27.7769C124.176 27.8357 124.723 29.3654 125.16 29.8949Z" fill="#FF8B66"/>
<path d="M130.577 33.4833C131.014 32.2478 132.546 31.6594 132.71 31.6006C132.437 31.6594 132.163 31.6006 131.999 31.4241C130.522 32.1301 130.577 33.4833 130.577 33.4833Z" fill="#EF6E4B"/>
<path d="M197.977 30.3064C197.539 30.8359 196.828 32.954 196.828 32.954C196.499 34.7191 196.335 35.6604 195.788 36.4841C195.241 37.3078 195.515 38.7198 195.515 38.7198C195.515 38.7198 193.326 39.9554 191.466 38.4257C191.466 38.4257 191.685 37.0136 191.466 36.6018C191.083 35.7781 189.88 35.3662 189.442 33.7777C189.004 32.1891 187.746 30.3652 187.746 30.3652C187.746 30.3652 188.129 29.5416 188.786 30.0122C189.442 30.5418 189.88 31.8361 190.208 31.9538C190.263 31.9538 190.372 32.0126 190.427 32.0126C190.7 32.0715 190.974 32.0126 191.138 31.8361C191.138 31.8361 191.193 31.8361 191.193 31.7773C191.795 31.0124 191.959 28.8355 191.904 27.8353C191.849 26.4821 191.904 24.5406 192.67 24.8936C193.436 25.1878 192.725 25.9526 193.326 29.012L193.6 29.0709C193.655 29.3062 194.202 27.247 194.311 25.3054C194.421 23.9522 195.186 24.4817 195.405 24.8936C195.569 25.3054 195.296 26.6586 195.241 27.6C195.186 28.2472 195.132 28.8944 195.132 29.3062L195.46 29.4827C196.664 27.1882 196.281 26.2468 196.992 26.188C197.703 26.1291 197.43 28.0707 197.047 28.8355C196.882 29.1297 196.718 29.8357 196.609 30.4829C197.867 28.8944 197.703 28.1295 198.305 28.1883C198.907 28.2472 198.414 29.7769 197.977 30.3064Z" fill="#FF8B66"/>
<path d="M192.506 33.954C192.068 32.7185 190.536 32.1301 190.372 32.0713C190.646 32.1301 190.919 32.0713 191.084 31.8948C192.615 32.542 192.506 33.954 192.506 33.954Z" fill="#EF6E4B"/>
<path d="M152.897 60.9594C152.897 60.9594 161.65 61.3713 163.291 58.3119C164.933 55.2524 158.477 56.0761 158.477 56.0761C158.477 56.0761 156.617 56.6645 156.453 56.6645C156.289 56.6645 153.882 57.7235 153.882 57.7235L152.897 60.9594Z" fill="#1E0F00"/>
<path d="M35.6035 97.5539C35.5488 96.6125 38.8859 76.9616 35.7129 72.3136C31.5004 66.1359 24.9354 68.9012 24.9354 68.9012C24.9354 68.9012 17.1122 68.9012 17.4952 81.4331C17.8781 93.9649 20.9965 102.614 14.158 111.851C7.31954 121.088 13.7751 128.442 19.8476 129.031C25.9202 129.56 30.1874 124.559 30.1874 124.559C30.1874 124.559 36.3694 106.909 35.6035 97.5539Z" fill="#312D1B"/>
<path d="M41.6759 146.034C41.6759 146.034 38.7217 156.095 31.4456 169.568C31.4456 169.568 32.7039 183.865 12.1337 210.341L9.28894 208.634C9.28894 208.634 19.8475 182.041 21.5982 174.157C23.2941 166.273 22.5829 155.742 28.1084 139.268L41.6759 146.034Z" fill="#FF8B66"/>
<path d="M29.148 125.795L38.886 121.559C40.582 127.383 44.9586 131.561 44.5756 140.68C44.4115 145.21 41.6761 149.799 41.6761 149.799C30.1875 149.329 26.2485 144.151 26.2485 144.151L27.9992 135.444C27.9992 135.444 29.2028 129.56 29.148 125.795Z" fill="#1E0F00"/>
<path d="M52.2344 139.268C52.2344 139.268 52.5627 149.799 49.882 165.097C49.882 165.097 55.4622 178.099 44.3018 210.458L41.1287 209.87C41.1287 209.87 42.8247 180.982 42.0041 172.922C41.1834 164.861 36.8615 157.801 37.3539 137.738L52.2344 139.268Z" fill="#FF8B66"/>
<path d="M29.1478 125.795L32.9773 132.796L33.9073 134.502L35.8768 138.15L37.1351 147.858L37.1898 148.27L37.2445 148.505C47.0919 147.27 52.3986 150.564 52.3986 150.564L52.508 149.682V149.388C52.508 149.329 52.5627 149.27 52.5627 149.211C53.4927 146.328 54.751 138.503 53.2192 133.149C50.7026 124.442 46.2166 125.265 42.8247 120.382C42.8794 120.441 29.1478 125.795 29.1478 125.795Z" fill="#1E0F00"/>
<path d="M46.2714 207.458C46.2714 207.458 45.0131 210.458 45.3961 212.518C45.6149 213.753 46.8732 215.342 45.8885 217.283H38.2294C38.2294 217.283 37.354 215.048 39.1594 212.988C40.1441 211.87 40.91 206.575 40.91 206.575C41.7854 206.752 41.5665 207.458 41.5665 207.458C41.5665 207.458 41.5665 204.987 43.4813 205.281C45.8337 205.693 45.2867 207.87 45.2867 207.87C45.2867 207.87 45.4508 207.105 46.2714 207.458Z" fill="#312D1B"/>
<path d="M0.0980144 217.284H13.0091C13.0091 217.284 13.392 214.342 12.7902 213.342C11.9696 211.93 14.8144 208.753 14.8144 208.753C14.8144 208.753 13.0638 206.458 11.5867 207.752C11.5867 207.752 11.7508 204.869 9.7813 204.869C9.7813 204.869 7.97594 209.753 5.95175 211.518C5.89704 211.577 5.84233 211.577 5.78763 211.635C4.25581 212.812 1.46571 213.106 0.426262 214.754C0.0433079 215.401 -0.120817 216.166 0.0980144 217.284Z" fill="#312D1B"/>
<path d="M36.6427 148.035L36.7521 148.446C36.9162 148.388 37.0804 148.329 37.2445 148.27C45.3412 145.858 50.9214 148.682 52.508 149.682V149.388C52.508 149.329 52.5627 149.27 52.5627 149.211C51.8515 148.799 50.4838 148.093 48.569 147.564C48.6784 146.74 49.2255 141.151 48.569 134.914C47.8578 128.148 41.7305 124.089 41.6211 124.03L41.4023 124.442C41.457 124.442 45.7789 127.383 47.5296 132.267C41.8399 132.208 39.5422 124.5 39.5422 124.442L39.1593 124.559C39.1593 124.618 41.5664 132.679 47.639 132.679H47.6937C47.9125 133.385 48.0766 134.149 48.186 134.973C48.8425 141.033 48.2955 146.505 48.186 147.446C45.4507 146.799 41.6758 146.505 37.1898 147.858C37.0257 147.917 36.8615 147.976 36.6427 148.035Z" fill="#1E0F00"/>
<path d="M32.485 127.795C32.485 127.854 33.0321 133.855 35.6034 138.444L35.2751 138.68C32.6492 134.032 32.1021 127.913 32.0474 127.854L32.485 127.795Z" fill="#1E0F00"/>
<path d="M20.1758 93.2592C22.9112 93.1416 23.0206 96.0245 21.5982 98.9074C20.2305 101.731 6.93654 114.616 4.85764 112.204C4.09173 111.263 6.33475 106.968 6.33475 106.968C6.33475 106.968 10.1096 103.379 15.0333 97.3777C17.331 94.6124 18.7534 93.3769 20.1758 93.2592Z" fill="#FF8B66"/>
<path d="M3.10706 107.556C2.34115 103.379 3.43531 92.2001 5.07654 87.3168L7.37427 87.9051C7.37427 87.9051 7.26485 100.202 8.3043 104.202C9.34375 108.144 8.68726 111.086 6.28012 112.263C3.87297 113.381 3.21648 108.439 3.10706 107.556Z" fill="#FF8B66"/>
<path d="M10.0001 84.6099C7.53823 86.375 8.41356 88.9049 5.9517 89.4344C5.45933 89.5521 5.02167 89.4344 4.74813 89.1991C4.14635 88.7872 3.92752 88.0224 4.03693 87.2575C4.31047 85.4925 4.20106 83.1979 4.09164 82.0212C3.92752 80.668 4.47459 81.1387 4.47459 81.1387C4.47459 81.021 4.41989 80.9033 4.41989 80.7857C4.20106 79.9031 3.92752 79.3148 4.58401 79.5501C5.29521 79.8443 5.9517 82.2565 5.9517 82.2565C5.78758 78.5499 4.91226 78.1381 5.56875 78.3146C6.44407 78.5499 7.04586 81.7859 7.04586 81.9035C7.3194 79.6678 6.88174 78.4911 7.42882 78.9029C7.97589 79.3148 8.0306 83.3156 8.0306 84.7864C8.0306 85.1395 8.0306 85.316 8.0306 85.316C9.78125 83.7274 10.0001 84.6099 10.0001 84.6099Z" fill="#FF8B66"/>
<path d="M7.86664 84.7863C7.86664 85.1393 7.86664 85.3158 7.86664 85.3158C7.86664 85.3158 6.8819 85.4334 6.33482 86.7278C6.33482 86.7278 6.28011 85.1393 7.86664 84.7863Z" fill="#EF6E4B"/>
<path d="M5.02181 83.6684C4.9671 83.3743 4.74827 81.5504 4.36532 81.0797C4.36532 80.962 4.31061 80.8444 4.31061 80.7267C4.91239 80.7855 5.02181 83.3154 5.02181 83.6684Z" fill="#EF6E4B"/>
<path d="M42.8795 120.441C42.8795 120.441 40.1988 112.793 41.5665 108.439C43.9189 100.967 42.6607 94.6714 40.1441 92.8475C36.1504 89.8469 27.7254 93.2594 27.7254 93.2594C27.7254 93.2594 19.574 92.318 18.6986 95.0244C17.8233 97.7308 15.9085 108.498 19.7928 114.263C23.6771 120.029 29.0931 128.972 29.0931 128.972C29.0931 128.972 40.6912 127.796 42.8795 120.441Z" fill="#79CFCD"/>
<path d="M28.9837 83.2569C28.9837 83.2569 28.4366 88.2578 30.1325 92.7881C30.1325 92.7881 27.6707 96.6713 25.3182 94.1413C25.3182 94.1413 25.0994 89.5522 22.4734 84.3747C20.7775 80.9034 28.9837 83.2569 28.9837 83.2569Z" fill="#EF6E4B"/>
<path d="M32.7585 83.4337C32.7585 83.4337 34.8374 82.0216 34.6186 84.1985C34.345 86.7285 32.0473 87.1991 31.8285 86.3166C31.5549 85.4341 32.7585 83.4337 32.7585 83.4337Z" fill="#FF8B66"/>
<path d="M20.8872 80.6681C20.8872 80.6681 19.5742 78.4324 18.9177 80.4916C18.1518 82.9038 20.0119 84.3747 20.6136 83.7275C21.1607 83.0803 20.8872 80.6681 20.8872 80.6681Z" fill="#FF8B66"/>
<path d="M25.1542 90.906C28.929 91.7885 31.555 89.6705 33.1962 81.7866C34.0715 77.7269 32.6491 74.7263 28.4366 73.7261C24.2241 72.726 21.9264 74.7852 21.1058 78.8448C19.3551 87.3759 21.2699 90.0235 25.1542 90.906Z" fill="#FF8B66"/>
<path d="M32.4302 84.8455C32.4302 84.8455 32.9226 82.9039 33.0867 80.727C33.3055 77.8441 31.6643 75.1377 29.093 74.2551C28.2177 73.961 27.233 73.8433 26.0841 73.9021C24.3882 74.0198 22.9111 75.2553 22.2546 76.9027C21.7075 78.2559 21.051 80.1386 20.5586 82.3155C20.5586 82.3155 19.9021 79.9621 20.5039 76.3144C21.1057 72.6666 23.8958 69.666 30.2966 71.1369C35.8221 72.4312 38.1745 79.5503 32.4302 84.8455Z" fill="#312D1B"/>
<path d="M24.4431 73.0195C24.4431 73.0195 25.1543 78.6088 32.2663 79.3148C32.2663 79.3148 27.9444 77.6674 27.9444 74.4315C27.9444 74.4315 29.6404 78.6088 33.7434 78.1381C33.7434 78.1381 34.1264 71.3721 24.4431 73.0195Z" fill="#312D1B"/>
<path d="M46.1071 94.6122C42.6605 95.73 40.3081 101.731 41.0193 102.437C41.7305 103.143 58.0881 106.497 58.0881 106.497L48.1313 121.912L49.8273 124.559C49.8273 124.559 65.3643 109.792 65.2548 104.732C65.1454 99.7308 46.1071 94.6122 46.1071 94.6122Z" fill="#FF8B66"/>
<path d="M48.0768 121.499C48.0768 121.499 45.8885 121.735 44.5755 122.147C43.2078 122.5 41.4024 122.853 41.3477 123.206C41.293 123.5 44.3566 123.206 44.3566 123.206C44.3566 123.206 41.8401 124.324 41.7854 124.735C41.7307 125.147 44.9584 124.441 44.9584 124.441C44.9584 124.441 42.9342 125.794 43.0436 126.147C43.1531 126.5 45.6696 125.618 45.6696 125.618C45.6696 125.618 45.1773 126.912 44.7396 127.501C44.7396 127.501 45.232 127.795 46.2167 126.618C47.2014 125.441 48.788 125.794 50.0462 124.794C51.2498 123.618 49.2256 121.323 48.0768 121.499Z" fill="#FF8B66"/>
<path d="M45.5603 214.224C45.5603 214.224 43.4815 211.282 39.1595 213.635C39.1595 213.635 38.9954 215.694 40.9649 215.283C42.9891 214.93 44.1927 216.518 45.5603 214.224Z" fill="#5B5433"/>
<path d="M0.480896 214.754C3.21629 216.166 8.9059 212.812 8.9059 212.812C7.97586 212.989 6.66288 212.224 5.84226 211.635C4.31044 212.871 1.57505 213.165 0.480896 214.754Z" fill="#5B5433"/>
<path d="M24.2241 93.2587C24.2241 93.2587 20.1757 92.2585 18.9174 92.9645C17.6592 93.6705 9.12474 103.496 9.12474 103.496C9.12474 103.496 8.96062 107.85 11.0942 109.791L20.0116 102.908L24.2241 93.2587Z" fill="#79CFCD"/>
<path d="M36.9163 91.6702C36.9163 91.6702 42.0041 92.5527 49.1162 94.6119C56.2282 96.6712 61.4254 99.8482 61.4254 99.8482C61.4254 99.8482 57.9788 106.673 56.9941 107.026L36.9163 102.849V91.6702Z" fill="#79CFCD"/>
<path d="M206.948 82.5515C206.948 82.5515 207.714 90.2001 208.973 91.4356C210.34 92.73 211.325 91.5533 211.325 91.5533C211.325 91.5533 210.231 94.6127 208.644 93.789C207.058 92.9065 205.909 90.5531 205.909 90.5531L205.088 87.4348L206.948 82.5515Z" fill="#FFD049"/>
<path d="M193.326 76.785C193.326 76.785 186.652 80.4328 187.363 86.6105C188.074 92.7882 190.153 110.203 189.825 110.733C189.442 111.204 195.077 115.734 205.198 111.851C215.319 108.026 205.416 91.7291 207.112 80.9035C208.808 70.0778 196.663 76.079 196.663 76.079L193.326 76.785Z" fill="#FFD049"/>
<path d="M200.11 68.1366C200.11 68.1366 201.587 61.6059 208.152 64.7242C214.717 67.8424 203.775 86.7285 205.198 91.7883C206.62 96.8481 201.368 95.4949 200.11 95.0831C198.852 94.6124 200.11 69.078 200.11 69.078V68.1366Z" fill="#FFD049"/>
<path d="M175.765 135.562C178.117 126.854 182.713 120.441 182.713 120.441L189.661 121.677L189.715 121.559L190.263 121.677H190.317L197.484 123.207C197.484 123.207 200.602 129.384 202.627 138.151C204.705 146.917 198.523 169.039 198.523 169.039C198.523 169.039 201.97 179.394 193.983 206.458H190.208C190.208 206.458 191.63 172.746 191.083 169.039C190.591 165.803 189.989 153.977 190.317 144.976C189.88 145.093 189.442 145.093 188.95 145.093C188.95 154.154 188.02 165.921 187.418 169.098C186.761 172.805 187.09 206.576 187.09 206.576L183.315 206.458C176.148 179.1 179.923 168.863 179.923 168.863C179.923 168.863 173.467 144.211 175.765 135.562Z" fill="#FF8B66"/>
<path d="M182.002 200.751C183.26 200.928 185.393 201.163 187.144 200.987C187.089 191.22 186.98 171.863 187.527 169.098C188.074 165.921 189.059 154.154 189.059 145.093C189.551 145.152 189.989 145.093 190.427 144.976C190.098 154.036 190.7 165.803 191.192 169.039C191.575 171.804 190.919 191.338 190.536 201.045C191.74 201.398 193.545 201.751 195.514 201.457C201.696 178.1 198.687 169.039 198.687 169.039C198.687 169.039 204.869 146.917 202.79 138.151C200.712 129.384 197.648 123.207 197.648 123.207L190.481 121.677H190.427L189.879 121.559L189.825 121.677L182.877 120.441C182.877 120.441 178.281 126.854 175.929 135.562C173.577 144.27 180.196 168.863 180.196 168.863C180.196 168.863 176.75 177.688 182.002 200.751Z" fill="#3F3730"/>
<path d="M208.152 94.4359C207.933 89.8468 194.584 91.8472 194.584 91.8472C194.584 91.8472 185.941 85.3165 183.26 87.4345C182.33 88.1994 181.892 92.5532 181.728 97.9072C180.743 99.8487 179.868 102.732 181.619 105.32C181.673 113.145 182.002 120.618 182.002 120.618C189.551 126.795 197.593 123.736 197.593 123.736C197.593 123.736 200.766 116.44 203.666 109.086C205.526 107.497 205.909 105.144 205.854 103.202C207.222 99.2604 208.207 95.9068 208.152 94.4359Z" fill="#E6EEF2"/>
<path d="M206.511 71.0783C202.627 63.9593 192.834 64.8418 189.497 69.4898C185.448 75.0791 187.582 88.1405 187.582 88.1405C187.582 88.1405 196.882 79.7859 202.462 91.1999C202.517 91.1411 210.833 79.0211 206.511 71.0783Z" fill="#FFD049"/>
<path d="M181.728 209.87C181.947 208.164 181.4 206.988 181.783 206.164C182.439 204.928 183.096 206.517 183.096 206.517C183.151 204.575 186.159 204.575 186.433 205.458C186.488 205.693 186.597 205.928 186.707 206.105C186.871 205.634 187.199 205.164 187.637 205.458C189.223 206.517 187.254 209.164 188.676 211.106C190.536 213.577 189.387 217.284 189.387 217.284H180.525C179.485 212.047 181.455 211.577 181.728 209.87Z" fill="#312D1B"/>
<path d="M187.199 209.282C187.199 209.282 185.12 208.105 182.33 209.694L182.877 208.635C182.877 208.635 184.737 207.399 186.98 208.341L187.199 209.282Z" fill="#5B5433"/>
<path d="M187.527 211.047C187.527 211.047 184.518 209.929 181.783 211.518L182.33 210.4C182.33 210.4 184.956 209.165 187.199 210.106L187.527 211.047Z" fill="#5B5433"/>
<path d="M195.897 209.87C195.678 208.164 196.226 206.988 195.843 206.164C195.186 204.928 194.53 206.517 194.53 206.517C194.475 204.575 191.466 204.575 191.192 205.458C191.138 205.693 191.028 205.928 190.919 206.105C190.755 205.634 190.427 205.164 189.989 205.458C188.402 206.517 190.372 209.164 188.949 211.106C187.089 213.577 188.238 217.284 188.238 217.284H197.101C198.14 212.047 196.116 211.577 195.897 209.87Z" fill="#312D1B"/>
<path d="M190.426 209.282C190.426 209.282 192.505 208.105 195.295 209.694L194.748 208.635C194.748 208.635 192.888 207.399 190.7 208.341L190.426 209.282Z" fill="#5B5433"/>
<path d="M190.043 211.047C190.043 211.047 193.052 209.929 195.788 211.518L195.241 210.4C195.241 210.4 192.615 209.165 190.372 210.106L190.043 211.047Z" fill="#5B5433"/>
<path d="M193.928 81.6096C193.928 81.6096 194.311 86.6105 192.396 91.082C192.396 91.082 193.983 94.2003 198.25 92.3175C198.25 92.3175 197.539 88.0226 200.329 82.9628C202.244 79.6092 193.928 81.6096 193.928 81.6096Z" fill="#EF6E4B"/>
<path d="M203.338 79.2566C203.338 79.2566 205.362 77.7857 205.198 79.9626C205.034 82.4925 202.736 83.0809 202.462 82.1983C202.243 81.3158 203.338 79.2566 203.338 79.2566Z" fill="#FF8B66"/>
<path d="M191.411 77.0209C191.411 77.0209 190.044 74.844 189.442 76.9621C188.785 79.3744 190.7 80.7864 191.247 80.0804C191.74 79.3744 191.411 77.0209 191.411 77.0209Z" fill="#FF8B66"/>
<path d="M196.007 87.0818C199.782 87.8467 202.407 85.6109 203.775 77.6682C204.486 73.5497 202.955 70.6668 198.742 69.7843C194.53 68.9606 192.287 71.0787 191.575 75.1971C190.098 83.7282 192.122 86.317 196.007 87.0818Z" fill="#FF8B66"/>
<path d="M194.694 74.4319C194.748 74.4908 194.858 74.4908 194.913 74.4319C195.514 73.9613 196.444 74.1378 196.444 74.1378C196.554 74.1378 196.663 74.0789 196.663 73.9613C196.663 73.8436 196.608 73.7259 196.499 73.7259C196.444 73.7259 195.405 73.4906 194.639 74.0789C194.584 74.1966 194.584 74.3143 194.694 74.4319C194.639 74.4319 194.694 74.4319 194.694 74.4319Z" fill="#FFD049"/>
<path d="M191.138 78.3742C191.138 78.3742 189.551 73.432 192.396 69.3724C195.241 65.3128 202.955 68.3134 204.377 71.4316C205.8 74.5499 203.009 80.8452 203.009 80.8452C203.009 80.8452 205.143 72.4907 200.876 71.1375C200.876 71.1375 200.329 73.2555 196.992 74.7264C193.709 76.1973 191.74 75.9619 191.74 75.9619L191.138 78.3742Z" fill="#FFD049"/>
<path d="M204.705 91.7883C204.705 91.7883 209.574 91.906 221.446 104.732C223.087 106.497 221.227 112.086 216.303 108.674C210.887 104.85 207.277 100.967 206.128 102.379C206.128 102.379 203.283 95.0243 204.705 91.7883Z" fill="#EF6E4B"/>
<path d="M222.157 104.026C222.103 99.731 218.984 89.023 216.523 84.6104L214.389 85.6694C214.389 85.6694 216.741 97.7306 216.468 101.79C216.14 105.909 217.343 108.674 219.914 109.262C222.486 109.851 222.157 104.908 222.157 104.026Z" fill="#FF8B66"/>
<path d="M212.638 79.3737C214.17 82.1389 212.364 84.0216 214.389 85.6102C215.647 86.6104 216.85 85.1983 216.85 85.1983C217.179 83.4333 218.382 80.9034 219.039 79.7855C219.695 78.6676 219.093 78.7853 219.093 78.7853C219.148 78.6676 219.258 78.6088 219.312 78.4911C219.859 77.7851 220.297 77.3733 219.695 77.3144C218.984 77.2556 217.397 79.1383 217.397 79.1383C219.039 75.8436 219.969 75.9024 219.312 75.7847C218.437 75.6082 216.577 78.2558 216.522 78.3146C217.179 76.1966 217.999 75.314 217.397 75.3729C216.741 75.4905 215.1 79.0795 214.553 80.4327C214.443 80.7269 214.334 80.9034 214.334 80.9034C213.185 78.7265 212.638 79.3737 212.638 79.3737Z" fill="#FF8B66"/>
<path d="M214.498 80.5504C214.388 80.8446 214.279 81.0211 214.279 81.0211C214.279 81.0211 215.154 81.6094 215.1 83.0215C215.1 83.0215 215.811 81.6094 214.498 80.5504Z" fill="#EF6E4B"/>
<path d="M217.562 80.8444C217.726 80.609 218.601 79.0793 219.148 78.844C219.203 78.7263 219.312 78.6675 219.367 78.5498C218.765 78.2556 217.671 80.5502 217.562 80.8444Z" fill="#EF6E4B"/>
<path d="M184.901 87.0813C184.901 87.0813 180.087 85.9634 165.972 95.9654C164.003 97.3186 164.769 103.261 170.294 100.966C176.312 98.4364 180.907 95.377 181.728 97.0244C181.728 96.9656 185.667 90.5525 184.901 87.0813Z" fill="#EF6E4B"/>
<path d="M165.425 95.0241C166.301 90.8468 171.388 81.0213 174.671 77.2559L176.531 78.7856C176.531 78.7856 171.881 90.0819 171.443 94.1415C170.951 98.2012 169.255 100.672 166.629 100.672C164.003 100.731 165.261 95.9066 165.425 95.0241Z" fill="#FF8B66"/>
<path d="M179.43 73.0794C177.406 75.4328 178.829 77.6686 176.531 78.8453C175.108 79.5513 174.178 77.9039 174.178 77.9039C174.178 76.08 173.467 73.3736 173.029 72.0792C172.592 70.8437 173.194 71.079 173.194 71.079C173.139 70.9614 173.084 70.8437 173.029 70.7849C172.647 69.9612 172.264 69.4905 172.92 69.5493C173.631 69.667 174.835 71.8439 174.835 71.8439C173.85 68.2549 172.92 68.0784 173.631 68.1373C174.561 68.1961 175.82 71.1379 175.874 71.1967C175.655 68.961 174.999 67.9019 175.601 68.1373C176.203 68.3726 177.133 72.2557 177.461 73.7266C177.516 74.0796 177.57 74.2561 177.57 74.2561C179.047 72.2557 179.43 73.0794 179.43 73.0794Z" fill="#FF8B66"/>
<path d="M177.406 73.7853C177.461 74.1383 177.515 74.3148 177.515 74.3148C177.515 74.3148 176.585 74.6678 176.366 76.0798C176.366 76.021 175.929 74.5501 177.406 73.7853Z" fill="#EF6E4B"/>
<path d="M174.397 73.4328C174.288 73.1386 173.686 71.4324 173.248 71.0794C173.194 70.9618 173.139 70.8441 173.084 70.7853C173.686 70.6088 174.288 73.0798 174.397 73.4328Z" fill="#EF6E4B"/>
<path d="M188.676 211.106C188.676 211.106 190.427 213.518 189.716 217.284H188.238C188.238 217.284 187.855 213.871 188.676 211.106Z" fill="#07262D"/>
<path d="M124.011 81.0217C124.011 81.0217 126.527 78.9625 124.558 73.0789C124.558 73.0789 124.449 68.1956 118.923 64.6655C113.452 61.1354 106.504 66.1364 105.082 69.9019C103.66 73.6673 107.161 70.7844 107.161 70.7844C107.161 70.7844 106.614 73.6085 106.833 75.0793C106.833 75.0793 105.191 78.7859 107.434 79.7861C109.677 80.7863 124.011 81.0217 124.011 81.0217Z" fill="#FFD049"/>
<path d="M130.631 205.929L126.965 206.87C126.965 206.87 121.221 173.687 119.908 170.216C118.759 167.215 113.89 155.625 112.304 146.741C112.249 146.8 111.702 146.682 111.045 146.564C110.881 146.505 110.717 146.505 110.498 146.447C110.334 146.388 110.17 146.388 109.951 146.329C109.787 155.154 108.036 166.097 107.489 169.157C106.833 172.863 107.161 206.635 107.161 206.635L103.386 206.517C96.2195 179.159 99.9943 168.922 99.9943 168.922C99.9943 168.922 93.4294 144.328 95.7271 135.621C96.493 132.738 97.4777 130.09 98.3531 127.913C98.4078 127.737 98.5172 127.56 98.5719 127.384C100.323 123.265 101.909 120.736 101.909 120.736L109.623 121.795L109.678 121.677L109.896 121.736V124.325L110.881 124.266H111.1L114.273 124.089H114.711L117.501 123.913C117.501 123.913 119.197 126.796 121.549 131.385C121.659 131.561 121.713 131.738 121.823 131.914C122.643 133.562 123.628 135.444 124.558 137.445C128.388 145.505 127.075 168.51 127.075 168.51C127.075 168.51 132.71 177.629 130.631 205.929Z" fill="#FF8B66"/>
<path d="M109.732 150.33C109.842 148.918 109.896 147.564 109.896 146.27C110.061 146.329 110.279 146.329 110.444 146.388C110.662 146.447 110.827 146.447 110.991 146.505C111.702 146.623 112.194 146.741 112.249 146.682C112.468 147.8 112.687 148.977 113.015 150.212C117.118 149.8 121.768 148.565 126.692 145.917C126.254 142.446 125.598 139.328 124.613 137.268C123.628 135.268 122.698 133.385 121.878 131.738C121.768 131.561 121.713 131.385 121.604 131.208C119.197 126.619 117.556 123.736 117.556 123.736L114.765 123.913H114.328L111.155 124.089H110.936L109.951 124.148V121.559L109.732 121.501L109.678 121.618L102.019 120.559C102.019 120.559 100.432 123.089 98.6814 127.208C98.572 127.384 98.5173 127.561 98.4626 127.737C97.5325 129.973 96.6025 132.562 95.8366 135.444C95.1254 138.092 95.2348 142.269 95.7819 146.741C98.2437 148.212 103.222 150.271 109.732 150.33Z" fill="#96A4AF"/>
<path d="M104.48 121.559C104.426 121.618 102.456 126.678 98.3531 127.795C98.4079 127.619 98.5173 127.442 98.572 127.266C102.237 126.03 104.043 121.441 104.043 121.382L104.48 121.559Z" fill="#6097B2"/>
<path d="M121.877 131.737C117.282 130.678 114.929 125.501 114.328 123.912C114.218 123.618 114.164 123.442 114.164 123.442L114.547 123.265C114.547 123.265 114.601 123.5 114.765 123.853C115.422 125.501 117.555 130.031 121.604 131.149C121.659 131.384 121.768 131.561 121.877 131.737Z" fill="#6097B2"/>
<path d="M110.991 146.505C110.826 146.446 110.662 146.446 110.443 146.387C109.787 145.034 108.583 142.21 107.544 137.444C106.122 130.619 109.349 123.324 109.404 123.265L109.787 123.442C109.732 123.5 106.559 130.678 107.982 137.327C108.036 137.621 108.091 137.856 108.146 138.15C108.2 138.327 108.2 138.444 108.255 138.562C109.24 142.975 110.443 145.505 110.991 146.505Z" fill="#6097B2"/>
<path d="M108.037 138.621H107.982V138.21C108.201 138.21 108.474 138.092 108.638 137.857C108.912 137.504 109.514 136.444 109.021 133.856C108.365 130.384 110.772 124.266 110.881 124.03L111.264 124.207C111.264 124.266 108.802 130.443 109.404 133.797C109.897 136.503 109.295 137.68 108.912 138.151C108.693 138.445 108.365 138.621 108.037 138.621Z" fill="#6097B2"/>
<path d="M108.091 89.4347C108.036 89.5524 108.036 89.6701 108.036 89.7878C109.842 89.1994 113.288 88.4934 118.759 89.1406C122.479 89.5524 124.449 90.2584 125.433 90.8468C126.254 82.6099 124.503 73.7258 122.424 70.8429C119.853 67.2539 114.765 68.1364 114.765 68.1364C106.176 67.6658 105.848 78.9033 107.544 82.9629C109.349 87.0813 108.091 89.4347 108.091 89.4347Z" fill="#1E0F00"/>
<path d="M117.501 123.736C117.501 123.736 109.459 126.795 101.909 120.618C101.909 120.618 100.487 89.5528 103.167 87.4347C104.316 86.4934 106.669 87.2582 108.857 88.3761C111.756 89.7881 114.492 91.8474 114.492 91.8474C114.492 91.8474 119.47 91.0825 123.409 91.5532C125.926 91.8474 128.005 92.6122 128.059 94.4361C128.333 99.0252 117.501 123.736 117.501 123.736Z" fill="#FF8B66"/>
<path d="M123.628 91.671C121.932 91.4945 121.604 92.8477 119.963 93.4949C118.267 94.1421 116.243 94.6716 115.477 94.7304C114.711 94.7892 114.328 95.8483 114.328 95.8483C114.328 95.8483 114.054 94.4951 113.617 94.3774C113.234 94.2597 109.623 90.3766 108.912 88.3762C111.811 89.7883 114.547 91.8475 114.547 91.8475C114.547 91.8475 119.525 91.0826 123.464 91.5533C123.573 91.671 123.628 91.671 123.628 91.671Z" fill="#EF6E4B"/>
<path d="M101.636 209.871C101.854 208.165 101.307 206.988 101.69 206.164C102.347 204.929 103.003 206.517 103.003 206.517C103.058 204.576 106.067 204.576 106.34 205.458C106.395 205.694 106.505 205.929 106.614 206.105C106.778 205.635 107.106 205.164 107.544 205.458C109.131 206.517 107.161 209.165 108.583 211.106C110.444 213.578 109.295 217.284 109.295 217.284H100.432C99.3925 212.048 101.417 211.577 101.636 209.871Z" fill="#E6EEF2"/>
<path d="M107.106 209.283C107.106 209.283 105.027 208.106 102.237 209.695L102.784 208.636C102.784 208.636 104.644 207.4 106.887 208.342L107.106 209.283Z" fill="#ADBEC4"/>
<path d="M107.489 211.048C107.489 211.048 104.48 209.93 101.745 211.518L102.292 210.4C102.292 210.4 104.918 209.165 107.161 210.106L107.489 211.048Z" fill="#ADBEC4"/>
<path d="M132.272 209.871C132.053 208.165 132.6 206.988 132.217 206.164C131.561 204.929 130.904 206.517 130.904 206.517C130.85 204.576 127.841 204.576 127.567 205.458C127.512 205.694 127.403 205.929 127.294 206.105C127.129 205.635 126.801 205.164 126.363 205.458C124.777 206.517 126.746 209.165 125.324 211.106C123.464 213.578 124.613 217.284 124.613 217.284H133.475C134.515 212.048 132.491 211.577 132.272 209.871Z" fill="#E6EEF2"/>
<path d="M126.746 209.283C126.746 209.283 128.825 208.106 131.615 209.695L131.068 208.636C131.068 208.636 129.208 207.4 126.965 208.342L126.746 209.283Z" fill="#ADBEC4"/>
<path d="M126.418 211.048C126.418 211.048 129.427 209.93 132.163 211.518L131.615 210.401C131.615 210.401 128.989 209.165 126.746 210.106L126.418 211.048Z" fill="#ADBEC4"/>
<path d="M113.89 81.6102C113.89 81.6102 114.546 89.9059 112.358 91.0826C112.358 91.0826 113.945 94.2009 118.212 92.3182C118.212 92.3182 117.501 88.0232 120.291 82.9634C122.206 79.6098 113.89 81.6102 113.89 81.6102Z" fill="#EF6E4B"/>
<path d="M109.514 79.9037C109.514 79.9037 107.653 78.1975 107.599 80.3744C107.544 82.9043 109.732 83.728 110.061 82.9043C110.444 82.0806 109.514 79.9037 109.514 79.9037Z" fill="#FF8B66"/>
<path d="M116.407 88.3175C120.236 88.0234 122.206 85.1404 121.659 77.08C121.385 72.9027 119.197 70.4905 114.93 70.8435C110.608 71.1965 109.021 73.9029 109.295 78.0802C109.896 86.7878 112.468 88.6705 116.407 88.3175Z" fill="#FF8B66"/>
<path d="M121.604 78.786C121.604 78.786 123.19 76.7856 123.573 78.9625C124.011 81.4336 121.932 82.6691 121.494 81.9043C121.002 81.0806 121.604 78.786 121.604 78.786Z" fill="#FF8B66"/>
<path d="M116.297 72.1967C116.297 72.1967 117.72 71.726 118.321 74.0206C119.361 78.0802 120.072 84.6109 122.534 87.8469C124.284 90.2003 125.379 89.2589 125.379 89.2589C125.379 89.2589 125.871 86.9055 125.105 84.6109C124.339 82.2575 125.324 73.9029 122.534 70.8435C119.744 67.7841 114.875 69.7256 114.875 69.7256C114.875 69.7256 112.522 68.1959 110.225 69.7256C107.927 71.2554 107.27 77.9626 109.623 80.9631C109.623 80.9631 109.513 78.4332 110.553 77.433C111.483 76.4328 112.085 70.9612 116.297 72.1967Z" fill="#1E0F00"/>
<path d="M98.2984 39.0724C97.423 42.1318 99.6114 43.485 97.9701 45.6031C96.9854 46.8974 95.4536 45.8384 95.4536 45.8384C94.7424 44.191 92.9917 42.073 92.1164 41.1316C91.2411 40.1902 91.8428 40.1902 91.8428 40.1902C91.7334 40.1314 91.6787 40.0137 91.5693 39.9549C90.9128 39.4254 90.3657 39.1312 90.9675 38.8959C91.6787 38.6605 93.6482 40.0726 93.6482 40.0726C91.3505 37.3073 90.4204 37.6015 91.0769 37.3073C91.8975 36.8955 94.25 39.0135 94.3047 39.0724C93.1558 37.1308 92.1711 36.5425 92.8276 36.4836C93.4841 36.4248 95.8365 39.4842 96.7118 40.6609C96.9307 40.8963 97.0401 41.0728 97.0401 41.0728C97.6419 38.484 98.2984 39.0724 98.2984 39.0724Z" fill="#FF8B66"/>
<path d="M96.7666 40.6021C96.9854 40.8374 97.0948 41.0139 97.0948 41.0139C97.0948 41.0139 96.3837 41.7788 96.7666 43.132C96.7119 43.132 95.7272 42.0141 96.7666 40.6021Z" fill="#EF6E4B"/>
<path d="M93.8672 41.7202C93.6483 41.4849 92.4448 40.2493 91.8977 40.1317C91.7883 40.0728 91.7336 39.9552 91.6241 39.8963C92.1165 39.4845 93.6483 41.426 93.8672 41.7202Z" fill="#EF6E4B"/>
<path d="M97.9703 45.5446C97.9703 45.5446 97.642 65.725 96.6573 69.7258C96.6573 69.7258 100.049 82.3753 105.192 86.9645C105.192 86.9645 106.012 90.3769 101.581 97.1429C101.581 97.1429 92.9918 80.6103 91.6241 71.1967L95.4537 45.7799L97.9703 45.5446Z" fill="#FF8B66"/>
<path d="M109.24 88.5524C109.678 90.1998 109.896 96.0833 115.094 99.0839C120.291 102.084 125.816 97.6718 127.294 92.9062C127.294 92.9062 127.895 91.906 129.974 94.3771C129.974 94.3771 140.752 99.9664 142.119 102.908C143.487 105.85 142.666 116.97 138.345 117.146C134.023 117.323 128.825 112.145 127.458 115.558C126.09 118.97 118.103 131.031 101.526 121.324C101.526 121.324 99.4473 118.499 99.4473 116.028C99.4473 113.557 98.4078 97.0247 98.4078 97.0247C98.4078 97.0247 92.2806 95.1419 93.8124 79.6095C93.8124 79.6095 98.0249 82.1394 97.9155 73.8436C97.9155 73.8436 101.362 72.1374 102.566 79.0799C103.332 83.7279 107.599 87.1404 107.599 87.1404C107.599 87.1404 108.583 86.0225 109.24 88.5524Z" fill="#FFD049"/>
<path d="M144.581 108.674C148.247 107.026 156.289 99.8486 159.188 95.7301L157.438 94.0239C157.438 94.0239 147.973 100.966 144.308 102.202C140.642 103.438 138.728 105.673 139.165 108.439C139.658 111.204 143.815 109.027 144.581 108.674Z" fill="#FF8B66"/>
<path d="M162.143 89.9064C160.337 92.4951 158.039 91.3772 157.438 94.0248C157.055 95.6722 158.696 96.3194 158.696 96.3194C160.337 96.0252 162.963 96.2017 164.221 96.4371C165.425 96.6724 165.097 96.0841 165.097 96.0841C165.206 96.1429 165.316 96.1429 165.425 96.2017C166.246 96.4371 166.793 96.7901 166.574 96.1429C166.355 95.378 164.112 94.5543 164.112 94.5543C167.559 94.9662 167.887 95.9076 167.723 95.2015C167.504 94.2602 164.604 93.4365 164.495 93.3776C166.574 93.26 167.668 93.7307 167.34 93.1423C167.012 92.554 163.291 92.2598 161.924 92.2009C161.595 92.2009 161.431 92.2009 161.431 92.2009C162.963 90.1417 162.143 89.9064 162.143 89.9064Z" fill="#FF8B66"/>
<path d="M161.869 92.1418C161.541 92.1418 161.377 92.1418 161.377 92.1418C161.377 92.1418 161.213 93.2009 159.954 93.6716C160.009 93.6716 161.431 93.8481 161.869 92.1418Z" fill="#EF6E4B"/>
<path d="M162.744 95.319C163.018 95.3778 164.659 95.7308 165.097 96.1427C165.206 96.2015 165.316 96.2015 165.425 96.2603C165.425 95.5543 163.127 95.319 162.744 95.319Z" fill="#EF6E4B"/>
<path d="M109.951 67.3722L107.106 72.5497V74.0205L106.888 75.0796C106.888 75.0796 106.067 78.139 106.614 79.0215C107.161 79.8452 109.021 75.6091 110.772 73.5499C112.522 71.4906 115.148 70.3139 118.595 71.373C122.042 72.432 123.902 75.1384 124.996 78.1978L124.23 72.5497L121.932 68.7254C121.932 68.7254 120.127 68.6077 120.127 68.0194C120.127 67.431 116.243 66.9603 116.243 66.9603L109.951 67.3722Z" fill="#FFD049"/>
<path d="M103.386 92.142C103.386 92.142 98.0248 98.555 95.1253 93.201C92.2258 87.847 87.5209 72.4911 89.5451 61.3712C91.5693 50.3102 94.25 48.1922 94.25 48.1922C94.25 48.1922 97.5324 46.7801 98.4078 49.0747C99.2831 51.3692 100.377 59.665 101.143 68.0784C101.909 76.4918 102.62 79.9043 103.386 82.0812C104.152 84.3169 105.465 85.9054 105.246 85.9054C105.027 85.9054 103.66 92.142 103.66 92.142H103.386Z" fill="#FFD049"/>
<path d="M157.82 97.4366C156.015 97.2013 155.741 95.2009 155.741 95.2009V95.1421C154.921 94.6125 153.991 94.3184 153.225 94.6125C150.872 95.4951 142.064 101.379 137.524 98.731C132.928 96.0834 129.81 104.026 129.81 104.026C129.81 104.026 124.449 113.969 137.141 116.97C149.833 120.029 158.039 100.849 158.367 99.2605C158.422 98.7898 158.203 98.1426 157.82 97.4366Z" fill="#FFD049"/>
<path d="M106.34 92.4945L108.911 88.023C108.911 88.023 110.006 87.0816 111.1 88.023C112.194 88.9644 112.905 90.6117 112.905 90.6117C112.905 90.6117 112.577 93.1417 115.312 93.2593C118.048 93.377 118.212 91.4943 118.212 91.4943C118.212 91.4943 124.066 90.6117 126.254 91.8473C128.442 93.0828 128.333 94.6714 128.333 94.6714L124.667 102.496L112.686 103.32L106.997 99.79L106.34 92.4945Z" fill="#FFD049"/>
<path d="M95.5082 146.035C95.5082 146.035 101.088 148.623 104.644 149.094C108.2 149.565 109.732 149.388 109.896 149.565C110.061 149.741 110.115 151.212 109.896 151.33C109.678 151.447 105.192 151.447 101.417 150.33C97.6418 149.212 95.7818 148.506 95.4535 148.329C95.1253 148.153 95.2347 146.152 95.5082 146.035Z" fill="#E6EEF2"/>
<path d="M112.741 149.564C112.577 149.8 112.96 151.035 113.124 151.212C113.288 151.388 117.172 150.741 120.838 149.564C124.503 148.388 126.527 147.446 126.746 147.152C126.965 146.858 126.801 145.269 126.527 145.387C126.254 145.505 120.728 147.564 119.197 147.976C117.665 148.388 112.741 149.564 112.741 149.564Z" fill="#E6EEF2"/>
</svg>
