<svg width="200" height="200" viewBox="0 0 200 200" fill="none" xmlns="http://www.w3.org/2000/svg">
<path d="M30.9441 176.944C47.235 176.944 60.4413 175.371 60.4413 173.431C60.4413 171.49 47.235 169.917 30.9441 169.917C14.6532 169.917 1.44678 171.49 1.44678 173.431C1.44678 175.371 14.6532 176.944 30.9441 176.944Z" fill="#E6EEF2"/>
<path d="M200 38.7761V156.935C200 160.9 198.425 164.703 195.622 167.507C192.818 170.312 189.015 171.888 185.05 171.889H73.7719C69.8061 171.888 66.0031 170.312 63.1989 167.508C60.3946 164.703 58.8187 160.9 58.8174 156.935V38.7761C58.8644 34.8409 60.4607 31.0828 63.2601 28.3168C66.0595 25.5508 69.8365 23.9997 73.7719 24H185.059C188.993 24.0021 192.767 25.5544 195.564 28.3203C198.36 31.0862 199.954 34.8429 200 38.7761Z" fill="#F2F2F2"/>
<path d="M73.7719 171.889C69.8061 171.888 66.0031 170.312 63.1989 167.508C60.3946 164.703 58.8187 160.9 58.8174 156.935V38.7761C58.8644 34.8409 60.4607 31.0828 63.2601 28.3168C66.0595 25.5508 69.8365 23.9997 73.7719 24H93.1044V171.889H73.7719Z" fill="#5B275A"/>
<path d="M111.609 41.5024H103.878C101.909 41.5024 100.314 43.0979 100.314 45.0661V52.7972C100.314 54.7654 101.909 56.3609 103.878 56.3609H111.609C113.577 56.3609 115.172 54.7654 115.172 52.7972V45.0661C115.172 43.0979 113.577 41.5024 111.609 41.5024Z" fill="#79CFCD"/>
<path d="M172.227 47.0742H118.8V50.0798H172.227V47.0742Z" fill="#E6EEF2"/>
<path d="M87.4868 33.4561H64.9292V36.4616H87.4868V33.4561Z" fill="white"/>
<path d="M172.227 70.4282H100.314V71.6222H172.227V70.4282Z" fill="#E6EEF2"/>
<path d="M172.227 73.2141H100.314V74.4081H172.227V73.2141Z" fill="#E6EEF2"/>
<path d="M172.227 76H100.314V77.194H172.227V76Z" fill="#E6EEF2"/>
<path d="M172.227 78.7861H100.314V79.9801H172.227V78.7861Z" fill="#E6EEF2"/>
<path d="M172.227 81.4392H100.314V82.6332H172.227V81.4392Z" fill="#E6EEF2"/>
<path d="M172.227 84.2253H100.314V85.4193H172.227V84.2253Z" fill="#E6EEF2"/>
<path d="M172.227 87.0112H100.314V88.2052H172.227V87.0112Z" fill="#E6EEF2"/>
<path d="M172.227 89.7971H100.314V90.9911H172.227V89.7971Z" fill="#E6EEF2"/>
<path d="M170.375 150.2H102.167C101.143 150.2 100.314 151.03 100.314 152.053V161.449C100.314 162.473 101.143 163.302 102.167 163.302H170.375C171.398 163.302 172.227 162.473 172.227 161.449V152.053C172.227 151.03 171.398 150.2 170.375 150.2Z" fill="white"/>
<path d="M108.434 155.275V155.707H106.268V155.275H108.434ZM106.35 153.554V157.557H105.82V153.554H106.35ZM108.896 153.554V157.557H108.368V153.554H108.896ZM110.996 157.612C110.789 157.612 110.601 157.577 110.433 157.507C110.266 157.436 110.122 157.336 110.001 157.208C109.882 157.079 109.79 156.927 109.726 156.751C109.662 156.575 109.63 156.383 109.63 156.174V156.059C109.63 155.817 109.666 155.601 109.737 155.413C109.809 155.222 109.906 155.061 110.029 154.929C110.151 154.797 110.291 154.697 110.446 154.629C110.602 154.561 110.763 154.527 110.93 154.527C111.143 154.527 111.326 154.564 111.48 154.637C111.636 154.711 111.763 154.813 111.862 154.945C111.961 155.075 112.034 155.229 112.082 155.407C112.13 155.583 112.154 155.776 112.154 155.984V156.213H109.932V155.798H111.645V155.759C111.638 155.627 111.61 155.499 111.563 155.374C111.517 155.25 111.443 155.147 111.343 155.066C111.242 154.986 111.104 154.945 110.93 154.945C110.815 154.945 110.708 154.97 110.611 155.02C110.514 155.067 110.431 155.139 110.361 155.234C110.292 155.329 110.237 155.446 110.199 155.583C110.161 155.721 110.141 155.879 110.141 156.059V156.174C110.141 156.315 110.161 156.448 110.199 156.573C110.239 156.696 110.297 156.804 110.372 156.897C110.449 156.991 110.542 157.064 110.65 157.117C110.76 157.17 110.884 157.197 111.024 157.197C111.203 157.197 111.355 157.16 111.48 157.087C111.605 157.013 111.714 156.915 111.807 156.793L112.115 157.037C112.051 157.134 111.969 157.227 111.87 157.315C111.771 157.403 111.65 157.474 111.505 157.529C111.362 157.584 111.192 157.612 110.996 157.612ZM113.3 153.334V157.557H112.789V153.334H113.3ZM114.669 153.334V157.557H114.158V153.334H114.669ZM115.351 156.103V156.039C115.351 155.825 115.382 155.626 115.444 155.443C115.506 155.258 115.596 155.097 115.714 154.962C115.831 154.824 115.973 154.718 116.14 154.643C116.306 154.566 116.493 154.527 116.7 154.527C116.909 154.527 117.097 154.566 117.264 154.643C117.433 154.718 117.576 154.824 117.693 154.962C117.812 155.097 117.903 155.258 117.965 155.443C118.027 155.626 118.058 155.825 118.058 156.039V156.103C118.058 156.317 118.027 156.516 117.965 156.699C117.903 156.882 117.812 157.043 117.693 157.18C117.576 157.316 117.434 157.422 117.267 157.499C117.102 157.574 116.915 157.612 116.706 157.612C116.497 157.612 116.309 157.574 116.142 157.499C115.976 157.422 115.833 157.316 115.714 157.18C115.596 157.043 115.506 156.882 115.444 156.699C115.382 156.516 115.351 156.317 115.351 156.103ZM115.859 156.039V156.103C115.859 156.251 115.877 156.391 115.911 156.523C115.946 156.653 115.999 156.769 116.068 156.87C116.14 156.97 116.229 157.05 116.335 157.109C116.441 157.166 116.565 157.194 116.706 157.194C116.845 157.194 116.967 157.166 117.072 157.109C117.178 157.05 117.266 156.97 117.335 156.87C117.405 156.769 117.457 156.653 117.492 156.523C117.529 156.391 117.547 156.251 117.547 156.103V156.039C117.547 155.893 117.529 155.754 117.492 155.624C117.457 155.492 117.404 155.376 117.333 155.275C117.263 155.173 117.175 155.092 117.069 155.033C116.964 154.975 116.842 154.945 116.7 154.945C116.561 154.945 116.438 154.975 116.332 155.033C116.228 155.092 116.14 155.173 116.068 155.275C115.999 155.376 115.946 155.492 115.911 155.624C115.877 155.754 115.859 155.893 115.859 156.039ZM119.301 153.554L119.265 156.427H118.806L118.768 153.554H119.301ZM118.751 157.301C118.751 157.219 118.776 157.149 118.825 157.092C118.877 157.035 118.952 157.007 119.051 157.007C119.148 157.007 119.222 157.035 119.274 157.092C119.327 157.149 119.353 157.219 119.353 157.301C119.353 157.38 119.327 157.448 119.274 157.505C119.222 157.561 119.148 157.59 119.051 157.59C118.952 157.59 118.877 157.561 118.825 157.505C118.776 157.448 118.751 157.38 118.751 157.301Z" fill="#919191"/>
<path d="M83.3284 47.0742H64.9292V48.5793H83.3284V47.0742Z" fill="white"/>
<path d="M76.7455 51.7175H64.9292V52.4678H76.7455V51.7175Z" fill="white"/>
<path d="M76.7455 54.9014H64.9292V55.6516H76.7455V54.9014Z" fill="white"/>
<path d="M76.7455 58.0906H64.9292V58.8408H76.7455V58.0906Z" fill="white"/>
<path d="M88.3697 48.9315C88.9558 48.9315 89.431 48.4563 89.431 47.8702C89.431 47.284 88.9558 46.8088 88.3697 46.8088C87.7835 46.8088 87.3083 47.284 87.3083 47.8702C87.3083 48.4563 87.7835 48.9315 88.3697 48.9315Z" fill="white"/>
<path d="M83.3284 70.2493H64.9292V71.7543H83.3284V70.2493Z" fill="white"/>
<path d="M76.7455 74.8926H64.9292V75.6428H76.7455V74.8926Z" fill="white"/>
<path d="M76.7455 78.0764H64.9292V78.8267H76.7455V78.0764Z" fill="white"/>
<path d="M76.7455 81.2656H64.9292V82.0158H76.7455V81.2656Z" fill="white"/>
<path d="M88.3697 72.1068C88.9558 72.1068 89.431 71.6316 89.431 71.0454C89.431 70.4593 88.9558 69.9841 88.3697 69.9841C87.7835 69.9841 87.3083 70.4593 87.3083 71.0454C87.3083 71.6316 87.7835 72.1068 88.3697 72.1068Z" fill="white"/>
<path d="M83.3284 94.9294H64.9292V96.4345H83.3284V94.9294Z" fill="white"/>
<path d="M76.7455 99.5732H64.9292V100.323H76.7455V99.5732Z" fill="white"/>
<path d="M76.7455 102.757H64.9292V103.508H76.7455V102.757Z" fill="white"/>
<path d="M76.7455 105.941H64.9292V106.691H76.7455V105.941Z" fill="white"/>
<path d="M88.3697 96.7867C88.9558 96.7867 89.431 96.3115 89.431 95.7254C89.431 95.1392 88.9558 94.6641 88.3697 94.6641C87.7835 94.6641 87.3083 95.1392 87.3083 95.7254C87.3083 96.3115 87.7835 96.7867 88.3697 96.7867Z" fill="white"/>
<path d="M49.1376 109.404H14.3611C8.11814 109.404 3.05719 114.465 3.05719 120.708V162.017C3.05719 168.26 8.11814 173.321 14.3611 173.321H49.1376C55.3806 173.321 60.4415 168.26 60.4415 162.017V120.708C60.4415 114.465 55.3806 109.404 49.1376 109.404Z" fill="#431540"/>
<path d="M22.0468 132.698C23.5564 132.698 25.066 132.698 26.5802 132.698C28.5839 132.698 30.1759 133.737 30.6288 135.397C31.1549 137.314 30.4321 138.961 28.6205 140.013C28.0797 140.306 27.469 140.445 26.8547 140.416C23.6891 140.416 20.5234 140.416 17.3578 140.416C16.4852 140.431 15.6343 140.143 14.9497 139.602C14.2651 139.061 13.7889 138.299 13.602 137.447C13.4065 136.617 13.4902 135.746 13.8401 134.968C14.1899 134.191 14.7864 133.551 15.537 133.147C16.0768 132.856 16.6859 132.718 17.2983 132.749H22.0468V132.698Z" fill="#79CFCD"/>
<path d="M30.8571 150.649C30.8571 152.648 30.9029 154.199 30.8571 155.741C30.7839 157.726 29.5259 159.268 27.8287 159.565C26.9428 159.765 26.0147 159.65 25.2052 159.238C24.3957 158.826 23.7556 158.144 23.3959 157.31C23.2054 156.878 23.1162 156.409 23.1351 155.937C23.1351 152.671 23.1351 149.4 23.1351 146.129C23.1153 145.187 23.4544 144.272 24.0839 143.571C24.7133 142.869 25.5859 142.433 26.5249 142.351C28.6887 142.168 30.3082 143.366 30.7062 145.503C31.0538 147.365 30.7702 149.245 30.8571 150.649Z" fill="#D51B52"/>
<path d="M40.4045 131.769C40.4045 133.389 40.4274 135.008 40.4045 136.623C40.3935 137.567 40.0322 138.474 39.3907 139.167C38.7491 139.86 37.8731 140.29 36.9324 140.374C35.956 140.488 34.9744 140.21 34.2027 139.601C33.431 138.992 32.9321 138.102 32.8152 137.126C32.7213 136.271 32.6891 135.41 32.7191 134.551C32.7191 132.067 32.6962 129.587 32.7191 127.108C32.742 124.628 34.366 123.087 36.7128 123.1C38.84 123.1 40.4137 124.821 40.4228 127.135C40.4228 128.681 40.4228 130.228 40.4228 131.769H40.4045Z" fill="#2DA974"/>
<path d="M41.3378 142.328C42.9206 142.328 44.4989 142.328 46.0817 142.328C46.5833 142.311 47.0831 142.395 47.5512 142.576C48.0192 142.757 48.4456 143.032 48.8048 143.382C49.1639 143.733 49.4483 144.152 49.6407 144.616C49.8331 145.079 49.9296 145.577 49.9244 146.079C49.9473 148.417 48.5108 149.949 46.1549 149.986C42.9938 150.027 39.8327 150.009 36.6717 149.986C36.1518 150.009 35.6327 149.926 35.1458 149.743C34.6588 149.559 34.2143 149.279 33.839 148.918C33.4637 148.558 33.1655 148.125 32.9626 147.646C32.7596 147.167 32.6561 146.651 32.6582 146.131C32.6604 145.611 32.7682 145.096 32.9752 144.619C33.1822 144.141 33.4839 143.711 33.8622 143.353C34.2405 142.996 34.6874 142.719 35.1758 142.54C35.6642 142.36 36.1841 142.282 36.7037 142.31C38.2453 142.342 39.7916 142.31 41.3378 142.31V142.328Z" fill="#E5A42C"/>
<path d="M32.7557 154.304C32.7282 151.92 32.7282 151.916 35.107 151.925C35.7527 151.908 36.3987 151.928 37.0421 151.984C39.1236 152.241 40.5005 153.979 40.3953 156.157C40.319 157.095 39.8949 157.972 39.206 158.614C38.5172 159.256 37.6133 159.618 36.6716 159.629C35.6903 159.682 34.7277 159.345 33.9953 158.689C33.2628 158.034 32.8203 157.115 32.7648 156.134C32.7145 155.525 32.7557 154.912 32.7557 154.304Z" fill="#E5A42C"/>
<path d="M28.2176 130.772C27.1883 130.74 26.0356 130.882 24.9834 130.219C24.2199 129.763 23.6376 129.058 23.3354 128.222C23.0332 127.386 23.0297 126.471 23.3257 125.633C23.6216 124.795 24.1986 124.085 24.9586 123.624C25.7187 123.163 26.6148 122.98 27.4949 123.105C28.3199 123.212 29.086 123.59 29.673 124.179C30.2601 124.769 30.6347 125.537 30.7383 126.362C30.8526 127.611 30.7795 128.874 30.8023 130.127C30.8023 130.584 30.601 130.781 30.1527 130.777C29.5443 130.767 28.9359 130.772 28.2176 130.772Z" fill="#79CFCD"/>
<path d="M18.5698 142.341C21.1865 142.341 21.1728 142.341 21.1911 144.958C21.1911 146.445 21.2277 147.886 19.9696 149.034C18.5012 150.374 16.3419 150.406 14.6813 148.979C13.9951 148.36 13.5645 147.507 13.474 146.587C13.3834 145.668 13.6394 144.747 14.1919 144.006C15.2943 142.552 15.8433 142.341 18.5698 142.341Z" fill="#D51B52"/>
<path d="M44.8603 140.384C42.3534 140.384 42.3672 140.384 42.3397 137.909C42.3397 136.491 42.294 135.1 43.3507 133.947C43.916 133.343 44.6608 132.938 45.4748 132.791C46.2887 132.643 47.1284 132.763 47.8693 133.13C48.6103 133.498 49.213 134.094 49.5881 134.832C49.9633 135.569 50.0908 136.407 49.9519 137.223C49.5539 139.052 48.1907 140.297 46.4615 140.379C45.94 140.407 45.4002 140.384 44.8603 140.384Z" fill="#2DA974"/>
<path d="M45.9491 53.3965C49.1056 54.1879 54.9246 57.0196 56.1414 61.855C57.9713 69.1195 54.3116 79.783 60.1077 90.2177C61.9375 93.5435 28.0852 97.9946 28.0852 97.9946L21.5892 61.306C21.5892 61.306 29.732 53.3416 31.3972 52.82C34.8556 51.6901 39.6407 51.8091 45.9491 53.3965Z" fill="#FFD049"/>
<path d="M21.5157 61.3291C20.34 64.2614 17.3711 81.7091 20.6831 85.8217C21.0628 86.2792 18.9631 87.0386 19.3427 89.207C19.4068 89.5684 20.0381 91.3022 20.0381 91.3022L22.7463 92.0021L30.9212 87.3542L29.3658 85.4466H28.6293C28.434 85.2627 28.2859 85.0345 28.1976 84.7813C28.1092 84.5281 28.0831 84.2573 28.1215 83.9919C28.3182 83.1913 26.2459 81.8921 23.1214 68.3512C22.1882 64.385 21.7765 60.6795 21.5157 61.3291Z" fill="#FFD049"/>
<path d="M24.6814 84.9941L27.0968 84.4634L28.0758 84.3079C28.1072 84.7469 28.2994 85.159 28.6156 85.4652L26.74 85.5247L24.5442 85.9822L21.8909 87.4918L24.6814 84.9941Z" fill="#E6EEF2"/>
<path d="M28.1398 87.2488C26.9235 87.2715 25.7325 87.6004 24.6768 88.2049C23.4645 88.9505 22.3483 90.5745 23.46 91.4529C24.3505 92.1032 25.2983 92.6713 26.2917 93.1501C26.2917 93.1501 30.5507 93.2644 28.1398 87.2488Z" fill="#E6EEF2"/>
<path d="M23.4692 91.5171L24.6083 91.2701C24.6083 91.2701 28.5288 90.9133 29.0869 91.2198C29.645 91.5263 31.4428 92.7431 31.4428 92.7431L31.8134 93.0816C31.8134 93.0816 30.9396 93.626 29.7594 92.8026C28.5791 91.9791 28.4785 92.6105 28.4785 92.6105L28.6752 93.658V94.9893L28.8582 95.5519C28.8582 95.5519 29.0229 95.8585 28.8948 95.9682C28.7976 96.0616 28.6768 96.1266 28.5454 96.1565C28.4141 96.1863 28.277 96.1797 28.1491 96.1375L26.9551 94.056L26.6303 96.3434C26.5722 96.4411 26.4948 96.526 26.4027 96.5929C26.3107 96.6598 26.206 96.7071 26.0951 96.7322C25.7428 96.8054 25.7428 96.7322 25.7428 96.7322L25.4729 96.1558C25.4409 96.3102 25.3569 96.4491 25.2351 96.5492C25.0275 96.6931 24.7781 96.7639 24.526 96.7505L24.6358 94.3671L24.1463 95.5794C24.0218 95.7695 23.831 95.9065 23.6111 95.9637C23.2176 96.0552 23.1078 96.0872 23.1078 96.0872L23.4692 91.5171Z" fill="#E4EEF3"/>
<path d="M43.7762 82.1847C43.7762 82.1847 40.9308 89.3943 34.0917 91.3339C32.9069 91.6679 32.1795 92.9442 32.7514 93.3559C33.4833 93.882 34.4851 93.9964 36.2006 93.9918C39.778 93.9918 44.6454 92.871 48.0124 89.6139C52.9941 84.7968 54.5632 82.6055 54.06 80.181C53.5568 77.7564 43.7762 82.1847 43.7762 82.1847Z" fill="#FCD0B1"/>
<path d="M55.1713 59.4306C56.6215 61.8094 57.4587 65.6292 57.4587 71.0959C57.4587 75.3275 53.7989 82.2581 53.2363 84.3898C53.1448 84.7467 52.9206 86.27 52.9206 86.27L48.8721 90.2408L40.7521 84.7512L43.2224 80.9634L43.9589 81.0366C43.9589 81.0366 44.4164 78.9506 44.2974 78.1363C44.1785 77.322 46.5481 66.4069 47.7238 59.4077C48.3871 55.3683 53.7349 57.0701 55.1713 59.4306Z" fill="#FFD049"/>
<path d="M47.9023 80.8905L45.5372 80.1585L44.5766 79.9207C44.5092 80.3547 44.2845 80.7487 43.9453 81.0277L45.8071 81.2427L47.9526 81.9015L50.4733 83.6307L47.9023 80.8905Z" fill="#FFD049"/>
<path d="M34.6129 91.2973L30.4957 90.1628C30.4957 90.1628 29.3246 91.7365 29.5488 92.1254C29.7729 92.5142 29.5488 94.8427 29.5488 94.8427L31.5571 96.5445L33.1856 96.0047C33.1856 96.0047 33.3 95.2956 32.7282 95.2224C32.1563 95.1492 33.1033 94.7649 33.4006 94.5819C33.698 94.399 36.0722 93.1775 34.6129 91.2973Z" fill="#FCD0B1"/>
<path d="M41.3332 54.1424C41.4505 54.484 41.4283 54.8581 41.2716 55.1835C41.1149 55.509 40.8362 55.7595 40.496 55.8808L35.9534 57.4728C35.6118 57.59 35.2377 57.5679 34.9123 57.4112C34.5868 57.2545 34.3363 56.9758 34.215 56.6356L31.3559 48.4836C31.2386 48.142 31.2607 47.7679 31.4174 47.4425C31.5741 47.117 31.8528 46.8665 32.193 46.7452L36.7356 45.1532C37.0773 45.0359 37.4513 45.0581 37.7768 45.2148C38.1022 45.3715 38.3527 45.6502 38.474 45.9904L41.3332 54.1424Z" fill="#FCD0B1"/>
<path d="M30.7109 58.2826C30.7676 58.489 30.8643 58.6823 30.9957 58.8513C31.1271 59.0203 31.2905 59.1617 31.4766 59.2675C31.6627 59.3733 31.8679 59.4414 32.0803 59.4678C32.2927 59.4943 32.5083 59.4786 32.7146 59.4216L39.7962 57.4729C40.0031 57.4163 40.1968 57.3193 40.3662 57.1876C40.5356 57.0559 40.6773 56.8921 40.7831 56.7055C40.889 56.5188 40.9569 56.3131 40.983 56.1002C41.0091 55.8873 40.9929 55.6712 40.9353 55.4646L38.0578 44.9795C37.9415 44.5631 37.6647 44.2098 37.2882 43.9971C36.9117 43.7844 36.4663 43.7297 36.0495 43.845L28.968 45.7938C28.7616 45.8504 28.5683 45.9472 28.3993 46.0786C28.2303 46.21 28.0888 46.3734 27.983 46.5595C27.8773 46.7456 27.8092 46.9507 27.7827 47.1631C27.7563 47.3756 27.772 47.5911 27.8289 47.7975L30.7109 58.2826Z" fill="#FCD0B1"/>
<path d="M28.4054 49.9612C28.4054 49.9612 27.1748 49.2109 26.8272 48.6345C26.7142 48.252 26.6969 47.8476 26.7767 47.4568C26.8564 47.0659 27.0308 46.7007 27.2846 46.393C27.9479 45.7159 28.8354 46.393 28.8354 46.393C28.8354 46.393 27.7741 47.4405 27.7787 47.7196C27.7832 47.9986 28.4054 49.9612 28.4054 49.9612Z" fill="#312D1B"/>
<path d="M40.0709 49.4993C40.0709 49.4993 40.0297 45.1717 39.5082 44.0509C38.9867 42.9301 38.6299 42.1432 37.1477 42.4086C34.9382 42.8066 35.0342 43.2732 33.8082 42.9072C32.5822 42.5412 30.2583 41.4799 29.5629 41.5028C28.4101 41.5348 26.8182 42.3674 27.3076 44.4169C27.4239 44.7886 27.445 45.1836 27.3691 45.5656C27.2931 45.9476 27.1226 46.3045 26.873 46.6035C27.0057 46.7636 27.4495 46.8277 28.2454 46.9787C30.4779 47.4361 31.7176 47.2943 33.1129 46.4846C34.5081 45.6749 37.0882 44.0509 37.7195 45.0756C38.3508 46.1003 39.1651 49.545 39.3664 49.7692C39.5677 49.9933 39.8605 49.7692 40.0709 49.4993Z" fill="#312D1B"/>
<path d="M38.7074 53.2773C38.7259 53.3464 38.7579 53.411 38.8016 53.4676C38.8453 53.5241 38.8998 53.5714 38.9619 53.6068C39.0241 53.6421 39.0926 53.6647 39.1636 53.6733C39.2345 53.682 39.3065 53.6764 39.3753 53.657L40.9032 53.2362C40.9722 53.2176 41.0369 53.1856 41.0934 53.1419C41.15 53.0982 41.1973 53.0437 41.2326 52.9816C41.2679 52.9194 41.2906 52.8509 41.2992 52.78C41.3078 52.709 41.3023 52.6371 41.2829 52.5683L40.5143 49.7732C40.4759 49.6344 40.384 49.5166 40.2588 49.4454C40.1336 49.3742 39.9854 49.3556 39.8464 49.3935L38.3139 49.8143C38.1752 49.8528 38.0573 49.9447 37.9862 50.0699C37.915 50.1951 37.8963 50.3433 37.9342 50.4822L38.7074 53.2773Z" fill="#FCD0B1"/>
<path d="M29.5808 55.7706C29.6193 55.9105 29.7117 56.0295 29.8377 56.1015C29.9637 56.1736 30.1132 56.1927 30.2533 56.1549L31.7812 55.734C31.8504 55.715 31.9152 55.6824 31.9718 55.6383C32.0283 55.5941 32.0756 55.5392 32.1109 55.4767C32.1462 55.4142 32.1688 55.3454 32.1774 55.2741C32.1859 55.2029 32.1803 55.1306 32.1609 55.0615L31.3878 52.2664C31.3455 52.1351 31.2549 52.0247 31.1343 51.9576C31.0137 51.8905 30.8721 51.8717 30.7382 51.905L29.2103 52.3259C29.1412 52.3444 29.0766 52.3764 29.02 52.4201C28.9635 52.4638 28.9162 52.5183 28.8808 52.5805C28.8455 52.6426 28.8229 52.7111 28.8143 52.7821C28.8056 52.853 28.8112 52.925 28.8306 52.9938L29.5808 55.7706Z" fill="#FCD0B1"/>
<path d="M39.645 50.606L41.1592 56.0955C41.5023 57.3398 41.7585 60.2127 34.7272 62.1432C30.5643 63.2914 29.8735 60.1898 29.5991 59.188C29.3886 58.4194 29.6219 55.8942 29.9422 55.3316L30.3996 57.0379C30.551 56.4578 30.8508 55.9271 31.2695 55.4979C31.6882 55.0688 32.2114 54.7561 32.7876 54.5905C35.9898 53.7121 37.2204 55.3773 38.6203 54.961C39.6999 54.6499 40.0292 52.66 39.645 50.606Z" fill="#312D1B"/>
<path d="M34.8554 56.9375L32.6733 57.5413C32.5344 57.5792 32.3861 57.5605 32.2609 57.4894C32.1358 57.4182 32.0439 57.3004 32.0054 57.1616L31.9185 56.8551L35.1527 55.9402L35.2351 56.2467C35.258 56.3169 35.2663 56.3911 35.2595 56.4647C35.2526 56.5383 35.2306 56.6096 35.195 56.6744C35.1594 56.7392 35.1109 56.7959 35.0525 56.8412C34.9941 56.8864 34.927 56.9192 34.8554 56.9375Z" fill="#FCD0B1"/>
<path d="M0.316904 98.8277C1.32333 101.609 18.986 111.861 24.9102 111.257L42.7513 112.103C57.9254 110.273 65.103 86.6911 65.103 86.6911C64.4945 80.7761 49.5492 89.349 44.2243 92.0069C35.7841 96.2156 30.4501 96.4306 30.4501 96.4306C24.805 97.007 18.2632 92.6565 11.1359 92.5055C3.31329 92.3363 -1.28422 94.4497 0.316904 98.8277Z" fill="#312D1B"/>
<path d="M39.1284 95.9961V95.2275L8.41426 94.6694V95.4105C8.41172 95.4195 8.41172 95.429 8.41426 95.438L8.49202 95.5752C8.87629 96.2248 9.58078 96.3529 10.3905 96.3712L37.143 96.8561C37.9573 96.8561 38.6664 96.7692 39.0689 96.1333L39.1284 95.9961Z" fill="#E6EEF2"/>
<path d="M31.7264 95.9821L31.7996 96.0965C31.9182 96.2602 32.0753 96.3922 32.257 96.4808L36.9277 96.5677C37.7054 96.5677 38.387 96.5037 38.7805 95.9867L38.8537 95.8769V95.5156L31.7401 95.3875L31.7264 95.9821Z" fill="#F2F2F2"/>
<path d="M12.5715 95.3154L12.5611 95.8369L27.909 96.1439L27.9194 95.6224L12.5715 95.3154Z" fill="#E6EEF2"/>
<path d="M31.5708 95.0671L27.8654 79.9068C27.8092 79.7037 27.6907 79.5234 27.5265 79.3912C27.3624 79.2591 27.1609 79.1818 26.9505 79.1703L5.40389 78.7814C5.31551 78.775 5.22692 78.7907 5.14608 78.827C5.06524 78.8632 4.99467 78.919 4.94071 78.9893C4.88674 79.0596 4.85108 79.1422 4.83691 79.2297C4.82274 79.3172 4.8305 79.4068 4.85951 79.4905L8.56955 94.6463L31.5708 95.0671Z" fill="#F2F2F2"/>
<path d="M19.5305 86.9426C19.5869 87.1042 19.6024 87.2772 19.5755 87.4462C19.5485 87.6152 19.4801 87.7749 19.3762 87.9109C19.2724 88.047 19.1364 88.1551 18.9805 88.2256C18.8246 88.2962 18.6536 88.3269 18.4829 88.315C18.0811 88.2882 17.6977 88.1368 17.3861 87.8817C17.0745 87.6267 16.8502 87.2808 16.7445 86.8923C16.6891 86.7304 16.6745 86.5573 16.7022 86.3884C16.7298 86.2195 16.7987 86.06 16.9029 85.9242C17.007 85.7884 17.1431 85.6804 17.299 85.6099C17.455 85.5393 17.6259 85.5084 17.7967 85.5199C18.1978 85.547 18.5805 85.6986 18.8914 85.9537C19.2022 86.2087 19.4256 86.5545 19.5305 86.9426Z" fill="#E6EEF2"/>
<path d="M45.4777 116.028C43.3505 116.394 41.7311 113.929 41.7311 113.929L36.2415 109.61L37.3989 106.687L48.0944 111.49C48.0944 111.49 47.6003 115.667 45.4777 116.028Z" fill="#FCD0B1"/>
<path d="M41.7173 113.759C41.7937 114.232 41.9305 114.693 42.1245 115.132C42.5316 116.257 43.0394 116.646 43.5655 116.801C45.6149 117.405 47.0925 117.103 52.0194 118.055C56.9463 119.006 58.4239 118.288 59.8741 116.015C61.3243 113.741 59.8192 111.961 57.4129 111.778C53.9316 111.513 51.9966 111.911 50.185 111.637C48.2865 111.348 48.163 110.923 47.0514 110.241C46.0129 109.601 45.0523 113.412 46.0404 114.294C46.9096 115.086 42.463 115.205 41.7173 113.759Z" fill="#312D1B"/>
<path d="M42.7788 115.95C44.8282 116.55 46.3058 116.248 51.2373 117.195C56.1687 118.142 57.6418 117.428 59.0874 115.159C59.7553 114.107 59.7873 113.169 59.3984 112.442C60.4826 113.187 60.8532 114.491 59.8788 116.024C58.4332 118.311 56.9556 119.011 52.0241 118.064C47.0926 117.117 45.6196 117.414 43.5702 116.81C43.3189 116.731 43.0869 116.6 42.8891 116.426C42.6914 116.252 42.5323 116.039 42.4219 115.799C42.5357 115.861 42.6552 115.912 42.7788 115.95Z" fill="#CCE9FF"/>
<path d="M41.7176 113.828C41.7156 113.805 41.7156 113.782 41.7176 113.759C41.7327 113.786 41.7495 113.812 41.7679 113.837L41.7176 113.828Z" fill="white"/>
<path d="M52.3808 115.534C52.5409 115.593 52.6781 115.296 52.7285 114.875C52.8256 114.011 53.0174 113.159 53.3003 112.336C53.4421 111.92 53.4375 111.554 53.2637 111.508C53.0899 111.463 52.8062 111.76 52.6781 112.162C52.4086 112.978 52.2276 113.82 52.1383 114.674C52.0972 115.09 52.239 115.493 52.3808 115.534Z" fill="white"/>
<path d="M50.8666 115.26C51.0313 115.292 51.1868 114.999 51.2326 114.61C51.3285 113.794 51.5173 112.991 51.7953 112.218C51.9325 111.829 51.9234 111.49 51.7404 111.467C51.5574 111.444 51.2829 111.737 51.1411 112.126C50.8733 112.891 50.6953 113.685 50.6104 114.491C50.5555 114.88 50.6882 115.219 50.8666 115.26Z" fill="white"/>
<path d="M49.252 115.186C49.4259 115.186 49.5951 114.903 49.6592 114.495C49.7938 113.652 50.0177 112.826 50.327 112.03C50.4826 111.623 50.4826 111.284 50.2904 111.275C50.0983 111.266 49.7964 111.581 49.6454 111.984C49.3462 112.771 49.1345 113.589 49.0141 114.422C48.9547 114.82 49.0782 115.168 49.252 115.186Z" fill="white"/>
<path d="M45.1025 108.974C45.1025 108.974 7.3663 93.4704 5.20707 93.4475C-2.08034 93.3789 -0.4106 100.767 3.28571 104.221C7.64077 108.311 40.7749 115.799 40.7749 115.799L45.1025 108.974Z" fill="#312D1B"/>
<path d="M30.1299 111.673L40.4319 101.911L36.0449 97.5649L24.7958 109.381L30.1299 111.673Z" fill="#FCD0B1"/>
<path d="M27.9937 103.997C27.9937 103.997 54.2109 79.9755 55.9767 79.2573C61.9649 76.8328 65.6704 83.4385 65.46 85.7167C65.1901 88.6765 38.5519 112.735 38.5519 112.735L27.9937 103.997Z" fill="#312D1B"/>
<path d="M12.4626 112.432C11.8496 112.999 11.7444 114.665 11.7444 114.665C11.7444 114.665 20.4957 117.972 23.5653 118.032C24.7912 117.946 26.0027 117.715 27.1746 117.345C27.4125 117.281 27.9432 116.687 28.1673 116.613C28.5882 116.494 28.6843 116.902 29.0411 116.787C29.5974 116.635 30.1393 116.435 30.6605 116.188C32.5132 112.263 31.8865 110.328 31.8865 110.328C31.8865 110.328 27.8654 111.481 28.5562 110.579C30.0292 108.658 25.8114 106.686 24.8736 107.711C21.1315 111.833 14.2376 110.794 12.4626 112.432Z" fill="#312D1B"/>
<path d="M11.9823 113.251C14.6676 114.317 20.3218 116.522 21.4472 116.6C26.0493 116.929 29.2698 115.296 31.4199 114.313C31.204 114.946 30.952 115.566 30.6651 116.17C30.1439 116.417 29.602 116.617 29.0457 116.769C28.6889 116.884 28.5882 116.477 28.1719 116.596C27.9478 116.669 27.4171 117.263 27.1792 117.327C26.0073 117.697 24.7958 117.928 23.5698 118.014C20.5003 117.954 11.749 114.647 11.749 114.647C11.7709 114.174 11.8493 113.706 11.9823 113.251Z" fill="#CCE9FF"/>
<path d="M18.1578 110.703C18.0801 110.854 18.4186 111.033 18.9127 111.161C19.9228 111.368 20.9119 111.666 21.8679 112.053C22.3253 112.25 22.7828 112.295 22.8469 112.131C22.9109 111.966 22.5815 111.646 22.1103 111.454C21.1643 111.078 20.1858 110.79 19.1871 110.594C18.7022 110.461 18.2402 110.552 18.1578 110.703Z" fill="white"/>
<path d="M20.1205 110.003C20.0473 110.154 20.3812 110.374 20.8616 110.516C21.8452 110.802 22.8006 111.177 23.7161 111.637C24.1736 111.87 24.5945 111.938 24.6585 111.765C24.7226 111.591 24.4023 111.239 23.9449 111.014C23.0371 110.569 22.0908 110.206 21.1177 109.93C20.642 109.807 20.2165 109.857 20.1205 110.003Z" fill="white"/>
<path d="M22.0146 109.399C21.9414 109.564 22.2662 109.815 22.7329 109.989C23.685 110.355 24.6034 110.804 25.4776 111.33C25.9351 111.595 26.3194 111.691 26.3926 111.508C26.4658 111.325 26.1456 110.941 25.711 110.685C24.8383 110.167 23.9194 109.732 22.9662 109.385C22.5041 109.216 22.0787 109.239 22.0146 109.399Z" fill="white"/>
</svg>
