<svg width="224" height="239" viewBox="0 0 224 239" fill="none" xmlns="http://www.w3.org/2000/svg">
<path d="M219.383 73.5907C218.754 73.8045 215.44 76.4413 215.44 76.4413L211.531 79.1493L211.365 77.6171C211.365 77.6171 209.775 74.1965 207.82 74.339C207.82 74.339 210.172 77.4389 210.471 79.5056C210.769 81.5722 210.901 82.9975 210.901 82.9975L208.317 85.7411L212.624 91.6916L222.73 83.5676C222.73 83.5676 220.013 73.3769 219.383 73.5907Z" fill="#DBA17B"/>
<path d="M221.404 73.5914L219.648 88.7349L212.624 88.9131L210.935 73.5914H221.404Z" fill="#FFD049"/>
<path d="M222.929 73.8052H209.676V72.3087H210.935V69.957L221.703 71.6673L221.736 72.5225H222.929V73.9834" fill="#312D1B"/>
<path d="M222.034 83.853C224.486 84.1024 221.404 76.8692 221.404 76.8692C221.404 76.8692 214.778 76.3703 214.712 76.7623C214.645 77.1542 214.679 77.7956 215.209 77.9381C215.739 78.0807 219.88 78.6864 219.88 78.6864C219.88 78.6864 215.573 78.9002 215.639 79.399C215.772 80.1473 216.269 80.2186 217.561 80.4324C218.654 80.6105 221.04 80.6818 221.04 80.6818C221.04 80.6818 216.501 80.7887 216.6 81.1094C216.7 81.43 216.401 82.4277 217.959 82.1783C221.504 81.6795 222.034 83.853 222.034 83.853Z" fill="#DBA17B"/>
<path d="M192.215 112.964C192.215 112.964 198.941 164.095 195.826 174.963C192.712 185.83 191.486 195.629 191.486 195.629L175.848 190.712C175.848 190.712 181.016 165.128 181.811 160.211C182.573 155.294 174.589 115.351 174.589 115.351L192.215 112.964Z" fill="#5B5433"/>
<path d="M184.827 116.634L177.438 198.836H162.496C162.496 198.836 167.333 111.824 166.471 111.075C165.61 110.398 184.827 116.634 184.827 116.634Z" fill="#5B5433"/>
<path d="M190.724 66.5364C190.724 66.5364 192.314 94.1153 195.727 93.1176C199.173 92.1556 208.383 84.958 208.383 84.958L213.983 91.5855C213.983 91.5855 196.92 112.002 189.896 103.665C182.905 95.2912 190.724 66.5364 190.724 66.5364Z" fill="#5B5433"/>
<path d="M186.119 212.59L187.146 207.032L176.245 202.328L174.522 210.595L175.119 210.702C177.571 211.913 189.465 217.828 191.32 218.006C193.375 218.22 186.119 212.59 186.119 212.59Z" fill="#5B5433"/>
<path d="M160.21 131.67L161.402 133.523C161.402 133.523 161.966 134.77 163.357 136.659C163.722 137.158 164.152 137.585 164.649 137.906C165.246 138.298 166.074 138.797 166.604 138.939C167.267 139.082 167.399 140.008 166.836 140.293C166.273 140.543 164.484 140.186 162.761 138.761C161.038 137.371 161.833 140.899 162.131 142.217C162.396 143.5 163.059 147.562 162.761 147.99C162.33 148.595 161.634 148.168 161.402 146.885C161.17 145.567 160.176 141.719 159.547 141.932C158.917 142.111 160.375 148.702 160.375 148.702C160.375 148.702 160.905 150.056 160.176 150.306C158.884 150.733 157.791 143.607 157.725 142.93C157.658 142.467 156.963 142.645 157.062 143.144C157.161 143.678 158.652 149.664 157.36 150.128C156.333 150.484 156.432 144.284 155.472 143.215C154.511 142.146 155.869 147.918 154.875 148.204C154.511 148.31 154.213 148.346 153.881 144.89C153.55 141.362 154.08 131.706 154.08 131.706L160.309 131.777" fill="#FFE3CA"/>
<path d="M181.844 57.2716C181.712 56.167 182.242 51.5705 182.242 51.5705C182.242 51.5705 186.152 51.2498 186.516 47.1165C186.881 42.9476 186.914 33.3271 186.914 33.3271L179.923 29.3363L171.905 35.4293L170.083 39.9902L172.468 50.8578V56.3095L181.844 57.2716Z" fill="#DBA17B"/>
<path d="M182.242 51.5707C182.242 51.5707 179.625 51.4994 177.173 49.5397C177.173 49.5397 178.233 52.6396 182.143 52.604L182.242 51.5707Z" fill="#C68C6B"/>
<path d="M170.215 44.551C171.275 47.0809 171.905 50.7866 171.905 50.7866C172.468 51.9268 172.667 48.2923 172.667 48.2923C172.667 48.2923 173.164 44.8004 172.7 43.4464C172.7 43.4464 170.712 44.1234 170.281 40.3108C170.049 38.4223 172.7 37.5316 173.429 39.812L175.086 39.9901C175.086 39.9901 175.218 32.8638 179.028 34.1822C179.028 34.1822 181.778 35.9994 183.435 34.8948C185.091 33.7902 184.959 33.3983 184.959 33.3983C184.959 33.3983 185.754 35.2868 187.875 34.0397C189.995 32.7925 190.26 30.619 189.531 29.5857C189.1 28.98 188.703 28.3029 188.007 28.1604C187.311 28.0179 186.549 28.3386 186.119 28.9087C186.649 28.0892 186.284 26.8777 185.489 26.3076C184.727 25.7731 183.7 25.8087 182.838 26.165C181.977 26.5214 181.248 27.1627 180.552 27.8041C180.055 26.3076 178.564 25.2386 177.107 25.3811C175.616 25.5237 174.323 26.8064 174.058 28.3742C173.263 27.3053 171.739 27.0558 170.58 27.6616C169.42 28.2673 168.691 29.5501 168.459 30.9041C168.227 32.2581 168.492 33.6477 168.989 34.9304C168.095 34.396 166.869 34.7879 166.272 35.6787C165.676 36.5695 165.676 37.8166 166.107 38.8143C166.537 39.812 167.366 40.5603 168.26 41.0591C167.598 41.6292 167.366 42.7694 167.796 43.5889C168.227 44.4085 169.221 44.8361 170.016 44.5154" fill="#312D1B"/>
<path d="M156.83 68.2102C156.83 68.2102 159.513 54.9196 172.468 56.3092C184.329 57.592 184.329 57.592 184.329 57.592C184.329 57.592 192.48 61.2977 191.32 71.7378C190.194 82.1779 189.631 91.7271 189.929 93.5444C190.227 95.3972 193.076 111.823 192.215 112.964C183.667 124.152 161.833 106.301 161.833 106.301L156.83 68.2102Z" fill="#FFD049"/>
<path d="M172.468 56.3095L169.453 133.951L160.474 128.713L161.402 59.8371C161.402 59.8371 163.821 55.3831 172.468 56.3095Z" fill="#312D1B"/>
<path d="M153.749 133.06L156.83 68.1749C157.791 64.1841 159.845 61.1198 162.495 58.5543V133.915L153.749 133.06Z" fill="#312D1B"/>
<path d="M181.844 57.2719C181.844 57.2719 189.929 61.5833 189.564 76.1567C189.167 90.73 194.435 131.92 194.435 131.92L201.194 130.459C201.194 130.459 193.374 91.4071 193.043 84.5658C192.712 77.582 193.275 67.712 188.902 60.9063C185.754 56.0248 181.844 57.2719 181.844 57.2719Z" fill="#312D1B"/>
<path d="M172.468 56.3094C172.468 56.3094 169.818 62.7232 170.083 65.0392C170.348 67.3909 171.276 72.3081 171.276 72.3081C171.276 72.3081 169.321 73.5908 169.486 74.6954C169.619 75.8 171.176 93.2595 171.176 93.2595L172.468 56.3094Z" fill="#5B5433"/>
<path d="M162.496 133.951C163.324 118.273 163.125 87.8433 163.953 72.1298L162.496 133.951Z" fill="#5B5433"/>
<path d="M186.185 206.64C186.052 206.568 188.935 194.846 188.935 194.846L179.36 191.853L177.339 202.827L186.185 206.64Z" fill="#DBA17B"/>
<path d="M175.019 198.872H164.119V208.065H175.019V198.872Z" fill="#DBA17B"/>
<path d="M176.08 213.053L175.086 207.495H163.324L164.55 215.69L165.179 215.726C167.863 215.868 180.95 216.617 182.739 216.046C184.793 215.369 176.08 213.053 176.08 213.053Z" fill="#5B5433"/>
<path d="M83.9722 32.6858C84.9 36.0352 85.8276 39.3845 86.7553 42.7339C86.8879 43.1971 87.0204 43.6604 86.9873 44.1236C86.9541 45.5488 85.7283 46.6534 84.4361 46.9028C83.1439 47.1523 81.8187 46.7959 80.5596 46.404C80.2283 47.8293 78.638 48.435 77.2796 48.7201C71.2495 49.9315 64.855 49.0764 59.2888 46.2971C61.6743 42.5914 63.6291 38.6007 65.0869 34.3605C69.8248 34.5743 74.5627 34.8237 79.3006 35.0375C80.1289 35.0731 80.9904 35.1087 81.7855 34.8237C82.5807 34.503 83.2765 33.7904 83.3427 32.8996" fill="#312D1B"/>
<path d="M28.9731 76.7625L27.5816 75.0165C27.5816 75.0165 26.5876 74.1257 25.1629 72.1304C24.7985 71.6315 24.5334 71.0258 24.3346 70.42C24.1027 69.6718 23.8376 68.6741 23.8708 68.0683C23.9039 67.3201 23.0756 66.9638 22.678 67.4982C22.2804 68.0327 22.2142 70.0637 23.0756 72.2372C23.937 74.4108 20.8558 72.7005 19.7293 72.0591C18.6028 71.4533 15.0245 69.743 14.5607 69.9568C13.898 70.2775 14.0968 71.097 15.2564 71.7028C16.4161 72.3085 19.6961 74.3039 19.3979 74.9096C19.0666 75.5154 13.3679 72.3441 13.3679 72.3441C13.3679 72.3441 12.2414 71.4533 11.8438 72.166C11.1149 73.4487 17.4431 76.3705 18.0395 76.6199C18.4702 76.7981 18.1389 77.5107 17.6751 77.2613C17.2112 77.0475 12.0426 73.9476 11.2806 75.2303C10.7173 76.228 16.4492 77.6889 17.1781 78.9716C17.907 80.2544 12.9372 77.4038 12.4071 78.3659C12.2083 78.7222 12.1089 79.0429 15.2233 80.2187C18.3708 81.4302 27.449 83.2831 27.449 83.2831L28.9069 76.5843" fill="#FF957E"/>
<path d="M54.5841 60.9414C54.5841 60.9414 49.4155 77.0113 47.8252 77.1538C36.9247 78.2228 25.0634 73.1631 25.0634 73.1631L22.0815 82.2135C22.0815 82.2135 52.9607 97.0719 59.5871 82.748C66.6442 67.5689 66.2798 65.1816 66.2798 65.1816L54.5841 60.9414Z" fill="#FCD2B1"/>
<path d="M55.2799 151.803C60.813 179.132 97.192 204.538 97.192 204.538L103.388 196.378C103.388 196.378 74.1321 168.336 72.9062 155.865C71.6472 143.394 81.3549 123.832 81.3549 123.832L71.2827 119.235L55.2799 151.803Z" fill="#5B5433"/>
<path d="M67.5719 52.2832C67.7375 51.143 67.34 46.4396 67.34 46.4396C67.34 46.4396 63.331 45.9764 63.099 41.7006C62.8671 37.4248 63.099 27.5904 63.099 27.5904L70.3881 23.7422L78.4061 30.2628L77.1802 51.6062L67.5719 52.2832Z" fill="#FFE3CA"/>
<path d="M77.8427 33.6121C77.8427 33.6121 71.2825 32.9351 70.1561 26.557L63.0658 33.6121C63.0658 33.6121 60.9122 28.8731 64.8549 24.4904C68.7976 20.1077 71.4813 20.9985 73.0385 20.9985C74.4632 20.9985 81.7523 22.6732 83.9059 31.5455C84.0716 32.1868 84.2041 33.7903 84.3035 34.5029L77.8427 33.6121Z" fill="#312D1B"/>
<path d="M67.3729 46.4748C67.3729 46.4748 70.0566 46.5104 72.6409 44.5507C72.6409 44.5507 71.4482 47.6862 67.4723 47.5081L67.3729 46.4748Z" fill="#FCD2B1"/>
<path d="M59.1232 100.422C59.1232 101.954 59.6202 104.056 59.6202 104.056L87.7825 112.786C87.7825 112.786 89.8035 99.1034 84.6681 91.4782C82.3157 87.9863 82.8458 83.0691 83.8066 78.8646L87.1198 64.505L82.6801 51.0006L64.9545 52.2834C64.9545 52.2834 54.6835 51.1788 51.1052 65.7878L57.6985 76.4416L57.7648 80.468L59.1232 100.422Z" fill="#FFD049"/>
<path d="M86.5898 95.0769C86.888 95.0769 91.9903 107.37 87.385 114.674C86.9542 115.351 85.894 117.026 84.4693 119.413C77.6441 130.673 62.072 157.147 61.5419 161.031C60.9124 165.735 48.3222 215.084 48.3222 215.084L38.9458 213.481L46.5993 157.504L59.1233 100.422L86.5898 95.0769Z" fill="#312D1B"/>
<path d="M70.3219 26.0589C70.3219 26.0589 68.8641 29.0876 69.4936 31.368L63.1322 33.1496C63.1322 33.114 61.6744 24.4555 70.3219 26.0589Z" fill="#312D1B"/>
<path d="M83.9724 33.8618C83.9724 33.8618 84.7013 43.6962 77.6442 45.4421L78.108 33.5768L83.9724 33.8618Z" fill="#312D1B"/>
<path d="M55.0811 79.6844L39.2771 86.8463L13.4009 87.4521L0.810669 64.4697L27.4158 62.5455L38.9457 84.7797L54.9817 78.0809L55.0811 79.6844Z" fill="#FFD049"/>
<path d="M52.2316 62.7944L47.7919 74.446L57.7315 79.7551L58.6592 69.5645L52.2316 62.7944Z" fill="#FFD049"/>
<path d="M71.3822 50.1456L67.7708 51.8203L68.4997 59.6593L73.0719 50.8583L71.3822 50.1456Z" fill="#FFE3CA"/>
<path d="M38.0846 213.481C38.0846 213.481 29.8347 215.833 31.8889 216.51C33.943 217.187 48.223 215.512 48.223 215.512L48.6868 213.766L38.0846 213.481Z" fill="#312D1B"/>
<path d="M48.223 215.512L51.1386 207.068H38.4822L38.0846 213.481L48.223 215.512Z" fill="#312D1B"/>
<path d="M97.2916 205.107C97.2916 205.107 95.2042 214.015 96.7614 212.412C98.2855 210.808 103.918 196.591 103.918 196.591L102.725 195.309L97.2916 205.107Z" fill="#5B5433"/>
<path d="M103.885 196.592L98.4181 189.75L92.2887 201.616L97.2917 205.107L103.885 196.592Z" fill="#5B5433"/>
<path d="M78.8701 38.9929C78.8369 38.2803 78.8369 37.532 79.0688 36.8907C79.3008 36.2137 79.8309 35.6436 80.4935 35.5723C81.2556 35.501 81.9845 36.178 82.117 36.9619C82.2495 37.7815 81.7857 38.601 81.123 39.0286C80.4604 39.4205 79.6321 39.4205 78.9032 39.0998" fill="#FFE3CA"/>
<path d="M74.3639 100.992C74.3639 100.992 73.9994 61.5476 75.2916 58.5545C75.2916 58.5545 76.65 51.1431 81.918 51.0006L79.5656 51.2144C79.5656 51.2144 74.7946 50.8581 73.403 60.9419C72.0446 71.0256 72.1109 101.313 72.1109 101.313L74.3639 100.992Z" fill="#312D1B"/>
<path d="M64.1591 102.382C64.1591 102.382 62.7344 57.0582 63.8609 52.2836H62.4362C62.4362 52.2836 61.1772 56.1674 61.4091 67.0351C61.5748 73.5557 61.4091 102.382 61.4091 102.382H64.1591Z" fill="#312D1B"/>
<path d="M47.3612 82.2852C47.3612 82.2852 40.4697 86.9885 38.9456 86.9529C37.4547 86.9173 33.1144 86.8104 33.5782 87.4518C34.0421 88.0931 38.9456 88.9839 38.9456 88.9839L47.3612 82.2852Z" fill="#FFE3CA"/>
<path d="M47.858 92.1909C47.858 92.1909 80.4932 101.633 84.966 86.383C89.7039 70.2062 89.7702 74.4107 89.7702 74.4107L79.5323 63.7925C79.5323 63.7925 74.0324 82.4635 72.4752 82.8911C63.894 85.2428 54.1531 83.7462 50.7074 83.0692C50.3098 82.7129 49.8791 82.321 49.349 81.7865C48.9183 81.3589 48.5538 80.8244 48.2887 80.2543C47.9574 79.5417 47.5598 78.6153 47.4936 78.0095C47.3942 77.2613 46.5327 77.0475 46.2346 77.6176C45.9364 78.1877 46.1352 80.2187 47.3279 82.2141C47.3279 82.2141 39.5419 87.5945 38.9124 88.8772L47.858 92.1909Z" fill="#FFE3CA"/>
<path d="M82.6802 51.0006C82.6802 51.0006 90.1349 52.5328 90.4331 65.1464C90.7313 77.76 85.9934 87.4162 85.9934 87.4162L73.3369 80.3255L82.6802 51.0006Z" fill="#FFD049"/>
<path d="M147.686 175.498H113.493C111.903 175.498 110.611 174.108 110.611 172.398C110.611 170.688 111.903 169.298 113.493 169.298H147.652C149.243 169.298 150.535 170.688 150.535 172.398C150.568 174.108 149.276 175.498 147.686 175.498Z" fill="#D3D3D3"/>
<path d="M123.508 211.53V214.666H152.929V211.53H123.508Z" fill="#5B5433"/>
<path d="M126.216 214.051C126.481 215.69 125.454 217.222 123.93 217.471C122.406 217.756 120.981 216.652 120.749 215.013C120.484 213.374 121.511 211.841 123.035 211.592C124.559 211.307 125.984 212.411 126.216 214.051Z" fill="#5B5433"/>
<path d="M139.535 173.466H136.619V212.804H139.535V173.466Z" fill="#5B5433"/>
<path d="M155.637 214.051C155.902 215.69 154.875 217.222 153.351 217.471C151.827 217.756 150.402 216.652 150.17 215.013C149.905 213.374 150.932 211.841 152.456 211.592C153.98 211.307 155.405 212.411 155.637 214.051Z" fill="#5B5433"/>
<path d="M156.631 175.498H124.361C122.174 175.498 120.584 173.182 121.213 170.866L136.619 113.712C137.017 112.18 138.309 111.111 139.767 111.111H172.038C174.224 111.111 175.815 113.427 175.185 115.743L159.779 172.897C159.381 174.464 158.089 175.498 156.631 175.498Z" fill="#D3D3D3"/>
<path d="M152.191 175.498H124.062C121.875 175.498 120.285 173.182 120.914 170.866L136.321 113.712C136.718 112.18 138.011 111.111 139.468 111.111H167.598C169.784 111.111 171.375 113.427 170.745 115.743L155.339 172.897C154.941 174.464 153.649 175.498 152.191 175.498Z" fill="#F2F2F2"/>
<path d="M156.631 175.498H122.439C120.848 175.498 119.556 174.108 119.556 172.398C119.556 170.688 120.848 169.298 122.439 169.298H156.598C158.188 169.298 159.48 170.688 159.48 172.398C159.513 174.108 158.221 175.498 156.631 175.498Z" fill="#D3D3D3"/>
<path d="M128.369 126.968L120.782 148.667L122.571 152.907L132.809 150.983L135.725 127.787L128.369 126.968Z" fill="#FCD2B1"/>
<path d="M132.975 116.421C132.975 116.421 126.978 119.806 125.653 130.923L133.571 135.591L132.975 116.421Z" fill="#79CFCD"/>
<path d="M142.649 112.18L133.207 116.456L125.752 152.123L150.667 162.67L163.953 121.979C163.953 121.979 161.8 113.498 149.342 111.325L142.649 112.18Z" fill="#79CFCD"/>
<path d="M167.829 154.048C167.829 153.585 167.564 150.77 167.432 150.307L163.323 122.051C162.528 118.167 158.486 116.207 155.272 118.131C152.887 119.556 151.827 122.585 152.754 125.329L157.625 149.594L167.829 154.048Z" fill="#FFE3CA"/>
<path d="M162.23 148.025L134.433 145.709L133.041 150.982L159.812 160.71C163.92 162.206 168.128 158.715 167.83 154.047C167.631 150.84 165.245 148.274 162.23 148.025Z" fill="#FFE3CA"/>
<path d="M160.54 117.275C160.54 117.275 164.086 118.915 165.61 128.82L153.086 132.953C153.086 132.953 144.902 123.083 153.649 116.492L160.54 117.275Z" fill="#79CFCD"/>
<path d="M125.719 151.304C126.746 154.225 131.881 154.368 134.631 153.263C137.348 152.159 140.164 150.484 139.137 147.527C138.11 144.605 133.571 142.859 130.589 143.571C126.978 144.462 124.692 148.346 125.719 151.304Z" fill="#FFE3CA"/>
<path d="M140.86 155.295L121.014 152.551L121.312 150.128L141.158 152.872C141.788 152.943 142.218 153.549 142.119 154.226C142.02 154.903 141.456 155.366 140.86 155.295Z" fill="#F2F2F2"/>
<path d="M123.631 152.907L97.3244 149.273C95.8003 149.059 94.6075 147.812 94.4087 146.173L91.6588 125.649C91.4268 123.832 92.8515 122.264 94.5413 122.513L118.695 125.863C119.722 126.005 120.517 126.86 120.649 127.929L123.631 152.907Z" fill="#F2F2F2"/>
<path d="M92.1892 207.103L85.364 210.132L81.0568 210.488C79.0689 210.631 77.4123 212.199 77.0147 214.265L76.8159 215.227L100.207 218.363L100.671 208.243L92.1892 207.103Z" fill="#5B5433"/>
<path d="M100.671 208.243L102.957 197.233L94.5083 195.986L92.1891 207.103L100.671 208.243Z" fill="#FFE3CA"/>
<path d="M150.667 162.67C150.667 162.67 150.004 168.763 139.833 169.582H115.381L103.851 204.181L91.7251 202.078L103.851 151.268L131.649 154.581L150.667 162.67Z" fill="#5B5433"/>
<path d="M72.6077 187.221L65.2855 186.045L61.409 183.942C59.6199 182.98 57.4663 183.408 56.1079 184.94L55.4784 185.653L74.0324 201.259L79.2673 192.85L72.6077 187.221Z" fill="#312D1B"/>
<path d="M79.3337 192.885L85.6951 184.191L79.0024 178.454L72.6079 187.22L79.3337 192.885Z" fill="#FFE3CA"/>
<path d="M125.752 152.124L106.9 146.066C106.105 145.817 105.343 145.496 104.548 145.211C102.924 144.534 98.8156 143.608 95.635 148.846C91.5597 155.58 75.2256 180.878 75.2256 180.878L85.1984 188.789L106.966 158.965C108.788 156.257 111.704 154.654 114.818 154.654L131.65 154.618L125.752 152.124Z" fill="#312D1B"/>
<path d="M150.005 101.063C150.336 100.386 156.167 89.1976 150.833 86.3827C150.833 86.3827 150.137 80.4678 144.008 81.1092C137.878 81.7505 139.535 83.6747 135.625 82.7126C131.716 81.7505 128.038 83.9241 128.336 87.4516C128.635 90.9792 131.119 92.4757 135.625 91.6205C140.131 90.7654 143.71 91.4067 143.71 91.4067L147.487 92.5826L150.005 101.063Z" fill="#FFD049"/>
<path d="M150.733 113.177L150.27 98.9603L141.125 102.452L141.854 113.854C142.02 116.491 143.378 118.558 145.83 118.38L146.592 118.344C149.044 118.095 150.899 115.814 150.733 113.177Z" fill="#FFE3CA"/>
<path d="M149.475 100.921C149.475 100.921 151.197 112.786 141.788 113.463L141.357 107.834L149.475 100.921Z" fill="#FCD2B1"/>
<path d="M141.722 110.826H142.053C146.758 110.577 150.369 106.301 150.137 101.241L149.673 90.9079C149.607 89.5896 148.58 88.5919 147.354 88.6631L136.156 89.2332C134.002 89.3401 132.312 91.3355 132.412 93.6516L132.776 102.096C133.041 107.156 137.017 111.04 141.722 110.826Z" fill="#FFE3CA"/>
<path d="M147.984 98.1414C148.05 99.8517 149.408 101.17 150.999 101.063C152.589 100.992 153.815 99.531 153.716 97.8207C153.649 96.1104 152.291 94.792 150.7 94.8989C149.143 94.9702 147.917 96.4311 147.984 98.1414Z" fill="#FFE3CA"/>
<path d="M146.625 89.8743L147.188 101.383C147.255 102.417 146.857 103.486 146.029 104.056C145.532 104.448 145.134 104.946 144.24 104.804C141.688 104.412 142.881 102.381 137.679 102.666C132.941 102.951 133.306 105.766 133.306 105.766C133.306 105.766 134.234 111.146 140.728 111.396C147.221 111.645 150.468 107.227 149.706 101.348L149.077 89.1973L146.625 89.8743Z" fill="#FFD049"/>
<path d="M132.743 91.8341C132.743 91.8341 135.758 92.333 140.164 91.1928C144.538 90.0169 148.017 93.8295 148.017 93.8295C148.017 93.8295 148.944 95.5755 149.176 95.5398C149.408 95.5042 150.733 94.9341 150.733 94.9341L150.667 89.625L147.453 86.917L138.541 86.525L133.273 87.7721L132.743 91.8341Z" fill="#FFD049"/>
</svg>
