<svg width="400" height="400" viewBox="0 0 200 200" fill="none" xmlns="http://www.w3.org/2000/svg">
<g clip-path="url(#clip0_159_19157)">
<path opacity="0.37" d="M19.0321 162.763C19.4596 163.821 19.9321 164.878 20.4496 165.891C28.1444 180.988 43.759 190.505 60.4086 192.215C73.7283 193.565 86.688 189.223 97.8252 182.135C108.94 175.071 117.85 165.126 130.202 159.951C147.616 152.684 167.034 146.946 180.691 131.557C196.215 114.075 202.2 87.5703 194.888 65.2058C187.778 43.3813 164.176 36.3165 145.839 26.7092C112.877 9.40717 67.2259 -2.09005 32.9143 18.227C-8.19223 42.5489 -0.722417 97.7625 12.3048 136.079C15.2747 144.809 15.6347 154.214 19.0321 162.763Z" fill="#CCE9FF"/>
<path d="M40.0018 59.311L39.9343 58.8835H39.5068C31.182 58.8835 28.482 56.2061 28.4595 56.1836L28.0995 55.7786L27.7396 56.1836C27.7171 56.2061 25.0396 58.8835 16.6923 58.8835H16.2648L16.1973 59.311C16.1748 59.446 14.4199 72.8556 27.8746 79.7405L28.0995 79.853L28.3245 79.7405C41.8242 72.8556 40.0018 59.446 40.0018 59.311ZM37.9768 67.6133C36.3119 72.4281 32.9819 76.1631 28.077 78.728C23.1722 76.1631 19.8422 72.4281 18.1773 67.6133C16.9623 64.0809 17.0298 60.9984 17.1198 59.896C24.0496 59.806 27.1321 57.961 28.077 57.196C29.022 57.9385 32.1044 59.806 39.0343 59.896C39.1243 61.0209 39.1918 64.0809 37.9768 67.6133Z" fill="#FFD049"/>
<path d="M53.2086 42.0765L52.7361 40.839C52.3086 40.794 51.9037 40.6815 51.4987 40.5465L50.5312 41.4465L47.7413 39.4441L48.2812 38.2291C48.0113 37.8916 47.7863 37.5316 47.6063 37.1491L46.2788 37.1041L45.7163 33.7067L46.9538 33.2342C46.9988 32.8067 47.1113 32.4017 47.2463 31.9968L46.3463 31.0293L48.3487 28.2168L49.5637 28.7568C49.9012 28.4868 50.2612 28.2618 50.6437 28.0819L50.6887 26.7544L54.0861 26.1919L54.5586 27.4294C54.9861 27.4744 55.3911 27.5869 55.7961 27.7219L56.7635 26.8219L59.5535 28.8243L59.0135 30.0393C59.2835 30.3768 59.5085 30.7368 59.6885 31.1193L61.0159 31.1643L61.5784 34.5617L60.3409 35.0342C60.2735 35.4617 60.1835 35.8667 60.0485 36.2716L60.9484 37.2391L58.946 40.0516L57.731 39.5116C57.3935 39.7816 57.0335 40.0066 56.651 40.1866L56.606 41.514L53.2086 42.0765ZM51.2737 39.4666L51.5437 39.5791C52.0387 39.7816 52.5786 39.8941 53.1186 39.9391L53.4111 39.9616L53.8161 41.019L55.6836 40.704L55.7286 39.5791L55.9986 39.4666C56.4935 39.2416 56.9435 38.9491 57.371 38.6116L57.596 38.4316L58.631 38.9041L59.7335 37.3741L58.946 36.5416L59.0585 36.2716C59.261 35.7767 59.3735 35.2367 59.4185 34.6967L59.441 34.4042L60.4984 33.9992L60.1835 32.1318L59.0585 32.0868L58.946 31.8168C58.721 31.3218 58.4285 30.8718 58.091 30.4443L57.911 30.2193L58.3835 29.1843L56.8535 28.0819L56.0211 28.8468L55.7511 28.7343C55.2561 28.5318 54.7161 28.4193 54.1761 28.3743L53.8836 28.3518L53.4786 27.2944L51.6112 27.6094L51.5662 28.7343L51.2962 28.8468C50.8012 29.0718 50.3512 29.3643 49.9237 29.7018L49.6987 29.8818L48.6637 29.4093L47.5613 30.9393L48.3487 31.7718L48.2362 32.0418C48.0338 32.5367 47.9213 33.0767 47.8763 33.6167L47.8538 33.9092L46.7963 34.3142L47.1113 36.1817L48.2362 36.2267L48.3487 36.4966C48.5737 36.9916 48.8662 37.4416 49.2037 37.8691L49.3837 38.0941L48.9112 39.1291L50.4412 40.2316L51.2737 39.4666ZM53.6136 37.8916C52.8486 37.8916 52.0837 37.6441 51.4537 37.1941C49.7662 36.0017 49.3837 33.6617 50.5762 31.9743C51.7687 30.2868 54.1086 29.9043 55.7961 31.0968C56.606 31.6818 57.146 32.5367 57.326 33.5267C57.4835 34.5167 57.2585 35.5067 56.696 36.3166C56.1111 37.1266 55.2561 37.6666 54.2661 37.8466C54.0186 37.8691 53.8161 37.8916 53.6136 37.8916ZM53.6136 31.3443C52.7361 31.3443 51.8812 31.7493 51.3412 32.5142C50.9137 33.1217 50.7337 33.8642 50.8687 34.6067C51.0037 35.3492 51.3862 35.9792 51.9937 36.4066C52.6011 36.8341 53.3436 37.0141 54.0861 36.8791C54.8286 36.7441 55.4586 36.3616 55.8861 35.7542C56.3136 35.1467 56.4935 34.4042 56.3585 33.6617C56.2235 32.9192 55.8411 32.2892 55.2336 31.8618C54.7386 31.5243 54.1761 31.3443 53.6136 31.3443Z" fill="#FFD049"/>
<path d="M161.071 78.7505L160.014 75.9831C158.889 75.8481 157.764 75.6006 156.706 75.2181L154.546 77.243L148.697 73.0806L149.912 70.3807C149.214 69.5032 148.607 68.5358 148.112 67.5008L145.164 67.4108L143.972 60.3235L146.739 59.266C146.874 58.141 147.122 57.016 147.504 55.9586L145.479 53.7986L149.642 47.9488L152.341 49.1637C153.219 48.4662 154.186 47.8588 155.221 47.3638L155.311 44.4163L162.399 43.2239L163.456 45.9913C164.581 46.1263 165.706 46.3738 166.764 46.7563L168.924 44.7313L174.773 48.8937L173.558 51.5937C174.256 52.4712 174.863 53.4386 175.358 54.4736L178.306 54.5636L179.498 61.6509L176.731 62.7084C176.596 63.8334 176.348 64.9583 175.966 66.0158L177.991 68.1758L173.828 74.0256L171.129 72.8106C170.251 73.5081 169.284 74.1156 168.249 74.6106L168.159 77.558L161.071 78.7505ZM156.391 73.7781L156.751 73.9131C157.944 74.3631 159.204 74.6556 160.486 74.7681L160.891 74.8131L161.859 77.333L166.899 76.4781L166.989 73.7781L167.349 73.6206C168.519 73.1031 169.621 72.4057 170.611 71.5732L170.904 71.3257L173.378 72.4282L176.348 68.2658L174.503 66.2858L174.638 65.9258C175.088 64.7333 175.381 63.4734 175.493 62.1909L175.516 61.7859L178.036 60.8184L177.181 55.7786L174.481 55.6886L174.323 55.3286C173.806 54.1586 173.108 53.0561 172.276 52.0662L172.029 51.7737L173.131 49.2987L168.969 46.3288L166.989 48.1738L166.629 48.0388C165.436 47.5888 164.176 47.2963 162.894 47.1838L162.489 47.1613L161.521 44.6413L156.481 45.4963L156.391 48.1963L156.031 48.3538C154.861 48.8712 153.759 49.5687 152.769 50.4012L152.476 50.6487L150.002 49.5462L147.077 53.7086L148.922 55.6886L148.787 56.0486C148.337 57.241 148.044 58.501 147.932 59.7835L147.909 60.1885L145.389 61.1559L146.244 66.1958L148.944 66.2858L149.102 66.6458C149.619 67.8158 150.317 68.9182 151.149 69.9082L151.397 70.2007L150.294 72.6756L154.456 75.6456L156.391 73.7781ZM161.701 69.1432C160.059 69.1432 158.416 68.6482 156.976 67.6358C153.309 65.0258 152.454 59.9185 155.064 56.2511C157.674 52.5836 162.781 51.7287 166.449 54.3386C170.116 56.9485 170.971 62.0559 168.361 65.7233C166.764 67.9508 164.244 69.1432 161.701 69.1432ZM161.724 54.0911C159.564 54.0911 157.426 55.1036 156.099 56.9935C155.019 58.501 154.614 60.3235 154.906 62.1459C155.221 63.9684 156.211 65.5433 157.719 66.6233C160.824 68.8282 165.144 68.1083 167.349 65.0033C168.406 63.4959 168.834 61.6734 168.541 59.851C168.226 58.0285 167.236 56.4536 165.729 55.3736C164.491 54.4961 163.096 54.0911 161.724 54.0911Z" fill="#FFD049"/>
<path d="M51.5215 129.374C50.4415 126.337 49.2041 122.917 50.5765 119.407C52.4215 114.682 48.5066 112.252 45.0642 110.07C42.0943 108.225 39.3043 106.47 40.2493 103.567C41.2843 100.417 41.2168 97.9873 40.0468 96.3899C39.0568 95.0399 37.3019 94.3199 34.9619 94.3424C33.0945 94.3649 31.4295 92.07 29.6521 89.6625C27.5596 86.8276 25.4222 83.9027 22.7222 84.5551C22.2498 84.6676 21.8673 84.9376 21.6423 85.3651C20.6973 87.1426 22.1823 91.3725 23.7797 95.8724C25.4897 100.732 27.4471 106.222 26.1647 108.562C24.7697 111.127 27.2896 113.467 29.9671 115.964C32.802 118.597 36.0194 121.589 35.1644 125.347C34.3545 128.857 34.1745 130.162 34.6694 130.927C35.0519 131.534 35.8394 131.669 37.0319 131.894C37.8419 132.051 38.8768 132.231 40.1368 132.636C45.5592 134.324 47.1341 137.834 47.1566 137.879L47.2241 138.036L47.3816 138.014C49.9916 137.609 51.5215 136.866 52.2415 135.674C52.2865 135.606 52.309 135.539 52.354 135.471C53.119 133.874 52.3765 131.782 51.5215 129.374Z" fill="#FFD049"/>
<path d="M37.6615 122.669C38.5615 124.064 39.214 125.279 39.1465 126.989C39.1015 128.587 38.854 130.162 38.719 131.736C38.6965 132.074 38.674 132.389 38.6515 132.704C38.2015 132.321 37.774 131.939 37.324 131.556C37.1215 131.534 36.919 131.534 36.694 131.534C37.324 132.051 37.9765 132.614 38.6065 133.176C38.539 134.279 38.5165 135.381 38.5165 136.484C38.5165 137.136 38.494 137.834 38.539 138.486C37.954 138.126 37.3465 137.766 36.784 137.406C35.0291 136.326 33.3866 135.314 32.1266 134.774C31.1591 134.369 30.0792 134.009 29.0442 133.671C26.3443 132.794 23.5768 131.894 22.6543 129.982C22.1819 128.992 22.2269 127.799 22.7893 126.359C24.2068 122.647 22.8793 122.017 20.6519 120.937C19.0319 120.149 16.827 119.092 14.622 116.414C13.6546 115.244 12.7996 114.232 12.0346 113.354C9.76215 110.677 8.50218 109.215 8.65968 108.36C8.70468 108.157 8.81717 107.977 9.04217 107.797C9.15467 107.707 9.28966 107.617 9.46966 107.527C10.3246 107.055 11.1796 107.415 12.1471 107.82C13.4521 108.36 15.0495 109.057 17.277 107.91C19.0319 107.01 20.9894 106.177 22.1594 106.852C22.9693 107.302 23.4418 108.472 23.5993 110.385C23.6443 110.992 23.8468 111.419 24.1843 111.667C24.6793 112.027 25.4443 111.982 26.3218 111.802C26.9292 112.634 27.7167 113.039 28.6617 113.377C29.9892 113.849 30.9791 114.277 31.9466 115.357C34.0166 117.697 36.019 120.082 37.6615 122.669Z" fill="#2A94F4"/>
<path d="M30.4843 126.382C29.1343 125.482 27.9644 123.3 26.8394 121.185C25.3094 118.305 23.712 115.335 21.5295 115.402C18.0196 115.492 14.8922 111.352 14.8472 111.33L14.5547 111.555C14.6897 111.735 17.8396 115.875 21.5295 115.785C23.487 115.74 25.0394 118.597 26.5019 121.387C27.6494 123.525 28.8418 125.752 30.2593 126.719C31.1143 127.282 32.6892 128.429 34.5567 129.892C34.5567 129.734 34.5567 129.577 34.5567 129.419C32.9142 128.047 31.4518 127.012 30.4843 126.382Z" fill="#FEFAF0"/>
<path d="M149.057 154.258C149.057 154.258 151.082 149.218 147.392 142.064C143.679 134.909 140.687 136.011 149.619 130.499C158.551 124.987 149.664 107.662 157.269 105.457C164.874 103.252 171.466 75.1953 177.248 78.7727C183.031 82.3501 175.313 96.0973 179.453 100.237C183.571 104.377 184.133 109.619 175.606 113.872C167.079 118.124 181.658 134.369 170.094 139.319C158.529 144.269 161.859 163.686 149.057 154.258Z" fill="#FFD049"/>
<path d="M152.589 159.591C152.566 159.523 151.329 153.089 155.266 144.764C159.271 136.281 161.184 127.012 160.396 119.947C159.969 116.122 162.421 114.637 164.784 113.197C167.124 111.78 169.531 110.295 169.396 106.537C169.283 103.14 170.723 95.1749 170.768 94.8374L171.286 94.9274C171.263 95.0174 169.801 103.185 169.913 106.515C170.048 110.587 167.506 112.14 165.054 113.624C162.714 115.042 160.531 116.392 160.914 119.879C161.724 127.012 159.789 136.394 155.739 144.966C151.891 153.134 153.084 159.411 153.106 159.478L152.589 159.591Z" fill="#FEFAF0"/>
<path d="M183.3 117.787C186.518 116.257 189.938 116.954 188.16 120.172C186.383 123.389 183.728 123.637 184.223 126.179C184.718 128.722 186.023 131.489 181.838 133.109C177.653 134.707 175.696 134.437 173.153 139.139C170.588 143.841 169.711 147.329 165.323 146.204C160.936 145.056 164.581 139.274 166.853 136.844C166.853 136.844 169.936 134.234 169.891 129.532C169.846 124.829 167.911 121.679 173.986 121.994C180.061 122.264 181.118 118.822 183.3 117.787Z" fill="#5B5433"/>
<path d="M164.626 149.489C164.806 148.881 169.036 134.324 172.501 132.749C176.033 131.129 177.946 126.899 178.778 124.537C179.858 121.454 184.47 120.847 184.65 120.824L184.718 121.342C184.673 121.342 180.241 121.927 179.273 124.694C178.238 127.687 176.258 131.602 172.726 133.222C169.486 134.707 165.188 149.489 165.143 149.646L164.626 149.489Z" fill="#FEFAF0"/>
<path d="M53.186 137.766C46.2562 136.034 46.1662 132.299 46.0762 128.699C46.0087 125.752 45.9412 122.962 42.1838 121.252C37.2114 118.979 37.0989 114.772 36.9864 111.06C36.8964 108.292 36.8289 105.682 34.759 104.265C29.7866 100.867 25.5792 92.6326 25.5342 92.5426L25.9167 92.3401C25.9617 92.4301 30.1016 100.552 35.0064 103.905C37.2564 105.435 37.3464 108.157 37.4139 111.037C37.5264 114.795 37.6389 118.709 42.3638 120.847C46.3462 122.669 46.4362 125.729 46.5037 128.677C46.5937 132.277 46.6837 135.697 53.2985 137.339L53.186 137.766Z" fill="#FEFAF0"/>
<path d="M43.8491 134.437H157.674V52.2688C157.674 51.0988 156.729 50.1313 155.536 50.1313H45.9866C44.8166 50.1313 43.8491 51.0763 43.8491 52.2688V134.437Z" fill="#F7F7F7"/>
<path d="M47.8691 119.118L153.437 119.118V54.2518L47.8691 54.2518L47.8691 119.118Z" fill="#79CFCD" stroke="#FEFAF0" stroke-width="0.5" stroke-miterlimit="10"/>
<path d="M157.674 122.265H100.773H43.8939L31.4292 168.816H101.155H170.116L157.674 122.265Z" fill="#F2F2F2"/>
<path d="M48.1914 130.432H55.1887C55.4812 130.432 55.7062 130.657 55.6387 130.904L54.9637 133.942C54.9187 134.122 54.7387 134.257 54.5137 134.257H47.4039C47.1114 134.257 46.8864 134.032 46.9539 133.762L47.7414 130.724C47.7864 130.567 47.9664 130.432 48.1914 130.432Z" fill="#79CFCD" stroke="#FEFAF0" stroke-width="0.5" stroke-miterlimit="10"/>
<path d="M58.3837 130.432H63.6711L62.9736 134.279H57.5737L58.3837 130.432Z" fill="#79CFCD" stroke="#FEFAF0" stroke-width="0.5" stroke-miterlimit="10"/>
<path d="M66.3034 130.432H71.5907L71.0507 134.279H65.6509L66.3034 130.432Z" fill="#79CFCD" stroke="#FEFAF0" stroke-width="0.5" stroke-miterlimit="10"/>
<path d="M74.2455 130.432H79.5329L79.1279 134.279H73.728L74.2455 130.432Z" fill="#79CFCD" stroke="#FEFAF0" stroke-width="0.5" stroke-miterlimit="10"/>
<path d="M82.1657 130.432H87.453L87.2055 134.279H81.8057L82.1657 130.432Z" fill="#79CFCD" stroke="#FEFAF0" stroke-width="0.5" stroke-miterlimit="10"/>
<path d="M90.0853 130.432H95.3727L95.2827 134.279H89.8828L90.0853 130.432Z" fill="#79CFCD" stroke="#FEFAF0" stroke-width="0.5" stroke-miterlimit="10"/>
<path d="M153.534 130.432H145.591L146.446 134.279H154.524L153.534 130.432Z" fill="#79CFCD" stroke="#FEFAF0" stroke-width="0.5" stroke-miterlimit="10"/>
<path d="M142.959 130.432H137.672L138.369 134.279H143.769L142.959 130.432Z" fill="#79CFCD" stroke="#FEFAF0" stroke-width="0.5" stroke-miterlimit="10"/>
<path d="M135.039 130.432H129.752L130.292 134.279H135.692L135.039 130.432Z" fill="#79CFCD" stroke="#FEFAF0" stroke-width="0.5" stroke-miterlimit="10"/>
<path d="M127.097 130.432H121.81L122.215 134.279H127.614L127.097 130.432Z" fill="#79CFCD" stroke="#FEFAF0" stroke-width="0.5" stroke-miterlimit="10"/>
<path d="M119.177 130.432H113.89L114.137 134.279H119.537L119.177 130.432Z" fill="#79CFCD" stroke="#FEFAF0" stroke-width="0.5" stroke-miterlimit="10"/>
<path d="M111.257 130.432H105.97L106.06 134.279H111.46L111.257 130.432Z" fill="#79CFCD" stroke="#FEFAF0" stroke-width="0.5" stroke-miterlimit="10"/>
<path d="M98.0278 130.432H103.315L103.383 134.279H98.0278V130.432Z" fill="#79CFCD" stroke="#FEFAF0" stroke-width="0.5" stroke-miterlimit="10"/>
<path d="M45.874 137.137H56.8988L56.2688 141.097H45.019L45.874 137.137Z" fill="#79CFCD" stroke="#FEFAF0" stroke-width="0.5" stroke-miterlimit="10"/>
<path d="M155.244 137.137H141.609L142.374 141.097H156.302L155.244 137.137Z" fill="#79CFCD" stroke="#FEFAF0" stroke-width="0.5" stroke-miterlimit="10"/>
<path d="M138.864 137.137H133.419L134.027 141.097H139.607L138.864 137.137Z" fill="#79CFCD" stroke="#FEFAF0" stroke-width="0.5" stroke-miterlimit="10"/>
<path d="M130.674 137.137H125.229L125.679 141.097H131.259L130.674 137.137Z" fill="#79CFCD" stroke="#FEFAF0" stroke-width="0.5" stroke-miterlimit="10"/>
<path d="M122.484 137.137H117.04L117.355 141.097H122.912L122.484 137.137Z" fill="#79CFCD" stroke="#FEFAF0" stroke-width="0.5" stroke-miterlimit="10"/>
<path d="M114.294 137.137H108.85L109.007 141.097H114.564L114.294 137.137Z" fill="#79CFCD" stroke="#FEFAF0" stroke-width="0.5" stroke-miterlimit="10"/>
<path d="M44.2088 144.179H55.5035L54.671 148.116H43.1738L44.2088 144.179Z" fill="#79CFCD" stroke="#FEFAF0" stroke-width="0.5" stroke-miterlimit="10"/>
<path d="M58.3162 144.179H63.9636L63.3111 148.116H57.5513L58.3162 144.179Z" fill="#79CFCD" stroke="#FEFAF0" stroke-width="0.5" stroke-miterlimit="10"/>
<path d="M66.7984 144.179H72.4458H109.12L109.277 148.116H66.1685L66.7984 144.179Z" fill="#79CFCD" stroke="#FEFAF0" stroke-width="0.5" stroke-miterlimit="10"/>
<path d="M111.955 144.179H117.602L117.917 148.116H112.157L111.955 144.179Z" fill="#79CFCD" stroke="#FEFAF0" stroke-width="0.5" stroke-miterlimit="10"/>
<path d="M120.415 144.179H126.062L126.534 148.116H120.775L120.415 144.179Z" fill="#79CFCD" stroke="#FEFAF0" stroke-width="0.5" stroke-miterlimit="10"/>
<path d="M128.897 144.179H134.544L135.152 148.116H129.414L128.897 144.179Z" fill="#79CFCD" stroke="#FEFAF0" stroke-width="0.5" stroke-miterlimit="10"/>
<path d="M137.356 144.179H143.004L143.769 148.116H138.031L137.356 144.179Z" fill="#79CFCD" stroke="#FEFAF0" stroke-width="0.5" stroke-miterlimit="10"/>
<path d="M145.816 144.179H157.111L158.146 148.116H146.649L145.816 144.179Z" fill="#79CFCD" stroke="#FEFAF0" stroke-width="0.5" stroke-miterlimit="10"/>
<path d="M106.128 137.137H100.705V141.097H106.218L106.128 137.137Z" fill="#79CFCD" stroke="#FEFAF0" stroke-width="0.5" stroke-miterlimit="10"/>
<path d="M97.9379 137.137H92.4705L92.313 141.097H97.8929L97.9379 137.137Z" fill="#79CFCD" stroke="#FEFAF0" stroke-width="0.5" stroke-miterlimit="10"/>
<path d="M89.7477 137.137H84.2803L83.9653 141.097H89.5452L89.7477 137.137Z" fill="#79CFCD" stroke="#FEFAF0" stroke-width="0.5" stroke-miterlimit="10"/>
<path d="M81.558 137.137H76.0907L75.6182 141.097H81.198L81.558 137.137Z" fill="#79CFCD" stroke="#FEFAF0" stroke-width="0.5" stroke-miterlimit="10"/>
<path d="M73.3684 137.137H67.901L67.271 141.097H72.8509L73.3684 137.137Z" fill="#79CFCD" stroke="#FEFAF0" stroke-width="0.5" stroke-miterlimit="10"/>
<path d="M65.1782 137.137H59.7108L58.9458 141.097H64.5032L65.1782 137.137Z" fill="#79CFCD" stroke="#FEFAF0" stroke-width="0.5" stroke-miterlimit="10"/>
<path d="M48.439 128.024L49.3389 124.604H51.9039L51.0714 128.024H48.439Z" fill="#79CFCD" stroke="#FEFAF0" stroke-width="0.5" stroke-miterlimit="10"/>
<path d="M54.4687 124.604H59.5986L58.9011 128.024H53.6587L54.4687 124.604Z" fill="#79CFCD" stroke="#FEFAF0" stroke-width="0.5" stroke-miterlimit="10"/>
<path d="M62.1862 124.604H67.3161L66.7311 128.024H61.5112L62.1862 124.604Z" fill="#79CFCD" stroke="#FEFAF0" stroke-width="0.5" stroke-miterlimit="10"/>
<path d="M69.8808 124.604H75.0107L74.5607 128.024H69.3408L69.8808 124.604Z" fill="#79CFCD" stroke="#FEFAF0" stroke-width="0.5" stroke-miterlimit="10"/>
<path d="M77.5754 124.604H82.7053L82.3903 128.024H77.1704L77.5754 124.604Z" fill="#79CFCD" stroke="#FEFAF0" stroke-width="0.5" stroke-miterlimit="10"/>
<path d="M85.2705 124.604H90.4004L90.2204 128.024H85.0005L85.2705 124.604Z" fill="#79CFCD" stroke="#FEFAF0" stroke-width="0.5" stroke-miterlimit="10"/>
<path d="M92.9651 124.604H98.0949L98.0499 128.024H92.8301L92.9651 124.604Z" fill="#79CFCD" stroke="#FEFAF0" stroke-width="0.5" stroke-miterlimit="10"/>
<path d="M100.66 124.604H105.79L105.88 128.024H100.66V124.604Z" fill="#79CFCD" stroke="#FEFAF0" stroke-width="0.5" stroke-miterlimit="10"/>
<path d="M108.355 124.604H113.485L113.71 128.024H108.49L108.355 124.604Z" fill="#79CFCD" stroke="#FEFAF0" stroke-width="0.5" stroke-miterlimit="10"/>
<path d="M116.05 124.604H121.202L121.54 128.024H116.32L116.05 124.604Z" fill="#79CFCD" stroke="#FEFAF0" stroke-width="0.5" stroke-miterlimit="10"/>
<path d="M123.767 124.604H128.897L129.392 128.024H124.172L123.767 124.604Z" fill="#79CFCD" stroke="#FEFAF0" stroke-width="0.5" stroke-miterlimit="10"/>
<path d="M131.462 124.604H136.592L137.222 128.024H132.002L131.462 124.604Z" fill="#79CFCD" stroke="#FEFAF0" stroke-width="0.5" stroke-miterlimit="10"/>
<path d="M139.157 124.604H144.287L145.052 128.024H139.832L139.157 124.604Z" fill="#79CFCD" stroke="#FEFAF0" stroke-width="0.5" stroke-miterlimit="10"/>
<path d="M146.852 124.604H151.981L152.881 128.024H147.662L146.852 124.604Z" fill="#79CFCD" stroke="#FEFAF0" stroke-width="0.5" stroke-miterlimit="10"/>
<path d="M166.493 172.438H35.0516C33.0492 172.438 31.4292 170.818 31.4292 168.816H170.116C170.116 170.818 168.496 172.438 166.493 172.438Z" fill="#D3D3D3"/>
<path d="M116.905 153.764C116.77 152.954 116.05 152.346 115.24 152.346H100.795H86.328C85.4955 152.346 84.798 152.954 84.663 153.764L82.863 164.676C82.683 165.711 83.493 166.656 84.528 166.656H100.773H117.017C118.075 166.656 118.862 165.711 118.682 164.676L116.905 153.764Z" fill="#D3D3D3"/>
<path d="M66.753 59.7607H54.9858V60.9757H66.753V59.7607Z" fill="#F7F7F7"/>
<path d="M78.5428 68.8281H70.0605V70.0431H78.5428V68.8281Z" fill="#F7F7F7"/>
<path d="M85.495 68.8281H79.8701V70.0431H85.495V68.8281Z" fill="#F7F7F7"/>
<path d="M60.7455 91.6428H55.1206V92.8578H60.7455V91.6428Z" fill="#F7F7F7"/>
<path d="M100.232 68.8281H86.6201V70.0431H100.232V68.8281Z" fill="#F7F7F7"/>
<path d="M63.8729 87.0752H55.1206V88.2901H63.8729V87.0752Z" fill="#F7F7F7"/>
<path d="M72.6478 96.165H67.3154V97.38H72.6478V96.165Z" fill="#F7F7F7"/>
<path d="M65.6954 96.165H55.1206V97.38H65.6954V96.165Z" fill="#F7F7F7"/>
<path d="M60.948 100.71H55.1206V101.925H60.948V100.71Z" fill="#F7F7F7"/>
<path d="M77.3956 59.7607H69.0483V60.9757H77.3956V59.7607Z" fill="#F7F7F7"/>
<path d="M77.3956 73.373H69.0483V74.588H77.3956V73.373Z" fill="#F7F7F7"/>
<path d="M68.4407 77.8955H64.8633V79.1105H68.4407V77.8955Z" fill="#F7F7F7"/>
<path d="M69.3179 82.5078H61.3081V83.7228H69.3179V82.5078Z" fill="#F7F7F7"/>
<path d="M81.6024 82.5078H70.5327V83.7228H81.6024V82.5078Z" fill="#F7F7F7"/>
<path d="M63.4679 77.9404H55.1206V79.1554H63.4679V77.9404Z" fill="#F7F7F7"/>
<path d="M60.0705 82.5078H55.1206V83.7228H60.0705V82.5078Z" fill="#F7F7F7"/>
<path d="M74.8078 77.9404H70.1279V79.1554H74.8078V77.9404Z" fill="#F7F7F7"/>
<path d="M59.9582 105.232H55.2783V106.447H59.9582V105.232Z" fill="#F7F7F7"/>
<path d="M63.4454 68.8281H55.0981V70.0431H63.4454V68.8281Z" fill="#F7F7F7"/>
<path d="M70.8253 91.6428H62.478V92.8578H70.8253V91.6428Z" fill="#F7F7F7"/>
<path d="M70.9381 100.71H62.5908V101.925H70.9381V100.71Z" fill="#F7F7F7"/>
<path d="M85.7653 100.71H77.418V101.925H85.7653V100.71Z" fill="#F7F7F7"/>
<path d="M67.0004 73.373H55.0981V74.588H67.0004V73.373Z" fill="#F7F7F7"/>
<path d="M119.222 59.7607H110.875V60.9757H119.222V59.7607Z" fill="#F7F7F7"/>
<path d="M89.4777 105.232H81.1304V106.447H89.4777V105.232Z" fill="#F7F7F7"/>
<path d="M127.389 59.7607H121.809V60.9757H127.389V59.7607Z" fill="#F7F7F7"/>
<path d="M146.311 64.3057H140.731V65.5206H146.311V64.3057Z" fill="#F7F7F7"/>
<path d="M90.2877 59.7607H79.6455V60.9757H90.2877V59.7607Z" fill="#F7F7F7"/>
<path d="M131.732 64.3057H121.089V65.5206H131.732V64.3057Z" fill="#F7F7F7"/>
<path d="M118.682 68.8281H108.04V70.0431H118.682V68.8281Z" fill="#F7F7F7"/>
<path d="M104.845 73.373H94.2026V74.588H104.845V73.373Z" fill="#F7F7F7"/>
<path d="M127.569 68.8281H120.009V70.0431H127.569V68.8281Z" fill="#F7F7F7"/>
<path d="M108.782 59.7607H98.1396V60.9757H108.782V59.7607Z" fill="#F7F7F7"/>
<path d="M92.245 73.373H86.0127V74.588H92.245V73.373Z" fill="#F7F7F7"/>
<path d="M87.3627 91.71H81.1304V92.9249H87.3627V91.71Z" fill="#F7F7F7"/>
<path d="M96.1375 59.7607H92.2451V60.9757H96.1375V59.7607Z" fill="#F7F7F7"/>
<path d="M83.5379 73.373H79.6455V74.588H83.5379V73.373Z" fill="#F7F7F7"/>
<path d="M138.189 64.3057H134.296V65.5206H138.189V64.3057Z" fill="#F7F7F7"/>
<path d="M61.0832 64.3057H54.9858V65.5206H61.0832V64.3057Z" fill="#F7F7F7"/>
<path d="M76.0678 87.0977H71.2529V88.3126H76.0678V87.0977Z" fill="#F7F7F7"/>
<path d="M64.5483 64.3057H62.5908V65.5206H64.5483V64.3057Z" fill="#F7F7F7"/>
<path d="M119.222 64.3057H102.955V65.5206H119.222V64.3057Z" fill="#F7F7F7"/>
<path d="M103.63 100.71H87.3628V101.925H103.63V100.71Z" fill="#F7F7F7"/>
<path d="M67.9908 64.3057H65.9883V65.5206H67.9908V64.3057Z" fill="#F7F7F7"/>
<path d="M101.447 64.3057H96.1372V65.5206H101.447V64.3057Z" fill="#F7F7F7"/>
<path d="M106.78 68.8281H101.47V70.0431H106.78V68.8281Z" fill="#F7F7F7"/>
<path d="M79.4202 105.232H74.1104V106.447H79.4202V105.232Z" fill="#F7F7F7"/>
<path d="M94.7425 64.3057H83.4253V65.5206H94.7425V64.3057Z" fill="#F7F7F7"/>
<path d="M79.4879 91.71H72.873V92.9249H79.4879V91.71Z" fill="#F7F7F7"/>
<path d="M75.7752 100.71H72.4678V101.925H75.7752V100.71Z" fill="#F7F7F7"/>
<path d="M81.8055 64.3057H77.9131V65.5206H81.8055V64.3057Z" fill="#F7F7F7"/>
<path d="M68.7107 68.8281H64.8184V70.0431H68.7107V68.8281Z" fill="#F7F7F7"/>
<path d="M69.4754 87.0977H65.583V88.3126H69.4754V87.0977Z" fill="#F7F7F7"/>
<path d="M76.4501 64.3057H69.6553V65.5206H76.4501V64.3057Z" fill="#F7F7F7"/>
<path d="M39.8885 148.386C39.8885 148.386 39.7985 149.331 35.3886 149.331C30.9788 149.331 24.5664 148.184 24.5664 148.184L34.8037 147.194C34.8037 147.194 38.7411 146.991 39.8885 148.386Z" fill="#5B5433"/>
<path d="M28.6616 148.724C26.1642 148.724 25.1067 150.006 24.1168 150.411C23.1268 150.816 22.1368 151.424 22.1368 151.401C22.6993 150.299 23.4868 150.276 23.8918 149.916C24.2967 149.556 24.1842 149.736 23.3068 149.669C22.8118 149.624 21.9118 150.546 21.2818 151.064C20.7193 151.491 20.3818 151.536 20.3818 151.536C20.3818 151.536 21.0343 150.614 21.8443 149.871C22.8343 148.971 24.0718 148.229 24.3642 148.094C24.9042 147.869 26.5692 147.824 27.7392 147.981C29.0891 148.161 30.4616 148.724 28.6616 148.724Z" fill="#5B5433"/>
<path d="M24.5216 148.139C24.5216 148.139 22.6091 148.634 22.2716 148.904C22.0466 149.084 21.0566 150.141 21.0566 150.141C21.0566 150.141 21.7766 150.029 22.1816 149.624C22.6091 149.196 24.5216 148.139 24.5216 148.139Z" fill="#5B5433"/>
<path d="M36.2666 146.451C36.2666 146.451 41.0815 146.766 40.744 149.736C40.564 151.424 39.4615 152.009 37.999 151.874C35.2991 151.649 32.2392 151.244 32.2392 151.244L30.8667 146.631L36.2666 146.451Z" fill="#5B5433"/>
<path d="M37.2788 146.856L42.0036 131.624C42.0036 131.624 42.7011 129.397 43.8486 129.802C45.491 130.409 44.6811 132.232 44.5461 133.312C44.2536 135.517 44.4561 136.484 42.9261 141.794C41.9811 145.079 41.1712 148.859 40.3612 151.019C39.7987 152.504 38.8312 150.366 37.3687 149.781C34.6238 148.679 37.2788 146.856 37.2788 146.856Z" fill="#5B5433"/>
<path d="M37.6393 123.345C38.5617 125.999 41.4192 127.372 44.0516 126.404C46.6616 125.437 48.0565 122.49 47.1341 119.835C46.2116 117.18 43.3541 115.807 40.7217 116.775C38.1118 117.742 36.7168 120.69 37.6393 123.345Z" fill="#5B5433"/>
<path d="M32.4644 123.592C33.9044 125.752 36.7843 126.292 38.8768 124.807L38.5843 122.264C40.6767 120.757 41.1942 117.787 39.7542 115.627L38.7643 114.164C37.3243 112.004 34.4444 111.464 32.3519 112.949L31.4069 113.624C29.3145 115.132 28.797 118.102 30.237 120.262L32.4644 123.592Z" fill="#5B5433"/>
<path d="M30.5746 116.505C30.822 116.865 31.092 117.202 31.407 117.54C33.477 119.79 36.2444 120.645 37.9994 119.722C38.8094 120.825 39.7318 121.702 40.5643 122.377C41.5318 123.164 44.0067 123.479 44.0067 123.479C45.4467 125.054 40.0468 134.257 39.6643 134.212C38.8768 134.144 37.8644 129.059 38.6069 127.214C38.9443 126.382 39.4843 125.392 39.3268 124.942C38.7644 123.389 37.9769 123.659 37.9769 123.659C37.9769 123.659 36.9419 124.874 36.1319 124.829C35.2994 124.762 33.8595 123.457 33.792 123.434C33.5445 123.232 33.3195 122.984 33.117 122.692L30.957 119.452C30.3946 118.552 30.2596 117.472 30.5746 116.505Z" fill="#FFE3CA"/>
<path d="M47.0891 155.271C47.0891 155.271 45.3341 157.386 44.7941 157.611C44.0742 157.926 41.8692 157.251 41.8692 157.251C41.8692 157.251 41.2842 147.554 40.6092 143.774C39.9343 139.994 38.9443 139.004 38.8993 137.811C38.8318 135.899 37.2343 135.134 37.5043 133.649C37.7743 132.164 38.2468 126.854 38.4043 127.552C39.7768 133.581 41.4642 128.564 41.8467 127.777C42.0492 127.349 47.0891 155.271 47.0891 155.271Z" fill="#F2F0F0"/>
<path d="M39.1014 125.752C39.1014 125.752 36.9639 128.092 37.1214 129.014C37.2564 129.937 36.1989 132.817 37.2564 136.822C38.4489 141.389 39.0789 144.494 39.3039 147.486C39.5289 150.479 38.5164 153.224 38.9214 156.891C39.2364 159.771 39.8888 159.929 39.8888 159.929C39.8888 159.929 41.1713 160.244 42.0713 159.119C42.9713 158.016 41.6213 148.206 41.1713 145.776C40.7213 143.324 39.2814 137.609 38.8989 135.922C38.4264 133.852 38.5164 131.737 38.5389 131.129C38.6514 128.992 38.9214 127.664 39.1464 126.854C39.1689 126.742 39.2814 125.482 39.1014 125.752Z" fill="#5B5433"/>
<path d="M42.8367 128.497C44.0067 131.872 47.6516 133.604 50.9815 132.367C54.3114 131.129 56.0664 127.394 54.8964 124.019C53.7264 120.644 50.0815 118.912 46.7516 120.149C43.4217 121.364 41.6668 125.122 42.8367 128.497Z" fill="#5B5433"/>
<path d="M31.3843 186.5L32.5768 196.017L27.4019 198.47L24.5444 199.1L29.6293 195.163L27.9644 186.568L31.3843 186.5Z" fill="#FCBAA2"/>
<path d="M32.9142 197.458L31.7892 197.75L31.0242 197.053L26.8843 199.122L23.2169 200C23.2169 200 23.1719 199.707 23.2844 199.55C23.7344 198.943 26.3218 197.615 26.3218 197.615C26.3218 197.615 26.3668 198.493 26.7268 198.515C27.0868 198.538 30.2592 196.873 31.0017 196.423C32.2617 195.635 32.5092 195.118 32.5992 195.185C32.8692 195.32 32.9142 197.458 32.9142 197.458Z" fill="#5B5433"/>
<path d="M18.8971 173.271L14.7797 181.37L9.10984 181.1L6.2749 180.268L12.5523 179.21L15.9722 172.281L18.8971 173.271Z" fill="#FCBAA2"/>
<path d="M14.4423 182.811L13.3173 182.541L12.9573 181.551L7.84993 181.483L4.8125 180.763C4.8125 180.763 5.17249 180.358 5.39749 180.246C6.07247 179.953 8.47991 179.818 8.47991 179.818C8.47991 179.818 8.23242 180.516 8.54741 180.696C8.8624 180.898 12.3723 181.011 13.2273 180.943C14.7123 180.831 15.1398 180.516 15.1848 180.606C15.3422 180.921 14.4423 182.811 14.4423 182.811Z" fill="#5B5433"/>
<path d="M48.9339 149.039L45.874 150.411L45.8965 154.619L24.8145 151.176C24.8145 151.176 22.8121 150.524 21.5296 153.831C19.7072 158.511 15.0723 173.068 15.0723 173.068L17.9972 176.241L27.1995 159.794C27.1995 159.794 46.054 168.951 52.2639 166.971C54.6488 166.206 56.4713 161.841 56.1338 157.431C55.8638 153.966 55.1888 150.794 55.1888 150.794L48.9339 149.039Z" fill="#FFD049"/>
<path d="M46.2566 166.881L31.1595 165.756L32.4644 189.875L28.0095 190.033L24.7246 161.774C24.7246 161.774 25.6021 157.566 28.482 158.196C31.3845 158.849 38.3593 164.383 46.2566 166.881Z" fill="#FFD049"/>
<path d="M56.4263 172.933C56.4263 172.933 48.5065 164.046 46.459 159.028C44.0066 153.021 44.2091 145.484 43.7591 142.986C42.9266 138.396 41.9141 129.487 41.7341 128.384C41.5316 127.282 42.2291 126.044 42.2291 126.044C42.2291 126.044 41.7116 122.714 43.1966 123.074C45.3341 123.592 47.449 124.762 48.1915 125.122C49.5865 125.752 52.4439 142.536 52.6014 143.346C53.1864 146.271 55.3238 148.926 56.8538 151.649C60.4537 158.106 61.3762 165.733 61.3762 165.733C61.3762 165.733 60.9262 171.313 56.4263 172.933Z" fill="#2A94F4"/>
<path d="M48.259 149.691C48.259 149.691 48.1915 150.771 43.1516 150.524C38.1118 150.254 30.7319 148.566 30.7319 148.566L42.4091 148.026C42.4091 148.026 46.8865 148.049 48.259 149.691Z" fill="#FFE3CA"/>
<path d="M34.6919 149.151C32.2844 149.106 31.2495 150.344 30.3045 150.726C29.3595 151.109 28.392 151.671 28.392 151.671C28.932 150.614 29.697 150.591 30.102 150.254C30.4845 149.916 30.3945 150.096 29.5395 150.006C29.0445 149.961 28.1895 150.839 27.5821 151.334C27.0421 151.761 26.7046 151.784 26.7046 151.784C26.7046 151.784 27.3346 150.884 28.1221 150.164C29.0895 149.309 30.2595 148.589 30.552 148.476C31.0695 148.274 32.6669 148.251 33.8144 148.431C35.0969 148.611 36.4243 149.196 34.6919 149.151Z" fill="#FFE3CA"/>
<path d="M30.6644 148.499C30.6644 148.499 28.8194 148.949 28.5044 149.196C28.2795 149.376 27.3345 150.389 27.3345 150.389C27.3345 150.389 28.0095 150.276 28.4145 149.894C28.8194 149.534 30.6644 148.499 30.6644 148.499Z" fill="#FFE3CA"/>
<path d="M44.2314 148.499L51.7013 144.561C51.7013 144.561 51.7238 149.331 51.7688 151.154C51.8138 152.976 52.5787 155.541 51.1388 155.923C49.6988 156.306 48.9563 156.103 50.4413 156.981C51.9263 157.836 51.5888 158.736 51.0263 159.478C50.4638 160.221 52.9162 167.781 52.3312 168.208C50.0138 165.283 47.5164 161.661 46.4364 159.028C45.0639 155.608 44.5239 151.694 44.2314 148.499Z" fill="#5B5433"/>
<path d="M46.6389 146.586L46.3464 131.377C46.3464 131.377 46.3689 126.629 46.4589 125.234C46.5489 123.794 49.0014 125.482 49.0014 125.482C49.0014 125.482 52.4438 130.139 52.5113 141.367C52.5563 148.881 52.1513 152.796 48.6864 152.481C45.469 152.189 41.8016 151.694 41.8016 151.694L40.2041 147.531L46.6389 146.586Z" fill="#2A94F4"/>
<path d="M45.8741 154.619L20.1572 151.401L20.2247 150.861L45.9416 154.079L45.8741 154.619Z" fill="#D3D3D3"/>
<path d="M34.6018 152.639C34.5568 153.066 34.2193 153.381 33.8594 153.336L20.6747 151.694C20.3147 151.649 19.8647 151.311 19.5497 150.186L14.4648 137.024C14.5323 136.484 14.9598 136.214 15.3198 136.349L28.797 138.464C29.157 138.599 29.4045 138.914 29.5395 139.499L34.6018 152.639Z" fill="#D3D3D3"/>
<path d="M32.9367 152.999L33.0717 153.021L45.9413 154.641C45.4464 154.844 44.6589 154.911 43.7814 154.799L33.0042 153.449L32.8692 153.426L22.0919 152.076C21.2144 151.964 20.472 151.694 20.022 151.401L32.9367 152.999Z" fill="#D3D3D3"/>
<path d="M46.639 146.586L46.3465 131.377C46.3465 131.377 46.5715 130.094 47.0215 128.947C47.134 130.612 47.899 142.604 47.989 144.179C48.1015 145.889 49.4964 146.069 49.7889 146.631C50.1039 147.171 49.8339 147.284 48.7989 147.081C47.7865 146.856 48.1465 147.036 48.3714 147.576C48.5964 148.139 48.034 147.981 46.054 147.261C44.614 146.744 41.8466 147.261 40.4517 147.576L46.639 146.586Z" fill="#5B5433"/>
<path d="M135.557 109.26C133.082 109.912 128.514 112.207 127.547 116.144C126.107 122.062 128.987 130.724 124.442 139.229C122.98 141.929 149.574 145.574 149.574 145.574L154.704 115.694C154.704 115.694 148.291 109.215 146.986 108.765C144.264 107.865 140.507 107.955 135.557 109.26Z" fill="#CCE9FF"/>
<path d="M154.726 115.717C155.649 118.102 157.989 132.299 155.379 135.652C155.086 136.034 156.729 136.642 156.436 138.397C156.391 138.689 155.896 140.107 155.896 140.107L153.781 140.669L149.169 135.337C149.169 135.337 151.036 132.434 153.489 121.432C154.209 118.192 154.524 115.177 154.726 115.717Z" fill="#2A94F4"/>
<path d="M137.267 132.682C137.267 132.682 139.494 138.554 144.871 140.129C145.794 140.399 146.379 141.434 145.929 141.771C145.344 142.199 144.579 142.289 143.229 142.289C140.417 142.289 136.592 141.389 133.959 138.734C130.044 134.819 128.807 133.019 129.212 131.062C129.572 129.059 137.267 132.682 137.267 132.682Z" fill="#FCD2B1"/>
<path d="M128.312 114.165C127.165 116.1 126.512 119.204 126.535 123.659C126.535 127.102 129.415 132.749 129.842 134.482C129.91 134.774 130.09 136.012 130.09 136.012L133.262 139.252L139.629 134.774L137.694 131.692L137.109 131.759C137.109 131.759 136.749 130.049 136.839 129.397C136.929 128.744 135.085 119.857 134.162 114.165C133.645 110.857 129.437 112.252 128.312 114.165Z" fill="#2A94F4"/>
<path d="M134.027 131.624L135.894 131.039L136.659 130.837C136.704 131.377 137.154 131.737 137.154 131.737L135.692 131.917L134.004 132.457L132.024 133.874L134.027 131.624Z" fill="#5B5433"/>
<path d="M144.467 140.107L147.707 139.184C147.707 139.184 148.629 140.467 148.449 140.782C148.269 141.097 148.449 142.986 148.449 142.986L146.874 144.381L145.592 143.931C145.592 143.931 145.502 143.346 145.929 143.301C146.379 143.234 145.637 142.919 145.412 142.784C145.187 142.626 143.319 141.637 144.467 140.107Z" fill="#FCD2B1"/>
<path d="M139.472 108.967C139.112 110.025 139.652 111.217 140.687 111.577L142.532 112.252C143.567 112.635 144.692 112.05 145.052 110.992L146.694 106.133C147.054 105.075 146.514 103.883 145.479 103.5L143.634 102.825C142.599 102.443 141.474 103.028 141.114 104.085L139.472 108.967Z" fill="#FF957E"/>
<path d="M147.527 113.242C147.347 113.939 146.627 114.367 145.952 114.164L140.394 112.567C139.719 112.364 139.314 111.645 139.494 110.925L141.767 102.397C141.947 101.7 142.667 101.272 143.342 101.475L148.899 103.05C149.574 103.252 149.979 103.972 149.799 104.692L147.527 113.242Z" fill="#FCD2B1"/>
<path d="M150.406 103.837C150.451 103.792 149.889 103.162 150.181 101.925C150.564 100.26 149.326 99.5849 148.404 99.5624C147.864 99.5399 146.041 100.417 145.074 100.71C144.106 101.002 144.196 100.62 142.441 100.305C141.271 100.08 141.001 100.732 140.596 101.632C140.191 102.555 140.146 106.065 140.146 106.065C140.304 106.29 140.551 106.47 140.709 106.29C140.866 106.11 141.496 103.297 142.014 102.465C142.509 101.632 144.534 102.96 145.636 103.612C146.716 104.265 147.684 104.377 149.416 104.017C149.619 104.242 149.799 104.49 149.799 104.602C149.799 104.827 149.304 106.425 149.304 106.425C149.304 106.425 150.271 105.817 150.541 105.345C150.676 105.187 150.721 104.422 150.406 103.837Z" fill="#FFD049"/>
<path d="M141.249 109.147C141.181 109.372 140.956 109.53 140.731 109.462L139.539 109.125C139.314 109.057 139.179 108.81 139.246 108.585L139.854 106.312C139.921 106.087 140.146 105.93 140.371 105.997L141.564 106.335C141.789 106.402 141.924 106.65 141.856 106.875L141.249 109.147Z" fill="#FCD2B1"/>
<path d="M140.506 106.987C140.506 106.987 139.606 110.34 139.314 111.465C139.044 112.477 138.841 114.817 144.354 116.392C147.616 117.315 148.156 114.795 148.381 113.985C148.539 113.355 148.359 111.307 148.111 110.857C148.111 110.835 147.751 112.252 147.751 112.252C147.751 112.252 147.436 110.7 145.884 110.272C143.386 109.552 142.396 110.925 141.316 110.565C140.461 110.272 140.214 108.652 140.506 106.987Z" fill="#FFD049"/>
<path d="M144.264 112.14L145.974 112.635C146.199 112.702 146.446 112.567 146.491 112.32L146.559 112.072L144.017 111.352L143.949 111.6C143.904 111.847 144.039 112.072 144.264 112.14Z" fill="#FCD2B1"/>
<path d="M171.376 146.226C170.589 148.499 156.729 156.846 152.072 156.351L138.054 157.049C126.152 155.541 120.505 136.372 120.505 136.372C120.977 131.557 132.722 138.532 136.907 140.692C143.522 144.111 147.729 144.291 147.729 144.291C152.162 144.764 157.291 141.209 162.894 141.097C169.036 140.939 172.636 142.649 171.376 146.226Z" fill="#79CFCD"/>
<path d="M140.912 143.931C140.912 143.909 140.912 143.909 140.912 143.931V143.301L165.009 142.851V143.459V143.481L164.941 143.594C164.649 144.134 164.086 144.224 163.456 144.246L142.487 144.651C141.857 144.674 141.294 144.584 140.979 144.066L140.912 143.931Z" fill="#D3D3D3"/>
<path d="M146.717 143.909C146.717 143.909 146.717 143.931 146.717 143.909L146.649 144.021C146.559 144.156 146.447 144.269 146.312 144.336L142.644 144.404C142.037 144.426 141.497 144.359 141.182 143.931L141.114 143.841C141.114 143.841 141.114 143.841 141.092 143.819V143.526L146.672 143.414L146.717 143.909Z" fill="#D3D3D3"/>
<path d="M149.979 143.684L162.016 143.459V143.031L149.957 143.279L149.979 143.684Z" fill="#D3D3D3"/>
<path d="M146.852 143.166L149.754 130.837C149.821 130.522 150.136 130.252 150.451 130.229L167.371 129.914C167.686 129.914 167.866 130.162 167.799 130.499L164.896 142.829L146.852 143.166Z" fill="#D3D3D3"/>
<path d="M135.94 160.221C137.605 160.513 138.887 158.511 138.887 158.511L143.207 155.001L142.284 152.616L133.87 156.531C133.87 156.531 134.252 159.928 135.94 160.221Z" fill="#FCD2B1"/>
<path d="M138.864 158.376C138.864 158.376 138.864 158.578 138.549 159.501C138.234 160.423 137.829 160.738 137.424 160.873C135.804 161.368 134.657 161.121 130.787 161.886C126.917 162.651 125.747 162.066 124.622 160.221C123.497 158.376 124.667 156.914 126.557 156.779C129.279 156.576 130.809 156.891 132.227 156.666C133.712 156.441 133.802 156.081 134.679 155.519C135.489 155.001 136.254 158.106 135.489 158.826C134.792 159.456 138.302 159.546 138.864 158.376Z" fill="#FFD049"/>
<path d="M138.054 160.153C136.457 160.648 135.287 160.401 131.417 161.166C127.547 161.931 126.377 161.346 125.252 159.501C124.735 158.646 124.712 157.881 125.005 157.296C124.15 157.903 123.857 158.961 124.622 160.221C125.747 162.066 126.917 162.651 130.787 161.886C134.657 161.121 135.827 161.368 137.424 160.873C137.739 160.783 138.054 160.558 138.324 160.041C138.234 160.086 138.144 160.131 138.054 160.153Z" fill="#FEFAF0"/>
<path d="M138.864 158.443C138.864 158.398 138.864 158.398 138.864 158.398C138.864 158.421 138.842 158.443 138.819 158.466C138.842 158.443 138.864 158.443 138.864 158.443Z" fill="#E9D6B8"/>
<path d="M130.517 159.816C130.405 159.861 130.292 159.614 130.247 159.276C130.18 158.579 130.022 157.904 129.797 157.206C129.685 156.869 129.685 156.576 129.82 156.531C129.955 156.486 130.18 156.734 130.27 157.071C130.495 157.746 130.63 158.444 130.697 159.119C130.742 159.456 130.63 159.771 130.517 159.816Z" fill="#FEFAF0"/>
<path d="M131.71 159.591C131.575 159.614 131.462 159.389 131.417 159.074C131.35 158.421 131.192 157.769 130.967 157.139C130.855 156.824 130.855 156.554 131.012 156.531C131.147 156.509 131.372 156.756 131.485 157.071C131.687 157.701 131.845 158.354 131.912 158.984C131.935 159.299 131.845 159.569 131.71 159.591Z" fill="#FEFAF0"/>
<path d="M132.969 159.546C132.834 159.569 132.699 159.321 132.654 158.984C132.542 158.309 132.384 157.656 132.137 156.981C132.024 156.644 132.024 156.374 132.159 156.374C132.317 156.374 132.542 156.621 132.654 156.959C132.902 157.611 133.059 158.286 133.149 158.939C133.194 159.254 133.104 159.524 132.969 159.546Z" fill="#FEFAF0"/>
<path d="M136.232 154.484C136.232 154.484 165.864 141.862 167.551 141.839C173.266 141.794 171.961 147.779 169.059 150.614C165.639 153.944 139.629 160.041 139.629 160.041L136.232 154.484Z" fill="#5B5433"/>
<path d="M147.976 156.689L139.876 148.724L143.341 145.191L152.161 154.821L147.976 156.689Z" fill="#FCD2B1"/>
<path d="M149.641 150.434C149.641 150.434 129.054 130.882 127.682 130.297C122.98 128.317 120.077 133.694 120.235 135.562C120.46 137.969 141.362 157.544 141.362 157.544L149.641 150.434Z" fill="#5B5433"/>
<path d="M161.836 157.296C162.309 157.746 162.399 159.119 162.399 159.119C162.399 159.119 155.536 161.819 153.129 161.864C152.499 161.886 151.374 161.616 150.294 161.301C150.114 161.256 149.687 160.761 149.507 160.716C149.169 160.626 149.102 160.941 148.832 160.851C148.112 160.604 147.572 160.401 147.549 160.356C146.087 157.161 146.582 155.586 146.582 155.586C146.582 155.586 149.732 156.531 149.192 155.789C148.044 154.214 151.352 152.616 152.072 153.449C155.041 156.801 160.441 155.969 161.836 157.296Z" fill="#FFD049"/>
<path d="M162.219 157.971C160.104 158.849 155.672 160.626 154.794 160.694C151.172 160.964 148.652 159.636 146.964 158.849C147.122 159.299 147.302 159.816 147.549 160.356C147.572 160.401 148.089 160.604 148.832 160.851C149.124 160.941 149.192 160.604 149.507 160.716C149.687 160.761 150.092 161.256 150.294 161.301C151.374 161.616 152.499 161.864 153.129 161.864C155.537 161.819 162.399 159.119 162.399 159.119C162.399 159.119 162.399 158.489 162.219 157.971Z" fill="#FEFAF0"/>
<path d="M157.382 155.901C157.449 156.036 157.179 156.171 156.797 156.261C156.009 156.419 155.244 156.666 154.479 156.981C154.097 157.139 153.759 157.184 153.714 157.049C153.669 156.914 153.917 156.666 154.299 156.509C155.042 156.194 155.829 155.969 156.594 155.811C156.954 155.699 157.314 155.766 157.382 155.901Z" fill="#FEFAF0"/>
<path d="M155.829 155.339C155.896 155.474 155.626 155.654 155.244 155.766C154.479 155.991 153.736 156.306 152.994 156.689C152.634 156.869 152.296 156.936 152.251 156.801C152.206 156.666 152.454 156.374 152.814 156.194C153.534 155.834 154.276 155.519 155.041 155.316C155.424 155.159 155.784 155.204 155.829 155.339Z" fill="#FEFAF0"/>
<path d="M154.344 154.844C154.389 154.979 154.142 155.181 153.782 155.316C153.039 155.609 152.319 155.969 151.622 156.396C151.284 156.621 150.969 156.689 150.924 156.531C150.879 156.396 151.104 156.081 151.464 155.856C152.162 155.429 152.882 155.069 153.602 154.799C153.962 154.686 154.299 154.709 154.344 154.844Z" fill="#FEFAF0"/>
</g>
<defs>
<clipPath id="clip0_159_19157">
<rect width="200" height="200" fill="white"/>
</clipPath>
</defs>
</svg>
