<svg width="223" height="239" viewBox="0 0 223 239" fill="none" xmlns="http://www.w3.org/2000/svg">
<path d="M48.5837 66.8019L48.0678 65.3487C47.601 65.2958 47.1587 65.1637 46.7165 65.0052L45.6601 66.0621L42.6136 63.7105L43.2032 62.2837C42.9084 61.8874 42.6627 61.4646 42.4662 61.0155L41.0166 60.9626L40.4024 56.9729L41.7537 56.418C41.8028 55.916 41.9256 55.4404 42.0731 54.9648L41.0903 53.8287L43.2769 50.5259L44.6036 51.1601C44.9721 50.843 45.3652 50.5788 45.7829 50.3674L45.832 48.8085L49.5419 48.1479L50.0578 49.6012C50.5246 49.654 50.9668 49.7861 51.4091 49.9446L52.4655 48.8878L55.512 51.2393L54.9224 52.6661C55.2172 53.0624 55.4629 53.4852 55.6594 53.9344L57.109 53.9872L57.7232 57.9769L56.3719 58.5318C56.2982 59.0338 56.1999 59.5094 56.0525 59.985L57.0353 61.1211L54.8487 64.4239L53.522 63.7898C53.1534 64.1068 52.7603 64.3711 52.3427 64.5824L52.2935 66.1413L48.5837 66.8019ZM46.4708 63.7369L46.7656 63.869C47.3061 64.1068 47.8958 64.2389 48.4854 64.2918L48.8048 64.3182L49.2471 65.56L51.2862 65.1901L51.3354 63.869L51.6302 63.7369C52.1707 63.4727 52.6621 63.1292 53.1289 62.7329L53.3746 62.5215L54.5047 63.0764L55.7086 61.2797L54.8487 60.3021L54.9715 59.985C55.1926 59.4037 55.3155 58.7696 55.3646 58.1355L55.3892 57.792L56.5439 57.3164L56.1999 55.1234L54.9715 55.0705L54.8487 54.7534C54.603 54.1722 54.2836 53.6437 53.9151 53.1417L53.7185 52.8775L54.2344 51.6621L52.5638 50.3674L51.6548 51.2657L51.3599 51.1336C50.8194 50.8958 50.2298 50.7637 49.6402 50.7109L49.3208 50.6845L48.8785 49.4426L46.8393 49.8125L46.7902 51.1336L46.4954 51.2657C45.9549 51.53 45.4635 51.8735 44.9967 52.2698L44.751 52.4812L43.6209 51.9263L42.417 53.723L43.2769 54.7006L43.1541 55.0177C42.933 55.599 42.8101 56.2331 42.761 56.8672L42.7364 57.2107L41.5817 57.6863L41.9257 59.8793L43.1541 59.9322L43.2769 60.2492C43.5226 60.8305 43.842 61.3589 44.2105 61.861L44.4071 62.1252L43.8911 63.3406L45.5618 64.6353L46.4708 63.7369ZM49.0259 61.8874C48.1906 61.8874 47.3553 61.5967 46.6674 61.0683C44.8247 59.6679 44.4071 56.92 45.7092 54.9384C47.0113 52.9568 49.5664 52.5076 51.4091 53.9079C52.2935 54.5949 52.8832 55.599 53.0797 56.7615C53.2517 57.9241 53.006 59.0867 52.3918 60.0378C51.753 60.989 50.8194 61.6232 49.7384 61.8345C49.4682 61.861 49.2471 61.8874 49.0259 61.8874ZM49.0259 54.1986C48.0678 54.1986 47.1342 54.6742 46.5445 55.5725C46.0777 56.2859 45.8812 57.1579 46.0286 58.0298C46.176 58.9017 46.5937 59.6415 47.257 60.1435C47.9204 60.6456 48.7311 60.8569 49.5419 60.6984C50.3526 60.5399 51.0406 60.0907 51.5074 59.3773C51.9742 58.6639 52.1707 57.792 52.0233 56.92C51.8759 56.0481 51.4582 55.3083 50.7949 54.8063C50.2544 54.41 49.6402 54.1986 49.0259 54.1986Z" fill="#79CFCD"/>
<path d="M181.343 105.397L180.188 102.147C178.96 101.989 177.731 101.698 176.577 101.249L174.218 103.627L167.83 98.7389L169.157 95.5682C168.395 94.5378 167.732 93.4016 167.191 92.1862L163.973 92.0805L162.671 83.7576L165.693 82.5158C165.84 81.1947 166.11 79.8736 166.528 78.6317L164.317 76.0952L168.862 69.2255L171.81 70.6523C172.768 69.8332 173.825 69.1198 174.955 68.5385L175.053 65.0772L182.792 63.6769L183.947 66.9268C185.176 67.0853 186.404 67.376 187.559 67.8251L189.917 65.4472L196.305 70.3352L194.978 73.5059C195.74 74.5363 196.403 75.6725 196.944 76.8879L200.162 76.9936L201.464 85.3165L198.442 86.5583C198.295 87.8794 198.025 89.2005 197.607 90.4424L199.818 92.9789L195.273 99.8486L192.325 98.4218C191.367 99.2409 190.31 99.9543 189.18 100.536L189.082 103.997L181.343 105.397ZM176.233 99.5579L176.626 99.7165C177.928 100.245 179.304 100.588 180.704 100.721L181.146 100.773L182.203 103.733L187.706 102.729L187.804 99.5579L188.197 99.373C189.475 98.7653 190.679 97.9462 191.76 96.9686L192.079 96.6779L194.782 97.9726L198.025 93.0846L196.01 90.7594L196.158 90.3367C196.649 88.9363 196.968 87.4567 197.091 85.9506L197.116 85.475L199.867 84.3389L198.934 78.4204L195.986 78.3147L195.814 77.8919C195.249 76.518 194.487 75.2233 193.578 74.0607L193.308 73.7172L194.512 70.8108L189.966 67.3231L187.804 69.4897L187.411 69.3312C186.109 68.8027 184.733 68.4593 183.333 68.3272L182.891 68.3007L181.834 65.3415L176.331 66.3455L176.233 69.5161L175.839 69.7011C174.562 70.3088 173.358 71.1279 172.277 72.1055L171.958 72.3961L169.255 71.1015L166.061 75.9895L168.076 78.3147L167.928 78.7374C167.437 80.1378 167.118 81.6174 166.995 83.1235L166.97 83.5991L164.219 84.7352L165.152 90.6537L168.1 90.7594L168.272 91.1822C168.837 92.5561 169.599 93.8508 170.508 95.0134L170.778 95.3568L169.575 98.2633L174.12 101.751L176.233 99.5579ZM182.031 94.115C180.237 94.115 178.444 93.5337 176.871 92.3447C172.867 89.2798 171.933 83.282 174.783 78.9752C177.633 74.6684 183.21 73.6644 187.215 76.7293C191.219 79.7943 192.153 85.7921 189.303 90.0989C187.559 92.7146 184.807 94.115 182.031 94.115ZM182.055 76.4387C179.697 76.4387 177.363 77.6277 175.913 79.8471C174.734 81.6174 174.292 83.7576 174.611 85.8978C174.955 88.038 176.036 89.8875 177.682 91.1558C181.073 93.7451 185.79 92.8996 188.197 89.2534C189.352 87.4831 189.819 85.3429 189.5 83.2027C189.156 81.0625 188.075 79.213 186.429 77.9448C185.077 76.9143 183.554 76.4387 182.055 76.4387Z" fill="#79CFCD"/>
<path d="M53.3409 170.792H177.633V74.2989C177.633 72.925 176.601 71.7888 175.299 71.7888H55.6749C54.3974 71.7888 53.3409 72.8985 53.3409 74.2989V170.792Z" fill="#5B5433"/>
<path d="M57.7313 152.802L173.007 152.802V76.6272L57.7313 76.6272L57.7313 152.802Z" fill="#79CFCD" stroke="white" stroke-width="0.5" stroke-miterlimit="10"/>
<path d="M177.633 156.498H115.499H53.3901L39.7792 211.165H115.917H191.219L177.633 156.498Z" fill="#F2F2F2"/>
<path d="M58.0827 166.089H65.7235C66.0429 166.089 66.2886 166.353 66.2149 166.643L65.4778 170.21C65.4287 170.422 65.2321 170.58 64.9864 170.58H57.2228C56.9034 170.58 56.6577 170.316 56.7314 169.999L57.5913 166.432C57.6405 166.247 57.837 166.089 58.0827 166.089Z" fill="#79CFCD" stroke="white" stroke-width="0.5" stroke-miterlimit="10"/>
<path d="M69.2122 166.089H74.9858L74.2242 170.607H68.3278L69.2122 166.089Z" fill="#79CFCD" stroke="white" stroke-width="0.5" stroke-miterlimit="10"/>
<path d="M77.8603 166.089H83.6339L83.0443 170.607H77.1478L77.8603 166.089Z" fill="#79CFCD" stroke="white" stroke-width="0.5" stroke-miterlimit="10"/>
<path d="M86.533 166.089H92.3066L91.8643 170.607H85.9679L86.533 166.089Z" fill="#79CFCD" stroke="white" stroke-width="0.5" stroke-miterlimit="10"/>
<path d="M95.1811 166.089H100.955L100.684 170.607H94.788L95.1811 166.089Z" fill="#79CFCD" stroke="white" stroke-width="0.5" stroke-miterlimit="10"/>
<path d="M103.829 166.089H109.603L109.505 170.607H103.608L103.829 166.089Z" fill="#79CFCD" stroke="white" stroke-width="0.5" stroke-miterlimit="10"/>
<path d="M173.112 166.089H164.44L165.373 170.607H174.193L173.112 166.089Z" fill="#79CFCD" stroke="white" stroke-width="0.5" stroke-miterlimit="10"/>
<path d="M161.565 166.089H155.792L156.553 170.607H162.45L161.565 166.089Z" fill="#79CFCD" stroke="white" stroke-width="0.5" stroke-miterlimit="10"/>
<path d="M152.917 166.089H147.144L147.733 170.607H153.63L152.917 166.089Z" fill="#79CFCD" stroke="white" stroke-width="0.5" stroke-miterlimit="10"/>
<path d="M144.244 166.089H138.471L138.913 170.607H144.809L144.244 166.089Z" fill="#79CFCD" stroke="white" stroke-width="0.5" stroke-miterlimit="10"/>
<path d="M135.596 166.089H129.823L130.093 170.607H135.989L135.596 166.089Z" fill="#79CFCD" stroke="white" stroke-width="0.5" stroke-miterlimit="10"/>
<path d="M126.948 166.089H121.174L121.273 170.607H127.169L126.948 166.089Z" fill="#79CFCD" stroke="white" stroke-width="0.5" stroke-miterlimit="10"/>
<path d="M112.502 166.089H118.275L118.349 170.607H112.502V166.089Z" fill="#79CFCD" stroke="white" stroke-width="0.5" stroke-miterlimit="10"/>
<path d="M55.552 173.963H67.5906L66.9026 178.613H54.6184L55.552 173.963Z" fill="#79CFCD" stroke="white" stroke-width="0.5" stroke-miterlimit="10"/>
<path d="M174.979 173.963H160.091L160.926 178.613H176.134L174.979 173.963Z" fill="#79CFCD" stroke="white" stroke-width="0.5" stroke-miterlimit="10"/>
<path d="M157.094 173.963H151.148L151.811 178.613H157.904L157.094 173.963Z" fill="#79CFCD" stroke="white" stroke-width="0.5" stroke-miterlimit="10"/>
<path d="M148.151 173.963H142.205L142.697 178.613H148.79L148.151 173.963Z" fill="#79CFCD" stroke="white" stroke-width="0.5" stroke-miterlimit="10"/>
<path d="M139.208 173.963H133.262L133.606 178.613H139.675L139.208 173.963Z" fill="#79CFCD" stroke="white" stroke-width="0.5" stroke-miterlimit="10"/>
<path d="M130.265 173.963H124.319L124.491 178.613H130.56L130.265 173.963Z" fill="#79CFCD" stroke="white" stroke-width="0.5" stroke-miterlimit="10"/>
<path d="M53.7341 182.233H66.0675L65.1584 186.857H52.6039L53.7341 182.233Z" fill="#79CFCD" stroke="white" stroke-width="0.5" stroke-miterlimit="10"/>
<path d="M69.1385 182.233H75.3052L74.5927 186.857H68.3032L69.1385 182.233Z" fill="#79CFCD" stroke="white" stroke-width="0.5" stroke-miterlimit="10"/>
<path d="M78.4008 182.233H84.5675H124.614L124.786 186.857H77.7129L78.4008 182.233Z" fill="#79CFCD" stroke="white" stroke-width="0.5" stroke-miterlimit="10"/>
<path d="M127.71 182.233H133.876L134.22 186.857H127.931L127.71 182.233Z" fill="#79CFCD" stroke="white" stroke-width="0.5" stroke-miterlimit="10"/>
<path d="M136.948 182.233H143.114L143.63 186.857H137.341L136.948 182.233Z" fill="#79CFCD" stroke="white" stroke-width="0.5" stroke-miterlimit="10"/>
<path d="M146.21 182.233H152.376L153.04 186.857H146.775L146.21 182.233Z" fill="#79CFCD" stroke="white" stroke-width="0.5" stroke-miterlimit="10"/>
<path d="M155.448 182.233H161.614L162.45 186.857H156.185L155.448 182.233Z" fill="#79CFCD" stroke="white" stroke-width="0.5" stroke-miterlimit="10"/>
<path d="M164.685 182.233H177.019L178.149 186.857H165.594L164.685 182.233Z" fill="#79CFCD" stroke="white" stroke-width="0.5" stroke-miterlimit="10"/>
<path d="M121.347 173.963H115.426V178.613H121.445L121.347 173.963Z" fill="#79CFCD" stroke="white" stroke-width="0.5" stroke-miterlimit="10"/>
<path d="M112.404 173.963H106.433L106.261 178.613H112.354L112.404 173.963Z" fill="#79CFCD" stroke="white" stroke-width="0.5" stroke-miterlimit="10"/>
<path d="M103.461 173.963H97.4905L97.1465 178.613H103.24L103.461 173.963Z" fill="#79CFCD" stroke="white" stroke-width="0.5" stroke-miterlimit="10"/>
<path d="M94.5178 173.963H88.5476L88.0317 178.613H94.1247L94.5178 173.963Z" fill="#79CFCD" stroke="white" stroke-width="0.5" stroke-miterlimit="10"/>
<path d="M85.5748 173.963H79.6047L78.9167 178.613H85.0097L85.5748 173.963Z" fill="#79CFCD" stroke="white" stroke-width="0.5" stroke-miterlimit="10"/>
<path d="M76.6319 173.963H70.6617L69.8264 178.613H75.8948L76.6319 173.963Z" fill="#79CFCD" stroke="white" stroke-width="0.5" stroke-miterlimit="10"/>
<path d="M58.353 163.262L59.3357 159.245H62.1365L61.2275 163.262H58.353Z" fill="#79CFCD" stroke="white" stroke-width="0.5" stroke-miterlimit="10"/>
<path d="M64.9373 159.245H70.5389L69.7773 163.262H64.0528L64.9373 159.245Z" fill="#79CFCD" stroke="white" stroke-width="0.5" stroke-miterlimit="10"/>
<path d="M73.3643 159.245H78.9659L78.3271 163.262H72.6272L73.3643 159.245Z" fill="#79CFCD" stroke="white" stroke-width="0.5" stroke-miterlimit="10"/>
<path d="M81.7667 159.245H87.3683L86.8769 163.262H81.1771L81.7667 159.245Z" fill="#79CFCD" stroke="white" stroke-width="0.5" stroke-miterlimit="10"/>
<path d="M90.1691 159.245H95.7707L95.4268 163.262H89.7269L90.1691 159.245Z" fill="#79CFCD" stroke="white" stroke-width="0.5" stroke-miterlimit="10"/>
<path d="M98.5714 159.245H104.173L103.976 163.262H98.2766L98.5714 159.245Z" fill="#79CFCD" stroke="white" stroke-width="0.5" stroke-miterlimit="10"/>
<path d="M106.974 159.245H112.576L112.526 163.262H106.827L106.974 159.245Z" fill="#79CFCD" stroke="white" stroke-width="0.5" stroke-miterlimit="10"/>
<path d="M115.376 159.245H120.978L121.076 163.262H115.376V159.245Z" fill="#79CFCD" stroke="white" stroke-width="0.5" stroke-miterlimit="10"/>
<path d="M123.779 159.245H129.38L129.626 163.262H123.926L123.779 159.245Z" fill="#79CFCD" stroke="white" stroke-width="0.5" stroke-miterlimit="10"/>
<path d="M132.181 159.245H137.807L138.176 163.262H132.476L132.181 159.245Z" fill="#79CFCD" stroke="white" stroke-width="0.5" stroke-miterlimit="10"/>
<path d="M140.608 159.245H146.21L146.75 163.262H141.051L140.608 159.245Z" fill="#79CFCD" stroke="white" stroke-width="0.5" stroke-miterlimit="10"/>
<path d="M149.011 159.245H154.612L155.3 163.262H149.6L149.011 159.245Z" fill="#79CFCD" stroke="white" stroke-width="0.5" stroke-miterlimit="10"/>
<path d="M157.413 159.245H163.015L163.85 163.262H158.15L157.413 159.245Z" fill="#79CFCD" stroke="white" stroke-width="0.5" stroke-miterlimit="10"/>
<path d="M165.815 159.245H171.417L172.4 163.262H166.7L165.815 159.245Z" fill="#79CFCD" stroke="white" stroke-width="0.5" stroke-miterlimit="10"/>
<path d="M187.264 215.419H43.7347C41.5481 215.419 39.7792 213.516 39.7792 211.165H191.219C191.219 213.516 189.45 215.419 187.264 215.419Z" fill="#D3D3D3"/>
<path d="M133.115 193.488C132.967 192.537 132.181 191.824 131.297 191.824H115.524H99.7262C98.8172 191.824 98.0556 192.537 97.9082 193.488L95.9427 206.303C95.7461 207.518 96.6306 208.628 97.7608 208.628H115.499H133.238C134.392 208.628 135.252 207.518 135.056 206.303L133.115 193.488Z" fill="#D3D3D3"/>
<path d="M78.3517 83.0969H65.5024V84.5237H78.3517V83.0969Z" fill="#5B5433"/>
<path d="M91.2257 93.7454H81.9634V95.1721H91.2257V93.7454Z" fill="#5B5433"/>
<path d="M98.8173 93.7454H92.6752V95.1722H98.8173V93.7454Z" fill="#5B5433"/>
<path d="M71.792 120.537H65.6499V121.964H71.792V120.537Z" fill="#5B5433"/>
<path d="M114.91 93.7454H100.046V95.1722H114.91V93.7454Z" fill="#5B5433"/>
<path d="M75.207 115.173H65.6499V116.6H75.207V115.173Z" fill="#5B5433"/>
<path d="M84.7888 125.848H78.9661V127.275H84.7888V125.848Z" fill="#5B5433"/>
<path d="M77.1971 125.848H65.6499V127.275H77.1971V125.848Z" fill="#5B5433"/>
<path d="M72.0132 131.185H65.6499V132.612H72.0132V131.185Z" fill="#5B5433"/>
<path d="M89.9726 83.0969H80.8577V84.5237H89.9726V83.0969Z" fill="#5B5433"/>
<path d="M89.9726 99.082H80.8577V100.509H89.9726V99.082Z" fill="#5B5433"/>
<path d="M80.1943 104.392H76.288V105.819H80.1943V104.392Z" fill="#5B5433"/>
<path d="M81.1525 109.81H72.4061V111.236H81.1525V109.81Z" fill="#5B5433"/>
<path d="M94.5669 109.81H82.4792V111.236H94.5669V109.81Z" fill="#5B5433"/>
<path d="M74.7648 104.446H65.6499V105.873H74.7648V104.446Z" fill="#5B5433"/>
<path d="M71.055 109.81H65.6499V111.236H71.055V109.81Z" fill="#5B5433"/>
<path d="M87.1472 104.446H82.037V105.873H87.1472V104.446Z" fill="#5B5433"/>
<path d="M70.9321 136.496H65.8218V137.923H70.9321V136.496Z" fill="#5B5433"/>
<path d="M74.7401 93.7454H65.6252V95.1722H74.7401V93.7454Z" fill="#5B5433"/>
<path d="M82.7986 120.537H73.6837V121.964H82.7986V120.537Z" fill="#5B5433"/>
<path d="M82.9214 131.185H73.8065V132.612H82.9214V131.185Z" fill="#5B5433"/>
<path d="M99.1119 131.185H89.997V132.612H99.1119V131.185Z" fill="#5B5433"/>
<path d="M78.622 99.082H65.6252V100.509H78.622V99.082Z" fill="#5B5433"/>
<path d="M135.645 83.0969H126.53V84.5237H135.645V83.0969Z" fill="#5B5433"/>
<path d="M103.166 136.496H94.051V137.923H103.166V136.496Z" fill="#5B5433"/>
<path d="M144.564 83.0969H138.471V84.5237H144.564V83.0969Z" fill="#5B5433"/>
<path d="M165.226 88.4344H159.133V89.8613H165.226V88.4344Z" fill="#5B5433"/>
<path d="M104.05 83.0969H92.4294V84.5237H104.05V83.0969Z" fill="#5B5433"/>
<path d="M149.305 88.4344H137.685V89.8613H149.305V88.4344Z" fill="#5B5433"/>
<path d="M135.056 93.7454H123.435V95.1722H135.056V93.7454Z" fill="#5B5433"/>
<path d="M119.946 99.082H108.325V100.509H119.946V99.082Z" fill="#5B5433"/>
<path d="M144.76 93.7454H136.505V95.1722H144.76V93.7454Z" fill="#5B5433"/>
<path d="M124.246 83.0969H112.625V84.5237H124.246V83.0969Z" fill="#5B5433"/>
<path d="M106.188 99.082H99.3823V100.509H106.188V99.082Z" fill="#5B5433"/>
<path d="M100.856 120.616H94.051V122.043H100.856V120.616Z" fill="#5B5433"/>
<path d="M110.438 83.0969H106.188V84.5237H110.438V83.0969Z" fill="#5B5433"/>
<path d="M96.6798 99.082H92.4294V100.509H96.6798V99.082Z" fill="#5B5433"/>
<path d="M156.357 88.4344H152.106V89.8613H156.357V88.4344Z" fill="#5B5433"/>
<path d="M72.1604 88.4344H65.5024V89.8613H72.1604V88.4344Z" fill="#5B5433"/>
<path d="M88.523 115.2H83.2654V116.627H88.523V115.2Z" fill="#5B5433"/>
<path d="M75.9441 88.4344H73.8066V89.8613H75.9441V88.4344Z" fill="#5B5433"/>
<path d="M135.646 88.4344H117.883V89.8613H135.646V88.4344Z" fill="#5B5433"/>
<path d="M118.619 131.185H100.856V132.612H118.619V131.185Z" fill="#5B5433"/>
<path d="M79.7031 88.4344H77.5165V89.8613H79.7031V88.4344Z" fill="#5B5433"/>
<path d="M116.236 88.4344H110.438V89.8613H116.236V88.4344Z" fill="#5B5433"/>
<path d="M122.059 93.7454H116.261V95.1722H122.059V93.7454Z" fill="#5B5433"/>
<path d="M92.1838 136.496H86.3857V137.923H92.1838V136.496Z" fill="#5B5433"/>
<path d="M108.915 88.4344H96.5569V89.8613H108.915V88.4344Z" fill="#5B5433"/>
<path d="M92.2574 120.616H85.0343V122.043H92.2574V120.616Z" fill="#5B5433"/>
<path d="M88.2037 131.185H84.5921V132.612H88.2037V131.185Z" fill="#5B5433"/>
<path d="M94.7881 88.4344H90.5378V89.8613H94.7881V88.4344Z" fill="#5B5433"/>
<path d="M80.4891 93.7454H76.2388V95.1722H80.4891V93.7454Z" fill="#5B5433"/>
<path d="M81.3245 115.2H77.0742V116.627H81.3245V115.2Z" fill="#5B5433"/>
<path d="M88.9407 88.4344H81.5211V89.8613H88.9407V88.4344Z" fill="#5B5433"/>
<path d="M140.264 99.8759L140.854 104.605L141.149 104.632L141.051 101.223L140.264 99.8759Z" fill="#FFB750"/>
<path d="M118.841 99.8759L119.406 104.605L119.725 104.632L119.627 101.223L118.841 99.8759Z" fill="#FFB750"/>
<path d="M126.703 59.3172C126.703 59.3172 126.137 62.2765 111.519 58.551C111.519 58.551 116.408 56.8071 126.703 59.3172Z" fill="#EB4747"/>
<path d="M121.052 27.2418C121.052 27.2418 120.61 28.2723 118.914 29.1971C118.914 28.9328 118.939 28.6686 118.939 28.378C118.939 28.378 120.094 28.2459 121.052 27.2418Z" fill="#FCD2B1"/>
<path d="M124.884 60.4271C124.884 60.4271 121.371 61.8803 117.072 60.5592L116.875 58.8418L125.744 59.3702L124.884 60.4271Z" fill="white"/>
<path d="M127.759 66.6365L120.02 63.4131V62.594L128.373 65.8175L127.759 66.6365Z" fill="#D3D3D3"/>
<path d="M100.458 64.1296C100.153 64.7862 99.8475 65.4063 99.5083 66.0629C106.868 66.2817 114.263 66.5371 121.623 66.7559C120.469 62.5611 120.843 56.8708 121.046 52.5665C121.284 47.2774 123.997 43.6298 123.726 38.3042C125.184 38.5595 125.421 38.596 126.88 38.8513C124.641 31.9938 123.895 28.6014 116.942 25.9751C114.67 25.0997 113.211 24.9538 110.769 25.1726C102.731 25.9022 100.322 25.9751 96.354 33.8176C102.527 34.8754 101.51 37.2464 103.375 43.8851C104.291 47.0951 105.24 50.7062 104.766 54.0986C104.291 57.4179 100.458 61.1021 100.458 64.1296Z" fill="white"/>
<path d="M145.162 119.029C145.162 119.029 148.146 124.464 149.401 125.339C151.097 126.543 150.046 127.747 149.232 127.783C148.418 127.783 144.28 128.112 143.364 126.981C142.448 125.85 142.007 122.531 141.159 121.655C140.311 120.78 139.429 117.315 141.566 116.476C143.432 115.71 145.162 119.029 145.162 119.029Z" fill="#FFB750"/>
<path d="M143.839 116.653C143.839 116.653 147.264 123.036 147.841 123.948C148.418 124.897 146.722 124.897 145.67 124.459C144.619 124.021 141.973 119.462 141.6 118.623C141.159 117.638 141.532 116.507 141.532 116.507L143.839 116.653Z" fill="#FFE3CA"/>
<path d="M115.551 119.025C115.551 119.025 118.536 124.46 119.791 125.336C121.487 126.54 120.436 127.743 119.621 127.78C118.807 127.78 114.67 128.108 113.754 126.977C112.838 125.847 112.397 122.527 111.549 121.652C110.701 120.776 109.785 117.202 111.956 116.472C113.856 115.816 115.551 119.025 115.551 119.025Z" fill="#FFB750"/>
<path d="M114.432 116.653C114.432 116.653 117.654 123 118.265 123.948C118.841 124.897 117.145 124.897 116.094 124.459C115.042 124.021 112.397 119.462 112.024 118.623C111.583 117.638 111.956 116.507 111.956 116.507L114.432 116.653Z" fill="#FFE3CA"/>
<path d="M102.323 69.5282L129.322 82.7692C129.322 82.7692 132.341 83.827 132.68 87.4382C133.731 98.6729 141.532 116.474 141.532 116.474C144.042 117.787 143.839 116.656 143.839 116.656C142.245 111.184 140.345 88.7148 139.633 79.7051C139.497 77.8084 139.396 76.4952 139.362 76.0575C139.362 75.7657 139.056 75.4009 138.548 74.9632C134.851 71.7168 119.588 65.0416 119.588 65.0416C108.225 64.7133 102.323 69.5282 102.323 69.5282Z" fill="#FFE3CA"/>
<path d="M97.2358 75.2202C98.0837 83.0627 108.496 82.1873 108.496 82.1873H121.114C121.114 82.1873 117.79 90.1392 116.501 96.8144C115.144 103.927 111.922 116.475 111.922 116.475C111.922 116.475 112.126 116.913 114.432 116.658C114.432 116.658 124.336 95.4283 128.135 90.0662C128.949 88.9354 131.289 82.6615 131.696 78.9408C131.832 77.7006 131.764 76.7158 131.323 76.3145C130.882 75.9133 129.865 75.1838 128.542 74.2718C124.573 71.5726 117.722 67.4507 113.889 66.5388C108.768 65.2986 100.661 62.9641 100.661 62.9641C100.661 62.9641 96.3878 67.3778 97.2358 75.2202Z" fill="#FFE3CA"/>
<path d="M105.817 14.7403C105.817 14.7403 103.918 10.8738 104.833 6.78842C105.749 2.66657 109.311 -1.4188 114.5 0.477976C119.689 2.37476 123.895 6.67899 120.775 11.7128C117.654 16.71 123.59 19.0081 122.064 21.379C120.537 23.75 121.114 26.2669 121.758 26.8141C122.403 27.3612 124.472 29.3309 124.234 31.7019C123.997 34.0364 114.161 24.8808 114.161 24.8808C114.161 24.8808 108.836 13.2448 105.817 14.7403Z" fill="#5B5433"/>
<path d="M113.279 27.6165C109.989 26.9599 110.701 24.9901 110.701 24.9901C110.701 24.9901 110.837 23.8958 110.905 22.4733C110.905 22.1085 110.939 21.7437 110.939 21.3425C110.939 20.7589 110.905 20.1752 110.837 19.5916C110.565 17.2206 116.806 18.6432 116.806 18.6432C116.806 18.6432 116.433 23.4581 117.315 24.8807C118.163 26.3398 116.569 28.3095 113.279 27.6165Z" fill="#FFE3CA"/>
<path d="M107.004 24.9908C107.004 24.9908 113.652 33.2345 116.094 35.1313C116.094 35.1313 118.909 32.3955 117.179 25.1732C117.179 25.1732 113.991 23.4223 107.004 24.9908Z" fill="#FFE3CA"/>
<path d="M107.208 5.14764C107.208 5.14764 103.748 12.297 107.174 19.0452C110.6 25.7934 117.315 16.0906 117.722 14.9598C118.163 13.8291 120.47 7.37271 115.891 5.43945C111.312 3.46972 108.191 3.21438 107.208 5.14764Z" fill="#FFE3CA"/>
<path d="M79.022 57.7095C79.022 57.7095 77.394 58.4755 76.6139 58.1473C75.8338 57.7825 74.6466 57.7095 74.2736 57.7095C73.7648 57.7095 72.1707 57.0894 72.2046 57.7825C72.2385 58.4391 74.7823 58.9133 75.2911 59.1321C75.7998 59.351 73.7309 60.5547 73.5274 61.1019C73.3239 61.649 75.6981 65.2237 77.0209 64.2024C78.3437 63.181 79.0559 61.1383 79.3273 60.9924C79.5986 60.8465 80.3109 60.2994 80.3109 60.2994L79.022 57.7095Z" fill="#FFE3CA"/>
<path d="M73.7987 60.7734C73.7987 60.7734 69.966 64.2022 69.8982 64.6764C69.8303 65.1506 70.0338 65.3695 70.4069 65.0412C70.78 64.7494 74.2057 61.8313 74.2057 61.8313C74.2057 61.8313 70.373 66.7191 70.2374 67.0839C70.1695 67.3027 70.5426 67.7405 70.7461 67.5946C70.9496 67.4486 75.0537 62.8526 75.0537 62.8526C75.0537 62.8526 71.4584 67.4122 71.4584 67.7769C71.4245 68.0688 71.8654 68.397 72.1707 68.0687C72.4759 67.7405 76.0373 63.728 76.0373 63.728C76.0373 63.728 73.6291 67.2298 73.7987 67.5581C73.9005 67.7405 74.2057 68.1417 74.7823 67.2298C75.3589 66.3179 76.987 64.2752 76.987 64.2752L73.7987 60.7734Z" fill="#FFE3CA"/>
<path d="M119.791 82.1502H108.496C108.496 82.1502 98.0837 83.0621 97.2358 75.1831C96.3878 67.3407 100.661 62.9635 100.661 62.9635C100.661 62.9635 106.156 64.532 110.972 65.7722C113.381 65.2251 116.264 64.8603 119.655 64.9697C119.655 64.9697 140.006 72.1921 139.395 76.0221C139.395 76.0586 130.882 71.1707 119.791 82.1502Z" fill="#5B5433"/>
<path d="M112.431 68.5795L134.003 68.2147L123.115 74.1604L112.431 68.5795Z" fill="#F2F2F2"/>
<path d="M119.045 66.7187C118.977 67.5577 119.791 68.1778 120.537 67.8495L121.792 67.2658C122.165 67.0835 122.403 66.6822 122.335 66.2445C121.826 62.7427 120.707 49.1005 122.335 46.7295C122.945 45.8541 123.318 45.0881 123.522 44.4315C124.607 47.4226 125.93 51.2891 126.473 53.3683L136.648 67.9589L140.074 68.9073C135.8 57.8549 132.375 52.0186 132.375 52.0186C131.696 50.0854 129.797 44.2491 128.101 39.0695C127.016 35.7866 126.066 32.759 125.523 31.1541C125.252 30.3151 124.743 29.622 124.031 29.1843C122.437 28.163 119.825 26.558 117.451 25.3178H117.417C117.349 25.2813 117.281 25.2449 117.179 25.2084C121.724 32.5402 119.961 53.3683 119.045 66.7187C119.045 66.6822 119.045 66.6822 119.045 66.7187Z" fill="#FFD049"/>
<path d="M102.222 25.793C100.763 26.0483 97.168 29.8054 95.2686 33.599C93.0978 37.9397 90.8593 42.864 89.1973 44.469C86.1447 47.4601 77.5635 58.0018 77.1565 57.7465C76.9869 57.6371 79.4968 60.8835 79.836 61.0294C80.0056 61.1023 93.9119 48.1167 95.2686 46.1469C96.5235 44.2866 99.9153 36.4077 100.933 36.5901C101.001 36.7725 102.256 39.6541 103.409 43.8489C103.443 43.9219 103.443 43.9948 103.477 44.0678C104.291 46.9859 104.223 50.1958 103.782 53.7705C103.443 56.4698 101.577 60.8835 100.458 63.0356C100.322 63.2909 100.356 63.8016 100.492 64.1664C100.594 64.3852 100.695 64.5676 100.865 64.6405L104.969 66.282L105.919 66.6468C106.597 66.9386 107.343 66.7927 107.886 66.3549C108.327 66.0267 108.666 65.4795 108.734 64.8229C109.65 57.3088 110.803 49.6122 111.719 46.7306C115.755 34.0367 110.158 24.4799 110.158 24.4799C110.158 24.4799 103.511 25.2823 102.222 25.793Z" fill="#FFD049"/>
<path d="M123.115 74.1615L129.526 55.3396L150.181 55.7044L144.076 73.0672L123.115 74.1615Z" fill="#F4486D"/>
<path d="M136.139 63.6555C135.495 65.0052 135.698 66.5007 136.58 66.9384C137.462 67.4126 138.649 66.6831 139.294 65.3334C139.938 63.9838 139.735 62.4883 138.853 62.0506C137.971 61.5764 136.75 62.3059 136.139 63.6555Z" fill="#F2F0F0"/>
<path d="M123.59 28.0901C122.064 25.6097 120.978 23.64 120.843 20.1017C120.741 17.7672 120.266 14.5938 118.774 13.0253C120.334 8.64811 118.502 7.33495 117.756 5.91237C116.84 4.12501 110.057 -0.179219 107.377 4.34387C104.698 8.83049 105.647 13.536 105.647 13.536C105.919 11.0556 108.293 7.69972 108.293 7.69972C108.666 10.2896 113.652 14.5208 115.823 16.2352C115.789 16.2717 115.755 16.3447 115.755 16.3811C114.534 18.2779 116.06 20.1747 116.332 22.1809C116.603 24.1871 111.21 29.5856 117.213 32.2849C123.217 35.0207 125.116 30.534 123.59 28.0901Z" fill="#5B5433"/>
<path d="M55.7353 141.842C55.7353 141.842 55.5923 143.456 48.5852 143.456C41.578 143.456 31.3891 141.495 31.3891 141.495L47.6557 139.804C47.6557 139.804 53.912 139.458 55.7353 141.842Z" fill="#5B5433"/>
<path d="M37.8957 142.418C33.9274 142.418 32.2471 144.61 30.6741 145.302C29.101 145.994 27.528 147.032 27.528 146.993C28.4218 145.109 29.673 145.071 30.3166 144.456C30.9601 143.841 30.7813 144.148 29.387 144.033C28.6005 143.956 27.1705 145.532 26.1695 146.417C25.2757 147.147 24.7394 147.224 24.7394 147.224C24.7394 147.224 25.7762 145.648 27.0632 144.379C28.6363 142.841 30.6026 141.572 31.0673 141.342C31.9253 140.957 34.5709 140.88 36.4299 141.149C38.575 141.457 40.7558 142.418 37.8957 142.418Z" fill="#5B5433"/>
<path d="M31.3176 141.42C31.3176 141.42 28.2788 142.266 27.7425 142.727C27.385 143.035 25.812 144.842 25.812 144.842C25.812 144.842 26.956 144.649 27.5995 143.957C28.2787 143.227 31.3176 141.42 31.3176 141.42Z" fill="#5B5433"/>
<path d="M49.9794 138.534C49.9794 138.534 57.63 139.073 57.0938 144.148C56.8078 147.031 55.056 148.031 52.7322 147.8C48.4421 147.416 43.58 146.724 43.58 146.724L41.3992 138.842L49.9794 138.534Z" fill="#5B5433"/>
<path d="M51.5883 139.227L59.096 113.198C59.096 113.198 60.2042 109.391 62.0275 110.083C64.6373 111.121 63.3503 114.236 63.1358 116.081C62.671 119.849 62.9928 121.502 60.5618 130.576C59.0602 136.189 57.7732 142.649 56.4862 146.34C55.5924 148.877 54.0551 145.225 51.7313 144.225C47.3697 142.341 51.5883 139.227 51.5883 139.227Z" fill="#5B5433"/>
<path d="M52.1603 99.0489C53.626 103.586 58.1664 105.931 62.3492 104.278C66.4963 102.625 68.7128 97.5879 67.247 93.051C65.7813 88.5142 61.2409 86.1688 57.0581 87.8221C52.911 89.4754 50.6945 94.512 52.1603 99.0489Z" fill="#5B5433"/>
<path d="M43.9376 99.4726C46.2256 103.164 50.8017 104.086 54.1265 101.549L53.6617 97.2042C56.9866 94.6282 57.8088 89.5531 55.5208 85.8621L53.9478 83.363C51.6597 79.672 47.0836 78.7492 43.7588 81.2868L42.2573 82.4402C38.9325 85.0162 38.1102 90.0913 40.3983 93.7823L43.9376 99.4726Z" fill="#5B5433"/>
<path d="M40.9347 87.3618C41.3279 87.977 41.7569 88.5537 42.2574 89.1304C45.5465 92.9752 49.9438 94.4362 52.7324 92.8599C54.0194 94.7438 55.4852 96.2433 56.808 97.3967C58.3452 98.7424 62.2778 99.2806 62.2778 99.2806C64.5659 101.972 55.9857 117.697 55.3779 117.62C54.1267 117.505 52.5179 108.816 53.6977 105.663C54.2339 104.24 55.0919 102.549 54.8417 101.78C53.9479 99.1268 52.6966 99.5882 52.6966 99.5882C52.6966 99.5882 51.0521 101.664 49.7651 101.588C48.4423 101.472 46.1543 99.2422 46.047 99.2038C45.6538 98.8577 45.2962 98.4348 44.9745 97.935L41.5424 92.3985C40.6487 90.8606 40.4342 89.0151 40.9347 87.3618Z" fill="#FFE3CA"/>
<path d="M67.1756 153.607C67.1756 153.607 64.387 157.221 63.529 157.605C62.385 158.143 58.8814 156.99 58.8814 156.99C58.8814 156.99 57.9519 140.419 56.8794 133.96C55.8068 127.501 54.2338 125.809 54.1623 123.771C54.0551 120.503 51.5168 119.196 51.9458 116.658C52.3748 114.121 53.1255 105.047 53.3758 106.239C55.5566 116.543 58.2379 107.969 58.8456 106.623C59.1674 105.893 67.1756 153.607 67.1756 153.607Z" fill="#F2F0F0"/>
<path d="M54.4839 103.164C54.4839 103.164 51.0876 107.162 51.3379 108.738C51.5524 110.315 49.8721 115.236 51.5524 122.08C53.4472 129.885 54.4482 135.191 54.8057 140.304C55.1632 145.418 53.5544 150.108 54.1979 156.375C54.6984 161.297 55.7352 161.566 55.7352 161.566C55.7352 161.566 57.773 162.104 59.203 160.182C60.633 158.298 58.488 141.534 57.773 137.382C57.058 133.191 54.7699 123.426 54.1622 120.542C53.4114 117.005 53.5544 113.391 53.5902 112.353C53.7689 108.7 54.1979 106.432 54.5554 105.047C54.5912 104.855 54.7699 102.702 54.4839 103.164Z" fill="#5B5433"/>
<path d="M60.4188 107.854C62.2778 113.621 68.0694 116.581 73.3605 114.467C78.6516 112.352 81.4402 105.97 79.5811 100.203C77.7221 94.4355 71.9305 91.475 66.6394 93.5897C61.3483 95.6658 58.5597 102.087 60.4188 107.854Z" fill="#5B5433"/>
<path d="M42.2216 206.972L44.1164 223.235L35.8937 227.426L31.3534 228.502L39.4331 221.774L36.7875 207.087L42.2216 206.972Z" fill="#FCBAA2"/>
<path d="M44.6526 225.697L42.8651 226.197L41.6495 225.005L35.0714 228.542L29.244 230.042C29.244 230.042 29.1725 229.542 29.3513 229.273C30.0663 228.235 34.1776 225.966 34.1776 225.966C34.1776 225.966 34.2491 227.466 34.8212 227.504C35.3932 227.543 40.434 224.697 41.6138 223.928C43.6158 222.583 44.0091 221.698 44.1521 221.814C44.5811 222.044 44.6526 225.697 44.6526 225.697Z" fill="#5B5433"/>
<path d="M22.3798 184.366L15.8374 198.207L6.82826 197.745L2.32367 196.323L12.2981 194.516L17.7322 182.674L22.3798 184.366Z" fill="#FCBAA2"/>
<path d="M15.3013 200.667L13.5138 200.206L12.9417 198.514L4.82634 198.398L0 197.168C0 197.168 0.572013 196.476 0.92952 196.284C2.00204 195.784 5.82736 195.553 5.82736 195.553C5.82736 195.553 5.43411 196.745 5.93461 197.053C6.43512 197.399 12.0122 197.591 13.3708 197.476C15.7303 197.283 16.4096 196.745 16.4811 196.899C16.7313 197.437 15.3013 200.667 15.3013 200.667Z" fill="#5B5433"/>
<path d="M70.1071 142.957L65.245 145.302L65.2807 152.492L31.7824 146.609C31.7824 146.609 28.6005 145.494 26.5628 151.146C23.6669 159.143 16.3023 184.019 16.3023 184.019L20.9499 189.44L35.5719 161.335C35.5719 161.335 65.531 176.983 75.3982 173.6C79.1878 172.292 82.0836 164.834 81.5473 157.298C81.1183 151.377 80.0458 145.956 80.0458 145.956L70.1071 142.957Z" fill="#FFB750"/>
<path d="M65.8526 173.447L41.8639 171.525L43.9375 212.741L36.8588 213.01L31.6392 164.719C31.6392 164.719 33.0335 157.53 37.6096 158.606C42.2214 159.721 53.3041 169.179 65.8526 173.447Z" fill="#FFB750"/>
<path d="M82.0121 183.788C82.0121 183.788 69.4278 168.601 66.1745 160.027C62.2777 149.762 62.5994 136.882 61.8844 132.614C60.5617 124.771 58.9529 109.545 58.6669 107.661C58.3451 105.778 59.4534 103.663 59.4534 103.663C59.4534 103.663 58.6311 97.9726 60.9907 98.5878C64.387 99.4721 67.7475 101.471 68.9273 102.087C71.1439 103.163 75.6842 131.845 75.9345 133.229C76.864 138.227 80.2603 142.764 82.6913 147.417C88.4114 158.451 89.8772 171.485 89.8772 171.485C89.8772 171.485 89.1622 181.02 82.0121 183.788Z" fill="#312D1B"/>
<path d="M69.0346 144.073C69.0346 144.073 68.9274 145.918 60.9192 145.495C52.911 145.034 41.1848 142.15 41.1848 142.15L59.7394 141.228C59.7394 141.228 66.8538 141.266 69.0346 144.073Z" fill="#FFE3CA"/>
<path d="M47.4769 143.15C43.6516 143.073 42.0071 145.188 40.5056 145.841C39.004 146.495 37.4668 147.456 37.4668 147.456C38.3248 145.649 39.5403 145.61 40.1838 145.034C40.7916 144.457 40.6486 144.765 39.29 144.611C38.5035 144.534 37.145 146.033 36.1797 146.879C35.3217 147.61 34.7855 147.648 34.7855 147.648C34.7855 147.648 35.7865 146.11 37.0377 144.88C38.575 143.419 40.4341 142.189 40.8988 141.996C41.7211 141.65 44.2594 141.612 46.0827 141.919C48.1205 142.227 50.2298 143.227 47.4769 143.15Z" fill="#FFE3CA"/>
<path d="M41.0776 142.034C41.0776 142.034 38.146 142.803 37.6455 143.226C37.288 143.534 35.7865 145.264 35.7865 145.264C35.7865 145.264 36.859 145.072 37.5025 144.418C38.1461 143.803 41.0776 142.034 41.0776 142.034Z" fill="#FFE3CA"/>
<path d="M62.6352 142.033L74.5044 135.305C74.5044 135.305 74.5402 143.456 74.6117 146.57C74.6832 149.684 75.8987 154.067 73.6107 154.721C71.3226 155.375 70.1428 155.029 72.5024 156.528C74.8619 157.989 74.3257 159.527 73.4319 160.796C72.5381 162.065 76.435 174.983 75.5054 175.714C71.8231 170.715 67.8548 164.525 66.1388 160.027C63.958 154.183 63.1 147.493 62.6352 142.033Z" fill="#5B5433"/>
<path d="M66.4605 138.766L65.9958 112.775C65.9958 112.775 66.0315 104.663 66.1745 102.279C66.3175 99.8184 70.2144 102.702 70.2144 102.702C70.2144 102.702 75.6842 110.661 75.7915 129.846C75.863 142.688 75.2195 149.378 69.7139 148.839C64.6015 148.34 58.7741 147.494 58.7741 147.494L56.2358 140.381L66.4605 138.766Z" fill="#312D1B"/>
<path d="M65.245 152.491L24.382 146.993L24.4892 146.07L65.3522 151.568L65.245 152.491Z" fill="#79CFCD"/>
<path d="M47.3339 149.109C47.2624 149.839 46.7261 150.378 46.1541 150.301L25.2042 147.494C24.6322 147.417 23.9172 146.84 23.4167 144.918L15.337 122.426C15.4443 121.503 16.1235 121.042 16.6956 121.273L38.1102 124.887C38.6822 125.117 39.0755 125.656 39.29 126.655L47.3339 149.109Z" fill="#79CFCD"/>
<path d="M44.6883 149.723L44.9028 149.761L65.3522 152.53C64.5657 152.876 63.3144 152.991 61.9201 152.799L44.7956 150.492L44.5811 150.453L27.4565 148.147C26.0622 147.954 24.8824 147.493 24.1674 146.993L44.6883 149.723Z" fill="#79CFCD"/>
<path d="M66.4605 138.766L65.9958 112.776C65.9958 112.776 66.3533 110.584 67.0683 108.623C67.247 111.468 68.4626 131.961 68.6056 134.652C68.7843 137.574 71.0009 137.882 71.4656 138.843C71.9661 139.766 71.5371 139.958 69.8926 139.612C68.2838 139.228 68.8558 139.535 69.2133 140.458C69.5708 141.419 68.6771 141.15 65.531 139.92C63.243 139.035 58.8456 139.92 56.6291 140.458L66.4605 138.766Z" fill="#5B5433"/>
<path d="M155.349 168.731C155.349 168.731 157.782 175.627 163.654 177.476C164.661 177.794 165.3 179.009 164.808 179.405C164.169 179.907 163.334 180.013 161.86 180.013C158.789 180.013 154.612 178.956 151.738 175.838C147.463 171.241 146.112 169.127 146.554 166.828C146.947 164.477 155.349 168.731 155.349 168.731Z" fill="#FCD2B1"/>
<path d="M163.211 177.45L166.749 176.367C166.749 176.367 167.757 177.873 167.56 178.243C167.364 178.613 167.56 180.832 167.56 180.832L165.84 182.471L164.44 181.942C164.44 181.942 164.342 181.255 164.808 181.202C165.3 181.123 164.489 180.753 164.243 180.595C163.998 180.41 161.958 179.247 163.211 177.45Z" fill="#FCD2B1"/>
<path d="M156.209 200.992C154.465 201.574 153.188 201.283 148.962 202.181C144.736 203.08 143.458 202.393 142.23 200.226C141.665 199.222 141.64 198.324 141.96 197.637C141.026 198.35 140.707 199.592 141.542 201.072C142.77 203.238 144.048 203.925 148.274 203.027C152.5 202.129 153.777 202.419 155.522 201.838C155.865 201.732 156.209 201.468 156.504 200.86C156.406 200.913 156.308 200.966 156.209 200.992Z" fill="white"/>
<path d="M157.093 198.984C157.093 198.931 157.093 198.931 157.093 198.931C157.093 198.957 157.069 198.984 157.045 199.01C157.069 198.984 157.093 198.984 157.093 198.984Z" fill="#E9D6B8"/>
<path d="M147.979 200.596C147.856 200.649 147.733 200.358 147.684 199.962C147.61 199.143 147.438 198.35 147.193 197.531C147.07 197.134 147.07 196.791 147.217 196.738C147.365 196.685 147.61 196.976 147.709 197.372C147.954 198.165 148.102 198.984 148.175 199.777C148.225 200.173 148.102 200.543 147.979 200.596Z" fill="white"/>
<path d="M149.281 200.331C149.134 200.358 149.011 200.093 148.962 199.723C148.888 198.957 148.716 198.191 148.47 197.451C148.347 197.081 148.347 196.764 148.519 196.738C148.667 196.711 148.912 197.002 149.035 197.372C149.256 198.112 149.428 198.878 149.502 199.618C149.527 199.988 149.428 200.305 149.281 200.331Z" fill="white"/>
<path d="M150.657 200.278C150.509 200.305 150.362 200.014 150.313 199.618C150.19 198.825 150.018 198.059 149.748 197.266C149.625 196.87 149.625 196.553 149.772 196.553C149.944 196.553 150.19 196.844 150.313 197.24C150.583 198.006 150.755 198.799 150.853 199.565C150.902 199.935 150.804 200.252 150.657 200.278Z" fill="white"/>
<path d="M161.497 146.678C157.5 147.812 150.125 151.797 148.562 158.635C146.237 168.911 150.888 183.954 143.548 198.724C141.187 203.413 184.132 209.743 184.132 209.743L192.416 157.853C192.416 157.853 182.061 146.6 179.953 145.819C175.557 144.256 169.49 144.412 161.497 146.678Z" fill="#5B5433"/>
<path d="M192.452 157.893C193.942 162.035 197.72 186.69 193.506 192.512C193.033 193.176 195.686 194.231 195.213 197.279C195.141 197.787 194.341 200.248 194.341 200.248L190.926 201.225L183.478 191.965C183.478 191.965 186.493 186.924 190.454 167.817C191.616 162.191 192.125 156.955 192.452 157.893Z" fill="#312D1B"/>
<path d="M149.798 155.197C147.945 158.557 146.891 163.95 146.927 171.686C146.927 177.664 151.578 187.472 152.268 190.48C152.377 190.988 152.668 193.137 152.668 193.137L157.791 198.764L168.073 190.988L164.948 185.635L164.004 185.753C164.004 185.753 163.422 182.783 163.568 181.65C163.713 180.517 160.734 165.083 159.244 155.197C158.408 149.453 151.614 151.876 149.798 155.197Z" fill="#312D1B"/>
<path d="M159.026 185.518L162.042 184.502L163.277 184.15C163.35 185.088 164.076 185.713 164.076 185.713L161.715 186.026L158.99 186.964L155.792 189.425L159.026 185.518Z" fill="#5B5433"/>
<path d="M167.818 146.171C167.237 148.007 168.109 150.078 169.78 150.703L172.76 151.876C174.431 152.54 176.248 151.524 176.829 149.688L179.481 141.248C180.062 139.411 179.19 137.34 177.519 136.676L174.54 135.504C172.869 134.84 171.052 135.856 170.471 137.692L167.818 146.171Z" fill="#FF957E"/>
<path d="M180.825 153.595C180.535 154.806 179.372 155.548 178.282 155.197L169.308 152.423C168.218 152.071 167.564 150.821 167.855 149.57L171.524 134.761C171.815 133.55 172.978 132.808 174.068 133.159L183.042 135.894C184.132 136.246 184.786 137.497 184.495 138.747L180.825 153.595Z" fill="#FCD2B1"/>
<path d="M185.476 137.262C185.549 137.184 184.64 136.09 185.113 133.941C185.73 131.049 183.732 129.877 182.242 129.838C181.37 129.799 178.428 131.323 176.865 131.831C175.303 132.339 175.448 131.674 172.614 131.127C170.725 130.737 170.289 131.87 169.635 133.433C168.981 135.035 168.908 141.13 168.908 141.13C169.163 141.521 169.562 141.834 169.817 141.521C170.071 141.208 171.088 136.324 171.924 134.879C172.723 133.433 175.993 135.738 177.774 136.871C179.518 138.004 181.08 138.2 183.877 137.575C184.204 137.965 184.495 138.395 184.495 138.59C184.495 138.981 183.696 141.755 183.696 141.755C183.696 141.755 185.258 140.7 185.694 139.88C185.912 139.606 185.985 138.278 185.476 137.262Z" fill="#312D1B"/>
<path d="M170.689 146.483C170.58 146.874 170.216 147.147 169.853 147.03L167.928 146.444C167.564 146.327 167.346 145.897 167.455 145.506L168.436 141.56C168.545 141.169 168.909 140.896 169.272 141.013L171.197 141.599C171.561 141.716 171.779 142.146 171.67 142.537L170.689 146.483Z" fill="#FCD2B1"/>
<path d="M169.49 142.732C169.49 142.732 168.036 148.554 167.564 150.508C167.128 152.266 166.801 156.33 175.703 159.065C180.971 160.667 181.843 156.291 182.206 154.884C182.46 153.79 182.17 150.234 181.77 149.453C181.77 149.414 181.189 151.875 181.189 151.875C181.189 151.875 180.68 149.179 178.173 148.437C174.14 147.187 172.542 149.57 170.798 148.945C169.417 148.437 169.017 145.624 169.49 142.732Z" fill="#312D1B"/>
<path d="M219.338 210.876C218.066 214.822 195.685 229.318 188.165 228.459L165.529 229.67C146.31 227.052 137.19 193.761 137.19 193.761C137.953 185.4 156.919 197.513 163.677 201.264C174.358 207.203 181.152 207.515 181.152 207.515C188.31 208.336 196.594 202.162 205.64 201.967C215.559 201.693 221.372 204.663 219.338 210.876Z" fill="#312D1B"/>
<path d="M170.144 206.891C170.144 206.852 170.144 206.852 170.144 206.891V205.797L209.056 205.016V206.071V206.11L208.947 206.305C208.474 207.243 207.566 207.399 206.549 207.438L172.687 208.142C171.67 208.181 170.761 208.024 170.253 207.126L170.144 206.891Z" fill="#79CFCD"/>
<path d="M179.518 206.852C179.518 206.852 179.518 206.891 179.518 206.852L179.409 207.048C179.263 207.282 179.082 207.477 178.864 207.595L172.941 207.712C171.96 207.751 171.088 207.634 170.58 206.891L170.471 206.735C170.471 206.735 170.471 206.735 170.434 206.696V206.188L179.445 205.993L179.518 206.852Z" fill="#79CFCD"/>
<path d="M184.786 206.461L204.224 206.07V205.327L184.749 205.757L184.786 206.461Z" fill="#79CFCD"/>
<path d="M179.735 205.563L184.422 184.15C184.531 183.603 185.04 183.134 185.549 183.095L212.871 182.548C213.379 182.548 213.67 182.978 213.561 183.564L208.874 204.976L179.735 205.563Z" fill="#79CFCD"/>
<path d="M162.114 235.181C164.803 235.689 166.874 232.211 166.874 232.211L173.85 226.116L172.36 221.974L158.772 228.773C158.772 228.773 159.389 234.673 162.114 235.181Z" fill="#FCD2B1"/>
<path d="M166.837 231.976C166.837 231.976 166.837 232.328 166.329 233.93C165.82 235.532 165.166 236.079 164.512 236.314C161.896 237.173 160.043 236.743 153.794 238.072C147.545 239.4 145.656 238.384 143.839 235.18C142.022 231.976 143.912 229.437 146.964 229.202C151.36 228.85 153.83 229.398 156.119 229.007C158.517 228.616 158.663 227.991 160.08 227.014C161.388 226.115 162.623 231.508 161.388 232.758C160.261 233.852 165.929 234.008 166.837 231.976Z" fill="#FFB750"/>
<path d="M162.587 225.216C162.587 225.216 210.436 203.296 213.161 203.257C222.39 203.179 220.282 213.572 215.596 218.496C210.073 224.278 168.073 234.867 168.073 234.867L162.587 225.216Z" fill="#5B5433"/>
<path d="M181.552 229.046L168.472 215.214L174.068 209.079L188.31 225.803L181.552 229.046Z" fill="#FCD2B1"/>
<path d="M184.241 218.183C184.241 218.183 150.997 184.229 148.78 183.213C141.187 179.774 136.5 189.113 136.754 192.356C137.118 196.537 170.87 230.531 170.87 230.531L184.241 218.183Z" fill="#5B5433"/>
<path d="M203.933 230.101C204.696 230.883 204.841 233.266 204.841 233.266C204.841 233.266 193.76 237.955 189.872 238.033C188.855 238.072 187.038 237.603 185.294 237.056C185.004 236.978 184.313 236.119 184.023 236.041C183.478 235.884 183.369 236.431 182.933 236.275C181.77 235.845 180.898 235.493 180.862 235.415C178.5 229.867 179.299 227.132 179.299 227.132C179.299 227.132 184.386 228.773 183.514 227.483C181.661 224.748 187.002 221.974 188.165 223.42C192.96 229.242 201.68 227.796 203.933 230.101Z" fill="#FFB750"/>
<path d="M204.551 231.274C201.135 232.798 193.978 235.884 192.561 236.002C186.711 236.47 182.642 234.165 179.917 232.798C180.171 233.579 180.462 234.478 180.862 235.415C180.898 235.494 181.734 235.845 182.933 236.275C183.405 236.431 183.514 235.845 184.023 236.041C184.313 236.119 184.967 236.978 185.294 237.057C187.038 237.604 188.855 238.033 189.872 238.033C193.76 237.955 204.841 233.266 204.841 233.266C204.841 233.266 204.841 232.172 204.551 231.274Z" fill="white"/>
<path d="M196.739 227.68C196.848 227.914 196.412 228.149 195.794 228.305C194.523 228.578 193.288 229.008 192.052 229.555C191.435 229.829 190.89 229.907 190.817 229.672C190.744 229.438 191.144 229.008 191.762 228.735C192.961 228.188 194.232 227.797 195.467 227.523C196.049 227.328 196.63 227.445 196.739 227.68Z" fill="white"/>
<path d="M194.232 226.703C194.341 226.937 193.905 227.25 193.287 227.445C192.052 227.836 190.853 228.383 189.654 229.047C189.073 229.36 188.528 229.477 188.455 229.243C188.383 229.008 188.782 228.5 189.364 228.188C190.526 227.562 191.725 227.015 192.96 226.664C193.578 226.39 194.159 226.468 194.232 226.703Z" fill="white"/>
<path d="M191.834 225.843C191.907 226.077 191.507 226.429 190.926 226.664C189.727 227.171 188.564 227.797 187.438 228.539C186.893 228.93 186.384 229.047 186.312 228.774C186.239 228.539 186.602 227.992 187.184 227.601C188.31 226.859 189.473 226.234 190.635 225.765C191.216 225.569 191.761 225.609 191.834 225.843Z" fill="white"/>
</svg>
