<svg width="200" height="200" viewBox="0 0 200 200" fill="none" xmlns="http://www.w3.org/2000/svg">
<g clip-path="url(#clip0_124_1877)">
<path opacity="0.11" d="M90.7098 155.765C128.985 155.765 160.014 153.85 160.014 151.488C160.014 149.125 128.985 147.21 90.7098 147.21C52.4342 147.21 21.4058 149.125 21.4058 151.488C21.4058 153.85 52.4342 155.765 90.7098 155.765Z" fill="#FFD049"/>
<g opacity="0.11">
<path opacity="0.11" d="M197.686 144.217H120.046C118.767 144.217 117.731 143.181 117.731 141.902V79.2384C117.731 77.9601 118.767 76.9238 120.046 76.9238H197.686C198.964 76.9238 200 77.9601 200 79.2384V141.902C200 143.181 198.964 144.217 197.686 144.217Z" fill="#FFD049"/>
</g>
<g opacity="0.11">
<path opacity="0.11" d="M197.686 144.217H120.046C118.767 144.217 117.731 143.181 117.731 141.902V79.2384C117.731 77.9601 118.767 76.9238 120.046 76.9238H197.686C198.964 76.9238 200 77.9601 200 79.2384V141.902C200 143.181 198.964 144.217 197.686 144.217Z" fill="#FFD049"/>
</g>
<path d="M156.291 82.8875H124.562V108.206H156.291V82.8875Z" fill="#79CFCD"/>
<path d="M193.169 132.293V138.254H124.562V126.332H193.169V132.293Z" fill="#FFD049"/>
<path d="M193.169 82.8875H161.142V84.9555H193.169V82.8875Z" fill="#FFD049"/>
<path d="M193.169 87.4507H161.142V89.5188H193.169V87.4507Z" fill="#FFD049"/>
<path d="M193.169 92.0139H161.142V94.082H193.169V92.0139Z" fill="#FFD049"/>
<path d="M193.169 96.5771H161.142V98.6452H193.169V96.5771Z" fill="#FFD049"/>
<path d="M193.169 101.14H161.142V103.209H193.169V101.14Z" fill="#FFD049"/>
<path d="M193.169 111.908H124.562V113.976H193.169V111.908Z" fill="#FFD049"/>
<path d="M193.169 116.471H124.562V118.539H193.169V116.471Z" fill="#FFD049"/>
<path d="M193.169 121.034H124.562V123.102H193.169V121.034Z" fill="#FFD049"/>
<path d="M185.372 105.704H161.142V107.772H185.372V105.704Z" fill="#FFD049"/>
<path opacity="0.11" d="M87.0307 126.33H2.31462C1.03629 126.33 0 125.293 0 124.015V55.5631C0 54.2848 1.03629 53.2485 2.31462 53.2485H87.0307C88.309 53.2485 89.3453 54.2848 89.3453 55.5631V124.015C89.3453 125.293 88.309 126.33 87.0307 126.33Z" fill="#FFD049"/>
<path opacity="0.11" d="M87.0307 126.33H2.31462C1.03629 126.33 0 125.293 0 124.015V55.5631C0 54.2848 1.03629 53.2485 2.31462 53.2485H87.0307C88.309 53.2485 89.3453 54.2848 89.3453 55.5631V124.015C89.3453 125.293 88.309 126.33 87.0307 126.33Z" fill="#FFD049"/>
<path d="M81.9271 78.5676H7.41895V117.326H81.9271V78.5676Z" fill="#79CFCD"/>
<path d="M81.9269 62.2515H47.1446V64.4975H81.9269V62.2515Z" fill="#FFD049"/>
<path d="M81.9269 67.2073H47.1446V69.4533H81.9269V67.2073Z" fill="#FFD049"/>
<path d="M81.9269 72.1631H47.1446V74.4091H81.9269V72.1631Z" fill="#FFD049"/>
<path d="M42.2013 62.2515H7.41895V64.4975H42.2013V62.2515Z" fill="#FFD049"/>
<path d="M42.2013 67.2073H7.41895V69.4533H42.2013V67.2073Z" fill="#FFD049"/>
<path d="M42.2013 72.1631H7.41895V74.4091H42.2013V72.1631Z" fill="#FFD049"/>
<path opacity="0.11" d="M179.435 67.5676H107.335C106.056 67.5676 105.02 66.5313 105.02 65.2529V39.3146C105.02 38.0363 106.056 37 107.335 37H179.435C180.713 37 181.749 38.0363 181.749 39.3146V65.2529C181.749 66.5313 180.713 67.5676 179.435 67.5676Z" fill="#FFD049"/>
<path opacity="0.11" d="M179.435 67.5676H107.335C106.056 67.5676 105.02 66.5313 105.02 65.2529V39.3146C105.02 38.0363 106.056 37 107.335 37H179.435C180.713 37 181.749 38.0363 181.749 39.3146V65.2529C181.749 66.5313 180.713 67.5676 179.435 67.5676Z" fill="#FFD049"/>
<path d="M175.378 43.5642H146.552V61.0035H175.378V43.5642Z" fill="#79CFCD"/>
<path d="M141.262 47.064H111.391V48.9928H141.262V47.064Z" fill="#FFD049"/>
<path d="M141.262 51.3193H111.391V53.2482H141.262V51.3193Z" fill="#FFD049"/>
<path d="M141.262 55.5757H111.391V57.5045H141.262V55.5757Z" fill="#FFD049"/>
<path d="M68.1391 123.191C67.993 124.548 67.9115 125.992 68.5355 127.206C69.1594 128.42 70.7416 129.242 71.9366 128.582C72.6101 128.21 72.9967 127.486 73.3465 126.801C75.3104 122.953 77.2744 119.105 79.2383 115.258C80.8576 112.086 82.52 108.72 82.3144 105.164C82.2194 103.522 81.7038 101.884 80.7107 100.572C79.8433 99.4255 77.9583 97.6006 76.6616 98.9406C75.3703 100.275 74.4839 102.604 73.6664 104.255C71.7794 108.068 70.3249 112.095 69.3391 116.233C68.7933 118.524 68.3912 120.849 68.1391 123.191Z" fill="#FCD2B1"/>
<path fill-rule="evenodd" clip-rule="evenodd" d="M82.2985 105.919C82.1929 104.091 81.619 102.268 80.5141 100.809C79.5489 99.5332 78.9845 96.3291 77.5415 97.82C76.1046 99.3049 73.5853 103.07 72.6759 104.907C71.4794 107.325 70.4449 109.822 69.5683 112.373L78.9834 116.938C80.7503 113.471 82.5227 109.796 82.2985 105.919Z" fill="#FFD049"/>
<path d="M68.4344 122.926C69.3895 121.763 71.035 121.355 72.531 121.522C74.0272 121.688 75.4192 122.342 76.7789 122.987C79.2717 124.171 81.7623 125.359 84.253 126.548C86.8241 127.775 89.3952 129.001 91.9662 130.228C92.3668 130.419 92.8076 130.656 92.9368 131.08C93.0751 131.535 92.7727 132.031 92.3609 132.269C91.9491 132.506 91.4556 132.545 90.9809 132.57C87.1227 132.771 83.2373 132.403 79.4808 131.504C77.5838 131.05 75.7188 130.46 73.906 129.74C72.3484 129.121 70.1381 128.437 68.8794 127.293C67.6766 126.2 67.3725 124.22 68.4344 122.926Z" fill="#F7B690"/>
<path fill-rule="evenodd" clip-rule="evenodd" d="M84.5807 131.596C87.4463 131.177 101.047 131.177 103.912 131.596C107.476 132.118 106.94 136.553 106.491 139.207C106.001 142.102 105.401 145.212 103.273 147.235C101.195 149.212 87.2982 149.212 85.2196 147.235C83.0916 145.212 82.4921 142.102 82.0022 139.207C81.5531 136.553 81.0169 132.118 84.5807 131.596Z" fill="#312D1B"/>
<path fill-rule="evenodd" clip-rule="evenodd" d="M134.486 143.759C135.982 145.409 136.958 148.115 135.662 149.829C134.563 151.281 103.857 148.425 99.3157 148.425C96.0892 144.312 96.2168 138.066 104.485 133.857C106.254 132.957 108.197 133.903 110.119 134.308C115.681 135.478 130.77 139.661 134.486 143.759Z" fill="#312D1B"/>
<path fill-rule="evenodd" clip-rule="evenodd" d="M68.091 114.45C65.8723 114.257 63.4227 115.12 62.3424 117.067C61.459 118.66 61.6484 120.673 62.3926 122.335C63.1368 123.997 64.3706 125.383 65.5851 126.74C83.1433 146.353 83.4274 147.242 86.3627 148.029C91.3655 149.371 97.4055 148.008 92.971 136.521C92.2563 134.669 73.6022 114.93 68.091 114.45Z" fill="#312D1B"/>
<path d="M83.7143 154.563C82.5454 153.88 80.2277 150.868 77.5146 146.9L82.6211 145.1C84.2906 151.024 84.9398 155.278 83.7143 154.563Z" fill="#FCD2B1"/>
<path fill-rule="evenodd" clip-rule="evenodd" d="M63.6435 114.778C66.7585 113.276 69.8291 113.667 72.316 117.698C75.6693 123.133 80.1686 136.397 82.6213 145.1L76.7629 147.755C73.0545 139.292 65.7434 128.315 62.9118 123.33C61.3237 120.534 61.1863 115.963 63.6435 114.778Z" fill="#312D1B"/>
<path d="M99.2035 149.028L101.739 153.768C97.9513 154.018 94.9037 154.061 93.6189 153.528C92.3267 152.993 94.9063 151.104 99.2035 149.028Z" fill="#FCD2B1"/>
<path fill-rule="evenodd" clip-rule="evenodd" d="M129.184 143.679C133.92 143.679 136.258 146.114 136.258 147.829C136.258 150.746 134.458 153.864 129.973 153.864C124.27 153.864 109.98 153.67 101.216 154.268L99.2031 149.028C105.67 145.904 122.256 143.679 129.184 143.679Z" fill="#312D1B"/>
<path fill-rule="evenodd" clip-rule="evenodd" d="M91.7432 152.864C91.9157 152.756 93.2202 150.832 94.0717 150.492C94.5658 150.294 95.2323 149.98 95.7622 150.24C96.3625 150.533 96.3901 151.368 96.7464 151.87C97.0142 152.247 97.38 152.557 97.796 152.762L98.6245 151.649C101.557 153.004 99.2275 156.412 102.169 157.815C102.947 158.187 103.803 158.436 104.433 159.04C104.757 159.351 104.984 159.758 105.017 160.205C105.068 160.896 104.681 161.316 104.182 161.51L99.2206 159.103C96.2563 157.665 93.689 155.523 91.7432 152.864Z" fill="#312D1B"/>
<path fill-rule="evenodd" clip-rule="evenodd" d="M77.3057 154.813C77.2749 154.029 77.6018 153.38 77.9383 153.197C78.2748 153.015 78.8002 151.7 79.497 149.777C79.8157 148.897 81.5915 148.652 82.4784 150.166C82.7663 150.658 83.0335 150.976 83.3563 150.966C83.6269 150.957 83.93 150.486 84.1902 150.797C84.4196 151.072 84.4816 151.795 84.5397 152.31C84.64 153.198 84.7308 154.093 84.8263 154.983C84.8475 155.181 84.8682 155.387 84.8745 155.59H77.468C77.3792 155.373 77.3173 155.108 77.3057 154.813Z" fill="#312D1B"/>
<path d="M120.354 123.191C120.5 124.548 120.582 125.992 119.958 127.206C119.334 128.42 117.752 129.242 116.557 128.582C115.883 128.21 115.497 127.486 115.147 126.801C113.183 122.953 111.219 119.105 109.255 115.258C107.636 112.086 105.974 108.72 106.179 105.164C106.274 103.522 106.79 101.884 107.783 100.572C108.65 99.4255 110.535 97.6006 111.832 98.9406C113.123 100.275 114.01 102.604 114.827 104.255C116.714 108.068 118.169 112.095 119.154 116.233C119.7 118.524 120.102 120.849 120.354 123.191Z" fill="#FCD2B1"/>
<path fill-rule="evenodd" clip-rule="evenodd" d="M106.181 105.919C106.287 104.091 106.86 102.268 107.965 100.809C108.931 99.5332 109.495 96.3291 110.938 97.82C112.375 99.3049 114.894 103.07 115.803 104.907C117 107.325 118.034 109.822 118.911 112.373L109.496 116.938C107.729 113.471 105.957 109.796 106.181 105.919Z" fill="#FFD049"/>
<path d="M119.808 123.598C118.853 122.435 117.207 122.027 115.711 122.193C114.215 122.36 112.823 123.013 111.463 123.659C108.97 124.843 106.48 126.031 103.989 127.22C101.418 128.446 98.8472 129.673 96.276 130.9C95.8754 131.091 95.4346 131.327 95.3055 131.752C95.1671 132.207 95.4696 132.703 95.8813 132.941C96.2932 133.178 96.7866 133.217 97.2613 133.242C101.12 133.442 105.005 133.075 108.762 132.176C110.659 131.721 112.523 131.132 114.336 130.412C115.894 129.793 118.104 129.109 119.363 127.965C120.566 126.872 120.87 124.891 119.808 123.598Z" fill="#FCD2B1"/>
<path fill-rule="evenodd" clip-rule="evenodd" d="M77.1577 98.2448C78.0752 97.1341 79.4566 96.528 80.8094 96.0319C84.7842 94.5743 93.9026 90.76 94.2469 90.7671C94.5912 90.76 103.71 94.5742 107.685 96.0319C109.037 96.528 110.419 97.1339 111.336 98.2448C112.56 99.7267 112.719 101.856 112.279 103.727C111.839 105.598 110.88 107.296 110.041 109.026C108.996 111.184 108.131 113.428 107.452 115.728C106.226 119.882 105.606 124.215 105.625 128.547C105.631 129.874 106.337 132.12 105.928 133.374C105.416 134.947 102.703 135.304 101.332 135.48C98.9848 135.782 96.6116 135.883 94.2468 135.784C91.882 135.883 89.5088 135.782 87.1612 135.48C85.7908 135.304 83.0774 134.947 82.5651 133.374C82.157 132.121 82.8623 129.874 82.8682 128.547C82.8876 124.215 82.2682 119.882 81.0418 115.728C80.3628 113.428 79.4977 111.184 78.4523 109.026C77.6144 107.296 76.6544 105.597 76.2144 103.727C75.7743 101.856 75.9336 99.7267 77.1577 98.2448Z" fill="#FFD049"/>
<path d="M91.249 90.3029C91.6197 89.1102 91.8187 86.8797 92.5561 86.0863C92.9988 85.6099 95.3092 85.6099 95.7521 86.0863C96.4897 86.8797 96.6885 89.1102 97.0592 90.3029C97.4743 91.6389 97.836 93.2416 97.4025 94.5632C97.0989 95.4886 96.4563 96.044 95.8049 96.2308C95.2613 96.3868 93.0468 96.3868 92.5032 96.2308C91.8518 96.044 91.2093 95.4886 90.9056 94.5632C90.4722 93.2416 90.8339 91.6389 91.249 90.3029Z" fill="#FCD2B1"/>
<path d="M89.2611 80.2576C90.0047 78.0906 98.3039 78.0906 99.0475 80.2576C99.639 81.9815 99.7232 83.9271 99.3865 85.7424C99.0687 87.4563 98.3761 89.0094 97.4052 90.2964C96.7431 91.1741 91.5653 91.1741 90.9032 90.2964C89.9323 89.0096 89.2398 87.4563 88.9219 85.7424C88.5852 83.9271 88.6694 81.9815 89.2611 80.2576Z" fill="#FFE3CA"/>
<path d="M81.9026 133.862H107.073C108.25 133.862 109.231 132.96 109.329 131.787L110.636 116.233C110.747 114.913 109.705 113.779 108.379 113.779H80.5961C79.2707 113.779 78.2286 114.913 78.3397 116.233L79.6463 131.787C79.7446 132.96 80.7254 133.862 81.9026 133.862Z" fill="#5B5433"/>
<path d="M110.58 116.899C110.34 115.914 109.453 115.17 108.379 115.17H80.5961C79.5222 115.17 78.6349 115.914 78.3955 116.899L78.3397 116.233C78.2286 114.913 79.2707 113.779 80.5961 113.779H108.379C109.705 113.779 110.747 114.913 110.636 116.233L110.58 116.899Z" fill="#312D1B"/>
<path d="M95.7252 91.535H92.7408C91.1257 91.535 89.8164 90.2257 89.8164 88.6105V82.8473C89.8164 81.2321 91.1257 79.9229 92.7408 79.9229H95.7252C97.3403 79.9229 98.6496 81.2321 98.6496 82.8473V88.6105C98.6494 90.2257 97.3401 91.535 95.7252 91.535Z" fill="#FFE3CA"/>
<path fill-rule="evenodd" clip-rule="evenodd" d="M92.2475 75.4163C93.0192 75.6001 93.814 75.2863 94.5542 74.9881C95.2945 74.69 96.0718 74.3759 96.855 74.4952C97.6381 74.6144 98.4021 75.3412 98.3005 76.1793C99.3566 75.7626 100.638 76.1113 101.379 77.0172C102.119 77.9229 102.271 79.326 101.743 80.3883C101.424 81.0299 100.889 81.5428 100.656 82.2254C100.39 83.0056 100.697 84.8783 99.7671 85.2369C99.0491 85.5137 98.6495 79.8052 96.6354 79.6612C95.5668 80.803 93.7871 81.0949 92.447 80.348C91.9443 80.0678 91.4113 79.6445 90.8706 79.827C90.5096 79.9488 90.0655 80.1225 89.8325 80.4442C89.2709 81.2199 89.435 84.7536 88.6601 85.3366C88.2455 84.0883 88.0831 82.7476 88.1734 81.4266C87.8226 81.4355 87.4702 81.3796 87.1426 81.2456C86.1915 80.8564 86.2164 73.9799 92.2475 75.4163Z" fill="#312D1B"/>
<path d="M100.324 85.6023C100.524 85.232 100.69 84.8112 100.634 84.3875C100.578 83.9639 100.227 83.5614 99.8296 83.6102C99.5842 83.6404 99.3766 83.8309 99.2503 84.0575C99.1238 84.2841 99.0657 84.5455 99.0091 84.8024C98.9105 85.2504 98.8119 85.6985 98.7133 86.1465C98.6303 86.5235 98.5809 87.0019 98.88 87.221C99.4265 87.6216 100.106 86.0058 100.324 85.6023Z" fill="#FFE3CA"/>
<path d="M88.0492 85.6023C87.8489 85.232 87.6832 84.8112 87.739 84.3875C87.7945 83.9639 88.1456 83.5614 88.5434 83.6102C88.7888 83.6404 88.9965 83.8309 89.1229 84.0575C89.2493 84.2841 89.3075 84.5455 89.3641 84.8024C89.4627 85.2504 89.5613 85.6985 89.6599 86.1465C89.7428 86.5235 89.7922 87.0019 89.4933 87.221C88.9466 87.6216 88.2673 86.0058 88.0492 85.6023Z" fill="#FFE3CA"/>
</g>
<defs>
<clipPath id="clip0_124_1877">
<rect width="200" height="200" fill="white"/>
</clipPath>
</defs>
</svg>
