<svg width="200" height="200" viewBox="0 0 200 200" fill="none" xmlns="http://www.w3.org/2000/svg">
<path opacity="0.1" d="M181.683 51.0922C172.88 47.4696 163.551 45.8149 154.849 41.8345C145.853 37.7327 142.384 31.5736 135.529 24.2964C123.128 11.1292 102.025 13.6593 86.8252 21.3447C84.3781 22.5842 82.0845 23.9514 80.008 25.4145C72.7372 30.5194 66.8912 37.9499 59.7482 43.0676C53.0014 47.9041 44.7658 49.0797 37.0478 49.8917C23.5988 51.2967 -4.46204 64.8102 0.604498 89.8491C2.44455 98.9599 8.94928 105.15 12.2716 113.399C15.8175 122.177 15.4406 133.128 21.0821 140.737C23.5611 144.079 26.9786 146.29 30.4926 147.964C53.8831 159.1 80.1422 158.583 104.945 157.355C124.514 156.391 155.949 161.508 173.142 149.006C181.677 142.795 177.236 125.826 183.146 116.709C188.111 109.048 194.865 104.02 198.18 94.43C203.828 78.1117 195.778 56.8801 181.683 51.0922ZM158.293 103.93V122.847L141.362 132.987L125.038 123.212L124.762 123.397L118.999 126.911V144.091L102.068 154.231L85.1372 144.091V125.901L80.7734 123.461L80.1281 123.359L64.0532 132.987L47.1221 122.847V103.93L64.0532 93.5343L78.7417 102.549L85.1372 99.0289V80.7689L102.068 70.3732L118.666 80.5638L124.046 77.6057L124.43 77.2351V59.5054L117.856 55.7927L102.068 65.2422L85.8202 55.518L85.4247 55.6841L80.2042 58.7259L80.9843 59.2051V78.1225L64.0532 88.262L47.1221 78.1225V77.9948L28.4411 88.8134L27.8022 87.7138L47.1228 76.5266V59.2064L64.0538 48.8107L78.966 57.9663H78.9723L84.8957 54.5162L85.1384 54.4146V36.1865L102.07 25.7908L119.001 36.1865V54.9768L125.447 58.5803L141.362 48.8113L158.293 59.207V78.1245L141.362 88.2639L124.98 78.4567L124.737 78.6861L119.001 81.8423V99.687L102.07 109.826L85.8412 100.109L79.9959 103.322L80.9862 103.929V122.202L81.197 122.234L85.7646 124.79L102.07 114.778L119.001 125.174V125.416L124.099 122.305L124.432 122.081V103.93L141.363 93.5343L154.793 101.783L165.309 96.026L166.613 96.4797L155.994 102.517L158.293 103.93Z" fill="#FFD049"/>
<path d="M47.1228 76.5269V77.9963L28.4412 88.8137L27.8022 87.7141L47.1228 76.5269Z" fill="#79CFCD"/>
<path d="M85.8218 55.5195L85.4256 55.6856L80.2058 58.7274L78.9727 57.9665L84.8953 54.5164L85.1381 54.4148V55.1112L85.8218 55.5195Z" fill="#79CFCD"/>
<path d="M85.8406 100.109L79.9946 103.323L78.7423 102.55L85.1378 99.0298V99.6872L85.8406 100.109Z" fill="#79CFCD"/>
<path d="M167.25 95.8413L155.993 102.518L154.792 101.783L165.947 95.3877L167.25 95.8413Z" fill="#79CFCD"/>
<path opacity="0.8" d="M64.0537 68.6485V88.263L47.1227 78.1235V59.2061L62.3095 67.678L63.6001 68.3999H63.6065L64.0537 68.6485Z" fill="#FFD049"/>
<path d="M80.9849 59.2061V78.1235L64.0538 88.263V68.6485L80.9849 59.2061Z" fill="#FFD049"/>
<path opacity="0.6" d="M80.9848 59.2062L64.0537 68.6486L63.6065 68.4001H63.6001L62.3095 67.6781L47.1227 59.2062L64.0537 48.8105L78.9659 57.9661H78.9722L80.2053 58.727L80.9848 59.2062Z" fill="#FFD049"/>
<path opacity="0.8" d="M141.362 68.6485V88.263L124.98 78.4564L124.431 78.1235V59.2061L128.807 61.646L128.814 61.6531L141.362 68.6485Z" fill="#FFD049"/>
<path d="M158.293 59.2061V78.1235L141.362 88.263V68.6485L158.293 59.2061Z" fill="#FFD049"/>
<path opacity="0.6" d="M158.293 59.2062L141.362 68.6486L128.814 61.6532L128.807 61.6462L124.431 59.2062L125.447 58.5794L141.362 48.8105L158.293 59.2062Z" fill="#FFD049"/>
<path opacity="0.8" d="M64.0537 113.373V132.987L47.1227 122.848V103.93L64.0537 113.373Z" fill="#FFD049"/>
<path d="M80.9849 103.93V122.848L80.1288 123.359L64.0538 132.987V113.373L77.7904 105.713L79.0682 104.997L80.9849 103.93Z" fill="#FFD049"/>
<path opacity="0.6" d="M80.9848 103.93L79.0681 104.997L77.7903 105.713L64.0537 113.373L47.1227 103.93L64.0537 93.5347L78.7422 102.55L79.9945 103.323L80.9848 103.93Z" fill="#FFD049"/>
<path opacity="0.8" d="M141.362 113.373V132.987L125.038 123.212L124.431 122.848V103.93L139.234 112.185L140.486 112.881L141.362 113.373Z" fill="#FFD049"/>
<path d="M158.293 103.93V122.848L141.362 132.987V113.373L158.293 103.93Z" fill="#FFD049"/>
<path opacity="0.6" d="M158.293 103.93L141.362 113.373L140.486 112.881L139.234 112.185L124.431 103.93L141.362 93.5347L154.792 101.784L155.993 102.518L158.293 103.93Z" fill="#FFD049"/>
<path opacity="0.8" d="M102.069 45.6298V65.2437L85.8214 55.5195L85.1378 55.1112V36.1868L102.069 45.6298Z" fill="#FFD049"/>
<path d="M125.447 58.5801L124.431 59.2069V59.5072L117.856 55.7945L119 55.1115V54.9773L125.447 58.5801Z" fill="#79CFCD"/>
<path d="M119 36.1868V55.1112L117.856 55.7942L102.069 65.2437V45.6298L119 36.1868Z" fill="#FFD049"/>
<path opacity="0.6" d="M119 36.1869L102.069 45.63L85.1378 36.1869L102.069 25.7913L119 36.1869Z" fill="#FFD049"/>
<path opacity="0.8" d="M102.069 90.2115V109.826L85.8406 100.108L85.1378 99.6865V80.769L101.615 89.9565L102.069 90.2115Z" fill="#FFD049"/>
<path d="M119 80.769V99.6865L102.069 109.826V90.2115L119 80.769Z" fill="#FFD049"/>
<path d="M124.98 78.4564L124.737 78.6858L119 81.8426V80.7692L118.668 80.5648L124.047 77.6067L124.431 77.2361V78.1235L124.98 78.4564Z" fill="#79CFCD"/>
<path opacity="0.6" d="M119 80.7695L102.069 90.2119L101.615 89.957L85.1378 80.7695L102.069 70.3738L118.668 80.565L119 80.7695Z" fill="#FFD049"/>
<path opacity="0.8" d="M102.069 134.616V154.231L85.1379 144.091V125.174L90.3834 128.1L90.4025 128.106L102.069 134.616Z" fill="#FFD049"/>
<path d="M125.038 123.212L124.763 123.398L119 126.912V125.417L124.099 122.305L124.431 122.081V122.848L125.038 123.212Z" fill="#79CFCD"/>
<path d="M119 125.174V144.091L102.069 154.231V134.616L104.631 133.186L106.113 132.362L119 125.174Z" fill="#FFD049"/>
<path d="M85.7643 124.79L85.1382 125.174V125.902L80.7745 123.461L80.1292 123.359L80.9853 122.847V122.202L81.1961 122.234L85.7643 124.79Z" fill="#79CFCD"/>
<path opacity="0.6" d="M119 125.174L106.113 132.362L104.631 133.186L102.069 134.616L90.4025 128.107L90.3834 128.1L85.1379 125.174L85.7641 124.79L102.069 114.778L119 125.174Z" fill="#FFD049"/>
<path d="M29.8787 91.6177C32.4369 91.6177 34.5107 89.5438 34.5107 86.9856C34.5107 84.4274 32.4369 82.3535 29.8787 82.3535C27.3204 82.3535 25.2466 84.4274 25.2466 86.9856C25.2466 89.5438 27.3204 91.6177 29.8787 91.6177Z" fill="#79CFCD"/>
<path d="M165.125 100.732C167.683 100.732 169.757 98.6578 169.757 96.0996C169.757 93.5414 167.683 91.4675 165.125 91.4675C162.567 91.4675 160.493 93.5414 160.493 96.0996C160.493 98.6578 162.567 100.732 165.125 100.732Z" fill="#79CFCD"/>
<path d="M19.1749 92.7528C19.1749 92.7528 10.3011 91.4986 9.6405 112.31C9.30954 116.274 9.6405 118.125 9.6405 118.125L15.4386 117.73C15.4386 117.73 16.3701 92.4225 19.1749 92.7528Z" fill="#5B5433"/>
<path d="M35.4231 180.917C35.4231 180.917 37.566 183.804 37.2734 184.261C36.9788 184.718 34.7248 184.783 33.3524 184.261C31.9807 183.738 31.9481 180.356 31.3277 178.903C31.067 178.295 31.6235 176.499 32.4062 176.368C33.1875 176.239 34.0379 176.621 34.0379 176.621C34.0379 176.621 33.2259 178.668 35.4231 180.917Z" fill="#79CFCD"/>
<path d="M34.0516 176.598C34.0516 176.598 34.5014 177.826 34.6669 178.999C34.8036 179.972 36.1945 182.039 36.1287 182.301C36.0636 182.561 34.2995 182.799 33.5808 182.124C32.862 181.451 32.3988 179.492 32.241 178.319C32.0934 177.228 31.9075 176.688 31.9075 176.688C31.9075 176.688 33.3648 175.879 34.0516 176.598Z" fill="#EEBEA7"/>
<path d="M16.7658 180.965C16.7658 180.965 18.832 183.803 18.5375 184.261C18.2429 184.718 15.9901 184.783 14.6178 184.261C13.2454 183.737 13.2122 180.356 12.5918 178.903C12.3317 178.294 12.8889 176.498 13.6703 176.367C14.4523 176.238 15.3685 176.647 15.3685 176.647C15.3685 176.647 14.5686 178.715 16.7658 180.965Z" fill="#79CFCD"/>
<path d="M15.3685 176.648C15.3685 176.648 15.5321 177.987 15.794 178.935C16.0547 179.882 17.459 182.038 17.3945 182.301C17.3287 182.561 15.5653 182.798 14.8459 182.124C14.1278 181.451 13.5719 179.501 13.5067 178.319C13.4409 177.138 13.6703 176.368 13.6703 176.368C13.6703 176.368 14.683 175.929 15.3685 176.648Z" fill="#EEBEA7"/>
<path d="M31.2699 178.649V181.671H31.6616V179.335L31.2699 178.649Z" fill="#79CFCD"/>
<path d="M12.5344 178.649V181.671H12.9261V179.335L12.5344 178.649Z" fill="#79CFCD"/>
<path d="M23.3101 107.515C23.3101 107.515 24.9961 108.044 25.9577 109.366C26.9205 110.689 27.0707 112.537 27.1141 113.483C27.1576 114.429 27.415 118.081 27.415 118.081L24.5572 118.883L23.3101 107.515Z" fill="#FFD049"/>
<path d="M25.6943 129.668C25.6943 129.668 27.5324 138.226 27.9554 140.38C28.3777 142.534 29.5603 152.968 29.6875 154.743C29.8146 156.516 31.6067 163.201 31.5224 163.836C31.4381 164.468 34.1796 177.197 34.1796 177.197C34.1796 177.197 33.2436 177.952 32.2559 177.265C31.7479 176.912 26.2393 165.349 26.2393 162.181C26.2393 157.802 23.0013 152.084 22.5828 151.105C18.7014 142.002 19.4656 139.219 18.9583 138.628C18.451 138.038 18.4075 138.994 18.1117 140.303C17.8159 141.613 17.1827 152.934 16.8026 154.371C16.4224 155.806 16.7176 160.665 16.5068 163.116C16.2953 165.566 15.3676 176.648 15.3676 176.648C15.3676 176.648 14.6488 177.774 13.6419 176.678C13.4253 176.442 11.9022 164.332 11.86 161.417C11.8178 158.503 11.7731 154.483 11.6913 153.222C10.908 141.144 8.98491 139.418 12.014 130.869C17.6875 114.863 25.6943 129.668 25.6943 129.668Z" fill="#5B5433"/>
<path d="M20.3749 106.437C20.3749 106.437 22.6398 107.381 23.31 107.516C23.9803 107.65 26.2465 110.996 26.7026 112.229C27.1588 113.462 26.7026 115.313 25.7641 117.485C24.8249 119.657 25.7098 120.381 25.2817 122.553C24.8524 124.725 26.2375 129.355 26.3174 130.563C26.3972 131.77 13.7117 131.964 11.2187 129.766C11.2187 129.766 13.7239 126.012 14.0459 125.476C14.3679 124.939 14.1008 122.016 13.8056 121.265C13.5105 120.515 11.5471 114.131 11.5471 114.131C11.5471 114.131 9.9409 109.227 11.3919 108.101C12.6524 107.122 16.0865 106.773 16.7031 106.558C17.3203 106.343 19.1137 106.25 20.3749 106.437Z" fill="#FFD049"/>
<path d="M21.295 104.209C21.295 104.209 21.2432 104.693 21.18 105.362C21.1532 105.659 21.1225 105.992 21.0956 106.335C21.0171 107.311 20.9525 108.366 20.9902 108.904C20.9902 108.904 18.9841 110.914 16.7025 106.558C16.7025 106.558 17.6628 104.761 16.9396 102.314C16.2176 99.8676 21.295 104.209 21.295 104.209Z" fill="#EEBEA7"/>
<path d="M21.9801 93.0814C21.9801 93.0814 26.4786 94.4941 24.0373 102.257C21.5954 110.02 15.4517 101.358 16.0944 96.6274C16.7365 91.8988 21.9801 93.0814 21.9801 93.0814Z" fill="#EEBEA7"/>
<path d="M24.4956 97.6117C24.4956 97.6117 22.2601 99.805 18.5199 100.079C18.5199 100.079 17.0823 101.765 16.9712 102.426C16.9712 102.426 13.0579 95.8898 17.7372 93.3278C22.6952 90.6131 26.0041 96.2067 24.4956 97.6117Z" fill="#5B5433"/>
<path d="M18.4916 100.034C18.4628 99.4696 18.1146 98.1835 17.2751 98.5432C16.4362 98.9029 17.3269 101.522 17.884 101.361C17.884 101.361 18.56 101.372 18.4916 100.034Z" fill="#EEBEA7"/>
<path d="M21.1805 105.362C21.1537 105.659 21.123 105.992 21.0962 106.335H21.0955C18.4945 105.052 18.0965 103.199 18.0844 103.143C19.9378 105.537 21.1805 105.362 21.1805 105.362Z" fill="#A77860"/>
<path d="M26.9372 113.43C26.9372 113.43 27.0598 116.163 26.4471 117.73L25.8843 117.437C25.8843 117.438 26.9263 114.703 26.9372 113.43Z" fill="#312D1B"/>
<path d="M17.1798 122.317C17.1798 122.317 18.2181 121.629 18.381 121.528C18.542 121.429 19.1093 121.461 19.6933 121.646C20.2607 121.824 20.8989 122.072 21.0759 122.171C21.1679 122.222 21.2593 122.24 21.2197 122.507C21.18 122.775 20.9992 122.979 20.9992 122.979C20.9992 122.979 21.1047 123.333 20.8631 123.568C20.8631 123.568 20.9475 123.906 20.6287 124.128C20.6287 124.128 20.7021 124.46 20.4568 124.602C20.4568 124.602 19.9259 124.674 19.7259 124.631C19.4416 124.571 17.9567 124.23 16.9153 123.955C16.9153 123.956 16.4841 123.699 17.1798 122.317Z" fill="#EEA886"/>
<path d="M20.7608 122.086C20.7608 122.086 23.4519 122.677 23.418 122.885C23.3701 123.189 22.7038 123.299 20.6605 122.737C18.6742 122.19 20.7608 122.086 20.7608 122.086Z" fill="#EEA886"/>
<path d="M14.1303 107.647C13.5201 107.278 11.4826 107.318 10.6866 109.231C9.89048 111.143 9.24007 113.32 8.68231 114.32C8.1239 115.318 6.22762 119.881 6.7905 120.429C7.35402 120.976 8.51108 121.629 10.2534 122.038C12.0513 122.462 17.2667 124.405 17.2667 124.405L17.9337 121.58C17.9337 121.58 15.64 120.486 14.3162 119.955C13.1381 119.483 13.2837 119.358 11.3414 118.671C11.3414 118.671 12.457 115.831 12.9579 115.07C13.4594 114.313 16.8763 109.309 14.1303 107.647Z" fill="#FFD049"/>
<path d="M21.2311 127.129L28.2099 126.565C28.5242 126.541 28.8079 126.367 28.9728 126.1L36.2058 114.366C36.6103 113.711 36.1439 112.866 35.374 112.858L27.8962 112.779C27.5295 112.775 27.1908 112.974 27.0164 113.296L20.2817 125.671C19.9066 126.362 20.4472 127.193 21.2311 127.129Z" fill="#D3D3D3"/>
<path d="M31.003 122.816C31.003 122.816 31.4419 122.408 31.8329 121.838C32.2239 121.268 33.5043 119.089 33.3867 118.951C33.2698 118.815 31.3704 118.769 31.0266 119.078C30.6823 119.388 31.3659 119.51 31.3659 119.51C31.3659 119.51 30.3264 119.616 30.4005 119.91C30.4752 120.204 31.1001 120.122 31.1001 120.122C31.1001 120.122 30.2644 120.283 30.3922 120.54C30.5174 120.797 30.9193 120.794 30.9193 120.794C30.9193 120.794 30.1794 120.887 30.2702 121.168C30.3628 121.449 31.5346 121.715 31.3774 121.949C31.2208 122.183 31.003 122.816 31.003 122.816Z" fill="#EEA886"/>
<path d="M16.3708 106.639C16.3708 106.639 18.8907 110.743 20.8898 110.694C22.8877 110.646 21.5243 106.9 21.5243 106.9C21.5243 106.9 19.9903 105.673 16.3708 106.639Z" fill="#EEBEA7"/>
<path d="M27.4516 120.812C27.9015 121.261 28.8135 121.079 29.4885 120.403C30.1636 119.728 30.3461 118.816 29.8962 118.366C29.4463 117.916 28.5343 118.099 27.8592 118.774C27.1842 119.45 27.0016 120.362 27.4516 120.812Z" fill="#F7F7F7"/>
<path d="M191.733 178.312C191.733 178.312 192.765 179.047 193.336 179.564C193.908 180.079 194.685 180.64 195.16 181.957C195.643 183.289 196.146 184.25 194.856 184.329C193.566 184.408 190.327 183.429 190.133 182.248C189.943 181.079 188.429 181.217 188.231 180.385C188.033 179.553 188.297 178.529 188.297 178.529L191.733 178.312Z" fill="#5B5433"/>
<path d="M191.561 177.343L191.733 178.311C191.733 178.311 191.202 179.293 188.299 178.529L188.447 177.576L191.561 177.343Z" fill="#EEA886"/>
<path d="M173.204 178.312C173.204 178.312 172.172 179.047 171.6 179.564C171.029 180.079 170.252 180.64 169.776 181.957C169.293 183.289 168.763 184.167 170.053 184.246C171.343 184.325 174.61 183.429 174.803 182.248C174.994 181.079 176.509 181.217 176.706 180.385C176.904 179.553 176.64 178.529 176.64 178.529L173.204 178.312Z" fill="#5B5433"/>
<path d="M173.377 177.343L173.204 178.311C173.204 178.311 173.735 179.293 176.639 178.529L176.489 177.576L173.377 177.343Z" fill="#EEA886"/>
<path d="M172.137 154.802C172.137 156.927 172.979 177.138 172.979 177.138C173.191 177.846 176.069 177.811 176.777 177.457C177.486 177.102 177.363 157.219 177.494 155.077C177.624 152.934 179.345 137.168 179.966 137.239C180.589 137.309 184.101 152.16 184.596 153.79C185.092 155.419 187.95 177.445 187.95 177.445C190.373 178.286 191.944 177.445 191.944 177.445C191.944 177.445 191.018 155.241 191.017 152.605C191.016 151.626 190.727 150.885 190.45 145.683C190.239 141.718 189.136 133.593 188.397 128.001C188.37 127.801 188.346 127.611 188.321 127.428C188.176 126.34 188.068 125.54 188.015 125.157C187.993 124.99 187.98 124.903 187.98 124.903C187.781 124.811 187.574 124.728 187.356 124.649C182.167 122.785 172.161 124.758 172.161 124.758C172.161 124.758 172.155 124.808 172.143 124.9C172.13 125.014 172.11 125.19 172.083 125.417C172.025 125.91 171.94 126.644 171.841 127.496C171.841 127.503 171.839 127.509 171.839 127.515C171.836 127.54 171.832 127.567 171.829 127.593C171.48 130.624 171.031 131.795 171.034 135.526C171.036 136.237 172.137 152.677 172.137 154.802Z" fill="#D3D3D3"/>
<path d="M163.58 117.045C164.12 118.637 168.983 118.241 172.722 117.563C172.731 117.563 172.739 117.561 172.747 117.56C172.741 117.971 172.726 118.389 172.705 118.8C172.626 120.305 172.459 121.702 172.377 122.194C172.272 122.824 171.614 127.894 171.427 130.041C171.383 130.547 179.385 131.377 182.469 131.209C186.385 130.996 188.665 130.015 188.665 130.015C188.665 130.015 187.372 120.49 187.342 119.565C187.337 119.427 187.348 119.186 187.372 118.873C189.065 118.666 191.022 118.384 192.151 118.08C197.075 116.749 196.571 114.258 196.536 113.943C196.44 113.087 195.025 109.496 193.569 106.655C192.141 103.869 191.131 100.587 188.744 99.9916C187.46 99.6708 182.723 98.0953 182.723 98.0953L177.515 98.0557C177.515 98.0557 174.16 98.8875 172.845 99.545C171.53 100.202 168.958 99.9737 167.822 103.606C167.613 104.275 163.02 115.399 163.58 117.045ZM187.725 115.711C187.943 114.127 188.219 112.564 188.45 112.07C188.929 111.054 189.258 108.276 189.258 108.276C189.258 108.276 191.724 112.103 192.087 112.959C192.418 113.74 191.673 114.155 190.392 114.791C189.96 115.006 188.885 115.358 187.725 115.711ZM168.645 112.529C168.896 111.863 170.894 108.018 170.894 108.018C170.894 108.018 171.845 112.015 172.381 114.228C170.822 114.306 169.262 114.339 168.588 114.212C168.062 114.112 168.199 113.717 168.645 112.529Z" fill="#5B5433"/>
<path d="M177.115 98.162L177.144 98.1543C177.18 98.1422 180.652 97.01 182.802 98.0483L182.829 98.0604L179.663 103.129L177.115 98.162ZM182.754 98.0828C180.724 97.125 177.527 98.0872 177.189 98.1939L182.754 98.0828Z" fill="#79CFCD"/>
<path d="M180.752 84.9038C180.752 84.9038 184.842 85.5484 184.22 91.9458C183.596 98.3445 179.987 97.8193 179.746 97.8123C179.505 97.8065 176.123 97.9305 175.859 90.1179C175.858 90.1179 175.743 84.3434 180.752 84.9038Z" fill="#F1B99E"/>
<path d="M182.661 94.7094C182.661 94.7094 182.537 97.4867 182.791 98.0554C183.045 98.6259 179.367 100.217 177.152 98.1768C177.152 98.1768 177.75 95.4103 177.601 94.3963C177.453 93.3824 182.661 94.7094 182.661 94.7094Z" fill="#F1B99E"/>
<path d="M184.282 90.1396C184.282 90.1396 184.73 89.6617 184.894 90.1447C185.058 90.629 184.282 92.7885 184.256 92.8888C184.256 92.8888 184.173 93.0773 184.066 92.9751C183.958 92.8709 184.282 90.1396 184.282 90.1396Z" fill="#EEA886"/>
<path d="M175.969 90.0573C175.969 90.0573 175.53 89.5705 175.357 90.0528C175.183 90.5333 175.909 92.7062 175.942 92.8091C175.942 92.8091 176.02 92.9982 176.129 92.8966C176.24 92.7957 175.969 90.0573 175.969 90.0573Z" fill="#EEA886"/>
<path d="M184.28 91.1206L183.695 91.9032C183.695 91.9032 183.711 90.1871 183.618 89.9194C183.523 89.6498 183.38 88.8282 183.301 88.6333C183.223 88.4397 181.57 92.6706 175.859 90.1181C175.859 90.1181 176.89 90.1482 176.6 90.2581C176.309 90.3679 176.451 92.2674 176.451 92.2674L175.971 91.725C175.971 91.725 175.234 86.8022 175.416 86.2885C175.598 85.7768 176.177 82.6915 182.4 84.5232C182.4 84.5232 184.574 84.6178 184.728 85.4509C184.917 86.4847 184.28 91.1206 184.28 91.1206Z" fill="#FFD049"/>
<path d="M177.593 96.646C177.593 96.646 178.514 97.8254 179.972 97.8254C180.931 97.8254 181.685 97.4913 182.641 96.561C182.641 96.561 182.158 98.394 179.979 98.5582C179.979 98.5582 178.314 98.6643 177.593 96.646Z" fill="#A77860"/>
<path d="M176.333 114.212C176.333 114.212 176.712 114.228 177.141 113.8C177.57 113.372 178.92 113.356 179.283 113.8C179.645 114.245 179.762 115.729 179.762 115.729C179.762 115.729 176.959 116.323 176.334 116.304C175.707 116.289 176.333 114.212 176.333 114.212Z" fill="#EEA886"/>
<path d="M183.029 115.992C183.029 115.992 182.297 114.719 182.178 114.365C182.057 114.013 181.133 114.109 181.525 114.921C181.916 115.734 182.173 116.247 182.173 116.247L183.029 115.992Z" fill="#EEA886"/>
<path d="M181.593 117.583H178.872C178.523 117.583 178.235 117.312 178.218 116.964L177.902 111.018C177.882 110.644 178.177 110.332 178.55 110.328L181.809 110.302C182.182 110.298 182.483 110.608 182.468 110.981L182.248 116.954C182.236 117.305 181.947 117.583 181.593 117.583Z" fill="white"/>
<path d="M183.157 116.315C183.157 116.315 183.184 115.755 182.093 115.288C180.642 114.667 178.717 114.053 178.399 114.247C177.943 114.522 178.199 114.867 179.109 115.126C180.02 115.386 180.321 115.469 180.321 115.469C180.321 115.469 178.555 115.373 178.169 115.6C177.783 115.826 177.782 116.313 178.073 116.38C178.364 116.449 179.046 116.47 179.046 116.47C179.046 116.47 178.301 116.529 178.238 116.832C178.192 117.056 178.178 117.373 178.891 117.477C178.891 117.477 178.432 118.027 179.164 118.338C179.897 118.649 181.209 118.908 181.866 118.989C183.233 119.156 185.809 118.709 185.809 118.709L184.946 116.784C184.946 116.784 184.214 117.003 183.72 116.808C183.079 116.557 183.157 116.315 183.157 116.315Z" fill="#EEA886"/>
</svg>
