<svg width="200" height="200" viewBox="0 0 200 200" fill="none" xmlns="http://www.w3.org/2000/svg">
<path d="M148.493 17.6781C148.54 16.8851 149.912 15.2697 149.703 15.0675C149.552 14.9221 149.018 15.4212 148.73 15.7135C148.696 15.7476 148.645 15.7588 148.601 15.7425C148.556 15.726 148.525 15.6852 148.521 15.6374C148.458 14.8581 148.263 12.6775 148.046 12.6571C147.825 12.6364 147.715 14.0158 147.684 14.4789C147.683 14.4929 147.672 14.5043 147.658 14.5063C147.644 14.5083 147.631 14.4999 147.626 14.4867C147.457 13.9965 146.885 12.415 146.64 12.618C146.406 12.8112 146.769 14.3259 146.918 14.909C146.922 14.9232 146.915 14.9383 146.901 14.9439C146.887 14.9495 146.871 14.9439 146.864 14.9311C146.569 14.409 145.79 13.085 145.58 13.2541C145.366 13.4267 145.969 14.8614 146.192 15.3706C146.198 15.3841 146.193 15.3994 146.181 15.4075C146.169 15.4154 146.153 15.4131 146.143 15.4022C145.806 15.0214 144.923 14.0508 144.928 14.336C144.934 14.6886 146.485 17.6205 146.993 18.1113C147.501 18.6017 148.493 17.6781 148.493 17.6781Z" fill="#FA968C"/>
<path d="M162.414 27.492C161.363 29.8207 159.85 32.4657 158.021 34.2811C154.463 37.803 149.896 36.8827 148.302 28.6466C148.025 27.4053 147.832 26.1699 147.669 24.9365C147.337 22.4727 147.209 20.0162 147.096 17.5672C147.079 17.1964 147.365 16.8821 147.736 16.8648C148.072 16.8491 148.361 17.0826 148.426 17.4022L148.429 17.4159C148.911 19.7933 149.396 22.1662 150.017 24.4745C150.337 25.6244 150.669 26.765 151.054 27.8645C151.389 28.9055 152.734 32.1402 153.78 32.457C153.814 32.4512 153.849 32.4962 153.869 32.4769C153.888 32.459 153.897 32.4576 153.91 32.468C153.929 32.4422 153.943 32.4308 153.96 32.4341C154.017 32.388 154.085 32.3799 154.208 32.2792C154.436 32.1299 154.748 31.8349 155.044 31.4672C155.652 30.7477 156.217 29.797 156.714 28.8102C157.576 27.1363 158.076 25.9328 158.076 25.9328C159.138 23.021 163.543 24.4152 162.48 27.3309C162.46 27.3838 162.437 27.4411 162.414 27.492Z" fill="#FA968C"/>
<path d="M155.355 30.6262C155.359 30.6203 155.363 30.615 155.367 30.6091C155.904 29.8228 156.402 29.0013 156.862 28.1591C157.317 27.3369 157.781 26.4234 158.106 25.646L158.122 25.6072C158.148 25.5451 158.177 25.4836 158.209 25.4229C158.813 24.2759 160.232 23.8352 161.38 24.4392C162.527 25.0432 162.967 26.4625 162.363 27.6099C161.797 28.6859 161.249 29.5659 160.622 30.492C160.198 31.1032 159.748 31.696 159.283 32.2802C158.937 31.9108 156.181 30.9226 155.355 30.6262Z" fill="#79CFCD"/>
<path d="M157.654 46.9296C159.696 49.2729 171.485 50.251 171.485 50.251C172.355 49.2413 171.083 44.6514 170.776 39.9929C170.445 34.9556 170.254 29.3958 170.166 26.3918C170.13 25.1519 169.115 24.1685 167.875 24.1685H160.394C159.241 24.1685 158.281 25.0482 158.186 26.1974C157.99 28.5759 157.648 32.7102 157.311 36.7629C156.969 40.8754 155.888 44.904 157.654 46.9296Z" fill="#FAB9AF"/>
<path d="M164.454 86.0915L164.437 90.728L164.84 92.9863C164.91 93.3772 164.621 93.739 164.223 93.7511C162.325 93.8092 157.465 93.9376 157.335 93.7267C156.724 92.7382 159.486 92.3577 161.507 91.5755C163.528 90.7934 162.133 83.1199 162.133 83.1199L164.454 86.0915Z" fill="#FA968C"/>
<path d="M161.507 91.5755C161.518 91.5713 161.527 91.564 161.537 91.5596C162.019 91.7397 162.561 91.8451 163.172 91.8451C163.695 91.8451 164.17 91.7693 164.599 91.6353L164.84 92.9863C164.909 93.3772 164.62 93.739 164.223 93.7511C162.325 93.8092 157.465 93.9376 157.334 93.7267C156.724 92.7382 159.486 92.3576 161.507 91.5755Z" fill="#F57A2F"/>
<path d="M157.657 48.6191C157.584 51.8418 158.851 72.2875 161.355 72.3443C163.858 72.4011 166.65 52.0473 166.723 48.8246C166.796 45.6019 164.826 42.9435 162.322 42.8864C159.819 42.8299 157.73 45.3963 157.657 48.6191Z" fill="#0091C8"/>
<path d="M164.813 68.0971C165.061 69.871 165.101 81.2367 164.702 87.0108H162.423C161.199 81.4098 159.891 70.5547 159.648 68.8205C159.645 68.7984 159.644 68.7766 159.641 68.7545C158.279 62.7288 157.603 50.9951 157.657 48.6188C157.73 45.3961 159.819 42.8297 162.322 42.8864C164.826 42.9432 166.796 45.6019 166.723 48.8246C166.677 50.848 164.695 67.2571 164.813 68.0971Z" fill="#5B5433"/>
<path d="M169.924 86.0915L169.907 90.728L170.31 92.9863C170.38 93.3772 170.091 93.739 169.694 93.7511C167.795 93.8092 162.935 93.9376 162.805 93.7267C162.194 92.7382 164.956 92.3577 166.977 91.5755C168.998 90.7934 167.603 83.1199 167.603 83.1199L169.924 86.0915Z" fill="#FA968C"/>
<path d="M166.977 91.5755C166.988 91.5713 166.997 91.564 167.008 91.5596C167.49 91.7397 168.032 91.8451 168.643 91.8451C169.166 91.8451 169.641 91.7693 170.069 91.6353L170.31 92.9863C170.38 93.3772 170.091 93.739 169.694 93.7511C167.796 93.8092 162.936 93.9376 162.805 93.7267C162.194 92.7382 164.956 92.3576 166.977 91.5755Z" fill="#FF8C46"/>
<path d="M163.127 48.6195C163.054 51.8422 164.322 72.288 166.825 72.3448C169.329 72.4015 171.579 51.9728 171.652 48.7501C171.725 45.5274 170.296 42.9439 167.793 42.8872C165.289 42.8304 163.2 45.3968 163.127 48.6195Z" fill="#0091C8"/>
<path d="M170.283 68.0975C170.532 69.8715 170.572 81.2372 170.173 87.0112H167.894C166.67 81.4103 165.361 70.5552 165.119 68.8209C165.115 68.7989 165.114 68.777 165.111 68.7549C163.749 62.7293 162.532 50.9206 162.586 48.5443C162.659 45.3216 165.289 42.8304 167.793 42.8872C170.297 42.9439 171.725 45.5274 171.652 48.7501C171.606 50.7732 170.166 67.2575 170.283 68.0975Z" fill="#5B5433"/>
<path d="M160.323 24.1685H161.538C161.962 25.1483 162.857 25.9052 164.247 25.9052C165.638 25.9052 166.534 25.1483 166.956 24.1685H168.065C169.2 24.1685 170.128 25.0652 170.16 26.1991C170.245 29.1531 170.437 34.8457 170.776 39.9928C171.083 44.6514 172.355 48.9809 171.485 50.2509C171.485 50.2509 159.696 49.2728 157.654 46.9295C155.888 44.9039 156.969 40.8753 157.311 36.7631C157.651 32.6708 157.996 28.4957 158.191 26.1286C158.283 25.0191 159.21 24.1685 160.323 24.1685Z" fill="#79CFCD"/>
<path d="M164.569 21.4455L164.709 21.4766C165.777 21.714 166.835 21.0409 167.073 19.9727L167.708 17.1149L165.634 16.6538L164.569 21.4455Z" fill="#5B5433"/>
<path d="M162.716 24.1687H166.628L165.5 20.269L162.834 20.599L162.716 24.1687Z" fill="#FAB9AF"/>
<path d="M162.834 20.5988L165.5 20.2688L166.025 22.0861C165.429 22.7592 164.543 23.8036 163.573 23.8036C163.265 23.8036 162.985 23.7166 162.733 23.5567L162.834 20.5988Z" fill="#FA968C"/>
<path d="M162.43 22.6716C164.186 23.0623 165.927 21.9552 166.317 20.1989L167.105 16.6566L161.651 15.4438C161.651 15.4438 161.036 18.2091 161.018 20.1639C161.005 21.63 161.535 22.4725 162.43 22.6716Z" fill="#FAB9AF"/>
<path d="M165.957 18.3074L166.982 18.5354L167.086 18.0705L166.061 17.8426L165.957 18.3074Z" fill="#41378C"/>
<path d="M165.541 19.3231C165.387 20.0144 165.594 20.6483 166.002 20.7389C166.41 20.8295 167.062 20.0236 167.215 19.3326C167.369 18.6414 166.967 18.3268 166.559 18.236C166.15 18.1454 165.695 18.6319 165.541 19.3231Z" fill="#FAB9AF"/>
<path d="M160.949 16.816C160.919 16.3465 160.995 15.8765 161.172 15.4405C161.611 14.3587 162.822 13.8931 163.925 14.277C164.037 14.3161 164.157 14.3505 164.283 14.3785L166.124 14.787C167.23 15.0326 167.927 16.1287 167.681 17.2349L167.586 17.6641L166.495 18.2969L166.05 19.0718L165.978 19.0558C165.626 18.9778 165.4 18.6403 165.455 18.2899C165.545 17.7117 165.258 17.1465 164.686 17.0196L163.053 16.6563C162.058 16.4352 161.422 16.854 161.257 17.5981L161.168 18.2388L160.949 16.816Z" fill="#5B5433"/>
<path d="M166.165 37.8364L193.08 187.597" stroke="#79CFCD" stroke-width="2" stroke-miterlimit="10"/>
<path d="M170.701 187.597L143.786 37.8364" stroke="#79CFCD" stroke-width="2" stroke-miterlimit="10"/>
<path d="M145.569 44.5076H167.443" stroke="#79CFCD" stroke-width="2" stroke-miterlimit="10"/>
<path d="M147.024 54.5281H169.203" stroke="#79CFCD" stroke-width="2" stroke-miterlimit="10"/>
<path d="M149.045 64.5488H171.026" stroke="#79CFCD" stroke-width="2" stroke-miterlimit="10"/>
<path d="M151 74.5693H172.85" stroke="#79CFCD" stroke-width="2" stroke-miterlimit="10"/>
<path d="M152.185 84.5898H174.288" stroke="#79CFCD" stroke-width="2" stroke-miterlimit="10"/>
<path d="M153.717 94.4321H176.127" stroke="#79CFCD" stroke-width="2" stroke-miterlimit="10"/>
<path d="M155.964 104.631H178.032" stroke="#79CFCD" stroke-width="2" stroke-miterlimit="10"/>
<path d="M157.766 114.652H179.893" stroke="#79CFCD" stroke-width="2" stroke-miterlimit="10"/>
<path d="M159.546 124.122H181.673" stroke="#79CFCD" stroke-width="2" stroke-miterlimit="10"/>
<path d="M161.059 133.592H183.186" stroke="#79CFCD" stroke-width="2" stroke-miterlimit="10"/>
<path d="M162.798 143.061H184.925" stroke="#79CFCD" stroke-width="2" stroke-miterlimit="10"/>
<path d="M164.487 152.531H186.614" stroke="#79CFCD" stroke-width="2" stroke-miterlimit="10"/>
<path d="M166.133 162H188.26" stroke="#79CFCD" stroke-width="2" stroke-miterlimit="10"/>
<path d="M168.047 171.47H190.175" stroke="#79CFCD" stroke-width="2" stroke-miterlimit="10"/>
<path d="M143.787 37.8364L116.644 187.938" stroke="#79CFCD" stroke-width="2" stroke-miterlimit="10"/>
<path d="M139.022 187.938L166.165 37.8364" stroke="#79CFCD" stroke-width="2" stroke-miterlimit="10"/>
<path d="M164.382 44.5076H142.572" stroke="#79CFCD" stroke-width="2" stroke-miterlimit="10"/>
<path d="M162.928 54.5281H140.749" stroke="#79CFCD" stroke-width="2" stroke-miterlimit="10"/>
<path d="M160.906 64.5488H138.925" stroke="#79CFCD" stroke-width="2" stroke-miterlimit="10"/>
<path d="M158.951 74.5693H137.101" stroke="#79CFCD" stroke-width="2" stroke-miterlimit="10"/>
<path d="M157.381 84.5898H135.278" stroke="#79CFCD" stroke-width="2" stroke-miterlimit="10"/>
<path d="M155.897 94.4321H133.487" stroke="#79CFCD" stroke-width="2" stroke-miterlimit="10"/>
<path d="M153.698 104.631H131.631" stroke="#79CFCD" stroke-width="2" stroke-miterlimit="10"/>
<path d="M152.186 114.652H130.058" stroke="#79CFCD" stroke-width="2" stroke-miterlimit="10"/>
<path d="M150.483 125.893H128.355" stroke="#79CFCD" stroke-width="2" stroke-miterlimit="10"/>
<path d="M147.908 137.134H125.781" stroke="#79CFCD" stroke-width="2" stroke-miterlimit="10"/>
<path d="M145.987 148.374H123.86" stroke="#79CFCD" stroke-width="2" stroke-miterlimit="10"/>
<path d="M144.175 159.615H122.048" stroke="#79CFCD" stroke-width="2" stroke-miterlimit="10"/>
<path d="M141.819 170.965H119.691" stroke="#79CFCD" stroke-width="2" stroke-miterlimit="10"/>
<path d="M166.456 15.5249C166.581 16.5355 162.95 17.8156 161.992 17.9342C161.034 18.0525 160.156 17.3294 160.031 16.3188C159.907 15.3082 160.582 14.3933 161.54 14.275C162.497 14.1564 166.331 14.5143 166.456 15.5249Z" fill="#5B5433"/>
<path d="M116.27 17.0585C115.107 17.264 114.332 18.373 114.537 19.5351L116.513 30.7073L117.254 30.5762C117.938 29.111 119.424 28.0528 121.258 28.0696C122.992 28.0853 124.59 29.1901 125.213 30.8097C126.227 33.448 124.571 36.2071 121.934 36.6732C120.489 36.9288 119.085 36.4335 118.119 35.4702L117.378 35.6014L119.563 47.9601C119.769 49.1225 120.878 49.8982 122.04 49.6926L133.212 47.7173L133.077 46.95C131.611 46.2655 130.553 44.7796 130.57 42.9461C130.586 41.2113 131.691 39.6135 133.31 38.9913C135.949 37.9776 138.707 39.633 139.174 42.2696C139.429 43.7153 138.934 45.1182 137.971 46.0849L138.106 46.8522L150.465 44.6672C151.627 44.4616 152.403 43.3526 152.197 42.1902L147.171 13.7656C146.966 12.6032 145.857 11.8275 144.694 12.033L116.27 17.0585Z" fill="#FFD049"/>
<path d="M170.606 27.9817C169.402 29.6237 167.337 31.7832 164.864 33.6478C157.302 39.1629 149.208 39.7204 142.608 33.4778C142.338 33.2225 142.327 32.7966 142.582 32.5265C142.8 32.2958 143.143 32.2536 143.407 32.4057L143.437 32.4233C147.741 34.9075 151.595 35.9276 156.447 33.8888C162.808 31.1476 167.321 24.5532 166.846 25.1824C167.626 24.1494 169.096 23.9444 170.129 24.7246C171.153 25.4983 171.362 26.9504 170.606 27.9817Z" fill="#FAB9AF"/>
<path d="M163.376 28.9694C164.951 27.5559 166.953 24.7711 166.953 24.7711C166.953 24.7711 167.903 23.649 169.857 24.4671C171.417 25.1206 171.101 26.9639 171.101 26.9639C171.063 27.2206 170.542 30.2616 166.954 32.9507C166.954 32.9507 163.112 29.2065 163.376 28.9694Z" fill="#79CFCD"/>
<path d="M143.885 32.707C143.368 32.1038 143.232 29.989 142.941 29.989C142.732 29.989 142.695 30.7191 142.691 31.1296C142.69 31.1774 142.662 31.2207 142.618 31.24C142.574 31.2596 142.523 31.2515 142.487 31.2199C141.901 30.7031 140.245 29.2706 140.074 29.4071C139.902 29.5455 140.781 30.6139 141.08 30.9682C141.089 30.9789 141.09 30.9948 141.081 31.0057C141.072 31.0169 141.057 31.0202 141.044 31.0138C140.582 30.7795 139.071 30.0396 139.036 30.3561C139.003 30.6573 140.316 31.4948 140.829 31.8096C140.841 31.8175 140.846 31.8334 140.84 31.8468C140.834 31.8602 140.819 31.8675 140.804 31.8633C140.229 31.6933 138.749 31.2822 138.716 31.5499C138.682 31.8225 140.113 32.4352 140.627 32.646C140.641 32.6516 140.648 32.6661 140.645 32.6801C140.641 32.6944 140.628 32.7039 140.614 32.7028C140.107 32.663 138.798 32.5786 138.999 32.7805C139.249 33.0299 142.401 34.0604 143.107 34.0604C143.814 34.0606 143.885 32.707 143.885 32.707Z" fill="#FAB9AF"/>
<path d="M170.438 68.4756H20.8728V159.48H170.438V68.4756Z" fill="#79CFCD"/>
<path d="M162.852 75.291H28.4592V152.664H162.852V75.291Z" fill="#F7F7F7"/>
<path d="M71.6476 94.7573H37.2102V144.1H71.6476V94.7573Z" stroke="#727272" stroke-miterlimit="10"/>
<path d="M113.851 94.7573H79.4136V144.1H113.851V94.7573Z" stroke="#727272" stroke-miterlimit="10"/>
<path d="M156.054 94.7573H121.617V144.1H156.054V94.7573Z" stroke="#727272" stroke-miterlimit="10"/>
<path d="M7.66087 172.854C7.66087 172.854 4.59111 176.387 4.02738 176.95C3.5618 177.414 2.9016 177.583 2.26852 177.761C2.06579 177.818 1.80238 178.026 1.57952 178.201C1.40028 178.342 1.31835 178.561 1.32254 178.789C1.39524 182.766 4.85732 185.554 5.04159 185.321C5.37435 184.901 5.12072 183.736 4.45857 182.968C3.79221 182.195 3.63059 181.105 3.92783 180.128C4.1644 179.351 4.59698 178.648 5.1842 178.088L7.85353 175.589L7.66087 172.854Z" fill="#FA968C"/>
<path d="M39.0413 177.879L41.4833 181.959C42.2299 183.207 42.5045 184.683 42.2576 186.116C42.2576 186.117 42.2576 186.117 42.2576 186.117C42.1181 186.918 42.7195 187.656 43.533 187.676C46.162 187.742 51.2496 187.836 51.3961 187.597C52.1438 186.377 48.9259 185.831 46.3989 184.975C44.6945 184.397 42.5973 179.784 41.268 176.153L39.2751 177.416C39.1218 177.518 39.0329 177.694 39.0413 177.879Z" fill="#FA968C"/>
<path d="M46.3491 186.38C47.4287 186.38 48.5307 186.132 49.5491 185.931C49.6657 185.907 49.7876 185.916 49.8998 185.956C51.0781 186.374 51.7925 186.95 51.396 187.597C51.2366 187.857 45.2521 187.723 42.9147 187.66C42.4259 187.647 42.068 187.203 42.1519 186.722L42.3048 185.844C43.6266 186.181 44.9811 186.38 46.3491 186.38Z" fill="#5B5433"/>
<path d="M30.3037 131.796C27.6041 131.256 24.3792 133.467 23.6832 136.942C23.2833 138.939 22.6944 146.378 22.7781 152.449C22.8102 154.779 21.6917 157.021 19.701 158.232C19.3767 158.429 19.0794 158.647 18.821 158.883C17.4889 160.099 11.2932 167.865 7.40975 173.134C7.28839 173.958 7.41031 175.098 7.87085 175.639C12.8415 171.744 21.27 164.411 22.6872 163.117C23.474 162.398 24.3535 161.556 25.0696 160.728C28.1231 158.682 33.079 143.057 33.7246 139.833C34.4203 136.358 33.0035 132.337 30.3037 131.796Z" fill="#5B5433"/>
<path d="M28.6192 114.684C30.9386 114.684 32.8189 112.258 32.8189 109.266C32.8189 106.274 30.9386 103.848 28.6192 103.848C26.2997 103.848 24.4194 106.274 24.4194 109.266C24.4194 112.258 26.2997 114.684 28.6192 114.684Z" fill="#5B5433"/>
<path d="M27.6113 109.825C27.5445 106.826 25.1168 104.305 22.122 104.134C19.4655 103.982 17.1717 105.61 16.313 107.934C16.0121 108.749 15.2138 109.279 14.3455 109.266C13.9848 109.261 13.614 109.294 13.2365 109.371C11.0417 109.821 9.33798 111.675 9.10673 113.903C8.89812 115.913 9.83879 117.717 11.3505 118.745C11.995 119.184 12.3619 119.911 12.4687 120.684C12.9633 124.258 16.2269 126.883 19.9498 126.476C23.1339 126.128 25.6822 123.507 25.9531 120.316C26.1192 118.358 25.4473 116.562 24.2653 115.229C26.2797 114.277 27.6647 112.212 27.6113 109.825Z" fill="#5B5433"/>
<path opacity="0.4" d="M64.6257 110.582C63.5648 110.355 62.5892 110.807 62.0445 111.583H61.415V105.781C61.415 104.717 60.5526 103.854 59.4887 103.854H52.9957V103.21C53.772 102.665 54.2238 101.689 53.9968 100.629C53.8013 99.715 53.067 98.9667 52.1563 98.7589C50.53 98.3879 49.0868 99.6135 49.0868 101.176C49.0868 102.018 49.5062 102.76 50.1466 103.21V103.854H44.3443C43.2803 103.854 42.418 104.717 42.418 105.781V111.583H42.8494C43.3941 110.807 44.3695 110.355 45.4301 110.582C46.3437 110.777 47.0922 111.511 47.3003 112.422C47.6719 114.048 46.446 115.492 44.8829 115.492C44.0412 115.492 43.2988 115.072 42.8494 114.432H42.418V120.925C42.418 121.989 43.2806 122.851 44.3443 122.851H50.1466V122.404C49.3703 121.86 48.9185 120.884 49.1455 119.823C49.341 118.91 50.075 118.161 50.9858 117.954C52.6121 117.583 54.0552 118.808 54.0552 120.371C54.0552 121.213 53.6358 121.955 52.9954 122.404V122.851H59.4884C60.5524 122.851 61.4147 121.989 61.4147 120.925V114.432H62.0442C62.4935 115.072 63.236 115.492 64.0776 115.492C65.6405 115.492 66.8664 114.048 66.495 112.422C66.2875 111.512 65.5392 110.778 64.6257 110.582Z" fill="#79CFCD"/>
<path d="M28.619 102.071C28.619 102.071 30.9821 103.558 30.6947 105.561C30.6947 105.561 31.9566 104.668 32.2421 101.589C32.4401 99.4559 28.619 102.071 28.619 102.071Z" fill="#5B5433"/>
<path d="M32.9669 114.264C32.9669 114.264 32.966 114.368 32.9641 114.564C32.9632 114.76 32.9655 114.994 32.9795 115.342C33.0105 116.019 33.0994 116.992 33.3505 118.12C33.4797 118.681 33.6514 119.281 33.8924 119.872C34.1337 120.458 34.4425 121.053 34.8323 121.499C35.0246 121.723 35.2355 121.896 35.4351 121.998C35.637 122.098 35.8166 122.139 36.0341 122.109C36.4706 122.067 37.0545 121.646 37.5413 121.105C38.0379 120.561 38.4719 119.895 38.8628 119.216C39.2526 118.533 39.594 117.821 39.9033 117.121C40.5168 115.716 41 114.349 41.3848 113.168C41.7715 111.986 42.0696 110.989 42.2701 110.289C42.4664 109.587 42.5785 109.186 42.5785 109.186L42.5799 109.181C42.6339 108.988 42.8346 108.875 43.0281 108.929C43.2105 108.98 43.3209 109.163 43.2876 109.346C43.2876 109.346 43.211 109.759 43.0771 110.482C43.0052 110.843 42.9233 111.282 42.8153 111.784C42.7102 112.286 42.5897 112.853 42.4376 113.467C42.137 114.697 41.7508 116.127 41.2217 117.641C40.9536 118.397 40.6513 119.175 40.2825 119.952C39.9089 120.728 39.4881 121.51 38.9131 122.251C38.6237 122.62 38.2974 122.981 37.8931 123.302C37.4901 123.62 36.9974 123.908 36.4001 124.034C35.811 124.172 35.1418 124.089 34.6111 123.86C34.0717 123.634 33.6475 123.301 33.3041 122.956C32.6162 122.258 32.1839 121.504 31.8389 120.783C31.498 120.06 31.2583 119.36 31.071 118.709C30.7002 117.406 30.5643 116.292 30.4919 115.511C30.4595 115.13 30.4424 114.79 30.4354 114.594C30.429 114.398 30.4256 114.293 30.4256 114.293C30.4027 113.592 30.9527 113.004 31.6543 112.981C32.3559 112.959 32.9434 113.509 32.9663 114.21C32.9669 114.226 32.9669 114.247 32.9669 114.264Z" fill="#FAB9AF"/>
<path d="M31.264 124.659C32.2095 121.81 34.1115 115.777 33.9487 113.805C33.8444 112.542 32.7891 111.574 31.5213 111.574H23.2969C21.9332 111.574 20.8177 112.656 20.778 114.018C20.7087 116.401 21.8062 121.822 22.4234 124.659H31.264Z" fill="#FAB9AF"/>
<path d="M29.6423 137.523C30.588 140.938 38.278 165.217 35.6247 165.951C32.9713 166.686 18.5299 142.982 18.3457 139.443C18.1706 136.086 20.1163 132.45 22.7696 131.715C25.423 130.98 28.6966 134.108 29.6423 137.523Z" fill="#FAB9AF"/>
<path d="M41.5336 177.12C41.6317 177.005 41.6544 176.842 41.6029 176.7C39.5465 171.009 36.7872 163.799 36.1986 162.437C36.1312 162.282 36.0601 162.13 35.9855 161.982C34.9813 154.784 30.3619 140.12 29.6427 137.523C28.697 134.108 25.4234 130.98 22.77 131.715C20.1166 132.45 18.171 136.086 18.346 139.443C18.4615 141.659 24.162 151.773 29.0613 158.85C30.0926 160.34 30.7405 162.051 31.0556 163.836C31.2735 165.07 31.6222 166.3 32.0111 167.201C32.5902 168.541 35.9886 173.657 39.0245 177.996C39.1123 178.121 39.2599 178.195 39.4126 178.179C40.2176 178.097 40.9788 177.771 41.5336 177.12Z" fill="#5B5433"/>
<path d="M21.4824 128.272C21.908 127.077 22.0358 125.799 21.8571 124.544C21.4421 121.629 20.717 116.138 20.7839 113.807C20.8197 112.561 21.8403 111.575 23.0872 111.575H24.3066C24.7711 112.652 25.7554 113.485 27.2855 113.485C28.8131 113.485 29.7977 112.652 30.263 111.575H31.408C30.1634 114.24 30.6111 117.754 32.7519 119.805C32.354 121.211 32.0196 122.627 31.769 123.774C31.4298 125.328 31.5797 126.946 32.1916 128.414C33.2429 130.937 34.0757 134.983 33.8276 136.586C25.176 139.038 19.1934 134.698 19.1934 134.698L21.4824 128.272Z" fill="#79CFCD"/>
<path d="M28.6189 112.141L24.8878 111.749L26.0684 107.666L28.4816 107.965L28.6189 112.141Z" fill="#FAB9AF"/>
<path d="M28.4817 107.965L26.0685 107.667L25.7 108.941C26.2402 109.55 26.9345 110.866 27.8125 110.866C28.091 110.866 28.3449 110.787 28.5731 110.642L28.4817 107.965Z" fill="#FA968C"/>
<path d="M28.565 109.938C27.7455 109.938 26.8593 109.528 25.6387 108.462C24.938 107.849 24.4185 106.782 24.4185 106.06V102.071H30.561C30.561 102.071 31.0221 104.189 30.5745 106.291C30.2389 107.868 29.2093 109.938 28.565 109.938Z" fill="#FAB9AF"/>
<path d="M25.4599 105.306C25.4599 106.084 25.0872 106.715 24.6278 106.715C24.1681 106.715 23.6614 105.695 23.6614 104.916C23.6614 104.138 24.1683 103.896 24.6278 103.896C25.0872 103.896 25.4599 104.527 25.4599 105.306Z" fill="#FAB9AF"/>
<path d="M23.6614 102.554C23.6614 101.308 24.6717 100.298 25.9174 100.298L27.9906 100.299C28.5834 100.3 29.1586 100.144 29.663 99.8583C30.3945 99.4433 31.3193 99.5814 31.8184 100.258C32.3578 100.99 32.5913 101.97 31.2233 102.877C30.5433 103.328 29.5492 102.829 28.8868 103.045C28.846 103.044 28.8096 103.037 28.7671 103.037H26.9397C26.3047 103.037 25.8187 103.556 25.8005 104.191C25.7888 104.593 25.4597 104.914 25.0556 104.914H24.9745L24.682 103.977L23.6619 105.352V102.554H23.6614Z" fill="#5B5433"/>
<path d="M43.844 106.959C43.844 106.959 44.2732 109.08 43.6692 109.426C43.0655 109.771 42.5969 109.893 42.0608 109.033C41.525 108.172 41.1996 106.737 41.1769 105.838C41.154 104.938 41.7524 103.414 41.9241 103.293C42.5496 102.853 42.4196 104.487 42.3953 105.281C42.3709 106.076 42.4227 106.975 42.808 106.879C43.1936 106.782 43.1256 105.258 43.5308 105.001C43.9363 104.745 43.844 106.959 43.844 106.959Z" fill="#FAB9AF"/>
<path d="M53.0081 121.383C53.0081 121.383 50.8729 121.034 50.5504 121.651C50.228 122.267 50.1246 122.74 51.004 123.243C51.8837 123.746 53.3302 124.016 54.23 124.005C55.1299 123.994 56.6301 123.338 56.7442 123.162C57.1602 122.521 55.5323 122.712 54.7395 122.767C53.9468 122.821 53.0458 122.803 53.1277 122.414C53.2094 122.026 54.7356 122.036 54.9766 121.621C55.2177 121.207 53.0081 121.383 53.0081 121.383Z" fill="#FAB9AF"/>
<path d="M30.1032 102.001C29.8974 102.912 30.201 103.411 27.2135 104.833C24.226 106.256 23.2803 105.648 22.3472 107.18C22.3472 107.18 22.7551 104.643 24.4052 103.772C26.0553 102.901 28.917 102.332 29.8347 100.316C29.835 100.315 30.2441 101.378 30.1032 102.001Z" fill="#5B5433"/>
<path d="M23.6391 114.053C23.6391 114.053 23.6466 114.098 23.6488 114.101C23.6528 114.116 23.6575 114.136 23.6631 114.158C23.6701 114.187 23.6782 114.221 23.6922 114.264C23.7406 114.431 23.83 114.696 23.9883 115.029C24.1463 115.362 24.3731 115.762 24.6879 116.195C25.0003 116.63 25.4125 117.09 25.9102 117.555C26.1535 117.792 26.4392 118.011 26.7273 118.246C27.0329 118.462 27.341 118.696 27.6886 118.901C28.0214 119.125 28.398 119.309 28.7666 119.523C28.9592 119.618 29.1542 119.713 29.3507 119.81C29.5462 119.909 29.7472 120.003 29.9572 120.086C30.1647 120.173 30.3742 120.261 30.585 120.35C30.7992 120.432 31.0193 120.507 31.2385 120.586C31.6736 120.754 32.1336 120.881 32.5922 121.021C33.0499 121.165 33.5286 121.263 34.0006 121.388C34.4769 121.499 34.962 121.592 35.4444 121.697C35.9306 121.786 36.4211 121.86 36.9082 121.942C37.3973 122.015 37.8891 122.066 38.3751 122.129C38.8608 122.195 39.3494 122.217 39.8292 122.263C40.0697 122.282 40.3088 122.301 40.5462 122.32C40.7844 122.332 41.021 122.343 41.2556 122.353C41.7251 122.371 42.1864 122.412 42.6397 122.418C43.0933 122.427 43.5373 122.436 43.9694 122.444C44.8342 122.464 45.6535 122.432 46.4105 122.429C47.168 122.403 47.8623 122.379 48.4778 122.358C49.0946 122.343 49.6301 122.293 50.0728 122.269C50.9584 122.216 51.4645 122.187 51.4645 122.187L51.4745 122.186C51.675 122.174 51.8473 122.327 51.859 122.527C51.8702 122.715 51.7354 122.878 51.5542 122.908C51.5542 122.908 51.0498 122.99 50.1667 123.133C49.7241 123.198 49.1889 123.298 48.5692 123.37C47.9498 123.445 47.2522 123.549 46.4868 123.626C45.7201 123.688 44.8907 123.785 44.0082 123.834C43.5667 123.86 43.1129 123.886 42.6492 123.913C42.1853 123.941 41.7091 123.942 41.2256 123.953C40.9838 123.957 40.7397 123.961 40.4939 123.965C40.2478 123.961 39.9998 123.957 39.7503 123.953C39.2512 123.937 38.7454 123.946 38.235 123.909C37.725 123.876 37.2099 123.855 36.6929 123.811C36.1764 123.757 35.6566 123.711 35.1376 123.65C34.6197 123.571 34.0994 123.508 33.5837 123.416C33.0703 123.307 32.5544 123.225 32.0497 123.093C31.5444 122.965 31.04 122.85 30.55 122.689C30.3043 122.612 30.0587 122.541 29.8171 122.461C29.5772 122.374 29.3387 122.286 29.1024 122.2C28.8647 122.118 28.6326 122.023 28.4047 121.922C28.1763 121.822 27.9498 121.724 27.7258 121.627C27.2865 121.406 26.8531 121.199 26.4502 120.95C26.0383 120.721 25.6582 120.455 25.2866 120.205C24.9273 119.933 24.5755 119.676 24.2623 119.391C23.627 118.836 23.0848 118.264 22.6682 117.695C22.2462 117.132 21.9294 116.593 21.7004 116.126C21.4689 115.659 21.3335 115.258 21.2491 114.967C21.1683 114.698 21.1244 114.432 21.1314 114.469C21.0164 113.777 21.4845 113.122 22.1769 113.007C22.8698 112.893 23.5241 113.361 23.6391 114.053Z" fill="#FAB9AF"/>
<path d="M29.5287 102.17C29.5287 102.17 29.642 105.241 32.3249 106.715C32.3249 106.715 31.1427 104.395 31.2232 102.878C31.3035 101.36 29.3514 101.122 29.5287 102.17Z" fill="#5B5433"/>
<path d="M0.0400042 179.471C-0.0609413 179.22 0.034413 178.934 0.266783 178.795C0.45665 178.682 0.966409 178.368 1.3495 178.132C1.51588 178.03 1.72448 178.139 1.74657 178.333C1.99516 180.531 2.99119 182.521 4.85994 183.471C5.34761 184.122 5.41696 185.234 5.15355 185.566C5.09175 185.644 4.21652 185.355 3.4825 184.514C0.222602 180.78 0.0400042 179.471 0.0400042 179.471Z" fill="#5B5433"/>
<path d="M198.154 168.005C198.025 167.978 197.899 167.952 197.785 167.928C197.479 167.863 197.087 167.871 196.742 167.899C196.161 167.948 195.581 167.842 195.058 167.585L192.896 166.519C191.983 166.07 191.004 167.002 191.41 167.936C191.445 168.016 191.508 168.08 191.588 168.115L194.146 169.249C194.888 169.578 195.541 170.078 196.051 170.709L196.776 171.604C198.319 170.64 198.104 168.898 198.154 168.005Z" fill="#FAB9AF"/>
<path d="M197.216 175.452C197.321 174.224 196.764 172.19 196.501 171.509C197.161 170.296 197.183 168.994 196.783 167.823C197.121 167.795 197.498 167.789 197.796 167.852C198.206 167.939 199.153 168.085 199.543 168.161C199.817 168.214 200.01 168.459 200 168.739C200 168.739 198.775 177.6 198.504 177.431C198.033 177.139 197.127 176.5 197.216 175.452Z" fill="#5B5433"/>
<path d="M150.985 159.238C150.298 161.956 145.465 183.336 146.42 183.356C147.248 183.373 156.045 163.408 156.731 160.69C157.418 157.972 156.688 155.444 155.101 155.043C153.515 154.642 151.671 156.52 150.985 159.238Z" fill="#79CFCD"/>
<path d="M161.57 137.527C159.246 140.36 148.863 158.929 151.063 160.734C153.264 162.54 167.658 147.165 169.982 144.333C172.305 141.501 171.962 137.473 169.762 135.667C167.561 133.862 163.893 134.695 161.57 137.527Z" fill="#79CFCD"/>
<path d="M147.632 186.327C147.64 186.195 147.647 186.067 147.654 185.951C147.673 185.638 147.609 185.251 147.529 184.914C147.396 184.347 147.416 183.757 147.594 183.203L148.331 180.908C148.642 179.939 147.576 179.107 146.712 179.645C146.637 179.691 146.583 179.764 146.56 179.848L145.814 182.544C145.597 183.326 145.198 184.045 144.65 184.643L143.87 185.491C145.05 186.876 146.741 186.408 147.632 186.327Z" fill="#FAB9AF"/>
<path d="M140.129 186.491C141.359 186.414 143.29 185.566 143.924 185.206C145.221 185.68 146.512 185.512 147.612 184.944C147.689 185.275 147.75 185.647 147.732 185.951C147.706 186.369 147.7 187.327 147.682 187.723C147.67 188.003 147.456 188.229 147.178 188.26C147.178 188.26 138.233 188.349 138.36 188.055C138.58 187.546 139.079 186.557 140.129 186.491Z" fill="#5B5433"/>
<path d="M156.731 160.69C156.307 162.37 151.055 175.393 148.231 181.46C147.38 181.135 146.905 181.162 146.037 180.889C147.143 175.191 149.122 162.47 149.774 159.724C150.058 155.899 159.416 140.153 161.57 137.527C163.894 134.695 167.561 133.862 169.762 135.667C171.962 137.473 172.306 141.501 169.982 144.333C168.479 146.165 157.018 159.554 156.731 160.69Z" fill="#5B5433"/>
<path d="M167.997 160.8C167.997 160.8 167.994 160.798 167.994 160.798C167.992 160.794 167.99 160.789 167.988 160.785C167.894 160.606 167.825 160.426 167.774 160.245C166.223 155.652 166.667 138.974 167.17 135.591C167.303 134.691 167.571 133.858 167.932 133.108L172.873 135.797C174.114 137.202 175.58 138.444 177.25 139.452C177.501 139.604 177.165 138.947 177.422 139.082C176.709 143.469 175.781 152.173 175.432 156.526C175.352 157.515 175.913 158.441 176.828 158.825C181.433 160.76 189.647 164.52 194.224 166.99L194.068 169.582C187.387 168.182 174.04 164.213 172.013 163.622C170.1 163.062 168.614 161.964 167.997 160.8Z" fill="#5B5433"/>
<path d="M162.57 118.687C162.57 118.687 162.568 118.716 162.565 118.774C162.563 118.808 162.561 118.85 162.558 118.899C162.554 118.942 162.55 118.992 162.545 119.048C162.525 119.271 162.489 119.586 162.423 119.979C162.36 120.373 162.259 120.843 162.119 121.375C161.982 121.908 161.782 122.496 161.532 123.125C161.274 123.752 160.948 124.413 160.553 125.084C160.144 125.748 159.66 126.417 159.089 127.05C158.948 127.209 158.791 127.357 158.641 127.512L158.412 127.743L158.167 127.959C158.001 128.102 157.838 128.25 157.668 128.39C157.491 128.521 157.314 128.654 157.136 128.787C156.961 128.925 156.771 129.041 156.582 129.159C156.392 129.276 156.207 129.402 156.012 129.51C155.613 129.709 155.227 129.94 154.811 130.099L154.197 130.356C153.989 130.432 153.778 130.497 153.57 130.567C153.361 130.632 153.156 130.714 152.944 130.763C152.733 130.815 152.523 130.867 152.314 130.919C151.899 131.035 151.477 131.088 151.064 131.162C150.653 131.245 150.241 131.267 149.84 131.31C149.639 131.327 149.439 131.355 149.242 131.36C149.045 131.365 148.849 131.37 148.656 131.376C148.27 131.386 147.892 131.403 147.527 131.381C147.161 131.368 146.806 131.355 146.462 131.342C146.121 131.311 145.792 131.28 145.475 131.251C144.842 131.206 144.271 131.1 143.763 131.024C143.51 130.983 143.272 130.951 143.055 130.91C142.838 130.865 142.639 130.824 142.459 130.786C141.741 130.637 141.331 130.552 141.331 130.552C141.128 130.51 140.997 130.311 141.039 130.108C141.079 129.917 141.257 129.79 141.447 129.811L141.466 129.813C141.466 129.813 141.874 129.859 142.588 129.938C142.766 129.958 142.964 129.98 143.178 130.004C143.393 130.025 143.627 130.033 143.875 130.05C144.372 130.079 144.931 130.124 145.541 130.119C145.845 130.122 146.163 130.124 146.491 130.128C146.817 130.112 147.154 130.096 147.501 130.079C147.848 130.073 148.2 130.025 148.56 129.986C148.74 129.966 148.921 129.946 149.105 129.926C149.288 129.907 149.469 129.864 149.653 129.835C150.02 129.766 150.398 129.719 150.765 129.615C151.133 129.519 151.513 129.445 151.876 129.311C152.058 129.251 152.242 129.191 152.426 129.13C152.612 129.074 152.785 128.986 152.965 128.916C153.143 128.84 153.323 128.771 153.499 128.691L154.013 128.427C154.364 128.266 154.674 128.039 155.002 127.849C155.161 127.746 155.309 127.628 155.463 127.52C155.615 127.41 155.769 127.304 155.906 127.177C156.048 127.057 156.188 126.937 156.328 126.818C156.462 126.692 156.588 126.559 156.718 126.433L156.909 126.242L157.085 126.037C157.2 125.9 157.322 125.772 157.429 125.633C157.865 125.08 158.223 124.5 158.534 123.936C158.829 123.361 159.07 122.798 159.256 122.263C159.434 121.725 159.575 121.225 159.672 120.775C159.768 120.325 159.835 119.93 159.872 119.606C159.913 119.282 159.93 119.029 159.937 118.865C159.939 118.824 159.941 118.788 159.942 118.756C159.942 118.732 159.942 118.712 159.943 118.695C159.943 118.652 159.943 118.63 159.943 118.63L159.943 118.608C159.95 117.882 160.543 117.299 161.269 117.305C161.995 117.312 162.578 117.906 162.572 118.631C162.571 118.648 162.57 118.67 162.57 118.687Z" fill="#FA968C"/>
<path d="M155.791 122.537C156.247 121.556 158.018 117.729 158.238 116.797L158.249 116.751C158.267 116.676 158.288 116.602 158.312 116.528C158.777 115.13 160.287 114.373 161.685 114.837C163.083 115.302 163.841 116.811 163.376 118.21C162.941 119.521 162.489 120.61 161.958 121.764C161.596 122.528 161.201 123.277 160.788 124.018C160.332 123.668 155.787 122.544 155.791 122.537Z" fill="#FFD049"/>
<path d="M161.678 140.747C163.885 142.569 173.1 142.199 176.519 141.994C177.379 141.942 178.027 141.163 177.884 140.313C177.521 138.145 176.012 134.412 175.106 130.535C173.8 124.948 172.554 118.749 171.899 115.397C171.629 114.014 170.308 113.099 168.918 113.329L160.529 114.717C159.236 114.931 158.323 116.097 158.43 117.403C158.651 120.106 159.035 124.804 159.408 129.41C159.788 134.085 159.323 138.803 161.678 140.747Z" fill="#FAB9AF"/>
<path d="M160.45 114.729L161.813 114.504C162.469 115.524 163.614 116.207 165.172 115.95C166.732 115.691 167.596 114.677 167.888 113.499L169.132 113.294C170.403 113.083 171.611 113.918 171.858 115.184C172.501 118.481 173.772 124.827 175.106 130.535C176.027 134.474 177.541 138.094 177.881 140.295C178.014 141.158 177.367 141.942 176.496 141.994C173.059 142.201 163.881 142.564 161.678 140.746C159.323 138.802 159.788 134.085 159.408 129.41C159.031 124.758 158.643 120.011 158.423 117.321C158.32 116.061 159.202 114.936 160.45 114.729Z" fill="#FFD049"/>
<path d="M164.905 110.151L165.062 110.106C166.257 109.764 166.948 108.517 166.605 107.321L165.687 104.123L163.366 104.789L164.905 110.151Z" fill="#5B5433"/>
<path d="M163.024 114.733L167.069 114.437L167.212 113.855L164.843 109.601L162.033 110.797L163.024 114.733Z" fill="#FAB9AF"/>
<path d="M162.033 110.797L164.843 109.601L165.794 111.309C165.353 112.232 164.817 113.254 163.757 113.558C163.421 113.655 163.043 113.627 162.718 113.531L162.033 110.797Z" fill="#FA968C"/>
<path d="M163.435 112.537C165.4 111.973 166.536 109.923 165.973 107.957L164.835 103.993L158.731 105.744C158.731 105.744 159.619 108.839 160.663 110.8C161.446 112.271 162.433 112.824 163.435 112.537Z" fill="#FAB9AF"/>
<path d="M164.599 106.28L165.746 105.951L165.597 105.431L164.45 105.76L164.599 106.28Z" fill="#CD5014"/>
<path d="M164.722 107.504C164.944 108.277 165.494 108.798 165.951 108.667C166.408 108.536 166.621 107.378 166.399 106.604C166.177 105.83 165.605 105.734 165.148 105.866C164.691 105.997 164.501 106.73 164.722 107.504Z" fill="#FAB9AF"/>
<path d="M158.776 107.495C158.492 107.043 158.313 106.532 158.252 106C158.252 106 157.72 104.237 158.318 103.701C158.862 103.213 160.052 103.298 160.781 103.251C161.316 103.216 162.841 102.659 162.841 102.659C164.079 102.303 165.37 103.019 165.726 104.256L165.864 104.737L165.118 105.961L165.095 106.976L165.014 106.999C164.621 107.112 164.211 106.898 164.076 106.519C163.852 105.892 163.258 105.484 162.619 105.668L160.79 106.192C159.677 106.512 159.27 107.275 159.509 108.107L159.768 108.795L158.776 107.495Z" fill="#5B5433"/>
<path d="M143.555 116.841L143.184 115.891C143.827 114.923 144.034 113.686 143.656 112.512C142.994 110.455 140.56 109.274 138.536 110.032C136.478 110.803 135.454 113.104 136.251 115.145C136.736 116.385 137.782 117.238 138.984 117.531L139.355 118.481L128.995 122.529C128.092 122.882 127.646 123.899 127.999 124.802L132.01 135.069L131.459 135.284C130.491 134.641 129.254 134.433 128.08 134.811C126.022 135.474 124.842 137.908 125.599 139.932C126.37 141.99 128.672 143.013 130.712 142.216C131.952 141.731 132.805 140.685 133.099 139.483L133.65 139.268L137.661 149.534C138.013 150.437 139.031 150.883 139.933 150.53L164.666 140.869C165.569 140.516 166.015 139.498 165.662 138.596L156 113.863C155.647 112.96 154.63 112.514 153.727 112.867L143.555 116.841Z" fill="#5B5433"/>
<path d="M172.959 115.744C173.312 122.382 169.594 130.256 161.77 132.175C155.552 133.713 148.861 131.994 142.958 129.476C142.57 129.31 142.389 128.861 142.555 128.472C142.701 128.13 143.066 127.949 143.417 128.023L143.427 128.026C151.639 129.768 162.132 130.909 166.017 123.424C167.987 119.744 167.631 115.29 167.639 115.919C167.595 112.469 172.772 112.301 172.959 115.744Z" fill="#FAB9AF"/>
<path d="M166.838 121.018C167.459 118.205 167.546 115.927 167.548 115.885L167.548 115.965L167.997 114.175C167.997 114.175 168.853 112.741 171.195 113.296C173.066 113.739 173.054 115.865 173.054 115.865C173.059 116.16 173.736 118.285 171.901 122.9C171.901 122.9 166.751 121.412 166.838 121.018Z" fill="#FFD049"/>
<path d="M143.865 128.138C143.348 127.534 143.212 125.42 142.921 125.42C142.712 125.42 142.674 126.15 142.67 126.56C142.669 126.608 142.641 126.651 142.597 126.671C142.554 126.69 142.503 126.682 142.467 126.651C141.88 126.134 140.225 124.701 140.054 124.838C139.881 124.976 140.76 126.045 141.06 126.399C141.069 126.409 141.069 126.425 141.061 126.436C141.052 126.448 141.037 126.451 141.024 126.444C140.562 126.21 139.051 125.47 139.016 125.787C138.982 126.088 140.295 126.925 140.808 127.24C140.821 127.248 140.826 127.264 140.82 127.277C140.814 127.291 140.798 127.298 140.784 127.294C140.209 127.124 138.729 126.713 138.696 126.98C138.662 127.253 140.092 127.866 140.607 128.077C140.62 128.082 140.628 128.097 140.625 128.111C140.621 128.125 140.608 128.134 140.594 128.133C140.086 128.094 138.777 128.009 138.979 128.211C139.228 128.46 142.381 129.491 143.087 129.491C143.794 129.491 143.865 128.138 143.865 128.138Z" fill="#FAB9AF"/>
<path d="M162.852 75.291H28.4592V76.551H162.852V75.291Z" fill="#5B5433"/>
<path d="M110.003 98.9932H82.8982V105.346H110.003V98.9932Z" fill="#FFD049"/>
<path opacity="0.4" d="M110.003 108.522H82.8981V114.875H110.003V108.522Z" fill="#79CFCD"/>
<path d="M110.003 118.051H82.8981V124.404H110.003V118.051Z" fill="#FFD049"/>
<path opacity="0.4" d="M110.003 127.58H82.8981V133.932H110.003V127.58Z" fill="#79CFCD"/>
<path opacity="0.4" d="M156.166 82.4753H37.1587V89.4632H156.166V82.4753Z" fill="#79CFCD"/>
<path d="M91.8754 85.8421H55.445C53.6031 85.8421 52.1096 84.3489 52.1096 82.5067V74.1003C52.1096 72.2581 53.6028 70.7649 55.445 70.7649H91.8754C93.7173 70.7649 95.2105 72.2581 95.2105 74.1003V82.5067C95.2108 84.3486 93.7176 85.8421 91.8754 85.8421Z" fill="#FFD049"/>
<path d="M88.8004 85.8027L86.3512 83.3535L83.902 85.8027L86.3512 88.252L88.8004 85.8027Z" fill="#FFD049"/>
<path d="M89.1534 74.5818H57.2295V75.764H89.1534V74.5818Z" fill="#F7F7F7"/>
<path d="M89.1534 77.7153H57.2295V78.8976H89.1534V77.7153Z" fill="#F7F7F7"/>
<path d="M89.1534 80.8496H57.2295V82.0319H89.1534V80.8496Z" fill="#F7F7F7"/>
<path d="M87.8508 135.241V131.777H84.3871V135.241H87.8508Z" fill="#FFD049"/>
<path d="M76.9236 156.659C84.4306 156.659 90.5163 150.573 90.5163 143.066C90.5163 135.559 84.4306 129.474 76.9236 129.474C69.4166 129.474 63.3309 135.559 63.3309 143.066C63.3309 150.573 69.4166 156.659 76.9236 156.659Z" fill="#FFD049"/>
<path d="M72.8276 143.107C72.8276 143.717 72.3327 144.212 71.7225 144.212C71.1121 144.212 70.6174 143.717 70.6174 143.107C70.6174 142.496 71.1121 142.002 71.7225 142.002C72.3329 142.002 72.8276 142.497 72.8276 143.107Z" fill="#F7F7F7"/>
<path d="M77.6732 143.107C77.6732 143.717 77.1785 144.212 76.5681 144.212C75.9577 144.212 75.463 143.717 75.463 143.107C75.463 142.496 75.9577 142.002 76.5681 142.002C77.1785 142.002 77.6732 142.497 77.6732 143.107Z" fill="#F7F7F7"/>
<path d="M82.519 143.107C82.519 143.717 82.0243 144.212 81.4139 144.212C80.8035 144.212 80.3088 143.717 80.3088 143.107C80.3088 142.496 80.8038 142.002 81.4139 142.002C82.0243 142.002 82.519 142.497 82.519 143.107Z" fill="#F7F7F7"/>
</svg>
