<svg width="200" height="200" viewBox="0 0 200 200" fill="none" xmlns="http://www.w3.org/2000/svg">
<path d="M188.954 176.798L138.387 176.768C132.303 176.763 127.376 171.832 127.376 165.753L127.402 38.981C127.402 32.8977 132.338 27.9661 138.426 27.9661L188.989 27.992C195.072 27.9964 200 32.928 200 39.0113L199.974 165.783C199.974 171.871 195.038 176.798 188.954 176.798Z" fill="#5B5433"/>
<path d="M188.937 32.4776L179.135 32.4732C177.818 32.4732 176.753 33.586 176.753 34.9585V36.7381C176.753 38.1106 175.688 39.2277 174.372 39.2234L155.26 39.2104C153.944 39.2104 152.879 38.0933 152.879 36.7208V34.9412C152.879 33.5687 151.814 32.4516 150.497 32.4516H147.051L138.469 32.4473C134.209 32.4429 130.749 35.8981 130.749 40.1586L130.723 163.9C130.723 168.16 134.174 171.615 138.435 171.615L188.903 171.646C193.163 171.65 196.618 168.195 196.623 163.934L196.649 40.1933C196.649 35.9327 193.198 32.4776 188.937 32.4776Z" fill="white"/>
<path d="M185.105 106.269H141.543V115.167H185.105V106.269Z" fill="#EBEBEB"/>
<path d="M185.105 119.18H141.543V128.078H185.105V119.18Z" fill="#EBEBEB"/>
<path d="M175.056 146.008H153.19C150.735 146.008 148.739 144.017 148.739 141.557C148.739 139.098 150.731 137.106 153.19 137.106H175.056C177.515 137.106 179.507 139.098 179.507 141.557C179.507 144.017 177.515 146.008 175.056 146.008Z" fill="#FFD049"/>
<path d="M147.558 112.677H145.636C145.445 112.677 145.294 112.526 145.294 112.335C145.294 111.625 145.869 111.053 146.575 111.053H146.619C147.329 111.053 147.9 111.629 147.9 112.335C147.9 112.526 147.749 112.677 147.558 112.677Z" fill="#E0E0E0"/>
<path d="M147.363 110.378C147.363 110.803 147.021 111.145 146.597 111.145C146.172 111.145 145.83 110.803 145.83 110.378C145.83 109.954 146.172 109.612 146.597 109.612C147.021 109.612 147.363 109.954 147.363 110.378Z" fill="#E0E0E0"/>
<path d="M147.744 123.77H145.449V125.393H147.744V123.77Z" fill="#E0E0E0"/>
<path d="M148.003 124.116H147.233V123.614C147.233 123.254 146.943 122.964 146.583 122.964C146.224 122.964 145.934 123.254 145.934 123.614V124.116H145.163V123.614C145.163 122.83 145.8 122.194 146.583 122.194C147.367 122.194 148.003 122.83 148.003 123.614V124.116Z" fill="#E0E0E0"/>
<path d="M143.583 48.3146C143.583 48.7996 143.583 49.2888 143.583 49.7738C143.583 49.9946 143.496 50.0812 143.28 50.0812C142.717 50.0812 142.154 50.0812 141.591 50.0812C141.383 50.0812 141.301 49.9946 141.301 49.7911C141.301 49.4404 141.305 49.0853 141.297 48.7346C141.288 48.3493 140.924 48.1155 140.578 48.2757C140.379 48.3666 140.292 48.5355 140.292 48.752C140.292 49.0853 140.292 49.4144 140.292 49.7478C140.292 50.0119 140.219 50.0812 139.954 50.0812C139.422 50.0812 138.889 50.0812 138.357 50.0812C138.123 50.0812 138.045 50.0076 138.045 49.7738C138.045 48.8126 138.045 47.8514 138.045 46.8901C138.045 46.6304 138.14 46.4312 138.352 46.2796C139.114 45.7341 139.868 45.1842 140.63 44.6387C140.768 44.5391 140.855 44.5391 140.998 44.6387C141.756 45.1842 142.513 45.7341 143.275 46.2796C143.488 46.4312 143.587 46.6304 143.583 46.8901C143.579 47.3664 143.583 47.8384 143.583 48.3146ZM138.504 49.6049C138.954 49.6049 139.392 49.6049 139.842 49.6049C139.842 49.3105 139.838 49.0291 139.842 48.7433C139.846 48.1934 140.271 47.7691 140.803 47.7691C141.336 47.7691 141.76 48.1934 141.769 48.7433C141.773 48.9858 141.777 49.2326 141.769 49.475C141.764 49.5919 141.795 49.6352 141.92 49.6309C142.267 49.6222 142.617 49.6266 142.964 49.6266C143.007 49.6266 143.055 49.6222 143.111 49.6179C143.111 49.553 143.111 49.501 143.111 49.4447C143.111 48.6134 143.107 47.7821 143.111 46.9508C143.111 46.8035 143.068 46.7083 142.946 46.626C142.258 46.1324 141.574 45.6345 140.885 45.1322C140.825 45.089 140.781 45.0846 140.721 45.1279C140.028 45.6302 139.331 46.1324 138.638 46.6304C138.539 46.6996 138.495 46.7819 138.5 46.9031C138.504 47.7561 138.5 48.6091 138.5 49.4577C138.504 49.5097 138.504 49.553 138.504 49.6049Z" fill="#312D1B"/>
<path d="M190.34 45.3188H185.006C184.902 45.3188 184.815 45.2322 184.815 45.1283C184.815 45.0243 184.902 44.9377 185.006 44.9377H190.34C190.444 44.9377 190.531 45.0243 190.531 45.1283C190.526 45.2322 190.444 45.3188 190.34 45.3188Z" fill="#312D1B"/>
<path d="M190.34 46.8466H185.006C184.902 46.8466 184.815 46.76 184.815 46.6561C184.815 46.5522 184.902 46.4656 185.006 46.4656H190.34C190.444 46.4656 190.531 46.5522 190.531 46.6561C190.526 46.76 190.444 46.8466 190.34 46.8466Z" fill="#312D1B"/>
<path d="M190.34 48.3752H185.006C184.902 48.3752 184.815 48.2886 184.815 48.1846C184.815 48.0807 184.902 47.9941 185.006 47.9941H190.34C190.444 47.9941 190.531 48.0807 190.531 48.1846C190.526 48.2886 190.444 48.3752 190.34 48.3752Z" fill="#312D1B"/>
<path d="M175.965 100.501H151.515C150.77 100.501 150.164 99.8953 150.164 99.1505V98.553C150.164 97.8083 150.77 97.2021 151.515 97.2021H175.965C176.71 97.2021 177.316 97.8083 177.316 98.553V99.1505C177.316 99.8909 176.706 100.501 175.965 100.501Z" fill="#312D1B"/>
<path d="M170.973 158.248H158.317C157.572 158.248 156.966 157.642 156.966 156.897V156.3C156.966 155.555 157.572 154.949 158.317 154.949H170.973C171.718 154.949 172.324 155.555 172.324 156.3V156.897C172.324 157.642 171.718 158.248 170.973 158.248Z" fill="#FFD049"/>
<path d="M176.892 154.117H152.403C151.658 154.117 151.052 153.511 151.052 152.767V152.169C151.052 151.424 151.658 150.818 152.403 150.818H176.896C177.641 150.818 178.247 151.424 178.247 152.169V152.767C178.243 153.507 177.637 154.117 176.892 154.117Z" fill="#E0E0E0"/>
<path d="M87.2656 44.1724L78.1471 44.1637C76.9261 44.1637 75.9346 45.1986 75.9346 46.4758V48.1298C75.9346 49.4071 74.943 50.4419 73.722 50.4419L55.9483 50.4333C54.7273 50.4333 53.7358 49.3941 53.7358 48.1168V46.4629C53.7358 45.1856 52.7442 44.1464 51.5232 44.1464H48.3149L40.3351 44.1421C36.3733 44.1378 33.1563 47.3505 33.1563 51.3166L33.1346 166.398C33.1346 170.36 36.343 173.572 40.3048 173.572L87.2396 173.598C91.2014 173.603 94.4184 170.39 94.4184 166.424L94.4401 51.3425C94.4357 47.3851 91.2274 44.1724 87.2656 44.1724Z" fill="white"/>
<path d="M87.2654 44.1739C87.2654 44.1739 87.3477 44.1739 87.5122 44.1825C87.6724 44.1998 87.9235 44.1782 88.2396 44.2388C88.8761 44.3124 89.8416 44.5202 90.9327 45.1697C91.4826 45.4815 92.0412 45.9274 92.5694 46.4946C93.0976 47.0662 93.5869 47.7806 93.9376 48.6379C94.2927 49.4908 94.4832 50.4867 94.4745 51.5518C94.4745 52.6126 94.4788 53.7384 94.4788 54.9334C94.4832 64.4935 94.4918 78.3229 94.5048 95.4125C94.5091 112.502 94.5092 132.852 94.5135 155.449C94.5135 158.272 94.5135 161.134 94.5135 164.027C94.5135 164.75 94.5135 165.477 94.5135 166.205C94.5048 166.932 94.4572 167.685 94.2407 168.391C94.0329 169.101 93.7385 169.794 93.3228 170.413C92.9071 171.032 92.4049 171.591 91.829 172.071C90.6643 173.007 89.2008 173.604 87.6854 173.678C86.183 173.721 84.6892 173.691 83.1781 173.699C80.1602 173.699 77.1164 173.695 74.0423 173.695C67.894 173.691 61.6374 173.691 55.29 173.686C52.1162 173.686 48.9165 173.682 45.6995 173.682C44.0888 173.682 42.4738 173.682 40.8544 173.678C39.2264 173.76 37.5422 173.331 36.1826 172.387C34.8187 171.452 33.8099 170.032 33.3379 168.46C33.0868 167.677 33.0392 166.841 33.0392 166.031C33.0392 165.222 33.0392 164.416 33.0392 163.611C33.0392 160.39 33.0392 157.194 33.0435 154.016C33.0435 147.664 33.0478 141.408 33.0478 135.26C33.0522 122.963 33.0565 111.099 33.0608 99.7986C33.0652 88.4979 33.0695 77.76 33.0782 67.7106C33.0825 62.688 33.0825 57.8343 33.0868 53.1712C33.0868 52.5866 33.0868 52.0064 33.0868 51.4306C33.0911 51.1405 33.1128 50.8504 33.1258 50.5603C33.1777 50.2745 33.1994 49.9844 33.273 49.7073C33.5371 48.5859 34.0567 47.5338 34.7841 46.6678C35.5158 45.8062 36.4337 45.1264 37.4469 44.6804C38.4557 44.2258 39.5642 44.0656 40.638 44.0786C42.7725 44.0829 44.8595 44.0829 46.8902 44.0873C47.9077 44.0873 48.9078 44.0916 49.8994 44.0916C50.393 44.0916 50.8866 44.0916 51.3715 44.0916C51.8651 44.0656 52.3803 44.2042 52.783 44.4856C53.19 44.7714 53.5018 45.1784 53.662 45.6373C53.8438 46.0963 53.8005 46.5942 53.8092 47.0532C53.8092 47.287 53.8092 47.5208 53.8092 47.7503C53.8092 47.9841 53.8005 48.2135 53.8308 48.4344C53.8871 48.8803 54.0733 49.3047 54.3677 49.6337C54.6535 49.9714 55.0432 50.2096 55.4631 50.3135C55.6753 50.3655 55.8875 50.3828 56.1083 50.3784C56.3291 50.3784 56.5499 50.3784 56.7707 50.3784C57.6497 50.3784 58.5113 50.3828 59.36 50.3828C62.7545 50.3871 65.9109 50.3914 68.8205 50.3958C70.2753 50.4001 71.6652 50.4001 72.9901 50.4044C73.3192 50.4001 73.6526 50.4174 73.9687 50.3914C74.2847 50.3568 74.5835 50.2485 74.8476 50.084C75.3758 49.755 75.7309 49.2137 75.8521 48.6379C75.917 48.3521 75.9084 48.0577 75.9084 47.7676C75.9084 47.4775 75.9084 47.1917 75.9084 46.9103C75.9127 46.6288 75.8954 46.3474 75.9474 46.0746C75.995 45.8019 76.0859 45.5421 76.2201 45.3039C76.4799 44.832 76.8999 44.4769 77.3675 44.2908C77.8395 44.0873 78.3417 44.1479 78.792 44.1392C80.6322 44.1436 82.1866 44.1479 83.4466 44.1522C84.7022 44.1565 85.6634 44.1609 86.3085 44.1652C86.9364 44.1652 87.2654 44.1739 87.2654 44.1739C87.2654 44.1739 86.9364 44.1825 86.2912 44.1825C85.6461 44.1825 84.6849 44.1868 83.4292 44.1912C82.1693 44.1912 80.6149 44.1955 78.7747 44.1998C78.3158 44.2085 77.8265 44.1522 77.3719 44.3514C76.9216 44.5289 76.5146 44.8796 76.2634 45.3386C76.1379 45.568 76.0469 45.8192 76.0037 46.0833C75.956 46.3474 75.9733 46.6245 75.969 46.906C75.969 47.1874 75.969 47.4732 75.969 47.7633C75.969 48.049 75.982 48.3521 75.9127 48.6509C75.7872 49.244 75.4191 49.8069 74.8736 50.149C74.6008 50.3222 74.2891 50.4347 73.96 50.4737C73.6266 50.504 73.3062 50.4824 72.9728 50.4867C71.6479 50.4867 70.2537 50.4867 68.8032 50.4867C65.8936 50.4867 62.7372 50.4867 59.3426 50.491C58.494 50.491 57.6324 50.491 56.7534 50.491C56.5326 50.491 56.3118 50.491 56.091 50.491C55.8701 50.4953 55.6363 50.4824 55.4155 50.4261C54.9695 50.3178 54.5582 50.0624 54.2551 49.7073C53.9477 49.3566 53.7485 48.9106 53.6879 48.443C53.6576 48.2049 53.6663 47.9711 53.662 47.7416C53.662 47.5078 53.662 47.2783 53.662 47.0445C53.6576 46.5769 53.6966 46.1049 53.5234 45.672C53.3719 45.2347 53.0731 44.8493 52.6921 44.5809C52.3067 44.3124 51.8348 44.1868 51.3542 44.2128C50.8649 44.2128 50.3756 44.2128 49.8821 44.2128C48.8905 44.2128 47.8903 44.2128 46.8728 44.2128C44.8422 44.2128 42.7552 44.2128 40.6206 44.2128C39.5598 44.1998 38.4817 44.36 37.4902 44.806C36.503 45.2433 35.6024 45.9144 34.8837 46.7587C34.1736 47.6074 33.667 48.6379 33.4072 49.7376C33.3336 50.0104 33.312 50.2962 33.2643 50.5733C33.2513 50.859 33.2297 51.1405 33.2254 51.4263C33.2254 52.0021 33.2254 52.5823 33.2254 53.1668C33.2254 57.83 33.2254 62.6837 33.2297 67.7062C33.2297 77.7557 33.2297 88.4936 33.234 99.7943C33.234 111.095 33.234 122.959 33.234 135.255C33.234 141.404 33.234 147.66 33.234 154.012C33.234 157.186 33.234 160.385 33.234 163.607C33.234 164.412 33.234 165.217 33.234 166.027C33.234 166.832 33.2773 167.629 33.5241 168.395C33.9831 169.924 34.9616 171.305 36.2909 172.214C37.6201 173.132 39.2351 173.548 40.8501 173.47C42.4695 173.47 44.0845 173.47 45.6951 173.474C48.9122 173.474 52.1119 173.479 55.2856 173.479C61.6331 173.483 67.8896 173.487 74.0379 173.492C77.1121 173.496 80.1602 173.496 83.1738 173.496C84.6805 173.487 86.1916 173.522 87.6724 173.479C89.1489 173.405 90.569 172.825 91.7034 171.916C92.2663 171.448 92.7556 170.902 93.1583 170.301C93.5653 169.699 93.851 169.023 94.0502 168.33C94.2667 167.638 94.31 166.915 94.3186 166.192C94.3186 165.464 94.3186 164.741 94.3186 164.014C94.3186 161.121 94.323 158.259 94.323 155.436C94.336 132.839 94.3489 112.489 94.3576 95.3996C94.3749 78.3099 94.3879 64.4806 94.3966 54.9204C94.3966 53.7254 94.4009 52.5996 94.4009 51.5388C94.4139 50.4824 94.2277 49.4952 93.877 48.6509C93.5306 47.8022 93.05 47.0921 92.5304 46.5206C92.0065 45.9534 91.4567 45.5074 90.9111 45.1957C89.833 44.5462 88.8718 44.3341 88.2396 44.2518C87.9235 44.1868 87.6768 44.2042 87.5165 44.1868C87.3477 44.1782 87.2654 44.1739 87.2654 44.1739Z" fill="#312D1B"/>
<path d="M88.1878 54.952C88.1878 55.03 86.6767 55.0906 84.8106 55.0906C82.9444 55.0906 81.4333 55.03 81.4333 54.952C81.4333 54.8741 82.9444 54.8135 84.8106 54.8135C86.6767 54.8135 88.1878 54.8741 88.1878 54.952Z" fill="#312D1B"/>
<path d="M87.4949 56.0651C87.4949 56.143 85.9838 56.2036 84.1177 56.2036C82.2516 56.2036 80.7405 56.143 80.7405 56.0651C80.7405 55.9871 82.2516 55.9265 84.1177 55.9265C85.9795 55.9265 87.4949 55.9915 87.4949 56.0651Z" fill="#312D1B"/>
<path d="M87.8414 57.109C87.8414 57.1869 86.3303 57.2476 84.4641 57.2476C82.598 57.2476 81.0869 57.1869 81.0869 57.109C81.0869 57.0311 82.598 56.9705 84.4641 56.9705C86.3303 56.9748 87.8414 57.0354 87.8414 57.109Z" fill="#312D1B"/>
<path d="M69.1711 65.8026C69.1711 65.8026 69.2577 65.8243 69.4222 65.8806C69.5997 65.9412 69.8422 66.0278 70.154 66.136C70.47 66.2659 70.8554 66.4348 71.31 66.647C71.7473 66.8851 72.2669 67.1449 72.8038 67.5086C73.8906 68.2143 75.1375 69.2232 76.3369 70.6304C76.9214 71.3448 77.5189 72.1371 78.0298 73.0507C78.3069 73.4967 78.5278 73.9903 78.7702 74.4839C78.9781 74.9948 79.2119 75.5144 79.3764 76.0729C80.1211 78.2768 80.3463 80.9006 79.8527 83.5937C79.3634 86.2825 78.1467 89.0536 76.155 91.4133C75.1592 92.591 73.9685 93.6562 72.6089 94.5221C71.2494 95.3924 69.721 96.0592 68.106 96.5008C64.8716 97.3798 61.2433 97.2975 57.8833 96.1198C54.5234 94.9161 51.7047 92.604 49.8126 89.8416C47.8989 87.0836 46.8294 83.9055 46.6822 80.8227C46.535 77.7442 47.2494 74.7783 48.6479 72.4142C50.0378 70.0285 52.1031 68.3616 54.1467 67.2748C56.2034 66.1793 58.273 65.6381 60.0915 65.374C61.9187 65.1099 63.5121 65.1099 64.8067 65.1662C67.3959 65.3091 68.7987 65.6251 68.7987 65.6251C68.7987 65.6251 68.7078 65.6208 68.5346 65.5991C68.3484 65.5775 68.093 65.5472 67.7639 65.5039C67.0885 65.426 66.0883 65.3177 64.798 65.2701C63.5077 65.2311 61.923 65.2484 60.1089 65.5255C58.3033 65.8026 56.2597 66.3525 54.2333 67.448C52.22 68.5347 50.1936 70.1844 48.8384 72.5311C47.4745 74.8606 46.7774 77.7788 46.929 80.8097C47.0805 83.8405 48.1413 86.9753 50.0291 89.6858C51.8952 92.4049 54.6663 94.6737 57.9699 95.8557C61.2736 97.0161 64.8456 97.0983 68.028 96.2367C71.2234 95.3924 74.0075 93.5739 75.9559 91.2488C77.9259 88.9324 79.1296 86.2046 79.6232 83.5548C80.1211 80.9006 79.9133 78.3157 79.1859 76.1335C79.0257 75.5793 78.7962 75.0684 78.597 74.5575C78.3546 74.0682 78.1424 73.5789 77.8696 73.133C77.3717 72.2237 76.7872 71.4357 76.2113 70.7256C75.0336 69.3228 73.8083 68.3096 72.7345 67.5952C72.2063 67.2271 71.6954 66.963 71.2624 66.7162C70.8164 66.4997 70.4354 66.3222 70.1236 66.1837C69.8162 66.0624 69.5738 65.9715 69.4006 65.9066C69.249 65.8459 69.1711 65.8026 69.1711 65.8026Z" fill="#312D1B"/>
<path d="M73.3451 87.5379C73.3364 87.5423 73.2931 87.447 73.2195 87.2695C73.1372 87.0617 73.0333 86.7976 72.9034 86.4815C72.6306 85.7974 72.254 84.7972 71.6651 83.6238C71.0763 82.4591 70.2666 81.0909 68.985 79.9348C68.3485 79.359 67.5951 78.8394 66.7421 78.4714C65.8848 78.112 64.9236 77.9042 63.9408 77.9821C61.9577 78.112 60.2258 79.1338 59.0135 80.3332C57.7968 81.5585 57.0608 82.97 56.5888 84.1824C56.1125 85.4034 55.8744 86.4468 55.7185 87.1656C55.6492 87.5033 55.5973 87.7761 55.5497 87.9969C55.5107 88.1874 55.489 88.287 55.4804 88.287C55.4717 88.287 55.4761 88.1831 55.4977 87.9882C55.515 87.7934 55.554 87.512 55.6146 87.1439C55.7402 86.4165 55.948 85.3601 56.4069 84.1131C56.8659 82.8748 57.5933 81.4243 58.836 80.1513C60.0743 78.913 61.8538 77.8436 63.9235 77.705C64.9496 77.6271 65.9628 77.8436 66.8504 78.2203C67.738 78.6056 68.513 79.1468 69.1582 79.7443C70.4658 80.9437 71.2711 82.3509 71.8426 83.5372C72.4098 84.7366 72.7605 85.7497 73.003 86.4425C73.1112 86.7672 73.1978 87.0357 73.2671 87.2478C73.3277 87.4384 73.3537 87.5379 73.3451 87.5379Z" fill="#312D1B"/>
<path d="M64.3564 70.565C64.3564 70.5563 64.4257 70.5607 64.5512 70.578C64.6811 70.591 64.8673 70.6386 65.0968 70.7339C65.5514 70.9114 66.1835 71.34 66.6252 72.1237C66.8417 72.5134 67.0105 72.9897 67.0322 73.5179C67.0538 74.0462 66.9239 74.6263 66.6035 75.1373C65.9974 76.1461 64.6941 76.9428 63.2956 76.7349C61.9014 76.4968 60.9055 75.3581 60.6068 74.2193C60.4422 73.6435 60.4725 73.0546 60.6154 72.548C60.7626 72.0415 61.0268 71.6128 61.3169 71.2751C61.9057 70.5996 62.5898 70.2836 63.0618 70.1667C63.2999 70.1017 63.4904 70.0801 63.6203 70.0801C63.7502 70.0757 63.8151 70.0801 63.8151 70.0887C63.8195 70.1147 63.5467 70.1234 63.0921 70.2706C62.6418 70.4178 62.0053 70.7469 61.4684 71.405C61.2043 71.734 60.9661 72.141 60.8406 72.613C60.7193 73.0849 60.6977 73.6262 60.8579 74.1544C61.1437 75.2065 62.0832 76.2543 63.3432 76.4665C64.6075 76.657 65.8242 75.9339 66.3914 75.0074C66.6901 74.5441 66.8157 74.0158 66.807 73.5309C66.794 73.0416 66.6512 72.5913 66.4563 72.219C66.0623 71.4699 65.4821 71.0326 65.0578 70.8335C64.6248 70.6213 64.352 70.5953 64.3564 70.565Z" fill="#312D1B"/>
<path d="M80.3507 107.07C80.3464 107.079 80.2208 107.036 79.9827 106.94C79.7446 106.849 79.3895 106.724 78.9219 106.603C77.991 106.36 76.5838 106.118 74.8736 106.369C74.0206 106.486 73.1027 106.733 72.1847 107.153C71.7258 107.36 71.2582 107.616 70.7386 107.815C70.2277 108.01 69.6302 108.174 69.024 108.01C67.7251 107.672 67.5302 105.966 66.3612 105.745C65.7897 105.624 65.2658 106.044 64.8414 106.499C64.3998 106.953 63.9885 107.486 63.4169 107.884C63.1312 108.088 62.7891 108.2 62.4384 108.257C62.0877 108.278 61.7326 108.235 61.4209 108.105C60.7888 107.858 60.2735 107.451 59.7799 107.066C59.2907 106.676 58.8187 106.282 58.3121 105.988C57.8142 105.689 57.2513 105.507 56.7231 105.607C56.1819 105.676 55.7489 106.04 55.4025 106.434C55.0518 106.832 54.7574 107.278 54.4283 107.676C54.1036 108.075 53.7225 108.443 53.2766 108.655C52.8306 108.871 52.3587 108.958 51.9084 108.949C51.0078 108.932 50.2284 108.516 49.7781 107.962C49.3278 107.408 49.1546 106.793 49.12 106.304C49.0767 105.81 49.1763 105.429 49.2585 105.187C49.3451 104.944 49.4274 104.832 49.4274 104.832C49.4707 104.84 49.1373 105.33 49.2239 106.295C49.2715 106.767 49.4534 107.347 49.8907 107.863C50.3237 108.374 51.0597 108.746 51.904 108.755C52.324 108.755 52.7657 108.668 53.1727 108.464C53.584 108.261 53.9304 107.923 54.2421 107.529C54.5582 107.14 54.8483 106.694 55.212 106.274C55.5714 105.862 56.052 105.442 56.6711 105.36C57.2816 105.243 57.9138 105.451 58.4377 105.763C58.9702 106.074 59.4509 106.473 59.9401 106.858C60.4294 107.239 60.9316 107.633 61.5075 107.854C61.7933 107.971 62.0964 108.006 62.3994 107.988C62.6982 107.936 62.9926 107.845 63.2524 107.659C63.772 107.295 64.179 106.78 64.6336 106.308C64.8631 106.074 65.1012 105.841 65.4 105.672C65.6901 105.499 66.0581 105.412 66.4002 105.481C66.7465 105.529 67.0496 105.728 67.2704 105.958C67.4999 106.187 67.6774 106.442 67.8506 106.689C68.1927 107.174 68.5607 107.638 69.0846 107.772C69.5999 107.915 70.1541 107.78 70.6477 107.594C71.1499 107.408 71.6132 107.157 72.0852 106.949C73.0291 106.525 73.973 106.287 74.8432 106.178C76.5925 105.953 78.017 106.226 78.9479 106.503C79.4155 106.646 79.7662 106.789 80 106.893C80.2382 107.001 80.3551 107.062 80.3507 107.07Z" fill="#312D1B"/>
<path d="M72.28 111.824C72.28 111.902 68.8682 111.963 64.6596 111.963C60.4511 111.963 57.0392 111.902 57.0392 111.824C57.0392 111.746 60.4511 111.686 64.6596 111.686C68.8638 111.686 72.28 111.746 72.28 111.824Z" fill="#312D1B"/>
<path d="M40.4085 130.538C40.3306 130.538 40.3046 128.378 40.3479 125.715C40.3912 123.052 40.4864 120.891 40.5644 120.891C40.6423 120.891 40.6683 123.052 40.625 125.719C40.5817 128.382 40.4864 130.538 40.4085 130.538Z" fill="#312D1B"/>
<path d="M86.3605 130.968C86.3605 131.046 75.8651 130.937 62.9191 130.734C49.973 130.526 39.4819 130.301 39.4819 130.223C39.4819 130.145 49.9773 130.253 62.9234 130.457C75.8694 130.665 86.3605 130.894 86.3605 130.968Z" fill="#312D1B"/>
<path d="M86.1658 120.194C86.1658 120.272 76.0168 120.488 63.4994 120.679C50.9776 120.869 40.8286 120.965 40.8286 120.887C40.8286 120.809 50.9733 120.592 63.495 120.402C76.0168 120.211 86.1658 120.116 86.1658 120.194Z" fill="#312D1B"/>
<path d="M85.9752 130.733C85.8973 130.733 85.8367 128.356 85.8367 125.429C85.8367 122.498 85.8973 120.125 85.9752 120.125C86.0532 120.125 86.1138 122.503 86.1138 125.429C86.1138 128.356 86.0532 130.733 85.9752 130.733Z" fill="#312D1B"/>
<path d="M45.8856 124.403C45.8856 124.39 46.0025 124.368 46.206 124.429C46.4052 124.485 46.6866 124.65 46.9117 124.957C47.1282 125.26 47.3058 125.732 47.1672 126.248C47.0373 126.771 46.5047 127.178 45.9159 127.248C45.3314 127.326 44.7122 127.066 44.4568 126.59C44.1926 126.126 44.2489 125.624 44.3832 125.273C44.526 124.918 44.7555 124.693 44.933 124.585C45.1149 124.477 45.2361 124.468 45.2361 124.481C45.2708 124.52 44.7772 124.672 44.565 125.338C44.4654 125.654 44.4481 126.092 44.6732 126.455C44.8854 126.828 45.3833 127.036 45.8813 126.971C46.3792 126.91 46.8078 126.585 46.9204 126.174C47.046 125.763 46.9204 125.347 46.7472 125.061C46.3792 124.472 45.8639 124.451 45.8856 124.403Z" fill="#312D1B"/>
<path d="M41.9672 145.397C41.8936 145.406 41.5645 143.388 41.2355 140.886C40.9064 138.383 40.6986 136.348 40.7765 136.335C40.8501 136.326 41.1792 138.344 41.5083 140.847C41.8373 143.349 42.0408 145.384 41.9672 145.397Z" fill="#312D1B"/>
<path d="M84.0744 136.578C84.0744 136.656 74.4882 136.717 62.6679 136.717C50.8433 136.717 41.2615 136.656 41.2615 136.578C41.2615 136.5 50.8433 136.439 62.6679 136.439C74.4882 136.444 84.0744 136.504 84.0744 136.578Z" fill="#312D1B"/>
<path d="M85.5898 144.813C85.5119 144.813 85.4513 143.085 85.4513 140.955C85.4513 138.825 85.5119 137.097 85.5898 137.097C85.6678 137.097 85.7284 138.825 85.7284 140.955C85.7284 143.085 85.6678 144.813 85.5898 144.813Z" fill="#312D1B"/>
<path d="M85.9751 145.332C85.9751 145.41 76.2634 145.471 64.2829 145.471C52.3024 145.471 42.5907 145.41 42.5907 145.332C42.5907 145.254 52.3024 145.194 64.2829 145.194C76.2634 145.194 85.9751 145.254 85.9751 145.332Z" fill="#312D1B"/>
<path d="M45.3054 140.557C45.2967 140.548 45.379 140.461 45.5825 140.41C45.7817 140.358 46.1107 140.384 46.4225 140.596C46.574 140.704 46.7299 140.86 46.8208 141.072C46.9117 141.284 46.929 141.548 46.8511 141.795C46.7039 142.28 46.2146 142.73 45.5911 142.722C44.9763 142.696 44.513 142.241 44.3442 141.778C44.158 141.293 44.3009 140.808 44.5044 140.509C44.7122 140.197 44.9677 140.028 45.1538 139.951C45.34 139.868 45.4526 139.864 45.4569 139.881C45.4829 139.925 45.0109 140.033 44.6732 140.613C44.513 140.894 44.4178 141.301 44.5823 141.691C44.7338 142.076 45.1322 142.436 45.5998 142.453C46.0674 142.471 46.4831 142.107 46.6086 141.726C46.7515 141.332 46.561 140.951 46.3056 140.76C46.0544 140.561 45.773 140.509 45.5955 140.522C45.4136 140.531 45.314 140.578 45.3054 140.557Z" fill="#312D1B"/>
<path d="M51.9993 163.777C51.9993 163.786 51.943 163.803 51.8348 163.821C51.7266 163.834 51.562 163.881 51.3499 163.881C50.9256 163.912 50.2977 163.86 49.5703 163.613C48.8429 163.37 48.0333 162.894 47.3318 162.154C46.6304 161.422 46.0675 160.383 45.9463 159.197C45.851 158.006 46.2147 156.884 46.769 156.032C47.3232 155.174 48.0333 154.559 48.7044 154.187C49.3755 153.81 49.9817 153.646 50.406 153.598C50.6138 153.559 50.7827 153.577 50.8952 153.568C51.0078 153.568 51.0641 153.572 51.0641 153.581C51.0814 153.654 50.0856 153.577 48.804 154.356C48.1718 154.737 47.5007 155.343 46.9854 156.17C46.4659 156.988 46.1325 158.058 46.2234 159.171C46.3403 160.283 46.8642 161.271 47.5223 161.981C48.1848 162.699 48.9512 163.171 49.6439 163.431C51.0381 163.959 52.0037 163.704 51.9993 163.777Z" fill="#FFD049"/>
<path d="M81.1517 163.526C81.1517 163.604 75.1463 163.665 67.7424 163.665C60.3341 163.665 54.333 163.604 54.333 163.526C54.333 163.448 60.3341 163.388 67.7424 163.388C75.1506 163.388 81.1517 163.453 81.1517 163.526Z" fill="#FFD049"/>
<path d="M81.4334 162.859C81.4161 162.82 82.0439 162.729 82.9185 162.093C83.3515 161.777 83.8321 161.305 84.2218 160.651C84.6115 160.002 84.8756 159.144 84.8366 158.188C84.7976 157.239 84.4686 156.187 83.7368 155.334C83.0094 154.481 81.9183 153.875 80.6843 153.581C79.4504 153.273 78.0995 153.213 76.7053 153.221C75.3067 153.239 73.8563 153.256 72.3712 153.273C66.4437 153.325 61.0747 153.373 57.1606 153.407C55.2339 153.412 53.6665 153.416 52.5494 153.416C52.0255 153.412 51.6055 153.407 51.2938 153.403C51.008 153.399 50.8564 153.39 50.8564 153.381C50.8564 153.373 51.008 153.36 51.2938 153.347C51.6055 153.338 52.0212 153.325 52.5451 153.308C53.6621 153.286 55.2295 153.252 57.1563 153.213C61.0747 153.156 66.4393 153.083 72.3668 152.996C73.8519 152.979 75.3024 152.966 76.7009 152.953C78.1038 152.949 79.4763 153.013 80.7406 153.338C82.0049 153.65 83.148 154.286 83.9057 155.191C84.6634 156.096 84.9925 157.196 85.0228 158.183C85.0488 159.179 84.7587 160.071 84.343 160.733C83.9273 161.4 83.4251 161.872 82.9705 162.184C82.5158 162.496 82.1175 162.665 81.8447 162.755C81.7105 162.803 81.6023 162.829 81.5286 162.846C81.4724 162.859 81.4334 162.864 81.4334 162.859Z" fill="#FFD049"/>
<path d="M79.6668 159.17C79.6668 159.179 79.5585 159.196 79.3507 159.214C79.1125 159.231 78.8138 159.253 78.4458 159.283C77.6231 159.331 76.4974 159.4 75.1162 159.482C72.2715 159.625 68.405 159.82 64.1315 160.036C62.9018 160.097 61.6419 160.149 60.5118 159.746C59.9533 159.547 59.4553 159.279 58.9444 159.11C58.4378 158.932 57.9139 158.885 57.4506 159.053C56.5241 159.4 55.8616 160.253 54.9264 160.469C54.0041 160.785 52.965 159.915 53.2811 159.101L53.3676 159.218C52.9563 159.244 52.6273 159.512 52.4541 159.798C52.2722 160.088 52.2376 160.409 52.2895 160.66L52.1856 160.673C52.1943 160.309 52.1986 160.019 52.2029 159.785C52.2116 159.582 52.2203 159.478 52.2289 159.478C52.2376 159.478 52.2462 159.582 52.2592 159.785C52.2679 160.015 52.2809 160.309 52.2939 160.673L52.3112 161.14L52.1899 160.686C52.1163 160.409 52.1423 160.054 52.3372 159.725C52.5233 159.404 52.8784 159.092 53.359 159.045L53.4932 159.032L53.4413 159.162C53.3244 159.46 53.4759 159.828 53.766 160.062C54.0561 160.309 54.4674 160.378 54.8787 160.261C55.2901 160.153 55.6754 159.906 56.0608 159.621C56.4505 159.339 56.8531 159.01 57.3727 158.82C57.8966 158.62 58.4984 158.681 59.031 158.863C59.5679 159.04 60.0745 159.309 60.607 159.495C61.6765 159.876 62.8932 159.824 64.1272 159.764C68.4007 159.577 72.2715 159.413 75.1162 159.287C76.4974 159.24 77.6231 159.201 78.4501 159.175C78.8181 159.166 79.1212 159.162 79.355 159.157C79.5585 159.157 79.6668 159.162 79.6668 159.17Z" fill="#312D1B"/>
<path d="M83.2125 168.011C83.2125 168.089 75.1201 168.15 65.14 168.15C55.1555 168.15 47.0631 168.089 47.0631 168.011C47.0631 167.933 55.1555 167.873 65.14 167.873C75.1201 167.873 83.2125 167.938 83.2125 168.011Z" fill="#FFD049"/>
<path d="M43.3872 54.6573C43.4131 54.6573 43.4608 55.0166 43.5171 55.6401C43.5733 56.2636 43.647 57.1512 43.7206 58.2077L43.7292 58.3246L43.6123 58.3376C42.7593 58.4372 41.7981 58.5497 40.7893 58.6666C40.0965 58.7402 39.4297 58.8138 38.8106 58.8788L38.672 58.8918L38.6677 58.7532C38.6201 57.4673 38.5898 56.3632 38.5811 55.5795C38.5724 54.7958 38.5768 54.3325 38.6114 54.3325C38.6417 54.3325 38.6894 54.7915 38.7456 55.5708C38.8019 56.3502 38.8669 57.4543 38.9318 58.7402L38.7846 58.6147C39.4038 58.5454 40.0706 58.4675 40.7633 58.3852C41.7765 58.277 42.7377 58.1774 43.5907 58.0821L43.4824 58.212C43.4305 57.1555 43.3958 56.2636 43.3785 55.6358C43.3569 55.021 43.3612 54.6573 43.3872 54.6573Z" fill="#312D1B"/>
<path d="M40.9323 52.1856C40.9756 52.2505 39.9495 53.0299 38.7155 54.0387C37.4772 55.0389 36.503 55.8876 36.451 55.8313C36.399 55.7793 37.2953 54.8311 38.5423 53.8223C39.7849 52.8134 40.8934 52.125 40.9323 52.1856Z" fill="#312D1B"/>
<path d="M45.2101 55.7228C45.1625 55.7834 44.1666 55.0387 42.9846 54.0601C41.8026 53.0859 40.889 52.246 40.9366 52.1853C40.9842 52.1247 41.9801 52.8694 43.1621 53.848C44.3398 54.8265 45.2577 55.6622 45.2101 55.7228Z" fill="#312D1B"/>
<path d="M67.5291 24.9358L57.4668 24L56.531 34.0623L66.5933 34.9981L67.5291 24.9358Z" fill="#FFD049"/>
<path d="M61.6888 31.6397C61.6498 31.6354 61.6455 31.2197 61.6715 30.5443C61.6801 30.3625 61.6888 30.1806 61.6974 29.9901C61.7061 29.8862 61.7234 29.7649 61.7884 29.648C61.8533 29.5311 61.9572 29.4402 62.0612 29.3753C62.2733 29.2454 62.4985 29.1848 62.6673 29.0549C62.8405 28.925 62.9877 28.7431 63.0657 28.5266C63.2389 28.0893 63.0527 27.626 62.7409 27.3662C62.4335 27.0978 62.0438 27.0199 61.7321 27.0588C61.0869 27.1454 60.8272 27.5394 60.8012 27.5005C60.7882 27.4918 60.8272 27.3879 60.9657 27.245C61.1043 27.1065 61.3511 26.9333 61.7061 26.864C62.0525 26.7904 62.5288 26.8553 62.9098 27.1671C63.096 27.3229 63.2605 27.5308 63.3471 27.7906C63.438 28.0504 63.4294 28.3491 63.3254 28.6176C63.2259 28.886 63.044 29.1111 62.8275 29.267C62.6024 29.4272 62.3642 29.4878 62.191 29.5874C62.0135 29.6827 61.9442 29.8126 61.9269 30.0074C61.9053 30.1936 61.888 30.3754 61.8706 30.553C61.7884 31.2284 61.7234 31.6441 61.6888 31.6397Z" fill="#312D1B"/>
<path d="M61.5419 32.2118C61.5505 32.2464 61.5375 32.2941 61.5549 32.3287C61.5852 32.372 61.5722 32.3244 61.6025 32.333C61.6198 32.3287 61.6198 32.3287 61.6198 32.3417C61.6241 32.3547 61.6371 32.3374 61.6371 32.3157C61.6371 32.2767 61.6068 32.2378 61.6068 32.1988C61.5982 32.1642 61.6804 32.1122 61.7843 32.1858C61.832 32.2204 61.8839 32.2941 61.8666 32.4023C61.845 32.5149 61.741 32.5885 61.6501 32.6015C61.5549 32.6188 61.4423 32.5885 61.3817 32.4976C61.3211 32.411 61.3384 32.3157 61.3687 32.2637C61.4423 32.1555 61.5375 32.1772 61.5419 32.2118Z" fill="#312D1B"/>
<path d="M23.4347 28.1927L8.96643 26.8472L7.62088 41.3154L22.0892 42.661L23.4347 28.1927Z" fill="#FFD049"/>
<path d="M26.6788 36.6161C26.6788 36.694 25.7349 36.7546 24.5745 36.7546C23.4098 36.7546 22.4702 36.694 22.4702 36.6161C22.4702 36.5382 23.4141 36.4775 24.5745 36.4775C25.7392 36.4819 26.6788 36.5425 26.6788 36.6161Z" fill="#312D1B"/>
<path d="M25.1113 35.632C25.1589 35.567 25.804 36.026 26.7393 36.2987L26.9774 36.368L26.7912 36.5325C26.7696 36.5499 26.7479 36.5715 26.7219 36.5932C25.9469 37.2816 25.2758 37.7968 25.2282 37.7362C25.1762 37.6799 25.7651 37.0738 26.5401 36.3853C26.5617 36.3637 26.5877 36.3464 26.6094 36.3247L26.6613 36.5585C25.6698 36.2641 25.0636 35.6796 25.1113 35.632Z" fill="#312D1B"/>
<path d="M25.1286 57.7922C25.1286 57.8096 24.7996 57.8226 24.2021 57.8355C23.5612 57.8485 22.7126 57.8702 21.6821 57.8962C21.1496 57.9048 20.5737 57.9741 19.9372 57.9698C19.3051 57.9568 18.6166 57.8918 17.9325 57.6407C17.2528 57.3982 16.5773 56.9306 16.166 56.2422C15.7417 55.5624 15.5641 54.7484 15.4559 53.9387C15.1225 50.6957 14.8757 47.7688 14.6895 45.6429C14.6073 44.6167 14.5423 43.7681 14.4947 43.1273C14.4557 42.5341 14.4427 42.205 14.46 42.2007C14.4774 42.2007 14.5293 42.5254 14.6029 43.1186C14.6765 43.7551 14.7718 44.6037 14.8887 45.6255C15.1095 47.7861 15.4039 50.6914 15.733 53.9041C15.8369 54.6965 16.0101 55.4758 16.3998 56.1036C16.7765 56.7401 17.3826 57.1688 18.0235 57.4069C18.6643 57.645 19.3267 57.723 19.9459 57.7446C20.5607 57.7619 21.1496 57.7057 21.6821 57.7057C22.7516 57.6927 23.6132 57.7143 24.2064 57.736C24.7996 57.7533 25.1286 57.7749 25.1286 57.7922Z" fill="#312D1B"/>
<path d="M24.1803 59.1746C24.124 59.127 24.6956 58.4126 25.5832 57.7328C25.6178 57.7068 25.6481 57.6852 25.6784 57.6592L25.7001 57.893C24.7389 57.4037 24.1717 56.7499 24.2236 56.7023C24.2756 56.646 24.9034 57.1872 25.8256 57.6462L26.0205 57.7458L25.843 57.88C25.8127 57.9016 25.7823 57.9276 25.7477 57.9536C24.8818 58.6161 24.2366 59.2309 24.1803 59.1746Z" fill="#312D1B"/>
<path d="M15.2389 111.485L1.29663 110.189L-2.65728e-06 124.131L13.9423 125.428L15.2389 111.485Z" fill="#FFD049"/>
<path d="M16.6032 82.3215H2.60071V96.3241H16.6032V82.3215Z" fill="#5B5433"/>
<path d="M17.3132 115.521C17.3002 115.499 17.6856 115.248 18.3481 114.742C19.0105 114.244 19.9241 113.451 20.9113 112.343C21.8855 111.226 22.916 109.771 23.7386 107.992C24.5613 106.216 25.1718 104.116 25.319 101.865C25.4619 99.6134 25.1025 97.4355 24.3058 95.656C23.5265 93.8591 22.2838 92.5342 21.0758 91.6899C19.8635 90.8369 18.6901 90.4776 17.8848 90.3217C17.0708 90.1701 16.6031 90.1918 16.6031 90.1615C16.6031 90.1528 16.7201 90.1442 16.9409 90.1442C17.1617 90.1355 17.4864 90.1572 17.9021 90.2178C18.7291 90.339 19.9328 90.6811 21.1884 91.5297C22.431 92.3653 23.73 93.7206 24.5396 95.5521C25.371 97.3706 25.7433 99.5918 25.5961 101.882C25.4489 104.177 24.8211 106.307 23.9724 108.1C23.1238 109.897 22.063 111.36 21.0628 112.473C20.0497 113.577 19.1058 114.356 18.4173 114.828C18.0839 115.084 17.7982 115.24 17.612 115.357C17.4215 115.469 17.3176 115.525 17.3132 115.521Z" fill="#312D1B"/>
<path d="M20.3617 116.262C20.366 116.34 18.8766 116.483 17.0321 116.587H17.0234L16.8589 116.596L16.8805 116.431C17.1057 114.6 17.3525 113.128 17.4261 113.136C17.4997 113.145 17.3785 114.634 17.1533 116.466L17.0104 116.31H17.0191C18.8592 116.21 20.3574 116.184 20.3617 116.262Z" fill="#312D1B"/>
<path d="M42.5213 78.1556C42.5213 78.2336 37.1264 78.2942 30.4759 78.2942C23.821 78.2942 18.4304 78.2336 18.4304 78.1556C18.4304 78.0777 23.821 78.0171 30.4759 78.0171C37.1264 78.0171 42.5213 78.082 42.5213 78.1556Z" fill="#312D1B"/>
<path d="M41.3482 79.8871C41.2919 79.8395 41.9241 78.9865 42.764 77.982C42.7857 77.9561 42.8073 77.9301 42.829 77.9041L42.8636 78.1076C41.7855 77.4451 40.9628 76.8693 41.0018 76.8087C41.0408 76.7437 41.9284 77.22 43.0108 77.8738L43.1451 77.9561L43.0411 78.0773C43.0195 78.1033 42.9978 78.1292 42.9762 78.1552C42.1362 79.1641 41.4088 79.9348 41.3482 79.8871Z" fill="#312D1B"/>
<path d="M97.7348 141.487C97.7348 141.565 95.4876 141.626 92.7122 141.626C89.9369 141.626 87.6897 141.565 87.6897 141.487C87.6897 141.41 89.9369 141.349 92.7122 141.349C95.4876 141.349 97.7348 141.41 97.7348 141.487Z" fill="#312D1B"/>
<path d="M97.1158 144.03C97.0855 144.021 97.1158 143.744 97.25 143.302C97.3885 142.865 97.631 142.259 98.0727 141.674L98.0597 141.817C98.0207 141.744 97.9774 141.661 97.9384 141.583C97.2327 140.224 96.3494 139.336 96.4014 139.284C96.449 139.219 97.4535 140.055 98.1809 141.454C98.2242 141.536 98.2675 141.618 98.3065 141.692L98.3454 141.765L98.2935 141.835C97.4578 142.952 97.198 144.06 97.1158 144.03Z" fill="#312D1B"/>
<path d="M113.527 135.477L99.8221 136.375L100.72 150.081L114.426 149.183L113.527 135.477Z" fill="#FFD049"/>
<path d="M109.65 140.383C109.624 140.417 109.46 140.249 109.169 140.296C109.031 140.318 108.879 140.417 108.806 140.578C108.728 140.733 108.749 140.954 108.888 141.097C109.022 141.244 109.239 141.279 109.403 141.214C109.568 141.153 109.676 141.006 109.706 140.872C109.771 140.582 109.611 140.404 109.65 140.383C109.654 140.352 109.919 140.491 109.897 140.902C109.88 141.097 109.75 141.335 109.499 141.448C109.256 141.565 108.901 141.522 108.685 141.283C108.464 141.05 108.442 140.695 108.576 140.461C108.706 140.218 108.953 140.106 109.148 140.101C109.559 140.106 109.68 140.378 109.65 140.383Z" fill="white"/>
<path d="M109.954 142.92C109.958 142.925 109.923 142.968 109.845 143.046C109.763 143.115 109.638 143.219 109.451 143.319C109.088 143.509 108.417 143.687 107.667 143.371L107.758 143.358C106.936 144.137 105.879 145.146 104.663 146.302L104.615 146.35L104.55 146.332C104.247 146.259 103.922 146.176 103.585 146.094L103.481 146.068L103.485 145.96C103.498 145.756 103.511 145.54 103.52 145.315L103.524 145.263L103.563 145.228C103.645 145.15 103.736 145.068 103.823 144.981L103.879 144.93L103.953 144.951C104.078 144.986 104.212 145.025 104.351 145.059L104.182 145.207C104.165 145.072 104.143 144.929 104.121 144.782L104.113 144.713L104.165 144.665C104.308 144.531 104.459 144.388 104.615 144.245L104.671 144.193L104.745 144.215C104.953 144.271 105.174 144.336 105.399 144.397L105.225 144.548C105.195 144.328 105.161 144.09 105.126 143.851L105.117 143.782L105.169 143.734C105.213 143.696 105.26 143.648 105.308 143.605C105.438 143.483 105.568 143.362 105.693 143.245L105.749 143.193L105.823 143.215C106.044 143.276 106.26 143.336 106.472 143.397L106.299 143.548C106.265 143.314 106.234 143.081 106.2 142.851L106.191 142.782L106.243 142.734C106.386 142.604 106.524 142.475 106.663 142.345L106.637 142.509C106.286 141.894 106.273 141.141 106.542 140.548C106.806 139.946 107.33 139.517 107.893 139.348C108.456 139.171 109.044 139.249 109.503 139.478C109.967 139.708 110.291 140.089 110.482 140.47C110.854 141.266 110.651 142.011 110.426 142.397C110.187 142.791 109.954 142.92 109.954 142.92C109.932 142.903 110.135 142.743 110.335 142.345C110.525 141.959 110.685 141.258 110.322 140.539C110.14 140.193 109.832 139.851 109.412 139.656C108.997 139.457 108.464 139.396 107.962 139.561C107.464 139.721 107.001 140.106 106.776 140.639C106.546 141.167 106.563 141.829 106.871 142.366L106.923 142.457L106.845 142.531C106.706 142.661 106.568 142.791 106.425 142.925L106.468 142.808C106.503 143.037 106.537 143.271 106.568 143.505L106.598 143.713L106.395 143.657C106.178 143.596 105.962 143.535 105.741 143.475L105.871 143.444C105.745 143.566 105.615 143.683 105.485 143.804C105.438 143.847 105.39 143.895 105.347 143.934L105.39 143.812C105.425 144.051 105.459 144.289 105.49 144.51L105.52 144.717L105.316 144.661C105.091 144.596 104.87 144.535 104.667 144.479L104.797 144.449C104.641 144.592 104.485 144.739 104.347 144.869L104.39 144.752C104.411 144.899 104.433 145.042 104.45 145.176L104.481 145.38L104.282 145.324C104.143 145.285 104.009 145.246 103.883 145.211L104.009 145.181C103.918 145.267 103.827 145.349 103.745 145.423L103.788 145.337C103.775 145.562 103.758 145.782 103.745 145.982L103.649 145.847C103.983 145.934 104.308 146.016 104.611 146.094L104.494 146.125C105.732 144.99 106.81 144.003 107.646 143.241L107.689 143.202L107.737 143.224C108.417 143.535 109.053 143.401 109.412 143.241C109.785 143.068 109.941 142.903 109.954 142.92Z" fill="white"/>
<path d="M109.65 140.383C109.624 140.417 109.46 140.249 109.169 140.296C109.031 140.318 108.879 140.417 108.806 140.578C108.728 140.733 108.749 140.954 108.888 141.097C109.022 141.244 109.239 141.279 109.403 141.214C109.568 141.153 109.676 141.006 109.706 140.872C109.771 140.582 109.611 140.404 109.65 140.383C109.654 140.352 109.919 140.491 109.897 140.902C109.88 141.097 109.75 141.335 109.499 141.448C109.256 141.565 108.901 141.522 108.685 141.283C108.464 141.05 108.442 140.695 108.576 140.461C108.706 140.218 108.953 140.106 109.148 140.101C109.559 140.106 109.68 140.378 109.65 140.383Z" fill="white"/>
<path d="M109.954 142.92C109.958 142.925 109.923 142.968 109.845 143.046C109.763 143.115 109.638 143.219 109.451 143.319C109.088 143.509 108.417 143.687 107.667 143.371L107.758 143.358C106.936 144.137 105.879 145.146 104.663 146.302L104.615 146.35L104.55 146.332C104.247 146.259 103.922 146.176 103.585 146.094L103.481 146.068L103.485 145.96C103.498 145.756 103.511 145.54 103.52 145.315L103.524 145.263L103.563 145.228C103.645 145.15 103.736 145.068 103.823 144.981L103.879 144.93L103.953 144.951C104.078 144.986 104.212 145.025 104.351 145.059L104.182 145.207C104.165 145.072 104.143 144.929 104.121 144.782L104.113 144.713L104.165 144.665C104.308 144.531 104.459 144.388 104.615 144.245L104.671 144.193L104.745 144.215C104.953 144.271 105.174 144.336 105.399 144.397L105.225 144.548C105.195 144.328 105.161 144.09 105.126 143.851L105.117 143.782L105.169 143.734C105.213 143.696 105.26 143.648 105.308 143.605C105.438 143.483 105.568 143.362 105.693 143.245L105.749 143.193L105.823 143.215C106.044 143.276 106.26 143.336 106.472 143.397L106.299 143.548C106.265 143.314 106.234 143.081 106.2 142.851L106.191 142.782L106.243 142.734C106.386 142.604 106.524 142.475 106.663 142.345L106.637 142.509C106.286 141.894 106.273 141.141 106.542 140.548C106.806 139.946 107.33 139.517 107.893 139.348C108.456 139.171 109.044 139.249 109.503 139.478C109.967 139.708 110.291 140.089 110.482 140.47C110.854 141.266 110.651 142.011 110.426 142.397C110.187 142.791 109.954 142.92 109.954 142.92C109.932 142.903 110.135 142.743 110.335 142.345C110.525 141.959 110.685 141.258 110.322 140.539C110.14 140.193 109.832 139.851 109.412 139.656C108.997 139.457 108.464 139.396 107.962 139.561C107.464 139.721 107.001 140.106 106.776 140.639C106.546 141.167 106.563 141.829 106.871 142.366L106.923 142.457L106.845 142.531C106.706 142.661 106.568 142.791 106.425 142.925L106.468 142.808C106.503 143.037 106.537 143.271 106.568 143.505L106.598 143.713L106.395 143.657C106.178 143.596 105.962 143.535 105.741 143.475L105.871 143.444C105.745 143.566 105.615 143.683 105.485 143.804C105.438 143.847 105.39 143.895 105.347 143.934L105.39 143.812C105.425 144.051 105.459 144.289 105.49 144.51L105.52 144.717L105.316 144.661C105.091 144.596 104.87 144.535 104.667 144.479L104.797 144.449C104.641 144.592 104.485 144.739 104.347 144.869L104.39 144.752C104.411 144.899 104.433 145.042 104.45 145.176L104.481 145.38L104.282 145.324C104.143 145.285 104.009 145.246 103.883 145.211L104.009 145.181C103.918 145.267 103.827 145.349 103.745 145.423L103.788 145.337C103.775 145.562 103.758 145.782 103.745 145.982L103.649 145.847C103.983 145.934 104.308 146.016 104.611 146.094L104.494 146.125C105.732 144.99 106.81 144.003 107.646 143.241L107.689 143.202L107.737 143.224C108.417 143.535 109.053 143.401 109.412 143.241C109.785 143.068 109.941 142.903 109.954 142.92Z" fill="white"/>
<path d="M108.473 149.554C108.482 149.554 108.495 149.671 108.512 149.896C108.529 150.147 108.547 150.472 108.573 150.874C108.616 151.727 108.663 152.961 108.702 154.485C108.737 156.009 108.759 157.828 108.746 159.841C108.737 160.85 108.724 161.907 108.698 163.006C108.681 163.552 108.685 164.119 108.573 164.695C108.469 165.262 108.196 165.864 107.685 166.236C107.178 166.609 106.576 166.739 106.014 166.83C105.446 166.907 104.892 166.968 104.347 167.029C103.256 167.141 102.195 167.224 101.186 167.276C99.1682 167.384 97.3497 167.384 95.8256 167.332C94.3015 167.284 93.0675 167.185 92.2189 167.102C91.7946 167.063 91.4655 167.02 91.2447 166.994C91.0239 166.964 90.907 166.946 90.907 166.933C90.907 166.925 91.0282 166.925 91.249 166.938C91.5002 166.951 91.8249 166.972 92.2276 166.998C93.0762 167.05 94.3102 167.115 95.8299 167.141C97.3497 167.167 99.1639 167.146 101.173 167.024C102.177 166.968 103.23 166.877 104.316 166.76C104.858 166.704 105.416 166.639 105.97 166.561C106.516 166.475 107.079 166.345 107.516 166.02C107.958 165.699 108.2 165.18 108.3 164.647C108.408 164.11 108.408 163.552 108.421 163.006C108.443 161.911 108.464 160.854 108.486 159.846C108.512 157.832 108.512 156.018 108.503 154.494C108.486 152.996 108.473 151.771 108.464 150.887C108.46 150.485 108.46 150.16 108.456 149.904C108.456 149.671 108.46 149.554 108.473 149.554Z" fill="#312D1B"/>
<path d="M94.0243 169.933C94.0026 169.964 93.561 169.678 92.8206 169.236C92.0846 168.799 91.0368 168.219 89.8201 167.673L89.6252 167.587L89.7855 167.448C89.8764 167.37 89.9716 167.283 90.0669 167.197C91.132 166.249 92.1105 165.404 92.8249 164.798C93.5394 164.196 93.9983 163.837 94.02 163.867C94.0459 163.898 93.6346 164.305 92.9548 164.945C92.2707 165.586 91.3182 166.452 90.2487 167.4C90.1535 167.487 90.0582 167.569 89.9673 167.651L89.9327 167.426C91.1623 167.981 92.2015 168.595 92.9202 169.08C93.6389 169.565 94.0416 169.907 94.0243 169.933Z" fill="#312D1B"/>
<path d="M83.6933 50.8784C83.6933 50.8784 84.2129 50.7225 85.1697 50.8611C86.0963 51.0169 87.4905 51.5625 88.5686 52.9307C89.0969 53.6061 89.5255 54.4894 89.6381 55.5112C89.69 56.0178 89.6727 56.5461 89.5818 57.083C89.4779 57.6155 89.3004 58.1481 89.0492 58.659C88.5513 59.6852 87.7243 60.6247 86.6462 61.2569C85.5681 61.889 84.2345 62.1445 82.9269 61.9929C81.615 61.8457 80.3853 61.3218 79.4155 60.5425C78.4369 59.7674 77.7442 58.7283 77.3718 57.6502C76.9951 56.572 76.9172 55.455 77.112 54.4548C77.3112 53.4589 77.7831 52.5886 78.3936 51.9781C78.9955 51.3547 79.6882 50.9563 80.329 50.7268C80.9698 50.493 81.5674 50.4194 82.0436 50.4367C82.5242 50.4454 82.8879 50.5407 83.1261 50.6143C83.3642 50.7009 83.4811 50.7528 83.4811 50.7615C83.4725 50.8048 82.9875 50.5363 82.0436 50.545C81.576 50.5493 81.0002 50.6316 80.3853 50.874C79.7705 51.1122 79.108 51.5105 78.5365 52.1167C77.9606 52.7142 77.519 53.5455 77.3372 54.5024C77.1596 55.4593 77.2419 56.5374 77.6099 57.5679C77.978 58.6027 78.6448 59.5899 79.58 60.3346C80.5109 61.0794 81.6973 61.5816 82.9572 61.7202C84.2129 61.8674 85.4858 61.6206 86.512 61.0231C87.5425 60.4256 88.3391 59.5293 88.8241 58.5464C89.0709 58.0572 89.2441 57.5462 89.3437 57.0353C89.4346 56.5244 89.4562 56.0178 89.4129 55.5329C89.3177 54.5587 88.915 53.7101 88.4171 53.0476C87.3953 51.7097 86.0573 51.1468 85.1568 50.965C84.2215 50.7961 83.6933 50.913 83.6933 50.8784Z" fill="#FFD049"/>
<path d="M97.332 43.872C97.3493 43.8763 97.3363 44.0755 97.2714 44.4392C97.2065 44.7986 97.0766 45.3138 96.8384 45.9286C96.3751 47.1496 95.3879 48.7603 93.7643 49.9813C92.1449 51.198 90.3178 51.7002 89.0188 51.8085C88.365 51.8648 87.8325 51.8518 87.4688 51.8128C87.1051 51.7738 86.9059 51.7305 86.9102 51.7132C86.9146 51.6613 87.7199 51.7782 89.0015 51.6136C90.2701 51.4578 92.0324 50.9425 93.6041 49.7605C95.1758 48.5784 96.1586 47.0327 96.6609 45.855C97.1718 44.6687 97.2801 43.859 97.332 43.872Z" fill="#FFD049"/>
<path d="M98.3061 44.781C98.2455 44.8199 97.7779 44.2138 97.254 43.4084L97.4662 43.4301C97.4445 43.4517 97.4229 43.4734 97.4012 43.495C96.7041 44.2138 96.0936 44.755 96.0417 44.703C95.9897 44.6511 96.5093 44.0233 97.2064 43.3045C97.228 43.2829 97.2497 43.2612 97.2713 43.2396L97.3925 43.114L97.4878 43.2612C98.0074 44.0666 98.3711 44.742 98.3061 44.781Z" fill="#FFD049"/>
<path d="M114.297 30.4531L101.376 32.1604L103.083 45.081L116.004 43.3737L114.297 30.4531Z" fill="#5B5433"/>
<path d="M98.9103 29.5782L86.0054 27.7537L84.1808 40.6586L97.0857 42.4832L98.9103 29.5782Z" fill="#FFD049"/>
<path d="M102.242 37.4202C102.242 37.4981 101.242 37.5847 100.003 37.6194C98.7652 37.654 97.7607 37.615 97.7563 37.5414C97.7563 37.4635 98.7565 37.3769 99.9948 37.3423C101.233 37.312 102.242 37.3466 102.242 37.4202Z" fill="#FFD049"/>
<path d="M42.3999 51.9773C42.4042 51.9686 42.5212 51.9946 42.7463 52.0596C42.9671 52.1332 43.2919 52.263 43.6642 52.5142C44.3959 52.9991 45.3528 54.0296 45.6646 55.6316C45.8248 56.4196 45.7685 57.3332 45.4524 58.2295C45.1363 59.1214 44.5605 59.9874 43.7768 60.7061C42.9931 61.4249 41.9972 61.9964 40.8672 62.2778C39.7458 62.5549 38.4988 62.5766 37.3211 62.1912C36.1434 61.8232 35.1259 61.0309 34.524 60.0307C33.9049 59.0392 33.6711 57.8961 33.6884 56.8353C33.7187 55.7702 34.0304 54.77 34.537 53.9647C35.0436 53.1636 35.7061 52.5531 36.3815 52.1245C37.7411 51.2499 39.0746 51.0594 39.9536 51.0377C40.3996 51.0334 40.7416 51.068 40.9711 51.107C41.2006 51.146 41.3218 51.1719 41.3175 51.1806C41.3131 51.2109 40.8282 51.107 39.9536 51.146C39.092 51.1979 37.7887 51.4187 36.4854 52.289C35.836 52.7133 35.2081 53.3152 34.7275 54.0859C34.2513 54.8566 33.9612 55.8178 33.9395 56.8396C33.9265 57.8571 34.156 58.9482 34.7492 59.8878C35.325 60.836 36.2776 61.5764 37.399 61.9315C38.5204 62.2952 39.7155 62.2822 40.7936 62.0181C41.876 61.7539 42.8372 61.2084 43.5949 60.5243C44.3526 59.8358 44.9155 59.0089 45.2273 58.1559C45.539 57.2986 45.604 56.4326 45.4611 55.6706C45.1883 54.1292 44.2877 53.103 43.5906 52.6051C42.8935 52.0855 42.3826 52.0163 42.3999 51.9773Z" fill="#FFD049"/>
<path d="M62.4469 38.7505C62.4555 38.7505 62.4685 38.8457 62.4815 39.0276C62.4902 39.2094 62.5205 39.4779 62.5161 39.8243C62.5291 40.517 62.4685 41.5216 62.2434 42.7426C62.0182 43.9636 61.5896 45.3924 60.8708 46.8688C60.1564 48.3496 59.1303 49.8651 57.7924 51.2159C56.4415 52.5538 54.926 53.58 53.4452 54.2944C51.9645 55.0132 50.5356 55.4418 49.319 55.667C48.098 55.8921 47.0935 55.9527 46.4007 55.9397C46.0543 55.9484 45.7859 55.9138 45.604 55.9051C45.4222 55.8921 45.3269 55.8791 45.3269 55.8705C45.3269 55.8445 45.7079 55.8531 46.3964 55.8315C47.0848 55.8098 48.0763 55.7233 49.28 55.4721C51.6657 54.9958 54.939 53.6709 57.5975 51.0168C60.2517 48.3583 61.5766 45.085 62.0529 42.6993C62.2997 41.4999 62.3906 40.5041 62.4079 39.8156C62.4295 39.1315 62.4209 38.7505 62.4469 38.7505Z" fill="#FFD049"/>
<path d="M64.7547 40.8503C64.6941 40.8936 63.7285 39.6769 62.5638 38.0966L62.7933 38.0836C62.7586 38.1399 62.724 38.2048 62.6894 38.2654C61.6632 40.0493 60.7799 41.4652 60.715 41.4262C60.65 41.3872 61.4251 39.9108 62.4512 38.1269C62.4859 38.0663 62.5248 38.0013 62.5551 37.945L62.6591 37.7632L62.7846 37.932C63.945 39.5211 64.8153 40.807 64.7547 40.8503Z" fill="#FFD049"/>
<path d="M180.247 75.9703C181.359 67.3517 175.275 59.4642 166.659 58.3531C158.042 57.2419 150.157 63.328 149.045 71.9466C147.934 80.5652 154.018 88.4528 162.634 89.5639C171.25 90.675 179.136 84.589 180.247 75.9703Z" fill="#FFD049"/>
<path d="M170.051 80.3029L159.257 80.3159V78.991C159.252 76.0121 161.668 73.5917 164.647 73.5874C167.626 73.5831 170.046 75.9991 170.051 78.978V80.3029Z" fill="white"/>
<path d="M167.816 70.7854C167.821 72.5389 166.401 73.9591 164.647 73.9634C162.894 73.9678 161.473 72.5476 161.469 70.794C161.465 69.0405 162.885 67.6203 164.638 67.616C166.392 67.616 167.812 69.0361 167.816 70.7854Z" fill="white"/>
</svg>
